<svg width="39" height="32" viewBox="0 0 39 32" fill="none" xmlns="http://www.w3.org/2000/svg">
<path d="M4.70487 17.3601C3.67315 16.3284 2.0004 16.3284 0.968682 17.3601C-0.0630389 18.3918 -0.0630386 20.0646 0.968682 21.0963L11.2524 31.38L13.7734 28.859C14.4445 28.1879 14.4445 27.0998 13.7734 26.4286L4.70487 17.3601Z" fill="#FF7700"/>
<path d="M38.0285 4.60428C39.0602 3.57256 39.0602 1.89981 38.0285 0.868089C36.9968 -0.163628 35.324 -0.163629 34.2923 0.868088L10.3808 24.7796C10.3474 24.813 10.3307 24.8297 10.3167 24.844C8.79202 26.3994 8.79206 28.8888 10.3168 30.4442C10.3307 30.4584 10.3474 30.4751 10.3808 30.5085L11.2524 31.38L38.0285 4.60428Z" fill="#FF7700"/>
</svg>
