<svg width="92" height="76" viewBox="0 0 92 76" fill="none" xmlns="http://www.w3.org/2000/svg">
<path d="M20.064 0C25.6577 0 30.4001 2.18881 34.2913 6.56643C38.1825 10.7008 40.1281 16.4161 40.1281 23.7121C40.1281 34.4129 38.4257 43.0465 35.0209 49.6129C31.8593 56.1793 28.3329 61.4082 24.4417 65.2994C20.064 69.677 14.9568 72.9602 9.12002 75.149L5.47201 69.3122C9.60642 67.3666 13.2544 65.0562 16.416 62.3809C19.0912 60.1921 21.5232 57.3953 23.7121 53.9905C26.1441 50.5857 27.3601 46.5729 27.3601 41.9521C27.3601 40.9793 27.2385 40.2497 26.9953 39.7633C26.7521 39.0337 26.5089 38.4257 26.2657 37.9393L25.5361 36.4801C25.0497 36.9665 24.3201 37.3313 23.3472 37.5745C21.4016 38.0609 19.6992 38.3041 18.24 38.3041C12.6464 38.3041 8.14722 36.7233 4.74241 33.5617C1.5808 30.1569 0 25.6577 0 20.0641C0 14.4704 1.9456 9.72803 5.83681 5.83683C9.72802 1.94561 14.4704 0 20.064 0ZM71.1362 0C76.7298 0 81.4722 2.18881 85.3634 6.56643C89.2546 10.7008 91.2002 16.4161 91.2002 23.7121C91.2002 34.4129 89.4978 43.0465 86.093 49.6129C82.9314 56.1793 79.405 61.4082 75.5138 65.2994C71.1362 69.677 66.0289 72.9602 60.1921 75.149L56.5441 69.3122C60.6785 67.3666 64.3265 65.0562 67.4881 62.3809C70.1634 60.1921 72.5954 57.3953 74.7842 53.9905C77.2162 50.5857 78.4322 46.5729 78.4322 41.9521C78.4322 40.9793 78.3106 40.2497 78.0674 39.7633C77.8242 39.0337 77.581 38.4257 77.3378 37.9393L76.6082 36.4801C76.1218 36.9665 75.3922 37.3313 74.4194 37.5745C72.4738 38.0609 70.7714 38.3041 69.3121 38.3041C63.7185 38.3041 59.2193 36.7233 55.8145 33.5617C52.6529 30.1569 51.0721 25.6577 51.0721 20.0641C51.0721 14.4704 53.0177 9.72803 56.9089 5.83683C60.8001 1.94561 65.5425 0 71.1362 0Z" fill="url(#paint0_linear)"/>
<defs>
<linearGradient id="paint0_linear" x1="91.2002" y1="-2.23961e-06" x2="18.5585" y2="94.3986" gradientUnits="userSpaceOnUse">
<stop stop-color="#E5EAEA"/>
<stop offset="1" stop-color="#F4F5F5" stop-opacity="0.32"/>
</linearGradient>
</defs>
</svg>
