<svg width="60" height="60" viewBox="0 0 60 60" fill="none" xmlns="http://www.w3.org/2000/svg">
<circle opacity="0.5" cx="30" cy="30" r="29" stroke="#0A9DDC" stroke-width="2"/>
<path d="M44.552 13.4393C45.1378 12.8536 46.0876 12.8536 46.6734 13.4393C47.2591 14.0251 47.2591 14.9749 46.6734 15.5607L15.5607 46.6734C14.9749 47.2591 14.0251 47.2591 13.4393 46.6734C12.8536 46.0876 12.8536 45.1378 13.4393 44.552L44.552 13.4393Z" fill="white"/>
<path d="M46.6734 44.552C47.2592 45.1378 47.2592 46.0876 46.6734 46.6734C46.0876 47.2591 45.1378 47.2591 44.5521 46.6734L13.4394 15.5607C12.8536 14.9749 12.8536 14.0251 13.4394 13.4393C14.0251 12.8536 14.9749 12.8536 15.5607 13.4393L46.6734 44.552Z" fill="white"/>
</svg>
