<svg width="41" height="40" viewBox="0 0 41 40" fill="none" xmlns="http://www.w3.org/2000/svg">
<g filter="url(#filter0_di)">
<rect x="7.15625" y="12.1211" width="21" height="16" transform="rotate(-30 7.15625 12.1211)" fill="white"/>
</g>
<rect x="8.52228" y="14.4871" width="19" height="14" transform="rotate(-30 8.52228 14.4871)" stroke="#FF7700" stroke-width="2"/>
<rect x="9.12109" y="9.52344" width="3" height="7" transform="rotate(-30 9.12109 9.52344)" fill="#FF7700"/>
<rect x="13.6211" y="17.3164" width="3" height="2" transform="rotate(-30 13.6211 17.3164)" fill="#FF7700"/>
<rect x="22.2812" y="12.3164" width="3" height="2" transform="rotate(-30 22.2812 12.3164)" fill="#FF7700"/>
<rect x="17.9512" y="14.8164" width="3" height="2" transform="rotate(-30 17.9512 14.8164)" fill="#FF7700"/>
<rect x="15.6211" y="20.7812" width="3" height="2" transform="rotate(-30 15.6211 20.7812)" fill="#FF7700"/>
<rect x="19.9512" y="18.2812" width="3" height="2" transform="rotate(-30 19.9512 18.2812)" fill="#FF7700"/>
<rect x="17.7812" y="4.52344" width="3" height="7" transform="rotate(-30 17.7812 4.52344)" fill="#FF7700"/>
<defs>
<filter id="filter0_di" x="0.15625" y="0.621094" width="40.1865" height="39.3564" filterUnits="userSpaceOnUse" color-interpolation-filters="sRGB">
<feFlood flood-opacity="0" result="BackgroundImageFix"/>
<feColorMatrix in="SourceAlpha" type="matrix" values="0 0 0 0 0 0 0 0 0 0 0 0 0 0 0 0 0 0 127 0"/>
<feOffset dy="7"/>
<feGaussianBlur stdDeviation="3.5"/>
<feColorMatrix type="matrix" values="0 0 0 0 0 0 0 0 0 0 0 0 0 0 0 0 0 0 0.2 0"/>
<feBlend mode="normal" in2="BackgroundImageFix" result="effect1_dropShadow"/>
<feBlend mode="normal" in="SourceGraphic" in2="effect1_dropShadow" result="shape"/>
<feColorMatrix in="SourceAlpha" type="matrix" values="0 0 0 0 0 0 0 0 0 0 0 0 0 0 0 0 0 0 127 0" result="hardAlpha"/>
<feOffset dy="-1"/>
<feGaussianBlur stdDeviation="0.5"/>
<feComposite in2="hardAlpha" operator="arithmetic" k2="-1" k3="1"/>
<feColorMatrix type="matrix" values="0 0 0 0 0.433333 0 0 0 0 0.83 0 0 0 0 1 0 0 0 1 0"/>
<feBlend mode="normal" in2="shape" result="effect2_innerShadow"/>
</filter>
</defs>
</svg>
