<svg width="65" height="65" viewBox="0 0 65 65" fill="none" xmlns="http://www.w3.org/2000/svg">
<g clip-path="url(#clip0)">
<path d="M7.72754 11.1524C22.6041 -6.16027 50.1893 -2.74413 60.4977 17.4807C53.2374 17.4847 41.8729 17.4767 35.7167 17.4807C31.2525 17.4807 28.3684 17.3807 25.2483 19.0248C21.5801 20.9568 18.808 24.537 17.844 28.7452L7.72754 11.1524Z" fill="#F44336"/>
<path d="M21.3564 32.0037C21.3564 37.872 26.1286 42.6442 31.9929 42.6442C37.8571 42.6442 42.6293 37.872 42.6293 32.0037C42.6293 26.1355 37.8571 21.3633 31.9929 21.3633C26.1246 21.3593 21.3564 26.1355 21.3564 32.0037Z" fill="#2196F3"/>
<path d="M36.1167 45.9325C30.1484 47.7046 23.1601 45.7405 19.336 39.1323C16.4159 34.0921 8.69555 20.6475 5.1914 14.5312C-7.0971 33.364 3.49133 59.0251 25.7962 63.4053L36.1167 45.9325Z" fill="#4CAF50"/>
<path d="M41.8686 21.3595C46.8408 25.9837 47.9248 33.472 44.5567 39.2762C42.0206 43.6524 33.9203 57.3209 29.9961 63.9372C52.977 65.3533 69.7297 42.8323 62.1614 21.3555L41.8686 21.3595Z" fill="#FFC107"/>
</g>
<defs>
<clipPath id="clip0">
<rect width="64.003" height="64.003" fill="white"/>
</clipPath>
</defs>
</svg>
