<svg width="28" height="28" viewBox="0 0 28 28" fill="none" xmlns="http://www.w3.org/2000/svg">
<path d="M27.5 14C27.5 21.4558 21.4558 27.5 14 27.5C6.54416 27.5 0.5 21.4558 0.5 14C0.5 6.54416 6.54416 0.5 14 0.5C21.4558 0.5 27.5 6.54416 27.5 14Z" fill="white" stroke="#0A9DDC"/>
<path d="M13.54 17.458V16.9834C13.54 16.2979 13.6455 15.7354 13.8564 15.2959C14.0674 14.8506 14.46 14.3818 15.0342 13.8896C15.8311 13.2158 16.332 12.709 16.5371 12.3691C16.748 12.0293 16.8535 11.6191 16.8535 11.1387C16.8535 10.541 16.6602 10.0811 16.2734 9.75879C15.8926 9.43066 15.3418 9.2666 14.6211 9.2666C14.1582 9.2666 13.707 9.32227 13.2676 9.43359C12.8281 9.53906 12.3242 9.73535 11.7559 10.0225L11.2373 8.83594C12.3447 8.25586 13.502 7.96582 14.709 7.96582C15.8281 7.96582 16.6982 8.24121 17.3193 8.79199C17.9404 9.34277 18.251 10.1191 18.251 11.1211C18.251 11.5488 18.1924 11.9268 18.0752 12.2549C17.9639 12.5771 17.7969 12.8848 17.5742 13.1777C17.3516 13.4648 16.8711 13.9307 16.1328 14.5752C15.541 15.0791 15.1484 15.498 14.9551 15.832C14.7676 16.166 14.6738 16.6113 14.6738 17.168V17.458H13.54ZM13.1094 20.0684C13.1094 19.2715 13.4609 18.873 14.1641 18.873C14.5039 18.873 14.7646 18.9756 14.9463 19.1807C15.1338 19.3857 15.2275 19.6816 15.2275 20.0684C15.2275 20.4434 15.1338 20.7363 14.9463 20.9473C14.7588 21.1523 14.498 21.2549 14.1641 21.2549C13.8594 21.2549 13.6074 21.1641 13.4082 20.9824C13.209 20.7949 13.1094 20.4902 13.1094 20.0684Z" fill="#0A9DDC"/>
</svg>
