<svg width="50" height="50" viewBox="0 0 50 50" fill="none" xmlns="http://www.w3.org/2000/svg">
<path d="M11 17.8C11 15.5433 11.0008 13.9109 11.1057 12.627C11.2096 11.3549 11.4108 10.5132 11.763 9.82207C12.4341 8.50493 13.5049 7.43407 14.8221 6.76295C15.5132 6.41078 16.3549 6.20961 17.627 6.10567C18.9109 6.00078 20.5433 6 22.8 6H30.2C32.4567 6 34.0891 6.00078 35.373 6.10567C36.6451 6.20961 37.4868 6.41078 38.1779 6.76295C39.4951 7.43407 40.5659 8.50493 41.237 9.82207C41.5892 10.5132 41.7904 11.3549 41.8943 12.627C41.9992 13.9109 42 15.5433 42 17.8V18.2C42 20.4567 41.9992 22.0891 41.8943 23.373C41.7904 24.6451 41.5892 25.4868 41.237 26.1779C40.5659 27.4951 39.4951 28.5659 38.1779 29.237C37.4868 29.5892 36.6451 29.7904 35.373 29.8943C34.0891 29.9992 32.4567 30 30.2 30H22.8C20.5433 30 18.9109 29.9992 17.627 29.8943C16.3549 29.7904 15.5132 29.5892 14.8221 29.237C13.5049 28.5659 12.4341 27.4951 11.763 26.1779C11.4108 25.4868 11.2096 24.6451 11.1057 23.373C11.0008 22.0891 11 20.4567 11 18.2V17.8Z" stroke="#0A9DDC" stroke-width="2"/>
<g filter="url(#filter0_di)">
<path d="M21.6408 13.5653C21.6408 11.5213 21.6408 10.4993 22.0634 9.95714C22.4312 9.48526 22.991 9.20285 23.5891 9.18739C24.2763 9.16964 25.0983 9.77692 26.7423 10.9915L32.4228 15.1883C33.6025 16.0598 34.1924 16.4956 34.4027 17.0317C34.5868 17.5012 34.5868 18.0229 34.4027 18.4923C34.1924 19.0284 33.6025 19.4642 32.4228 20.3358L26.7423 24.5326C25.0983 25.7471 24.2763 26.3544 23.5891 26.3367C22.991 26.3212 22.4312 26.0388 22.0634 25.5669C21.6408 25.0248 21.6408 24.0028 21.6408 21.9588L21.6408 13.5653Z" fill="#FF0000"/>
</g>
<defs>
<filter id="filter0_di" x="0.236328" y="0.222656" width="49.0775" height="49.0775" filterUnits="userSpaceOnUse" color-interpolation-filters="sRGB">
<feFlood flood-opacity="0" result="BackgroundImageFix"/>
<feColorMatrix in="SourceAlpha" type="matrix" values="0 0 0 0 0 0 0 0 0 0 0 0 0 0 0 0 0 0 127 0"/>
<feOffset dy="7"/>
<feGaussianBlur stdDeviation="7"/>
<feColorMatrix type="matrix" values="0 0 0 0 0.845833 0 0 0 0 0.449341 0 0 0 0 0.0563889 0 0 0 0.4 0"/>
<feBlend mode="normal" in2="BackgroundImageFix" result="effect1_dropShadow"/>
<feBlend mode="normal" in="SourceGraphic" in2="effect1_dropShadow" result="shape"/>
<feColorMatrix in="SourceAlpha" type="matrix" values="0 0 0 0 0 0 0 0 0 0 0 0 0 0 0 0 0 0 127 0" result="hardAlpha"/>
<feOffset dy="2"/>
<feGaussianBlur stdDeviation="12"/>
<feComposite in2="hardAlpha" operator="arithmetic" k2="-1" k3="1"/>
<feColorMatrix type="matrix" values="0 0 0 0 1 0 0 0 0 0.807333 0 0 0 0 0.433333 0 0 0 0.6 0"/>
<feBlend mode="normal" in2="shape" result="effect2_innerShadow"/>
</filter>
</defs>
</svg>
