<svg width="128" height="128" viewBox="0 0 128 128" fill="none" xmlns="http://www.w3.org/2000/svg">
<circle opacity="0.1" cx="64" cy="64" r="64" fill="#3C3C3C"/>
<path d="M35.7058 47.9734C34.6741 46.9417 33.0014 46.9417 31.9697 47.9734C30.9379 49.0051 30.9379 50.6779 31.9697 51.7096L42.2534 61.9933L44.7744 59.4723C45.4455 58.8011 45.4455 57.713 44.7744 57.0419L35.7058 47.9734Z" fill="#FF7700"/>
<path d="M69.0294 35.2176C70.0612 34.1858 70.0612 32.5131 69.0295 31.4814C67.9977 30.4497 66.325 30.4497 65.2933 31.4814L41.3817 55.3929C41.3483 55.4263 41.3316 55.443 41.3176 55.4573C39.793 57.0127 39.793 59.5021 41.3177 61.0574C41.3317 61.0717 41.3484 61.0884 41.3818 61.1218L42.2534 61.9933L69.0294 35.2176Z" fill="#FF7700"/>
</svg>
