<svg width="73" height="43" viewBox="0 0 73 43" fill="none" xmlns="http://www.w3.org/2000/svg">
<path d="M72.9883 21.8047C72.9883 25.4766 72.1484 28.8945 70.4688 32.0586C68.8281 35.2227 66.5039 37.7227 63.4961 39.5586C60.4883 41.3945 57.168 42.3125 53.5352 42.3125C47.0117 42.3125 41.3477 39.4414 36.543 33.6992C34.082 36.3164 31.4453 38.3477 28.6328 39.793C25.8594 41.2383 23.125 41.9609 20.4297 41.9609C14.6094 41.9609 9.86328 40.0859 6.19141 36.3359C2.55859 32.5469 0.742188 27.5469 0.742188 21.3359C0.742188 15.3984 2.59766 10.4961 6.30859 6.62891C10.0195 2.76172 14.7266 0.828125 20.4297 0.828125C27.3047 0.828125 32.832 3.66016 37.0117 9.32422C39.3164 6.74609 41.7773 4.73438 44.3945 3.28906C47.0508 1.80469 50.0977 1.0625 53.5352 1.0625C59.3555 1.0625 64.043 2.95703 67.5977 6.74609C71.1914 10.5352 72.9883 15.5547 72.9883 21.8047ZM21.1328 27.1953C23.6328 27.1953 26.0742 25.2422 28.457 21.3359C25.9961 17.4297 23.5156 15.4766 21.0156 15.4766C19.3359 15.4766 17.9883 16.043 16.9727 17.1758C15.9961 18.3086 15.5078 19.7344 15.5078 21.4531C15.5078 23.2109 16.0352 24.6172 17.0898 25.6719C18.1445 26.6875 19.4922 27.1953 21.1328 27.1953ZM52.7148 15.8281C50.2539 15.8281 47.6953 17.7422 45.0391 21.5703C46.25 23.3281 47.5391 24.793 48.9062 25.9648C50.3125 27.1367 51.6211 27.7227 52.832 27.7227C54.4727 27.7227 55.7812 27.1172 56.7578 25.9062C57.7344 24.6953 58.2227 23.25 58.2227 21.5703C58.2227 19.9297 57.7148 18.5625 56.6992 17.4688C55.6836 16.375 54.3555 15.8281 52.7148 15.8281Z" fill="#0A9DDC"/>
</svg>
