<svg width="24" height="24" viewBox="0 0 24 24" fill="none" xmlns="http://www.w3.org/2000/svg">
<circle cx="12" cy="12" r="11" stroke="#0A9DDC" stroke-width="2"/>
<path d="M11.0728 13.748V13.2793C11.0728 12.7422 11.1704 12.2954 11.3657 11.939C11.561 11.5825 11.9028 11.2139 12.3911 10.833C12.9722 10.374 13.3457 10.0176 13.5117 9.76367C13.6826 9.50977 13.7681 9.20703 13.7681 8.85547C13.7681 8.44531 13.6313 8.13037 13.3579 7.91064C13.0845 7.69092 12.6914 7.58105 12.1787 7.58105C11.7148 7.58105 11.2852 7.64697 10.8896 7.77881C10.4941 7.91064 10.1084 8.06934 9.73242 8.25488L9.11719 6.96582C10.1084 6.41406 11.1704 6.13818 12.3032 6.13818C13.2603 6.13818 14.0195 6.37256 14.5811 6.84131C15.1426 7.31006 15.4233 7.95703 15.4233 8.78223C15.4233 9.14844 15.3696 9.47559 15.2622 9.76367C15.1548 10.0469 14.9912 10.3179 14.7715 10.5767C14.5566 10.8354 14.1831 11.1724 13.6509 11.5874C13.1968 11.9438 12.8916 12.2393 12.7354 12.4736C12.584 12.708 12.5083 13.0229 12.5083 13.4185V13.748H11.0728ZM10.7725 16.0845C10.7725 15.3472 11.1313 14.9785 11.8491 14.9785C12.2007 14.9785 12.4692 15.0762 12.6548 15.2715C12.8403 15.4619 12.9331 15.7329 12.9331 16.0845C12.9331 16.4312 12.8379 16.707 12.6475 16.9121C12.4619 17.1123 12.1958 17.2124 11.8491 17.2124C11.5024 17.2124 11.2363 17.1147 11.0508 16.9194C10.8652 16.7192 10.7725 16.4409 10.7725 16.0845Z" fill="#FF7700"/>
</svg>
