<svg width="40" height="41" viewBox="0 0 40 41" fill="none" xmlns="http://www.w3.org/2000/svg">
<circle cx="20" cy="20.0039" r="19" fill="white" stroke="#FF7700" stroke-width="2"/>
<path d="M24.552 13.4432C25.1378 12.8575 26.0876 12.8575 26.6734 13.4432C27.2591 14.029 27.2591 14.9788 26.6734 15.5646L15.5607 26.6773C14.9749 27.2631 14.0251 27.2631 13.4393 26.6773C12.8536 26.0915 12.8536 25.1417 13.4393 24.5559L24.552 13.4432Z" fill="#3C3C3C"/>
<path d="M26.6734 24.556C27.2592 25.1417 27.2592 26.0915 26.6734 26.6773C26.0876 27.2631 25.1378 27.2631 24.5521 26.6773L13.4394 15.5646C12.8536 14.9788 12.8536 14.029 13.4394 13.4432C14.0251 12.8575 14.9749 12.8575 15.5607 13.4432L26.6734 24.556Z" fill="#3C3C3C"/>
</svg>
