<svg id="Слой_1" data-name="Слой 1" xmlns="http://www.w3.org/2000/svg" xmlns:xlink="http://www.w3.org/1999/xlink" viewBox="0 0 266.5 50"><defs><style>.cls-1{fill:#fff;}.cls-2{fill:#dc7d43;}.cls-3{fill:url(#Безымянный_градиент_4);}.cls-4{fill:url(#Безымянный_градиент_2);}.cls-5{fill:url(#Безымянный_градиент_3);}.cls-6{fill:#211c1d;}.cls-7{fill:#b4c7ce;}</style><linearGradient id="Безымянный_градиент_4" x1="49" y1="914.711" x2="49" y2="930.285" gradientTransform="matrix(1, 0, 0, -1, 0, 944.252)" gradientUnits="userSpaceOnUse"><stop offset="0" stop-color="#c6e4f4"/><stop offset="1" stop-color="#4699cd"/></linearGradient><linearGradient id="Безымянный_градиент_2" x1="49.028" y1="916.544" x2="49.028" y2="929.675" gradientTransform="matrix(1, 0, 0, -1, 0, 944.252)" gradientUnits="userSpaceOnUse"><stop offset="0" stop-color="#f6eb46"/><stop offset="1" stop-color="#de8444"/></linearGradient><linearGradient id="Безымянный_градиент_3" x1="49.009" y1="909.216" x2="49.009" y2="924.178" gradientTransform="matrix(1, 0, 0, -1, 0, 944.252)" gradientUnits="userSpaceOnUse"><stop offset="0" stop-color="#cfd74e"/><stop offset="1" stop-color="#50905e"/></linearGradient></defs><title>На сайт</title><path class="cls-1" d="M23.578,4.092A8,8,0,0,1,30.555,0H262.5a4,4,0,0,1,3.488,5.954L242.822,45.908A8,8,0,0,1,235.845,50H4A4,4,0,0,1,.516,44.046Z"/><path class="cls-2" d="M171.191,20.411,175.8,31.834h-1.892l-1.2-3.061h-5.122l-1.2,3.061H164.5l4.614-11.423Zm-1.015,1.508h-.046c-.093.32-.231.685-.323,1.005-.047.091-.6,1.553-1.754,4.478H172.3c-1.107-2.878-1.707-4.386-1.753-4.478a.608.608,0,0,0-.046-.229A3.531,3.531,0,0,1,170.176,21.919Z"/><path class="cls-2" d="M184.157,25.986l-1.753.32a2.214,2.214,0,0,0-2.077-1.553q-2.422.137-2.492,3.016c.047,1.919.877,2.924,2.492,2.97a2.007,2.007,0,0,0,2.123-1.873l1.8.229a3.578,3.578,0,0,1-4.014,2.97c-2.723-.091-4.153-1.508-4.245-4.249.092-2.878,1.476-4.341,4.245-4.386A3.734,3.734,0,0,1,184.157,25.986Z"/><path class="cls-2" d="M193.34,31.788h-1.615a3.2,3.2,0,0,1-.462-1.417,3.994,3.994,0,0,1-3.6,1.6c-1.707-.091-2.63-.822-2.722-2.285,0-1.508,1.015-2.376,3.091-2.6,1.8-.274,2.861-.548,3.138-.914.092-1.142-.6-1.691-2.03-1.6-1.292,0-2.077.5-2.307,1.508l-1.615-.274c.415-1.691,1.707-2.513,3.922-2.467q3.876-.137,3.737,3.29v3.381A4.248,4.248,0,0,0,193.34,31.788Zm-2.031-3.473V27.265a4.619,4.619,0,0,1-2.491.822c-1.523.183-2.215.685-2.215,1.554-.046.822.554,1.188,1.753,1.188C190.2,30.692,191.171,29.869,191.309,28.316Z"/><path class="cls-2" d="M200.261,20h1.754V31.788h-1.754V30.509a2.846,2.846,0,0,1-2.814,1.508c-2.215-.137-3.369-1.508-3.415-4.112.046-2.97,1.246-4.478,3.645-4.523a2.756,2.756,0,0,1,2.584,1.6Zm.047,7.9v-.822a2.408,2.408,0,0,0-2.262-2.376c-1.522.091-2.261,1.1-2.307,3.061.046,1.965.785,2.97,2.307,3.016C199.523,30.737,200.261,29.778,200.308,27.9Z"/><path class="cls-2" d="M209.9,29.275l1.8.274c-.6,1.645-1.984,2.467-4.107,2.467-2.768-.091-4.245-1.508-4.337-4.2.092-2.879,1.522-4.341,4.153-4.478,2.768.046,4.2,1.508,4.245,4.478v.457h-6.645a2.434,2.434,0,0,0,2.584,2.559A2.171,2.171,0,0,0,209.9,29.275Zm-4.891-2.193h4.938a2.328,2.328,0,0,0-2.4-2.513A2.436,2.436,0,0,0,205.014,27.082Z"/><path class="cls-2" d="M225.317,31.788h-1.753V26.9c.046-1.508-.508-2.285-1.707-2.239-1.2.091-1.846.822-1.892,2.285v4.8h-1.754V26.854c.046-1.508-.507-2.193-1.707-2.193-1.2.046-1.846.822-1.892,2.33v4.752H212.9V23.564h1.707v1.462a3.058,3.058,0,0,1,2.723-1.691,2.3,2.3,0,0,1,2.491,1.782,2.892,2.892,0,0,1,2.769-1.782q2.769,0,2.769,3.29v5.163Z"/><path class="cls-2" d="M229.655,31.514l-3.507-7.9h1.846l2.076,5.529.323,1.051h.046l.323-1.051,1.892-5.529H234.5c-1.984,4.8-3.184,7.676-3.6,8.59-.692,2.01-1.661,2.924-2.815,2.787a3.22,3.22,0,0,1-1.523-.274l-.092-1.234a3.173,3.173,0,0,0,1.061.228,1.516,1.516,0,0,0,1.523-1.005A9.079,9.079,0,0,0,229.655,31.514Z"/><path class="cls-3" d="M64.247,15.017H56.322a3.409,3.409,0,0,0-3.036,2.41L49,32.575,44.723,17.427a3.4,3.4,0,0,0-3.02-2.41h-7.94a1.745,1.745,0,0,0-1.666,2.41l4.282,15.148a3.4,3.4,0,0,0,3.036,2.41h7.925A1.656,1.656,0,0,0,49,33.836a1.656,1.656,0,0,0,1.666,1.149H58.6a3.373,3.373,0,0,0,3.02-2.41L65.9,17.427A1.731,1.731,0,0,0,64.247,15.017Z"/><path class="cls-4" d="M45.7,15.016a2.727,2.727,0,0,0-1.868.942,3.133,3.133,0,0,1,.887,1.453L49,32.558,53.286,17.41a3.045,3.045,0,0,1,.934-1.484A2.676,2.676,0,0,0,52.492,15H45.7Z"/><path class="cls-5" d="M60.307,32.59,55.123,17.442a3.282,3.282,0,0,0-.887-1.5,3.037,3.037,0,0,0-.934,1.485L49,32.574v.016L44.723,17.442a3.213,3.213,0,0,0-.9-1.468,3.245,3.245,0,0,0-.919,1.468L37.717,32.59A1.767,1.767,0,0,0,39.507,35h7.831A1.644,1.644,0,0,0,49,33.867,1.644,1.644,0,0,0,50.67,35H58.5A1.779,1.779,0,0,0,60.307,32.59Z"/><path class="cls-6" d="M88.56,18.1,85.292,29.567,82.368,19.26c-.109-.4-.127-.613-.672-.613H80.679c-.527,0-.563.21-.672.613L77.066,29.567,73.816,18.1,72,18.542l3.741,12.7c.109.385.182.613.708.613h1.035c.527,0,.6-.228.708-.613l2.978-10.29,3,10.29c.109.4.163.613.708.613h1.035c.545,0,.6-.21.708-.613l3.722-12.7Zm8.68,4.5a5.136,5.136,0,0,0-2.615-.49,7.212,7.212,0,0,0-2.6.333c-1.562.7-1.87,2.538-1.87,4.025v1.138c0,1.487.291,3.15,1.652,3.85a6.235,6.235,0,0,0,2.724.507,21.982,21.982,0,0,0,3.377-.263l-.127-1.3a24.508,24.508,0,0,1-2.942.21,4.336,4.336,0,0,1-2.27-.507,3.359,3.359,0,0,1-.69-2.468H97.4c.853,0,1.235-.4,1.235-.927v-1C98.656,23.95,97.966,23,97.24,22.6Zm-.309,3.727H91.883a3.223,3.223,0,0,1,.726-2.485,3.228,3.228,0,0,1,1.961-.437,2.8,2.8,0,0,1,1.707.385,2.711,2.711,0,0,1,.654,2.153ZM106.5,22.5a7.255,7.255,0,0,0-2.8-.385,17.913,17.913,0,0,0-2.216.21V18H99.763V29.567c0,2.048,1.78,2.433,4.159,2.433,2.905,0,4.321-.665,4.321-4.76v-.91C108.261,24.843,108.08,23.18,106.5,22.5Zm.018,4.865c0,2.8-.436,3.343-2.415,3.343a4.462,4.462,0,0,1-1.979-.3,1.423,1.423,0,0,1-.636-1.417V23.7a12.3,12.3,0,0,1,2.288-.227c2.2,0,2.724.385,2.724,2.73v1.155Zm7.263,3.255a3.689,3.689,0,0,1-2.106-.42,3.229,3.229,0,0,1-.69-2.468V26.347a3.158,3.158,0,0,1,.69-2.468,3.805,3.805,0,0,1,2.106-.42,16.248,16.248,0,0,1,2.506.21s.127-1.26.127-1.3a21.617,21.617,0,0,0-2.941-.263,6.066,6.066,0,0,0-2.561.455c-1.38.7-1.706,2.415-1.706,3.9v1.12c0,1.487.326,3.2,1.706,3.9a6.066,6.066,0,0,0,2.561.455,21.968,21.968,0,0,0,3.141-.263l-.127-1.3A17.036,17.036,0,0,1,113.781,30.618Zm10.423-8.19a10.27,10.27,0,0,0-5.048,0c-1.562.7-1.743,2.555-1.743,4.042v1.138c0,1.487.163,3.378,1.743,4.042a10.27,10.27,0,0,0,5.048,0c1.562-.7,1.743-2.555,1.743-4.042V26.47C125.947,24.983,125.766,23.128,124.2,22.427Zm0,5.32c0,1.155-.036,2.048-.563,2.52a3.356,3.356,0,0,1-1.961.42,3.2,3.2,0,0,1-1.961-.42c-.508-.472-.545-1.365-.545-2.52v-1.4c0-1.155.018-2.048.545-2.52a4.788,4.788,0,0,1,3.922,0c.508.472.563,1.365.563,2.52Zm13.164-5.635a17.368,17.368,0,0,0-3.667.525,4.6,4.6,0,0,0-2.452-.525,21.85,21.85,0,0,0-3.377.333.913.913,0,0,0-.835.962V31.86h1.725v-8.1a12.087,12.087,0,0,1,2.2-.28c1.67,0,2.2.56,2.2,2.047V31.86h1.725V25.385a4.157,4.157,0,0,0-.273-1.61,12.953,12.953,0,0,1,2.47-.315c1.652,0,2.2.56,2.2,2.048v6.335H141V25.385C140.982,22.62,139.42,22.112,137.368,22.112Z"/><path class="cls-7" d="M159,13,145,37h1.5l14-24Z"/></svg>