<svg width="273" height="50" viewBox="0 0 273 50" fill="none" xmlns="http://www.w3.org/2000/svg">
<path d="M22.8795 4.093C23.5736 2.85273 24.5857 1.81988 25.8117 1.10082C27.0377 0.381755 28.4332 0.00246333 29.8545 0.002L268.995 0C272.05 0 273.977 3.288 272.483 5.954L250.12 45.907C249.426 47.1475 248.414 48.1805 247.187 48.8995C245.961 49.6186 244.565 49.9978 243.143 49.998L4.00347 50C0.948468 50 -0.976532 46.712 0.515468 44.046L22.8785 4.093H22.8795Z" fill="white"/>
<path d="M167.946 31.9996C167.818 31.9996 167.754 31.9356 167.754 31.8076L167.786 31.6636L171.866 20.3836C171.898 20.2876 171.94 20.2236 171.994 20.1916C172.059 20.1453 172.138 20.1227 172.218 20.1276H173.834C174.036 20.1276 174.17 20.2176 174.234 20.3996L178.282 31.6796C178.292 31.7006 178.298 31.7386 178.298 31.7916C178.298 31.9306 178.239 31.9996 178.122 31.9996H176.602C176.463 31.9996 176.372 31.9356 176.33 31.8076L175.306 28.9596C175.291 28.9187 175.27 28.8808 175.242 28.8476C175.22 28.8266 175.178 28.8156 175.114 28.8156H170.682C170.586 28.8156 170.522 28.8586 170.49 28.9436L169.45 31.8396C169.418 31.9466 169.327 31.9996 169.178 31.9996H167.946ZM174.618 27.3116C174.692 27.3116 174.735 27.2956 174.746 27.2636C174.767 27.2206 174.767 27.1626 174.746 27.0876L173.018 22.2876C172.986 22.2126 172.948 22.1756 172.906 22.1756C172.863 22.1756 172.826 22.2186 172.794 22.3036L171.018 27.1036L171.002 27.1996C171.002 27.2746 171.05 27.3116 171.146 27.3116H174.618ZM184.029 23.3596C184.861 23.3596 185.565 23.5566 186.141 23.9516C186.707 24.334 187.155 24.8657 187.437 25.4876C187.459 25.5323 187.47 25.5817 187.469 25.6316C187.469 25.6956 187.421 25.7386 187.325 25.7596L186.189 25.9516H186.141C186.077 25.9516 186.024 25.9086 185.981 25.8236C185.683 25.3866 185.395 25.0666 185.117 24.8636C184.84 24.6506 184.504 24.5436 184.109 24.5436C183.363 24.5436 182.771 24.8266 182.333 25.3916C181.896 25.9566 181.677 26.7466 181.677 27.7596C181.677 28.7836 181.901 29.5786 182.349 30.1436C182.797 30.7086 183.405 30.9916 184.173 30.9916C184.653 30.9916 185.064 30.8686 185.405 30.6236C185.757 30.3786 186.083 30.0106 186.381 29.5196C186.404 29.4839 186.438 29.4561 186.477 29.4396C186.509 29.4296 186.552 29.4346 186.605 29.4556L187.453 29.7116C187.549 29.7436 187.571 29.8236 187.517 29.9516C187.216 30.584 186.759 31.1292 186.189 31.5356C185.613 31.9516 184.893 32.1596 184.029 32.1596C183.24 32.1596 182.536 31.9786 181.917 31.6156C181.298 31.2419 180.794 30.7049 180.461 30.0636C180.12 29.4026 179.949 28.6446 179.949 27.7916C179.949 26.9386 180.125 26.1756 180.477 25.5036C180.807 24.8556 181.311 24.3126 181.933 23.9356C182.552 23.5516 183.251 23.3596 184.029 23.3596ZM194.284 31.0396C193.505 31.7866 192.593 32.1596 191.548 32.1596C190.727 32.1596 190.076 31.9516 189.596 31.5356C189.127 31.1086 188.892 30.5436 188.892 29.8396C188.892 28.9756 189.265 28.2876 190.012 27.7756C190.769 27.2636 191.841 26.9756 193.228 26.9116L194.268 26.8316C194.439 26.8106 194.524 26.7306 194.524 26.5916V26.1916C194.524 25.6686 194.364 25.2586 194.044 24.9596C193.724 24.6496 193.287 24.4956 192.732 24.4956C191.857 24.4956 191.159 24.8906 190.636 25.6796C190.613 25.7333 190.574 25.7782 190.524 25.8076C190.492 25.8176 190.439 25.8126 190.364 25.7916L189.276 25.4716C189.212 25.4506 189.18 25.4076 189.18 25.3436C189.18 25.3006 189.196 25.2426 189.228 25.1676C189.527 24.5908 190.004 24.1253 190.588 23.8396C191.207 23.5196 191.948 23.3596 192.812 23.3596C193.932 23.3596 194.769 23.5996 195.324 24.0796C195.879 24.5596 196.156 25.2266 196.156 26.0796V31.7276C196.156 31.8346 196.135 31.9086 196.092 31.9516C196.06 31.9836 196.001 31.9996 195.916 31.9996H194.844C194.695 31.9996 194.609 31.8926 194.588 31.6796L194.556 31.0716C194.535 30.9866 194.503 30.9436 194.46 30.9436C194.428 30.9436 194.369 30.9756 194.284 31.0396ZM194.524 28.0156C194.524 27.8456 194.449 27.7656 194.3 27.7756L193.436 27.8396C192.551 27.8926 191.847 28.0746 191.324 28.3836C190.812 28.6826 190.556 29.0986 190.556 29.6316C190.556 30.0476 190.705 30.3786 191.004 30.6236C191.303 30.8586 191.703 30.9756 192.204 30.9756C192.78 30.9756 193.324 30.7786 193.836 30.3836C194.295 30.0106 194.524 29.6366 194.524 29.2636V28.0156ZM204.568 31.9996C204.397 31.9996 204.312 31.9146 204.312 31.7436V31.1356C204.312 31.0396 204.285 30.9916 204.232 30.9916C204.2 30.9916 204.157 31.0186 204.104 31.0716C203.784 31.3816 203.437 31.6416 203.064 31.8556C202.691 32.0586 202.216 32.1596 201.64 32.1596C200.968 32.1596 200.365 31.9996 199.832 31.6796C199.309 31.3496 198.899 30.8636 198.6 30.2236C198.301 29.5736 198.152 28.7886 198.152 27.8716C198.152 26.9866 198.307 26.2016 198.616 25.5196C198.936 24.8366 199.373 24.3096 199.928 23.9356C200.483 23.5547 201.142 23.3536 201.816 23.3596C202.275 23.3596 202.68 23.4346 203.032 23.5836C203.384 23.7336 203.715 23.9406 204.024 24.2076C204.077 24.2606 204.131 24.2876 204.184 24.2876C204.248 24.2876 204.28 24.2236 204.28 24.0956V20.3676C204.28 20.2076 204.349 20.1276 204.488 20.1276H205.768C205.832 20.1276 205.88 20.1486 205.912 20.1916C205.934 20.2151 205.951 20.2428 205.962 20.273C205.973 20.3033 205.978 20.3355 205.976 20.3676V31.7276C205.976 31.8236 205.949 31.8926 205.896 31.9356C205.853 31.9786 205.779 31.9996 205.672 31.9996H204.568ZM204.28 25.5036C203.96 25.1736 203.645 24.9276 203.336 24.7676C203.019 24.6058 202.668 24.5234 202.312 24.5276C201.587 24.5276 201 24.8106 200.552 25.3756C200.104 25.9406 199.88 26.7566 199.88 27.8236C199.88 28.8906 200.099 29.6906 200.536 30.2236C200.973 30.7466 201.539 31.0076 202.232 31.0076C202.605 31.0076 202.947 30.9226 203.256 30.7516C203.565 30.5706 203.811 30.3466 203.992 30.0796C204.184 29.8026 204.28 29.5246 204.28 29.2476V25.5036ZM209.825 28.3516C209.825 28.8316 209.937 29.2686 210.161 29.6636C210.396 30.0476 210.71 30.3566 211.105 30.5916C211.5 30.8156 211.932 30.9276 212.401 30.9276C212.892 30.9276 213.329 30.8266 213.713 30.6236C214.097 30.4206 214.449 30.1066 214.769 29.6796C214.801 29.6366 214.838 29.6156 214.881 29.6156C214.934 29.6156 214.977 29.6256 215.009 29.6476L215.825 30.0316C215.878 30.0636 215.905 30.1066 215.905 30.1596C215.9 30.2057 215.883 30.2497 215.857 30.2876C215.409 30.9486 214.897 31.4286 214.321 31.7276C213.745 32.0156 213.046 32.1596 212.225 32.1596C211.425 32.1596 210.71 31.9786 210.081 31.6156C209.457 31.258 208.946 30.731 208.609 30.0956C208.257 29.4346 208.081 28.6876 208.081 27.8556C208.081 26.9596 208.262 26.1706 208.625 25.4876C208.988 24.8046 209.478 24.2826 210.097 23.9196C210.731 23.5449 211.456 23.3512 212.193 23.3596C212.982 23.3596 213.676 23.5356 214.273 23.8876C214.87 24.2286 215.329 24.7306 215.649 25.3916C215.98 26.0526 216.145 26.8366 216.145 27.7436V27.8076C216.145 27.9036 216.129 27.9776 216.097 28.0316C216.076 28.0746 216.012 28.0956 215.905 28.0956H209.985C209.878 28.0956 209.825 28.1806 209.825 28.3516ZM214.193 27.0876C214.3 27.0876 214.369 27.0716 214.401 27.0396C214.444 27.0076 214.465 26.9496 214.465 26.8636C214.467 26.4583 214.374 26.0582 214.193 25.6956C214.027 25.3386 213.76 25.0382 213.425 24.8316C213.094 24.6076 212.7 24.4956 212.241 24.4956C211.761 24.4956 211.34 24.6186 210.977 24.8636C210.614 25.0986 210.332 25.4136 210.129 25.8076C209.935 26.1999 209.841 26.6342 209.857 27.0716L214.193 27.0876ZM218.418 31.9996C218.247 31.9996 218.162 31.9146 218.162 31.7436V23.7596C218.162 23.5996 218.231 23.5196 218.37 23.5196H219.618C219.746 23.5196 219.81 23.5896 219.81 23.7276V24.6076C219.81 24.6716 219.826 24.7086 219.858 24.7196C219.89 24.7296 219.927 24.7096 219.97 24.6556C220.503 24.2076 220.978 23.8826 221.394 23.6796C221.82 23.4666 222.279 23.3596 222.77 23.3596C223.356 23.3596 223.842 23.4926 224.226 23.7596C224.61 24.0266 224.882 24.3726 225.042 24.7996C225.063 24.8316 225.084 24.8476 225.106 24.8476C225.148 24.8476 225.196 24.8206 225.25 24.7676C225.751 24.3086 226.231 23.9626 226.69 23.7276C227.132 23.4865 227.627 23.3599 228.13 23.3596C228.898 23.3596 229.495 23.5836 229.922 24.0316C230.359 24.4686 230.578 25.0716 230.578 25.8396V31.7116C230.578 31.9036 230.482 31.9996 230.29 31.9996H229.106C229.02 31.9996 228.962 31.9836 228.93 31.9516C228.898 31.9086 228.882 31.8396 228.882 31.7436V26.1436C228.882 25.6636 228.764 25.2956 228.53 25.0396C228.295 24.7726 227.943 24.6396 227.474 24.6396C226.834 24.6396 226.151 24.9756 225.426 25.6476C225.359 25.7114 225.304 25.7874 225.266 25.8716C225.232 25.9468 225.215 26.029 225.218 26.1116V31.7116C225.218 31.9036 225.122 31.9996 224.93 31.9996H223.762C223.602 31.9996 223.522 31.9146 223.522 31.7436V26.1436C223.522 25.6636 223.404 25.2956 223.17 25.0396C222.946 24.7726 222.594 24.6396 222.114 24.6396C221.73 24.6396 221.372 24.7356 221.042 24.9276C220.711 25.1086 220.316 25.4126 219.858 25.8396V31.7276C219.858 31.8236 219.831 31.8926 219.778 31.9356C219.735 31.9786 219.66 31.9996 219.554 31.9996H218.418ZM233.62 34.6396C233.257 34.6396 233.001 34.6236 232.852 34.5916C232.713 34.5706 232.644 34.5066 232.644 34.3996V33.5836C232.644 33.4336 232.793 33.3596 233.092 33.3596H234.132C234.367 33.3596 234.585 33.2796 234.788 33.1196C235.001 32.9596 235.167 32.7566 235.284 32.5116C235.401 32.2666 235.46 32.0266 235.46 31.7916C235.463 31.6711 235.442 31.5512 235.396 31.4396L232.34 23.8236C232.327 23.7878 232.321 23.7496 232.324 23.7116C232.324 23.5836 232.399 23.5196 232.548 23.5196H233.86C233.924 23.5196 233.983 23.5406 234.036 23.5836C234.062 23.5989 234.084 23.6198 234.1 23.6447C234.117 23.6696 234.128 23.6979 234.132 23.7276L236.34 29.4876C236.372 29.5836 236.409 29.6316 236.452 29.6316C236.516 29.6316 236.569 29.5676 236.612 29.4396L238.788 23.7116C238.841 23.5836 238.927 23.5196 239.044 23.5196H239.988C240.063 23.5196 240.116 23.5516 240.148 23.6156C240.191 23.6686 240.196 23.7276 240.164 23.7916L236.724 32.5116C236.5 33.0876 236.249 33.5246 235.972 33.8236C235.711 34.1221 235.374 34.3434 234.996 34.4636C234.633 34.5806 234.175 34.6396 233.62 34.6396Z" fill="#FF7700"/>
<path fill-rule="evenodd" clip-rule="evenodd" d="M64.246 15.0176H56.322C55.03 15.0176 53.675 16.0876 53.286 17.4276L49.004 32.5756L44.723 17.4276C44.349 16.1026 42.995 15.0176 41.703 15.0176H33.763C32.47 15.0176 31.723 16.1026 32.096 17.4276L36.378 32.5756C36.751 33.9006 38.106 34.9856 39.414 34.9856H47.338C48.179 34.9856 48.786 34.5226 49.004 33.8356C49.222 34.5226 49.83 34.9856 50.67 34.9856H58.595C59.887 34.9856 61.242 33.9156 61.615 32.5756L65.897 17.4276C66.287 16.1026 65.539 15.0176 64.247 15.0176H64.246Z" fill="url(#paint0_linear)"/>
<path fill-rule="evenodd" clip-rule="evenodd" d="M45.702 15.016C45.064 15.016 44.348 15.399 43.834 15.958C44.254 16.357 44.581 16.868 44.721 17.41L49.003 32.558L53.285 17.41C53.455 16.82 53.752 16.34 54.219 15.926C53.705 15.415 53.098 15 52.491 15H45.702V15.016Z" fill="url(#paint1_linear)"/>
<path fill-rule="evenodd" clip-rule="evenodd" d="M60.3064 32.5894L55.1224 17.4414C54.9664 16.8994 54.6704 16.3404 54.2344 15.9414C53.7839 16.3335 53.4591 16.8497 53.3004 17.4254L49.0034 32.5734V32.5894L44.7214 17.4414C44.5597 16.879 44.2474 16.3714 43.8184 15.9734C43.3824 16.3724 43.0564 16.8994 42.9004 17.4414L37.7154 32.5894C37.3114 33.9144 38.1204 34.9994 39.5054 34.9994H47.3374C48.1774 34.9994 48.7854 34.5524 49.0034 33.8664C49.2214 34.5524 49.8284 34.9994 50.6694 34.9994H58.4994C59.9004 34.9834 60.6944 33.9144 60.3054 32.5894H60.3064Z" fill="url(#paint2_linear)"/>
<path d="M88.615 18.105L85.335 29.567L82.402 19.26C82.293 18.858 82.275 18.647 81.728 18.647H80.708C80.18 18.647 80.143 18.857 80.034 19.26L77.083 29.567L73.822 18.105L72 18.543L75.753 31.247C75.863 31.633 75.935 31.86 76.463 31.86H77.502C78.03 31.86 78.102 31.633 78.212 31.247L81.2 20.957L84.206 31.247C84.316 31.65 84.37 31.86 84.916 31.86H85.955C86.501 31.86 86.555 31.65 86.665 31.247L90.4 18.543L88.615 18.105ZM97.323 22.602C96.503 22.165 95.719 22.112 94.699 22.112C93.916 22.112 92.823 22.13 92.094 22.445C90.527 23.145 90.218 24.983 90.218 26.47V27.608C90.218 29.095 90.509 30.758 91.875 31.458C92.641 31.843 93.642 31.965 94.608 31.965C95.665 31.965 97.158 31.86 97.996 31.703L97.869 30.407C96.721 30.565 95.483 30.617 94.918 30.617C94.389 30.617 93.188 30.547 92.641 30.11C92.131 29.69 91.966 28.762 91.948 27.642H97.486C98.343 27.642 98.726 27.24 98.726 26.715V25.718C98.743 23.95 98.051 23.005 97.323 22.602ZM97.013 26.33H91.948C91.948 25.14 92.148 24.318 92.677 23.845C93.169 23.407 94.153 23.407 94.644 23.407C95.282 23.407 95.938 23.46 96.357 23.793C96.812 24.177 97.013 24.878 97.013 25.945V26.33ZM106.614 22.498C105.721 22.112 104.61 22.112 103.808 22.112C103.334 22.112 102.387 22.2 101.585 22.322V18H99.855V29.567C99.855 31.615 101.64 32 104.027 32C106.941 32 108.362 31.335 108.362 27.24V26.33C108.381 24.843 108.198 23.18 106.614 22.498ZM106.632 27.362C106.632 30.162 106.195 30.705 104.209 30.705C103.334 30.705 102.624 30.635 102.223 30.408C101.731 30.128 101.585 29.672 101.585 28.99V23.705C102.387 23.53 103.407 23.478 103.881 23.478C106.085 23.478 106.614 23.862 106.614 26.208V27.363H106.632V27.362ZM113.919 30.618C113.39 30.618 112.261 30.618 111.806 30.198C111.277 29.725 111.113 28.885 111.113 27.73V26.347C111.113 25.192 111.259 24.352 111.806 23.88C112.261 23.478 113.372 23.46 113.919 23.46C114.484 23.46 115.285 23.495 116.433 23.67C116.433 23.67 116.56 22.41 116.56 22.375C115.722 22.235 114.392 22.113 113.609 22.113C112.862 22.113 111.806 22.183 111.04 22.567C109.656 23.267 109.328 24.983 109.328 26.47V27.59C109.328 29.078 109.656 30.793 111.04 31.492C111.806 31.878 112.862 31.948 113.609 31.948C114.392 31.948 115.904 31.843 116.761 31.685L116.633 30.39C115.736 30.5375 114.828 30.6134 113.919 30.617V30.618ZM124.376 22.428C123.647 22.112 122.627 22.112 121.843 22.112C121.06 22.112 120.04 22.112 119.311 22.428C117.744 23.128 117.562 24.983 117.562 26.47V27.608C117.562 29.095 117.726 30.985 119.311 31.65C120.022 31.965 121.06 31.965 121.843 31.965C122.627 31.965 123.647 31.965 124.376 31.65C125.942 30.95 126.125 29.095 126.125 27.608V26.47C126.125 24.983 125.942 23.128 124.376 22.427V22.428ZM124.376 27.748C124.376 28.902 124.339 29.795 123.811 30.268C123.356 30.688 122.372 30.67 121.843 30.688C121.297 30.688 120.331 30.688 119.876 30.268C119.366 29.795 119.329 28.902 119.329 27.748V26.348C119.329 25.193 119.348 24.3 119.876 23.828C120.331 23.425 121.315 23.408 121.843 23.408C122.372 23.408 123.356 23.425 123.811 23.828C124.321 24.3 124.376 25.192 124.376 26.348V27.748ZM137.583 22.112C136.181 22.112 134.468 22.498 133.904 22.638C133.266 22.235 132.41 22.112 131.444 22.112C130.296 22.112 128.839 22.305 128.056 22.445C127.801 22.497 127.218 22.637 127.218 23.407V31.86H128.948V23.758C129.568 23.635 130.424 23.478 131.153 23.478C132.829 23.478 133.357 24.038 133.357 25.525V31.86H135.088V25.385C135.088 24.737 134.997 24.212 134.814 23.775C135.507 23.635 136.436 23.46 137.292 23.46C138.95 23.46 139.496 24.02 139.496 25.507V31.842H141.227V25.385C141.209 22.62 139.642 22.112 137.583 22.112ZM144.834 21.727V21.762C144.834 21.78 144.816 21.78 144.798 21.78C144.78 21.78 144.743 21.797 144.707 21.797H144.397C144.361 21.797 144.324 21.78 144.306 21.78C144.288 21.78 144.269 21.762 144.251 21.745C144.233 21.727 144.233 21.71 144.215 21.675L144.105 21.343C144.081 21.2397 144.024 21.1473 143.942 21.08C143.887 21.028 143.796 21.01 143.668 21.01H143.523V21.71C143.523 21.745 143.504 21.762 143.468 21.78C143.431 21.797 143.359 21.797 143.249 21.797C143.14 21.797 143.067 21.797 143.031 21.78C142.994 21.762 142.976 21.745 142.976 21.71V19.925C142.976 19.855 142.994 19.802 143.031 19.75C143.067 19.698 143.14 19.68 143.213 19.68H143.832C143.978 19.68 144.105 19.698 144.215 19.715C144.324 19.733 144.415 19.767 144.506 19.82C144.579 19.872 144.652 19.925 144.688 20.012C144.725 20.082 144.743 20.17 144.743 20.275C144.743 20.433 144.688 20.555 144.597 20.642C144.49 20.7409 144.358 20.8077 144.215 20.835C144.303 20.8642 144.384 20.9119 144.452 20.975C144.525 21.045 144.597 21.132 144.652 21.255L144.78 21.57C144.816 21.657 144.834 21.692 144.834 21.727ZM144.16 20.327C144.16 20.292 144.16 20.257 144.142 20.222C144.128 20.1906 144.109 20.1614 144.087 20.135C144.071 20.1177 144.051 20.104 144.029 20.0949C144.007 20.0858 143.984 20.0814 143.96 20.082C143.905 20.065 143.85 20.065 143.778 20.065H143.523V20.66H143.759C143.905 20.66 144.014 20.625 144.069 20.573C144.124 20.485 144.16 20.415 144.16 20.328V20.327Z" fill="#231F20"/>
<path d="M143.794 22.8659C142.574 22.8659 141.59 21.9209 141.59 20.7489C141.59 19.5759 142.574 18.6309 143.794 18.6309C145.015 18.6309 145.999 19.5759 145.999 20.7479C145.999 21.9209 145.015 22.8659 143.794 22.8659ZM143.794 19.0859C142.847 19.0859 142.064 19.8379 142.064 20.7479C142.064 21.6579 142.847 22.4109 143.794 22.4109C144.742 22.4109 145.525 21.6579 145.525 20.7479C145.525 19.8379 144.76 19.0859 143.794 19.0859Z" fill="#212121"/>
<path d="M162 13L150 37H152L164 13H162Z" fill="#B6CAD1"/>
<defs>
<linearGradient id="paint0_linear" x1="41.413" y1="29.5406" x2="41.413" y2="13.9666" gradientUnits="userSpaceOnUse">
<stop stop-color="#C6E9FA"/>
<stop offset="1" stop-color="#00A0E3"/>
</linearGradient>
<linearGradient id="paint1_linear" x1="42.618" y1="27.707" x2="42.618" y2="14.576" gradientUnits="userSpaceOnUse">
<stop stop-color="#FFF100"/>
<stop offset="1" stop-color="#F48120"/>
</linearGradient>
<linearGradient id="paint2_linear" x1="41.7104" y1="35.0354" x2="41.7104" y2="20.0734" gradientUnits="userSpaceOnUse">
<stop stop-color="#D6DE23"/>
<stop offset="1" stop-color="#00974A"/>
</linearGradient>
</defs>
</svg>
