<svg width="273" height="50" viewBox="0 0 273 50" fill="none" xmlns="http://www.w3.org/2000/svg">
<path d="M167.946 32C167.818 32 167.754 31.936 167.754 31.808L167.786 31.664L171.866 20.384C171.898 20.288 171.94 20.224 171.994 20.192C172.059 20.1457 172.138 20.1231 172.218 20.128H173.834C174.036 20.128 174.17 20.218 174.234 20.4L178.282 31.68C178.292 31.701 178.298 31.739 178.298 31.792C178.298 31.931 178.239 32 178.122 32H176.602C176.463 32 176.372 31.936 176.33 31.808L175.306 28.96C175.291 28.9191 175.27 28.8812 175.242 28.848C175.22 28.827 175.178 28.816 175.114 28.816H170.682C170.586 28.816 170.522 28.859 170.49 28.944L169.45 31.84C169.418 31.947 169.327 32 169.178 32H167.946ZM174.618 27.312C174.692 27.312 174.735 27.296 174.746 27.264C174.767 27.221 174.767 27.163 174.746 27.088L173.018 22.288C172.986 22.213 172.948 22.176 172.906 22.176C172.863 22.176 172.826 22.219 172.794 22.304L171.018 27.104L171.002 27.2C171.002 27.275 171.05 27.312 171.146 27.312H174.618ZM184.029 23.36C184.861 23.36 185.565 23.557 186.141 23.952C186.707 24.3344 187.155 24.8661 187.437 25.488C187.459 25.5327 187.47 25.5821 187.469 25.632C187.469 25.696 187.421 25.739 187.325 25.76L186.189 25.952H186.141C186.077 25.952 186.024 25.909 185.981 25.824C185.683 25.387 185.395 25.067 185.117 24.864C184.84 24.651 184.504 24.544 184.109 24.544C183.363 24.544 182.771 24.827 182.333 25.392C181.896 25.957 181.677 26.747 181.677 27.76C181.677 28.784 181.901 29.579 182.349 30.144C182.797 30.709 183.405 30.992 184.173 30.992C184.653 30.992 185.064 30.869 185.405 30.624C185.757 30.379 186.083 30.011 186.381 29.52C186.404 29.4843 186.438 29.4565 186.477 29.44C186.509 29.43 186.552 29.435 186.605 29.456L187.453 29.712C187.549 29.744 187.571 29.824 187.517 29.952C187.216 30.5844 186.759 31.1296 186.189 31.536C185.613 31.952 184.893 32.16 184.029 32.16C183.24 32.16 182.536 31.979 181.917 31.616C181.298 31.2423 180.794 30.7053 180.461 30.064C180.12 29.403 179.949 28.645 179.949 27.792C179.949 26.939 180.125 26.176 180.477 25.504C180.807 24.856 181.311 24.313 181.933 23.936C182.552 23.552 183.251 23.36 184.029 23.36ZM194.284 31.04C193.505 31.787 192.593 32.16 191.548 32.16C190.727 32.16 190.076 31.952 189.596 31.536C189.127 31.109 188.892 30.544 188.892 29.84C188.892 28.976 189.265 28.288 190.012 27.776C190.769 27.264 191.841 26.976 193.228 26.912L194.268 26.832C194.439 26.811 194.524 26.731 194.524 26.592V26.192C194.524 25.669 194.364 25.259 194.044 24.96C193.724 24.65 193.287 24.496 192.732 24.496C191.857 24.496 191.159 24.891 190.636 25.68C190.613 25.7337 190.574 25.7786 190.524 25.808C190.492 25.818 190.439 25.813 190.364 25.792L189.276 25.472C189.212 25.451 189.18 25.408 189.18 25.344C189.18 25.301 189.196 25.243 189.228 25.168C189.527 24.5912 190.004 24.1257 190.588 23.84C191.207 23.52 191.948 23.36 192.812 23.36C193.932 23.36 194.769 23.6 195.324 24.08C195.879 24.56 196.156 25.227 196.156 26.08V31.728C196.156 31.835 196.135 31.909 196.092 31.952C196.06 31.984 196.001 32 195.916 32H194.844C194.695 32 194.609 31.893 194.588 31.68L194.556 31.072C194.535 30.987 194.503 30.944 194.46 30.944C194.428 30.944 194.369 30.976 194.284 31.04ZM194.524 28.016C194.524 27.846 194.449 27.766 194.3 27.776L193.436 27.84C192.551 27.893 191.847 28.075 191.324 28.384C190.812 28.683 190.556 29.099 190.556 29.632C190.556 30.048 190.705 30.379 191.004 30.624C191.303 30.859 191.703 30.976 192.204 30.976C192.78 30.976 193.324 30.779 193.836 30.384C194.295 30.011 194.524 29.637 194.524 29.264V28.016ZM204.568 32C204.397 32 204.312 31.915 204.312 31.744V31.136C204.312 31.04 204.285 30.992 204.232 30.992C204.2 30.992 204.157 31.019 204.104 31.072C203.784 31.382 203.437 31.642 203.064 31.856C202.691 32.059 202.216 32.16 201.64 32.16C200.968 32.16 200.365 32 199.832 31.68C199.309 31.35 198.899 30.864 198.6 30.224C198.301 29.574 198.152 28.789 198.152 27.872C198.152 26.987 198.307 26.202 198.616 25.52C198.936 24.837 199.373 24.31 199.928 23.936C200.483 23.5551 201.142 23.354 201.816 23.36C202.275 23.36 202.68 23.435 203.032 23.584C203.384 23.734 203.715 23.941 204.024 24.208C204.077 24.261 204.131 24.288 204.184 24.288C204.248 24.288 204.28 24.224 204.28 24.096V20.368C204.28 20.208 204.349 20.128 204.488 20.128H205.768C205.832 20.128 205.88 20.149 205.912 20.192C205.934 20.2155 205.951 20.2432 205.962 20.2734C205.973 20.3037 205.978 20.3359 205.976 20.368V31.728C205.976 31.824 205.949 31.893 205.896 31.936C205.853 31.979 205.779 32 205.672 32H204.568ZM204.28 25.504C203.96 25.174 203.645 24.928 203.336 24.768C203.019 24.6062 202.668 24.5238 202.312 24.528C201.587 24.528 201 24.811 200.552 25.376C200.104 25.941 199.88 26.757 199.88 27.824C199.88 28.891 200.099 29.691 200.536 30.224C200.973 30.747 201.539 31.008 202.232 31.008C202.605 31.008 202.947 30.923 203.256 30.752C203.565 30.571 203.811 30.347 203.992 30.08C204.184 29.803 204.28 29.525 204.28 29.248V25.504ZM209.825 28.352C209.825 28.832 209.937 29.269 210.161 29.664C210.396 30.048 210.71 30.357 211.105 30.592C211.5 30.816 211.932 30.928 212.401 30.928C212.892 30.928 213.329 30.827 213.713 30.624C214.097 30.421 214.449 30.107 214.769 29.68C214.801 29.637 214.838 29.616 214.881 29.616C214.934 29.616 214.977 29.626 215.009 29.648L215.825 30.032C215.878 30.064 215.905 30.107 215.905 30.16C215.9 30.206 215.883 30.2501 215.857 30.288C215.409 30.949 214.897 31.429 214.321 31.728C213.745 32.016 213.046 32.16 212.225 32.16C211.425 32.16 210.71 31.979 210.081 31.616C209.457 31.2584 208.946 30.7314 208.609 30.096C208.257 29.435 208.081 28.688 208.081 27.856C208.081 26.96 208.262 26.171 208.625 25.488C208.988 24.805 209.478 24.283 210.097 23.92C210.731 23.5452 211.456 23.3516 212.193 23.36C212.982 23.36 213.676 23.536 214.273 23.888C214.87 24.229 215.329 24.731 215.649 25.392C215.98 26.053 216.145 26.837 216.145 27.744V27.808C216.145 27.904 216.129 27.978 216.097 28.032C216.076 28.075 216.012 28.096 215.905 28.096H209.985C209.878 28.096 209.825 28.181 209.825 28.352ZM214.193 27.088C214.3 27.088 214.369 27.072 214.401 27.04C214.444 27.008 214.465 26.95 214.465 26.864C214.467 26.4587 214.374 26.0586 214.193 25.696C214.027 25.339 213.76 25.0386 213.425 24.832C213.094 24.608 212.7 24.496 212.241 24.496C211.761 24.496 211.34 24.619 210.977 24.864C210.614 25.099 210.332 25.414 210.129 25.808C209.935 26.2003 209.841 26.6346 209.857 27.072L214.193 27.088ZM218.418 32C218.247 32 218.162 31.915 218.162 31.744V23.76C218.162 23.6 218.231 23.52 218.37 23.52H219.618C219.746 23.52 219.81 23.59 219.81 23.728V24.608C219.81 24.672 219.826 24.709 219.858 24.72C219.89 24.73 219.927 24.71 219.97 24.656C220.503 24.208 220.978 23.883 221.394 23.68C221.82 23.467 222.279 23.36 222.77 23.36C223.356 23.36 223.842 23.493 224.226 23.76C224.61 24.027 224.882 24.373 225.042 24.8C225.063 24.832 225.084 24.848 225.106 24.848C225.148 24.848 225.196 24.821 225.25 24.768C225.751 24.309 226.231 23.963 226.69 23.728C227.132 23.4869 227.627 23.3603 228.13 23.36C228.898 23.36 229.495 23.584 229.922 24.032C230.359 24.469 230.578 25.072 230.578 25.84V31.712C230.578 31.904 230.482 32 230.29 32H229.106C229.02 32 228.962 31.984 228.93 31.952C228.898 31.909 228.882 31.84 228.882 31.744V26.144C228.882 25.664 228.764 25.296 228.53 25.04C228.295 24.773 227.943 24.64 227.474 24.64C226.834 24.64 226.151 24.976 225.426 25.648C225.359 25.7118 225.304 25.7878 225.266 25.872C225.232 25.9472 225.215 26.0294 225.218 26.112V31.712C225.218 31.904 225.122 32 224.93 32H223.762C223.602 32 223.522 31.915 223.522 31.744V26.144C223.522 25.664 223.404 25.296 223.17 25.04C222.946 24.773 222.594 24.64 222.114 24.64C221.73 24.64 221.372 24.736 221.042 24.928C220.711 25.109 220.316 25.413 219.858 25.84V31.728C219.858 31.824 219.831 31.893 219.778 31.936C219.735 31.979 219.66 32 219.554 32H218.418ZM233.62 34.64C233.257 34.64 233.001 34.624 232.852 34.592C232.713 34.571 232.644 34.507 232.644 34.4V33.584C232.644 33.434 232.793 33.36 233.092 33.36H234.132C234.367 33.36 234.585 33.28 234.788 33.12C235.001 32.96 235.167 32.757 235.284 32.512C235.401 32.267 235.46 32.027 235.46 31.792C235.463 31.6715 235.442 31.5515 235.396 31.44L232.34 23.824C232.327 23.7882 232.321 23.75 232.324 23.712C232.324 23.584 232.399 23.52 232.548 23.52H233.86C233.924 23.52 233.983 23.541 234.036 23.584C234.062 23.5993 234.084 23.6202 234.1 23.6451C234.117 23.67 234.128 23.6983 234.132 23.728L236.34 29.488C236.372 29.584 236.409 29.632 236.452 29.632C236.516 29.632 236.569 29.568 236.612 29.44L238.788 23.712C238.841 23.584 238.927 23.52 239.044 23.52H239.988C240.063 23.52 240.116 23.552 240.148 23.616C240.191 23.669 240.196 23.728 240.164 23.792L236.724 32.512C236.5 33.088 236.249 33.525 235.972 33.824C235.711 34.1225 235.374 34.3438 234.996 34.464C234.633 34.581 234.175 34.64 233.62 34.64Z" fill="#FF7700"/>
<path fill-rule="evenodd" clip-rule="evenodd" d="M64.245 15.017H56.321C55.029 15.017 53.674 16.087 53.285 17.427L49.003 32.575L44.722 17.427C44.348 16.102 42.994 15.017 41.702 15.017H33.762C32.469 15.017 31.722 16.102 32.095 17.427L36.377 32.575C36.75 33.9 38.105 34.985 39.413 34.985H47.337C48.178 34.985 48.785 34.522 49.003 33.835C49.221 34.522 49.829 34.985 50.669 34.985H58.594C59.886 34.985 61.241 33.915 61.614 32.575L65.896 17.427C66.286 16.102 65.538 15.017 64.246 15.017H64.245Z" fill="url(#paint0_linear)"/>
<path fill-rule="evenodd" clip-rule="evenodd" d="M45.702 15.016C45.064 15.016 44.348 15.399 43.834 15.958C44.254 16.357 44.581 16.868 44.721 17.41L49.003 32.558L53.285 17.41C53.455 16.82 53.752 16.34 54.219 15.926C53.705 15.415 53.098 15 52.491 15H45.702V15.016Z" fill="url(#paint1_linear)"/>
<path fill-rule="evenodd" clip-rule="evenodd" d="M60.3064 32.59L55.1224 17.442C54.9664 16.9 54.6704 16.341 54.2344 15.942C53.7839 16.3341 53.4591 16.8503 53.3004 17.426L49.0034 32.574V32.59L44.7214 17.442C44.5597 16.8796 44.2474 16.372 43.8184 15.974C43.3824 16.373 43.0564 16.9 42.9004 17.442L37.7154 32.59C37.3114 33.915 38.1204 35 39.5054 35H47.3374C48.1774 35 48.7854 34.553 49.0034 33.867C49.2214 34.553 49.8284 35 50.6694 35H58.4994C59.9004 34.984 60.6944 33.915 60.3054 32.59H60.3064Z" fill="url(#paint2_linear)"/>
<path d="M88.614 18.105L85.334 29.567L82.401 19.26C82.292 18.858 82.274 18.647 81.727 18.647H80.707C80.179 18.647 80.142 18.857 80.033 19.26L77.082 29.567L73.821 18.105L71.999 18.543L75.752 31.247C75.862 31.633 75.934 31.86 76.462 31.86H77.501C78.029 31.86 78.101 31.633 78.211 31.247L81.199 20.957L84.205 31.247C84.315 31.65 84.369 31.86 84.915 31.86H85.954C86.5 31.86 86.554 31.65 86.664 31.247L90.399 18.543L88.614 18.105ZM97.322 22.602C96.502 22.165 95.718 22.112 94.698 22.112C93.915 22.112 92.822 22.13 92.093 22.445C90.526 23.145 90.217 24.983 90.217 26.47V27.608C90.217 29.095 90.508 30.758 91.874 31.458C92.64 31.843 93.641 31.965 94.607 31.965C95.664 31.965 97.157 31.86 97.995 31.703L97.868 30.407C96.72 30.565 95.482 30.617 94.917 30.617C94.388 30.617 93.187 30.547 92.64 30.11C92.13 29.69 91.965 28.762 91.947 27.642H97.485C98.342 27.642 98.725 27.24 98.725 26.715V25.718C98.742 23.95 98.05 23.005 97.322 22.602ZM97.012 26.33H91.947C91.947 25.14 92.147 24.318 92.676 23.845C93.168 23.407 94.152 23.407 94.643 23.407C95.281 23.407 95.937 23.46 96.356 23.793C96.811 24.177 97.012 24.878 97.012 25.945V26.33ZM106.613 22.498C105.72 22.112 104.609 22.112 103.807 22.112C103.333 22.112 102.386 22.2 101.584 22.322V18H99.854V29.567C99.854 31.615 101.639 32 104.026 32C106.94 32 108.361 31.335 108.361 27.24V26.33C108.38 24.843 108.197 23.18 106.613 22.498ZM106.631 27.362C106.631 30.162 106.194 30.705 104.208 30.705C103.333 30.705 102.623 30.635 102.222 30.408C101.73 30.128 101.584 29.672 101.584 28.99V23.705C102.386 23.53 103.406 23.478 103.88 23.478C106.084 23.478 106.613 23.862 106.613 26.208V27.363H106.631V27.362ZM113.918 30.618C113.389 30.618 112.26 30.618 111.805 30.198C111.276 29.725 111.112 28.885 111.112 27.73V26.347C111.112 25.192 111.258 24.352 111.805 23.88C112.26 23.478 113.371 23.46 113.918 23.46C114.483 23.46 115.284 23.495 116.432 23.67C116.432 23.67 116.559 22.41 116.559 22.375C115.721 22.235 114.391 22.113 113.608 22.113C112.861 22.113 111.805 22.183 111.039 22.567C109.655 23.267 109.327 24.983 109.327 26.47V27.59C109.327 29.078 109.655 30.793 111.039 31.492C111.805 31.878 112.861 31.948 113.608 31.948C114.391 31.948 115.903 31.843 116.76 31.685L116.632 30.39C115.735 30.5375 114.827 30.6134 113.918 30.617V30.618ZM124.375 22.428C123.646 22.112 122.626 22.112 121.842 22.112C121.059 22.112 120.039 22.112 119.31 22.428C117.743 23.128 117.561 24.983 117.561 26.47V27.608C117.561 29.095 117.725 30.985 119.31 31.65C120.021 31.965 121.059 31.965 121.842 31.965C122.626 31.965 123.646 31.965 124.375 31.65C125.941 30.95 126.124 29.095 126.124 27.608V26.47C126.124 24.983 125.941 23.128 124.375 22.427V22.428ZM124.375 27.748C124.375 28.902 124.338 29.795 123.81 30.268C123.355 30.688 122.371 30.67 121.842 30.688C121.296 30.688 120.33 30.688 119.875 30.268C119.365 29.795 119.328 28.902 119.328 27.748V26.348C119.328 25.193 119.347 24.3 119.875 23.828C120.33 23.425 121.314 23.408 121.842 23.408C122.371 23.408 123.355 23.425 123.81 23.828C124.32 24.3 124.375 25.192 124.375 26.348V27.748ZM137.582 22.112C136.18 22.112 134.467 22.498 133.903 22.638C133.265 22.235 132.409 22.112 131.443 22.112C130.295 22.112 128.838 22.305 128.055 22.445C127.8 22.497 127.217 22.637 127.217 23.407V31.86H128.947V23.758C129.567 23.635 130.423 23.478 131.152 23.478C132.828 23.478 133.356 24.038 133.356 25.525V31.86H135.087V25.385C135.087 24.737 134.996 24.212 134.813 23.775C135.506 23.635 136.435 23.46 137.291 23.46C138.949 23.46 139.495 24.02 139.495 25.507V31.842H141.226V25.385C141.208 22.62 139.641 22.112 137.582 22.112ZM144.833 21.727V21.762C144.833 21.78 144.815 21.78 144.797 21.78C144.779 21.78 144.742 21.797 144.706 21.797H144.396C144.36 21.797 144.323 21.78 144.305 21.78C144.287 21.78 144.268 21.762 144.25 21.745C144.232 21.727 144.232 21.71 144.214 21.675L144.104 21.343C144.08 21.2397 144.023 21.1473 143.941 21.08C143.886 21.028 143.795 21.01 143.667 21.01H143.522V21.71C143.522 21.745 143.503 21.762 143.467 21.78C143.43 21.797 143.358 21.797 143.248 21.797C143.139 21.797 143.066 21.797 143.03 21.78C142.993 21.762 142.975 21.745 142.975 21.71V19.925C142.975 19.855 142.993 19.802 143.03 19.75C143.066 19.698 143.139 19.68 143.212 19.68H143.831C143.977 19.68 144.104 19.698 144.214 19.715C144.323 19.733 144.414 19.767 144.505 19.82C144.578 19.872 144.651 19.925 144.687 20.012C144.724 20.082 144.742 20.17 144.742 20.275C144.742 20.433 144.687 20.555 144.596 20.642C144.489 20.7409 144.357 20.8077 144.214 20.835C144.302 20.8642 144.383 20.9119 144.451 20.975C144.524 21.045 144.596 21.132 144.651 21.255L144.779 21.57C144.815 21.657 144.833 21.692 144.833 21.727ZM144.159 20.327C144.159 20.292 144.159 20.257 144.141 20.222C144.127 20.1906 144.108 20.1614 144.086 20.135C144.07 20.1177 144.05 20.104 144.028 20.0949C144.006 20.0858 143.983 20.0814 143.959 20.082C143.904 20.065 143.849 20.065 143.777 20.065H143.522V20.66H143.758C143.904 20.66 144.013 20.625 144.068 20.573C144.123 20.485 144.159 20.415 144.159 20.328V20.327Z" fill="#231F20"/>
<path d="M143.794 22.865C142.574 22.865 141.59 21.92 141.59 20.748C141.59 19.575 142.574 18.63 143.794 18.63C145.015 18.63 145.999 19.575 145.999 20.747C145.999 21.92 145.015 22.865 143.794 22.865ZM143.794 19.085C142.847 19.085 142.064 19.837 142.064 20.747C142.064 21.657 142.847 22.41 143.794 22.41C144.742 22.41 145.525 21.657 145.525 20.747C145.525 19.837 144.76 19.085 143.794 19.085Z" fill="#212121"/>
<path d="M161.999 13L149.999 37H151.999L163.999 13H161.999Z" fill="#B6CAD1"/>
<defs>
<linearGradient id="paint0_linear" x1="41.412" y1="29.54" x2="41.412" y2="13.966" gradientUnits="userSpaceOnUse">
<stop stop-color="#C6E9FA"/>
<stop offset="1" stop-color="#00A0E3"/>
</linearGradient>
<linearGradient id="paint1_linear" x1="42.618" y1="27.707" x2="42.618" y2="14.576" gradientUnits="userSpaceOnUse">
<stop stop-color="#FFF100"/>
<stop offset="1" stop-color="#F48120"/>
</linearGradient>
<linearGradient id="paint2_linear" x1="41.7104" y1="35.036" x2="41.7104" y2="20.074" gradientUnits="userSpaceOnUse">
<stop stop-color="#D6DE23"/>
<stop offset="1" stop-color="#00974A"/>
</linearGradient>
</defs>
</svg>
