<svg width="287" height="50" viewBox="0 0 287 50" fill="none" xmlns="http://www.w3.org/2000/svg">
<path d="M161.947 32C161.819 32 161.755 31.936 161.755 31.808L161.787 31.664L165.867 20.384C165.899 20.288 165.941 20.224 165.995 20.192C166.048 20.1493 166.123 20.128 166.219 20.128H167.835C168.037 20.128 168.171 20.2187 168.235 20.4L172.283 31.68C172.293 31.7013 172.299 31.7387 172.299 31.792C172.299 31.9307 172.24 32 172.123 32H170.603C170.464 32 170.373 31.936 170.331 31.808L169.307 28.96C169.285 28.9067 169.264 28.8693 169.243 28.848C169.221 28.8267 169.179 28.816 169.115 28.816H164.683C164.587 28.816 164.523 28.8587 164.491 28.944L163.451 31.84C163.419 31.9467 163.328 32 163.179 32H161.947ZM168.619 27.312C168.693 27.312 168.736 27.296 168.747 27.264C168.768 27.2213 168.768 27.1627 168.747 27.088L167.019 22.288C166.987 22.2133 166.949 22.176 166.907 22.176C166.864 22.176 166.827 22.2187 166.795 22.304L165.019 27.104L165.003 27.2C165.003 27.2747 165.051 27.312 165.147 27.312H168.619ZM178.03 23.36C178.862 23.36 179.566 23.5573 180.142 23.952C180.718 24.3467 181.15 24.8587 181.438 25.488C181.459 25.5307 181.47 25.5787 181.47 25.632C181.47 25.696 181.422 25.7387 181.326 25.76L180.19 25.952H180.142C180.078 25.952 180.025 25.9093 179.982 25.824C179.683 25.3867 179.395 25.0667 179.118 24.864C178.841 24.6507 178.505 24.544 178.11 24.544C177.363 24.544 176.771 24.8267 176.334 25.392C175.897 25.9573 175.678 26.7467 175.678 27.76C175.678 28.784 175.902 29.5787 176.35 30.144C176.798 30.7093 177.406 30.992 178.174 30.992C178.654 30.992 179.065 30.8693 179.406 30.624C179.758 30.3787 180.083 30.0107 180.382 29.52C180.414 29.4773 180.446 29.4507 180.478 29.44C180.51 29.4293 180.553 29.4347 180.606 29.456L181.454 29.712C181.55 29.744 181.571 29.824 181.518 29.952C181.219 30.5813 180.777 31.1093 180.19 31.536C179.614 31.952 178.894 32.16 178.03 32.16C177.241 32.16 176.537 31.9787 175.918 31.616C175.299 31.2427 174.814 30.7253 174.462 30.064C174.121 29.4027 173.95 28.6453 173.95 27.792C173.95 26.9387 174.126 26.176 174.478 25.504C174.83 24.832 175.315 24.3093 175.934 23.936C176.553 23.552 177.251 23.36 178.03 23.36ZM188.285 31.04C187.506 31.7867 186.594 32.16 185.549 32.16C184.728 32.16 184.077 31.952 183.597 31.536C183.128 31.1093 182.893 30.544 182.893 29.84C182.893 28.976 183.266 28.288 184.013 27.776C184.77 27.264 185.842 26.976 187.229 26.912L188.269 26.832C188.44 26.8107 188.525 26.7307 188.525 26.592V26.192C188.525 25.6693 188.365 25.2587 188.045 24.96C187.725 24.6507 187.288 24.496 186.733 24.496C185.858 24.496 185.16 24.8907 184.637 25.68C184.605 25.744 184.568 25.7867 184.525 25.808C184.493 25.8187 184.44 25.8133 184.365 25.792L183.277 25.472C183.213 25.4507 183.181 25.408 183.181 25.344C183.181 25.3013 183.197 25.2427 183.229 25.168C183.528 24.592 183.981 24.1493 184.589 23.84C185.208 23.52 185.949 23.36 186.813 23.36C187.933 23.36 188.77 23.6 189.325 24.08C189.88 24.56 190.157 25.2267 190.157 26.08V31.728C190.157 31.8347 190.136 31.9093 190.093 31.952C190.061 31.984 190.002 32 189.917 32H188.845C188.696 32 188.61 31.8933 188.589 31.68L188.557 31.072C188.536 30.9867 188.504 30.944 188.461 30.944C188.429 30.944 188.37 30.976 188.285 31.04ZM188.525 28.016C188.525 27.8453 188.45 27.7653 188.301 27.776L187.437 27.84C186.552 27.8933 185.848 28.0747 185.325 28.384C184.813 28.6827 184.557 29.0987 184.557 29.632C184.557 30.048 184.706 30.3787 185.005 30.624C185.304 30.8587 185.704 30.976 186.205 30.976C186.781 30.976 187.325 30.7787 187.837 30.384C188.296 30.0107 188.525 29.6373 188.525 29.264V28.016ZM198.569 32C198.398 32 198.313 31.9147 198.313 31.744V31.136C198.313 31.04 198.286 30.992 198.233 30.992C198.201 30.992 198.158 31.0187 198.105 31.072C197.785 31.3813 197.438 31.6427 197.065 31.856C196.692 32.0587 196.217 32.16 195.641 32.16C194.969 32.16 194.366 32 193.833 31.68C193.31 31.3493 192.9 30.864 192.601 30.224C192.302 29.5733 192.153 28.7893 192.153 27.872C192.153 26.9867 192.308 26.2027 192.617 25.52C192.937 24.8373 193.374 24.3093 193.929 23.936C194.494 23.552 195.124 23.36 195.817 23.36C196.276 23.36 196.681 23.4347 197.033 23.584C197.385 23.7333 197.716 23.9413 198.025 24.208C198.078 24.2613 198.132 24.288 198.185 24.288C198.249 24.288 198.281 24.224 198.281 24.096V20.368C198.281 20.208 198.35 20.128 198.489 20.128H199.769C199.833 20.128 199.881 20.1493 199.913 20.192C199.956 20.2347 199.977 20.2933 199.977 20.368V31.728C199.977 31.824 199.95 31.8933 199.897 31.936C199.854 31.9787 199.78 32 199.673 32H198.569ZM198.281 25.504C197.961 25.1733 197.646 24.928 197.337 24.768C197.028 24.608 196.686 24.528 196.313 24.528C195.588 24.528 195.001 24.8107 194.553 25.376C194.105 25.9413 193.881 26.7573 193.881 27.824C193.881 28.8907 194.1 29.6907 194.537 30.224C194.974 30.7467 195.54 31.008 196.233 31.008C196.606 31.008 196.948 30.9227 197.257 30.752C197.566 30.5707 197.812 30.3467 197.993 30.08C198.185 29.8027 198.281 29.5253 198.281 29.248V25.504ZM203.826 28.352C203.826 28.832 203.938 29.2693 204.162 29.664C204.397 30.048 204.711 30.3573 205.106 30.592C205.501 30.816 205.933 30.928 206.402 30.928C206.893 30.928 207.33 30.8267 207.714 30.624C208.098 30.4213 208.45 30.1067 208.77 29.68C208.802 29.6373 208.839 29.616 208.882 29.616C208.935 29.616 208.978 29.6267 209.01 29.648L209.826 30.032C209.879 30.064 209.906 30.1067 209.906 30.16C209.906 30.192 209.89 30.2347 209.858 30.288C209.41 30.9493 208.898 31.4293 208.322 31.728C207.746 32.016 207.047 32.16 206.226 32.16C205.426 32.16 204.711 31.9787 204.082 31.616C203.453 31.2533 202.962 30.7467 202.61 30.096C202.258 29.4347 202.082 28.688 202.082 27.856C202.082 26.96 202.263 26.1707 202.626 25.488C202.989 24.8053 203.479 24.2827 204.098 23.92C204.727 23.5467 205.426 23.36 206.194 23.36C206.983 23.36 207.677 23.536 208.274 23.888C208.871 24.2293 209.33 24.7307 209.65 25.392C209.981 26.0533 210.146 26.8373 210.146 27.744V27.808C210.146 27.904 210.13 27.9787 210.098 28.032C210.077 28.0747 210.013 28.096 209.906 28.096H203.986C203.879 28.096 203.826 28.1813 203.826 28.352ZM208.194 27.088C208.301 27.088 208.37 27.072 208.402 27.04C208.445 27.008 208.466 26.9493 208.466 26.864C208.466 26.448 208.375 26.0587 208.194 25.696C208.023 25.3333 207.767 25.0453 207.426 24.832C207.095 24.608 206.701 24.496 206.242 24.496C205.762 24.496 205.341 24.6187 204.978 24.864C204.615 25.0987 204.333 25.4133 204.13 25.808C203.938 26.192 203.847 26.6133 203.858 27.072L208.194 27.088ZM212.418 32C212.248 32 212.162 31.9147 212.162 31.744V23.76C212.162 23.6 212.232 23.52 212.37 23.52H213.618C213.746 23.52 213.81 23.5893 213.81 23.728V24.608C213.81 24.672 213.826 24.7093 213.858 24.72C213.89 24.7307 213.928 24.7093 213.97 24.656C214.504 24.208 214.978 23.8827 215.394 23.68C215.821 23.4667 216.28 23.36 216.77 23.36C217.357 23.36 217.842 23.4933 218.227 23.76C218.61 24.0267 218.882 24.3733 219.042 24.8C219.064 24.832 219.085 24.848 219.106 24.848C219.149 24.848 219.197 24.8213 219.25 24.768C219.752 24.3093 220.232 23.9627 220.691 23.728C221.149 23.4827 221.629 23.36 222.13 23.36C222.899 23.36 223.496 23.584 223.923 24.032C224.36 24.4693 224.578 25.072 224.578 25.84V31.712C224.578 31.904 224.483 32 224.291 32H223.106C223.021 32 222.963 31.984 222.931 31.952C222.898 31.9093 222.882 31.84 222.882 31.744V26.144C222.882 25.664 222.765 25.296 222.531 25.04C222.296 24.7733 221.944 24.64 221.474 24.64C220.834 24.64 220.152 24.976 219.427 25.648C219.352 25.7227 219.298 25.7973 219.266 25.872C219.234 25.936 219.219 26.016 219.219 26.112V31.712C219.219 31.904 219.123 32 218.931 32H217.762C217.602 32 217.523 31.9147 217.523 31.744V26.144C217.523 25.664 217.405 25.296 217.17 25.04C216.946 24.7733 216.594 24.64 216.114 24.64C215.73 24.64 215.373 24.736 215.042 24.928C214.712 25.1093 214.317 25.4133 213.858 25.84V31.728C213.858 31.824 213.832 31.8933 213.778 31.936C213.736 31.9787 213.661 32 213.554 32H212.418ZM227.621 34.64C227.258 34.64 227.002 34.624 226.853 34.592C226.714 34.5707 226.645 34.5067 226.645 34.4V33.584C226.645 33.4347 226.794 33.36 227.093 33.36H228.133C228.368 33.36 228.586 33.28 228.789 33.12C229.002 32.96 229.168 32.7573 229.285 32.512C229.402 32.2667 229.461 32.0267 229.461 31.792C229.461 31.6533 229.44 31.536 229.397 31.44L226.341 23.824C226.33 23.8027 226.325 23.7653 226.325 23.712C226.325 23.584 226.4 23.52 226.549 23.52H227.861C227.925 23.52 227.984 23.5413 228.037 23.584C228.09 23.616 228.122 23.664 228.133 23.728L230.341 29.488C230.373 29.584 230.41 29.632 230.453 29.632C230.517 29.632 230.57 29.568 230.613 29.44L232.789 23.712C232.842 23.584 232.928 23.52 233.045 23.52H233.989C234.064 23.52 234.117 23.552 234.149 23.616C234.192 23.6693 234.197 23.728 234.165 23.792L230.725 32.512C230.501 33.088 230.25 33.5253 229.973 33.824C229.696 34.1333 229.37 34.3467 228.997 34.464C228.634 34.5813 228.176 34.64 227.621 34.64Z" fill="#FF7700"/>
<path fill-rule="evenodd" clip-rule="evenodd" d="M68.2465 15.017H60.3218C59.0296 15.017 57.6751 16.0864 57.2858 17.4272L53.0043 32.5748L48.7228 17.4272C48.3492 16.1024 46.9947 15.017 45.7024 15.017H37.7622C36.4699 15.017 35.7226 16.1024 36.0963 17.4272L40.3778 32.5748C40.7514 33.8996 42.106 34.985 43.4138 34.985H51.3384C52.1792 34.985 52.7864 34.5222 53.0043 33.8358C53.2223 34.5222 53.8295 34.985 54.6702 34.985H62.5949C63.8872 34.985 65.2417 33.9156 65.6153 32.5748L69.8968 17.4272C70.2861 16.1024 69.5388 15.017 68.2465 15.017Z" fill="url(#paint0_linear)"/>
<path fill-rule="evenodd" clip-rule="evenodd" d="M49.7037 15.016C49.0654 15.016 48.3492 15.399 47.8354 15.9577C48.2558 16.3567 48.5828 16.8675 48.7229 17.4102L53.0044 32.5579L57.2859 17.4102C57.4572 16.8196 57.753 16.3408 58.2201 15.9258C57.7063 15.415 57.0991 15 56.4919 15H49.7037V15.016Z" fill="url(#paint1_linear)"/>
<path fill-rule="evenodd" clip-rule="evenodd" d="M64.3075 32.5898L59.123 17.4422C58.9673 16.8995 58.6715 16.3408 58.2355 15.9418C57.7529 16.3568 57.4571 16.8835 57.3014 17.4262L53.0043 32.5739V32.5898L48.7228 17.4422C48.5671 16.8995 48.2557 16.3727 47.8198 15.9737C47.3838 16.3727 47.0569 16.8995 46.9012 17.4422L41.7167 32.5898C41.3119 33.9146 42.1215 35 43.5071 35H51.3384C52.1791 35 52.7863 34.5531 53.0043 33.8668C53.2223 34.5531 53.8295 35 54.6702 35H62.5015C63.9027 34.9841 64.6967 33.9146 64.3075 32.5898Z" fill="url(#paint2_linear)"/>
<path d="M92.56 18.105L89.2916 29.5675L86.3682 19.26C86.2592 18.8575 86.2411 18.6475 85.6963 18.6475H84.6795C84.1529 18.6475 84.1166 18.8575 84.0076 19.26L81.0661 29.5675L77.8158 18.105L76 18.5425L79.7405 31.2475C79.8495 31.6325 79.9221 31.86 80.4487 31.86H81.4837C82.0103 31.86 82.0829 31.6325 82.1918 31.2475L85.1697 20.9575L88.1658 31.2475C88.2747 31.65 88.3292 31.86 88.874 31.86H89.909C90.4537 31.86 90.5082 31.65 90.6171 31.2475L94.3395 18.5425L92.56 18.105ZM101.239 22.6025C100.422 22.165 99.6416 22.1125 98.6247 22.1125C97.844 22.1125 96.7545 22.13 96.0282 22.445C94.4666 23.145 94.1579 24.9825 94.1579 26.47V27.6075C94.1579 29.095 94.4484 30.7575 95.8103 31.4575C96.5729 31.8425 97.5716 31.965 98.534 31.965C99.5871 31.965 101.076 31.86 101.911 31.7025L101.784 30.4075C100.64 30.565 99.4055 30.6175 98.8426 30.6175C98.3161 30.6175 97.1176 30.5475 96.5729 30.11C96.0645 29.69 95.9011 28.7625 95.8829 27.6425H101.403C102.256 27.6425 102.638 27.24 102.638 26.715V25.7175C102.656 23.95 101.966 23.005 101.239 22.6025ZM100.931 26.33H95.8829C95.8829 25.14 96.0826 24.3175 96.6092 23.845C97.0995 23.4075 98.08 23.4075 98.5703 23.4075C99.2058 23.4075 99.8595 23.46 100.277 23.7925C100.731 24.1775 100.931 24.8775 100.931 25.945C100.931 26.26 100.931 26.05 100.931 26.33ZM110.5 22.4975C109.61 22.1125 108.503 22.1125 107.704 22.1125C107.232 22.1125 106.287 22.2 105.488 22.3225V18H103.763V29.5675C103.763 31.615 105.543 32 107.922 32C110.827 32 112.243 31.335 112.243 27.24V26.33C112.261 24.8425 112.08 23.18 110.5 22.4975ZM110.518 27.3625C110.518 30.1625 110.082 30.705 108.103 30.705C107.232 30.705 106.523 30.635 106.124 30.4075C105.634 30.1275 105.488 29.6725 105.488 28.99V23.705C106.287 23.53 107.304 23.4775 107.776 23.4775C109.973 23.4775 110.5 23.8625 110.5 26.2075V27.3625H110.518ZM117.781 30.6175C117.255 30.6175 116.129 30.6175 115.675 30.1975C115.148 29.725 114.985 28.885 114.985 27.73V26.3475C114.985 25.1925 115.13 24.3525 115.675 23.88C116.129 23.4775 117.237 23.46 117.781 23.46C118.344 23.46 119.143 23.495 120.287 23.67C120.287 23.67 120.414 22.41 120.414 22.375C119.579 22.235 118.253 22.1125 117.473 22.1125C116.728 22.1125 115.675 22.1825 114.912 22.5675C113.532 23.2675 113.206 24.9825 113.206 26.47V27.59C113.206 29.0775 113.532 30.7925 114.912 31.4925C115.675 31.8775 116.728 31.9475 117.473 31.9475C118.253 31.9475 119.761 31.8425 120.614 31.685L120.487 30.39C119.325 30.5825 118.326 30.6175 117.781 30.6175ZM128.204 22.4275C127.478 22.1125 126.461 22.1125 125.68 22.1125C124.899 22.1125 123.882 22.1125 123.156 22.4275C121.594 23.1275 121.413 24.9825 121.413 26.47V27.6075C121.413 29.095 121.576 30.985 123.156 31.65C123.864 31.965 124.899 31.965 125.68 31.965C126.461 31.965 127.478 31.965 128.204 31.65C129.766 30.95 129.947 29.095 129.947 27.6075V26.47C129.947 24.9825 129.766 23.1275 128.204 22.4275ZM128.204 27.7475C128.204 28.9025 128.168 29.795 127.641 30.2675C127.187 30.6875 126.207 30.67 125.68 30.6875C125.135 30.6875 124.173 30.6875 123.719 30.2675C123.211 29.795 123.174 28.9025 123.174 27.7475V26.3475C123.174 25.1925 123.192 24.3 123.719 23.8275C124.173 23.425 125.153 23.4075 125.68 23.4075C126.207 23.4075 127.187 23.425 127.641 23.8275C128.149 24.3 128.204 25.1925 128.204 26.3475V27.7475ZM141.368 22.1125C139.97 22.1125 138.263 22.4975 137.701 22.6375C137.065 22.235 136.212 22.1125 135.249 22.1125C134.105 22.1125 132.653 22.305 131.872 22.445C131.618 22.4975 131.037 22.6375 131.037 23.4075V31.86H132.762V23.7575C133.379 23.635 134.232 23.4775 134.959 23.4775C136.629 23.4775 137.156 24.0375 137.156 25.525V31.86H138.881V25.385C138.881 24.7375 138.79 24.2125 138.608 23.775C139.298 23.635 140.224 23.46 141.078 23.46C142.73 23.46 143.275 24.02 143.275 25.5075V31.8425H145V25.385C144.982 22.62 143.42 22.1125 141.368 22.1125Z" fill="#231F20"/>
<path d="M153 8H154V42H153L153 8Z" fill="#B6CAD1"/>
<path fill-rule="evenodd" clip-rule="evenodd" d="M247.47 28.0555L243.414 24L242 25.4142L247.47 30.8839L252.939 25.4142L251.525 24L247.47 28.0555Z" fill="#8A979F"/>
<defs>
<linearGradient id="paint0_linear" x1="53.0081" y1="29.5402" x2="53.0081" y2="13.9664" gradientUnits="userSpaceOnUse">
<stop stop-color="#C6E9FA"/>
<stop offset="1" stop-color="#00A0E3"/>
</linearGradient>
<linearGradient id="paint1_linear" x1="53.0236" y1="27.7073" x2="53.0236" y2="14.5764" gradientUnits="userSpaceOnUse">
<stop stop-color="#FFF100"/>
<stop offset="1" stop-color="#F48120"/>
</linearGradient>
<linearGradient id="paint2_linear" x1="53.0086" y1="35.0354" x2="53.0086" y2="20.0733" gradientUnits="userSpaceOnUse">
<stop stop-color="#D6DE23"/>
<stop offset="1" stop-color="#00974A"/>
</linearGradient>
</defs>
</svg>
