<svg width="288" height="50" viewBox="0 0 288 50" fill="none" xmlns="http://www.w3.org/2000/svg">
<path d="M23.5782 4.09168C24.9923 1.56525 27.6605 0.000548363 30.5546 0.000548363L283.012 0C286.066 0 287.992 3.28805 286.5 5.95435L263.337 45.9083C261.923 48.4348 259.255 49.9995 256.361 49.9995L4.00369 50C0.94936 50 -0.976852 46.712 0.515502 44.0457L23.5782 4.09168Z" fill="white"/>
<path d="M164.447 32C164.319 32 164.255 31.936 164.255 31.808L164.287 31.664L168.367 20.384C168.399 20.288 168.441 20.224 168.495 20.192C168.548 20.1493 168.623 20.128 168.719 20.128H170.335C170.537 20.128 170.671 20.2187 170.735 20.4L174.783 31.68C174.793 31.7013 174.799 31.7387 174.799 31.792C174.799 31.9307 174.74 32 174.623 32H173.103C172.964 32 172.873 31.936 172.831 31.808L171.807 28.96C171.785 28.9067 171.764 28.8693 171.743 28.848C171.721 28.8267 171.679 28.816 171.615 28.816H167.183C167.087 28.816 167.023 28.8587 166.991 28.944L165.951 31.84C165.919 31.9467 165.828 32 165.679 32H164.447ZM171.119 27.312C171.193 27.312 171.236 27.296 171.247 27.264C171.268 27.2213 171.268 27.1627 171.247 27.088L169.519 22.288C169.487 22.2133 169.449 22.176 169.407 22.176C169.364 22.176 169.327 22.2187 169.295 22.304L167.519 27.104L167.503 27.2C167.503 27.2747 167.551 27.312 167.647 27.312H171.119ZM180.53 23.36C181.362 23.36 182.066 23.5573 182.642 23.952C183.218 24.3467 183.65 24.8587 183.938 25.488C183.959 25.5307 183.97 25.5787 183.97 25.632C183.97 25.696 183.922 25.7387 183.826 25.76L182.69 25.952H182.642C182.578 25.952 182.525 25.9093 182.482 25.824C182.183 25.3867 181.895 25.0667 181.618 24.864C181.341 24.6507 181.005 24.544 180.61 24.544C179.863 24.544 179.271 24.8267 178.834 25.392C178.397 25.9573 178.178 26.7467 178.178 27.76C178.178 28.784 178.402 29.5787 178.85 30.144C179.298 30.7093 179.906 30.992 180.674 30.992C181.154 30.992 181.565 30.8693 181.906 30.624C182.258 30.3787 182.583 30.0107 182.882 29.52C182.914 29.4773 182.946 29.4507 182.978 29.44C183.01 29.4293 183.053 29.4347 183.106 29.456L183.954 29.712C184.05 29.744 184.071 29.824 184.018 29.952C183.719 30.5813 183.277 31.1093 182.69 31.536C182.114 31.952 181.394 32.16 180.53 32.16C179.741 32.16 179.037 31.9787 178.418 31.616C177.799 31.2427 177.314 30.7253 176.962 30.064C176.621 29.4027 176.45 28.6453 176.45 27.792C176.45 26.9387 176.626 26.176 176.978 25.504C177.33 24.832 177.815 24.3093 178.434 23.936C179.053 23.552 179.751 23.36 180.53 23.36ZM190.785 31.04C190.006 31.7867 189.094 32.16 188.049 32.16C187.228 32.16 186.577 31.952 186.097 31.536C185.628 31.1093 185.393 30.544 185.393 29.84C185.393 28.976 185.766 28.288 186.513 27.776C187.27 27.264 188.342 26.976 189.729 26.912L190.769 26.832C190.94 26.8107 191.025 26.7307 191.025 26.592V26.192C191.025 25.6693 190.865 25.2587 190.545 24.96C190.225 24.6507 189.788 24.496 189.233 24.496C188.358 24.496 187.66 24.8907 187.137 25.68C187.105 25.744 187.068 25.7867 187.025 25.808C186.993 25.8187 186.94 25.8133 186.865 25.792L185.777 25.472C185.713 25.4507 185.681 25.408 185.681 25.344C185.681 25.3013 185.697 25.2427 185.729 25.168C186.028 24.592 186.481 24.1493 187.089 23.84C187.708 23.52 188.449 23.36 189.313 23.36C190.433 23.36 191.27 23.6 191.825 24.08C192.38 24.56 192.657 25.2267 192.657 26.08V31.728C192.657 31.8347 192.636 31.9093 192.593 31.952C192.561 31.984 192.502 32 192.417 32H191.345C191.196 32 191.11 31.8933 191.089 31.68L191.057 31.072C191.036 30.9867 191.004 30.944 190.961 30.944C190.929 30.944 190.87 30.976 190.785 31.04ZM191.025 28.016C191.025 27.8453 190.95 27.7653 190.801 27.776L189.937 27.84C189.052 27.8933 188.348 28.0747 187.825 28.384C187.313 28.6827 187.057 29.0987 187.057 29.632C187.057 30.048 187.206 30.3787 187.505 30.624C187.804 30.8587 188.204 30.976 188.705 30.976C189.281 30.976 189.825 30.7787 190.337 30.384C190.796 30.0107 191.025 29.6373 191.025 29.264V28.016ZM201.069 32C200.898 32 200.813 31.9147 200.813 31.744V31.136C200.813 31.04 200.786 30.992 200.733 30.992C200.701 30.992 200.658 31.0187 200.605 31.072C200.285 31.3813 199.938 31.6427 199.565 31.856C199.192 32.0587 198.717 32.16 198.141 32.16C197.469 32.16 196.866 32 196.333 31.68C195.81 31.3493 195.4 30.864 195.101 30.224C194.802 29.5733 194.653 28.7893 194.653 27.872C194.653 26.9867 194.808 26.2027 195.117 25.52C195.437 24.8373 195.874 24.3093 196.429 23.936C196.994 23.552 197.624 23.36 198.317 23.36C198.776 23.36 199.181 23.4347 199.533 23.584C199.885 23.7333 200.216 23.9413 200.525 24.208C200.578 24.2613 200.632 24.288 200.685 24.288C200.749 24.288 200.781 24.224 200.781 24.096V20.368C200.781 20.208 200.85 20.128 200.989 20.128H202.269C202.333 20.128 202.381 20.1493 202.413 20.192C202.456 20.2347 202.477 20.2933 202.477 20.368V31.728C202.477 31.824 202.45 31.8933 202.397 31.936C202.354 31.9787 202.28 32 202.173 32H201.069ZM200.781 25.504C200.461 25.1733 200.146 24.928 199.837 24.768C199.528 24.608 199.186 24.528 198.813 24.528C198.088 24.528 197.501 24.8107 197.053 25.376C196.605 25.9413 196.381 26.7573 196.381 27.824C196.381 28.8907 196.6 29.6907 197.037 30.224C197.474 30.7467 198.04 31.008 198.733 31.008C199.106 31.008 199.448 30.9227 199.757 30.752C200.066 30.5707 200.312 30.3467 200.493 30.08C200.685 29.8027 200.781 29.5253 200.781 29.248V25.504ZM206.326 28.352C206.326 28.832 206.438 29.2693 206.662 29.664C206.897 30.048 207.211 30.3573 207.606 30.592C208.001 30.816 208.433 30.928 208.902 30.928C209.393 30.928 209.83 30.8267 210.214 30.624C210.598 30.4213 210.95 30.1067 211.27 29.68C211.302 29.6373 211.339 29.616 211.382 29.616C211.435 29.616 211.478 29.6267 211.51 29.648L212.326 30.032C212.379 30.064 212.406 30.1067 212.406 30.16C212.406 30.192 212.39 30.2347 212.358 30.288C211.91 30.9493 211.398 31.4293 210.822 31.728C210.246 32.016 209.547 32.16 208.726 32.16C207.926 32.16 207.211 31.9787 206.582 31.616C205.953 31.2533 205.462 30.7467 205.11 30.096C204.758 29.4347 204.582 28.688 204.582 27.856C204.582 26.96 204.763 26.1707 205.126 25.488C205.489 24.8053 205.979 24.2827 206.598 23.92C207.227 23.5467 207.926 23.36 208.694 23.36C209.483 23.36 210.177 23.536 210.774 23.888C211.371 24.2293 211.83 24.7307 212.15 25.392C212.481 26.0533 212.646 26.8373 212.646 27.744V27.808C212.646 27.904 212.63 27.9787 212.598 28.032C212.577 28.0747 212.513 28.096 212.406 28.096H206.486C206.379 28.096 206.326 28.1813 206.326 28.352ZM210.694 27.088C210.801 27.088 210.87 27.072 210.902 27.04C210.945 27.008 210.966 26.9493 210.966 26.864C210.966 26.448 210.875 26.0587 210.694 25.696C210.523 25.3333 210.267 25.0453 209.926 24.832C209.595 24.608 209.201 24.496 208.742 24.496C208.262 24.496 207.841 24.6187 207.478 24.864C207.115 25.0987 206.833 25.4133 206.63 25.808C206.438 26.192 206.347 26.6133 206.358 27.072L210.694 27.088ZM214.918 32C214.748 32 214.662 31.9147 214.662 31.744V23.76C214.662 23.6 214.732 23.52 214.87 23.52H216.118C216.246 23.52 216.31 23.5893 216.31 23.728V24.608C216.31 24.672 216.326 24.7093 216.358 24.72C216.39 24.7307 216.428 24.7093 216.47 24.656C217.004 24.208 217.478 23.8827 217.894 23.68C218.321 23.4667 218.78 23.36 219.27 23.36C219.857 23.36 220.342 23.4933 220.727 23.76C221.11 24.0267 221.382 24.3733 221.542 24.8C221.564 24.832 221.585 24.848 221.606 24.848C221.649 24.848 221.697 24.8213 221.75 24.768C222.252 24.3093 222.732 23.9627 223.191 23.728C223.649 23.4827 224.129 23.36 224.63 23.36C225.399 23.36 225.996 23.584 226.423 24.032C226.86 24.4693 227.078 25.072 227.078 25.84V31.712C227.078 31.904 226.983 32 226.791 32H225.606C225.521 32 225.463 31.984 225.431 31.952C225.398 31.9093 225.382 31.84 225.382 31.744V26.144C225.382 25.664 225.265 25.296 225.031 25.04C224.796 24.7733 224.444 24.64 223.974 24.64C223.334 24.64 222.652 24.976 221.927 25.648C221.852 25.7227 221.798 25.7973 221.766 25.872C221.734 25.936 221.719 26.016 221.719 26.112V31.712C221.719 31.904 221.623 32 221.431 32H220.262C220.102 32 220.023 31.9147 220.023 31.744V26.144C220.023 25.664 219.905 25.296 219.67 25.04C219.446 24.7733 219.094 24.64 218.614 24.64C218.23 24.64 217.873 24.736 217.542 24.928C217.212 25.1093 216.817 25.4133 216.358 25.84V31.728C216.358 31.824 216.332 31.8933 216.278 31.936C216.236 31.9787 216.161 32 216.054 32H214.918ZM230.121 34.64C229.758 34.64 229.502 34.624 229.353 34.592C229.214 34.5707 229.145 34.5067 229.145 34.4V33.584C229.145 33.4347 229.294 33.36 229.593 33.36H230.633C230.868 33.36 231.086 33.28 231.289 33.12C231.502 32.96 231.668 32.7573 231.785 32.512C231.902 32.2667 231.961 32.0267 231.961 31.792C231.961 31.6533 231.94 31.536 231.897 31.44L228.841 23.824C228.83 23.8027 228.825 23.7653 228.825 23.712C228.825 23.584 228.9 23.52 229.049 23.52H230.361C230.425 23.52 230.484 23.5413 230.537 23.584C230.59 23.616 230.622 23.664 230.633 23.728L232.841 29.488C232.873 29.584 232.91 29.632 232.953 29.632C233.017 29.632 233.07 29.568 233.113 29.44L235.289 23.712C235.342 23.584 235.428 23.52 235.545 23.52H236.489C236.564 23.52 236.617 23.552 236.649 23.616C236.692 23.6693 236.697 23.728 236.665 23.792L233.225 32.512C233.001 33.088 232.75 33.5253 232.473 33.824C232.196 34.1333 231.87 34.3467 231.497 34.464C231.134 34.5813 230.676 34.64 230.121 34.64Z" fill="#FF7700"/>
<path fill-rule="evenodd" clip-rule="evenodd" d="M64.2465 15.017H56.3218C55.0296 15.017 53.6751 16.0864 53.2858 17.4272L49.0043 32.5748L44.7228 17.4272C44.3492 16.1024 42.9947 15.017 41.7024 15.017H33.7622C32.4699 15.017 31.7226 16.1024 32.0963 17.4272L36.3778 32.5748C36.7514 33.8996 38.106 34.985 39.4138 34.985H47.3384C48.1792 34.985 48.7864 34.5222 49.0043 33.8358C49.2223 34.5222 49.8295 34.985 50.6702 34.985H58.5949C59.8872 34.985 61.2417 33.9156 61.6153 32.5748L65.8968 17.4272C66.2861 16.1024 65.5388 15.017 64.2465 15.017Z" fill="url(#paint0_linear)"/>
<path fill-rule="evenodd" clip-rule="evenodd" d="M45.7037 15.016C45.0654 15.016 44.3492 15.399 43.8354 15.9577C44.2558 16.3567 44.5828 16.8675 44.7229 17.4102L49.0044 32.5579L53.2859 17.4102C53.4572 16.8196 53.753 16.3408 54.2201 15.9258C53.7063 15.415 53.0991 15 52.4919 15H45.7037V15.016Z" fill="url(#paint1_linear)"/>
<path fill-rule="evenodd" clip-rule="evenodd" d="M60.3075 32.5898L55.123 17.4422C54.9673 16.8995 54.6715 16.3408 54.2355 15.9418C53.7529 16.3568 53.4571 16.8835 53.3014 17.4262L49.0043 32.5739V32.5898L44.7228 17.4422C44.5671 16.8995 44.2557 16.3727 43.8198 15.9737C43.3838 16.3727 43.0569 16.8995 42.9012 17.4422L37.7167 32.5898C37.3119 33.9146 38.1215 35 39.5071 35H47.3384C48.1791 35 48.7863 34.5531 49.0043 33.8668C49.2223 34.5531 49.8295 35 50.6702 35H58.5015C59.9027 34.9841 60.6967 33.9146 60.3075 32.5898Z" fill="url(#paint2_linear)"/>
<path d="M88.56 18.105L85.2916 29.5675L82.3682 19.26C82.2592 18.8575 82.2411 18.6475 81.6963 18.6475H80.6795C80.1529 18.6475 80.1166 18.8575 80.0076 19.26L77.0661 29.5675L73.8158 18.105L72 18.5425L75.7405 31.2475C75.8495 31.6325 75.9221 31.86 76.4487 31.86H77.4837C78.0103 31.86 78.0829 31.6325 78.1918 31.2475L81.1697 20.9575L84.1658 31.2475C84.2747 31.65 84.3292 31.86 84.8739 31.86H85.9089C86.4537 31.86 86.5082 31.65 86.6171 31.2475L90.3395 18.5425L88.56 18.105ZM97.2395 22.6025C96.4224 22.165 95.6416 22.1125 94.6247 22.1125C93.8439 22.1125 92.7545 22.13 92.0282 22.445C90.4666 23.145 90.1579 24.9825 90.1579 26.47V27.6075C90.1579 29.095 90.4484 30.7575 91.8103 31.4575C92.5729 31.8425 93.5716 31.965 94.5339 31.965C95.5871 31.965 97.0761 31.86 97.9113 31.7025L97.7842 30.4075C96.6403 30.565 95.4055 30.6175 94.8426 30.6175C94.3161 30.6175 93.1176 30.5475 92.5729 30.11C92.0645 29.69 91.9011 28.7625 91.8829 27.6425H97.4029C98.2563 27.6425 98.6376 27.24 98.6376 26.715V25.7175C98.6558 23.95 97.9658 23.005 97.2395 22.6025ZM96.9308 26.33H91.8829C91.8829 25.14 92.0826 24.3175 92.6092 23.845C93.0995 23.4075 94.08 23.4075 94.5703 23.4075C95.2058 23.4075 95.8595 23.46 96.2771 23.7925C96.7311 24.1775 96.9308 24.8775 96.9308 25.945C96.9308 26.26 96.9308 26.05 96.9308 26.33ZM106.5 22.4975C105.61 22.1125 104.503 22.1125 103.704 22.1125C103.232 22.1125 102.287 22.2 101.488 22.3225V18H99.7634V29.5675C99.7634 31.615 101.543 32 103.922 32C106.827 32 108.243 31.335 108.243 27.24V26.33C108.261 24.8425 108.08 23.18 106.5 22.4975ZM106.518 27.3625C106.518 30.1625 106.082 30.705 104.103 30.705C103.232 30.705 102.523 30.635 102.124 30.4075C101.634 30.1275 101.488 29.6725 101.488 28.99V23.705C102.287 23.53 103.304 23.4775 103.776 23.4775C105.973 23.4775 106.5 23.8625 106.5 26.2075V27.3625H106.518ZM113.781 30.6175C113.255 30.6175 112.129 30.6175 111.675 30.1975C111.148 29.725 110.985 28.885 110.985 27.73V26.3475C110.985 25.1925 111.13 24.3525 111.675 23.88C112.129 23.4775 113.237 23.46 113.781 23.46C114.344 23.46 115.143 23.495 116.287 23.67C116.287 23.67 116.414 22.41 116.414 22.375C115.579 22.235 114.253 22.1125 113.473 22.1125C112.728 22.1125 111.675 22.1825 110.912 22.5675C109.532 23.2675 109.206 24.9825 109.206 26.47V27.59C109.206 29.0775 109.532 30.7925 110.912 31.4925C111.675 31.8775 112.728 31.9475 113.473 31.9475C114.253 31.9475 115.761 31.8425 116.614 31.685L116.487 30.39C115.325 30.5825 114.326 30.6175 113.781 30.6175ZM124.204 22.4275C123.478 22.1125 122.461 22.1125 121.68 22.1125C120.899 22.1125 119.882 22.1125 119.156 22.4275C117.594 23.1275 117.413 24.9825 117.413 26.47V27.6075C117.413 29.095 117.576 30.985 119.156 31.65C119.864 31.965 120.899 31.965 121.68 31.965C122.461 31.965 123.478 31.965 124.204 31.65C125.766 30.95 125.947 29.095 125.947 27.6075V26.47C125.947 24.9825 125.766 23.1275 124.204 22.4275ZM124.204 27.7475C124.204 28.9025 124.168 29.795 123.641 30.2675C123.187 30.6875 122.207 30.67 121.68 30.6875C121.135 30.6875 120.173 30.6875 119.719 30.2675C119.211 29.795 119.174 28.9025 119.174 27.7475V26.3475C119.174 25.1925 119.192 24.3 119.719 23.8275C120.173 23.425 121.153 23.4075 121.68 23.4075C122.207 23.4075 123.187 23.425 123.641 23.8275C124.149 24.3 124.204 25.1925 124.204 26.3475V27.7475ZM137.368 22.1125C135.97 22.1125 134.263 22.4975 133.701 22.6375C133.065 22.235 132.212 22.1125 131.249 22.1125C130.105 22.1125 128.653 22.305 127.872 22.445C127.618 22.4975 127.037 22.6375 127.037 23.4075V31.86H128.762V23.7575C129.379 23.635 130.232 23.4775 130.959 23.4775C132.629 23.4775 133.156 24.0375 133.156 25.525V31.86H134.881V25.385C134.881 24.7375 134.79 24.2125 134.608 23.775C135.298 23.635 136.224 23.46 137.078 23.46C138.73 23.46 139.275 24.02 139.275 25.5075V31.8425H141V25.385C140.982 22.62 139.42 22.1125 137.368 22.1125Z" fill="#231F20"/>
<path d="M159 13L145 37H146.5L160.5 13H159Z" fill="#B6CAD1"/>
<path fill-rule="evenodd" clip-rule="evenodd" d="M249.5 28.0857L245.444 24.0303L244.03 25.4445L249.5 30.9142L254.97 25.4445L253.555 24.0303L249.5 28.0857Z" fill="#8A979F"/>
<defs>
<linearGradient id="paint0_linear" x1="49.0081" y1="29.5402" x2="49.0081" y2="13.9664" gradientUnits="userSpaceOnUse">
<stop stop-color="#C6E9FA"/>
<stop offset="1" stop-color="#00A0E3"/>
</linearGradient>
<linearGradient id="paint1_linear" x1="49.0236" y1="27.7073" x2="49.0236" y2="14.5764" gradientUnits="userSpaceOnUse">
<stop stop-color="#FFF100"/>
<stop offset="1" stop-color="#F48120"/>
</linearGradient>
<linearGradient id="paint2_linear" x1="49.0086" y1="35.0354" x2="49.0086" y2="20.0733" gradientUnits="userSpaceOnUse">
<stop stop-color="#D6DE23"/>
<stop offset="1" stop-color="#00974A"/>
</linearGradient>
</defs>
</svg>
