<svg width="136" height="31" viewBox="0 0 136 31" fill="none" xmlns="http://www.w3.org/2000/svg">
<path d="M133.053 30.9501C134.158 30.9501 135.053 30.0547 135.053 28.9501V10.9501C135.053 9.84552 134.158 8.95008 133.053 8.95008C131.948 8.95008 131.053 9.84551 131.053 10.9501V26.9501L115.053 26.9501C113.948 26.9501 113.053 27.8455 113.053 28.9501C113.053 30.0547 113.948 30.9501 115.053 30.9501L133.053 30.9501ZM1.5311 27.5359C0.75005 28.3169 0.75005 29.5832 1.5311 30.3643C2.31215 31.1453 3.57848 31.1453 4.35953 30.3643L1.5311 27.5359ZM134.467 27.5359C116.839 9.90745 92.9295 0.00390625 67.9991 0.00390625V4.00391C91.8686 4.00391 114.76 13.486 131.639 30.3643L134.467 27.5359ZM67.9991 0.00390625C43.0688 0.00390625 19.1595 9.90744 1.5311 27.5359L4.35953 30.3643C21.2378 13.486 44.1297 4.00391 67.9991 4.00391V0.00390625Z" fill="#DCFBFF"/>
</svg>
