<svg width="329" height="332" viewBox="0 0 329 332" fill="none" xmlns="http://www.w3.org/2000/svg">
<g filter="url(#filter0_di)">
<path d="M221.658 56.8559L87.2734 71.9993C85.655 72.1815 84.149 73.1758 83.3457 74.5924L18.5818 186.767C17.2258 189.116 18.1293 192.487 20.4785 193.844L213.429 305.244C215.778 306.6 219.15 305.697 220.507 303.348L285.27 191.174C286.096 189.77 286.204 187.968 285.552 186.476L231.474 62.523C231.024 61.5267 230.249 60.6801 229.296 60.1435L224.809 57.5528C223.868 56.8779 222.588 56.9672 221.658 56.8559ZM221.03 67.3362L222.712 68.3077L272.316 182.199L148.741 196.105L147.339 195.296L97.5951 81.3238L221.03 67.3362Z" fill="url(#paint0_linear)"/>
</g>
<g filter="url(#filter1_di)">
<rect x="30.7588" y="184.523" width="57.1814" height="4.8665" rx="2.43325" fill="url(#paint1_linear)"/>
</g>
<g filter="url(#filter2_di)">
<rect width="57.1814" height="4.8665" rx="2.43325" transform="matrix(0.5 0.866025 0.866025 -0.5 183.838 243.99)" fill="url(#paint2_linear)"/>
</g>
<g filter="url(#filter3_di)">
<path d="M220.064 67.4456C220.691 67.3746 221.325 67.5065 221.871 67.822C222.418 68.1375 222.848 68.6199 223.1 69.1984L268.106 172.531C269.531 175.805 270.244 177.442 270.035 178.828C269.851 180.041 269.216 181.141 268.256 181.906C267.16 182.779 265.386 182.979 261.838 183.378L149.546 196.015C149.023 196.074 148.496 195.964 148.04 195.701C147.585 195.438 147.226 195.036 147.015 194.554L101.813 90.9881C100.385 87.7156 99.6707 86.0794 99.8792 84.6933C100.062 83.4796 100.696 82.3797 101.656 81.614C102.751 80.7395 104.525 80.5385 108.073 80.1365L220.064 67.4456Z" fill="url(#paint3_linear)"/>
</g>
<defs>
<filter id="filter0_di" x="0.91452" y="48.3391" width="302.093" height="283.088" filterUnits="userSpaceOnUse" color-interpolation-filters="sRGB">
<feFlood flood-opacity="0" result="BackgroundImageFix"/>
<feColorMatrix in="SourceAlpha" type="matrix" values="0 0 0 0 0 0 0 0 0 0 0 0 0 0 0 0 0 0 127 0"/>
<feOffset dy="8.51637"/>
<feGaussianBlur stdDeviation="8.51637"/>
<feColorMatrix type="matrix" values="0 0 0 0 0.845833 0 0 0 0 0.449341 0 0 0 0 0.0563889 0 0 0 0.4 0"/>
<feBlend mode="normal" in2="BackgroundImageFix" result="effect1_dropShadow"/>
<feBlend mode="normal" in="SourceGraphic" in2="effect1_dropShadow" result="shape"/>
<feColorMatrix in="SourceAlpha" type="matrix" values="0 0 0 0 0 0 0 0 0 0 0 0 0 0 0 0 0 0 127 0" result="hardAlpha"/>
<feOffset dy="2.43325"/>
<feGaussianBlur stdDeviation="14.5995"/>
<feComposite in2="hardAlpha" operator="arithmetic" k2="-1" k3="1"/>
<feColorMatrix type="matrix" values="0 0 0 0 1 0 0 0 0 0.807333 0 0 0 0 0.433333 0 0 0 0.6 0"/>
<feBlend mode="normal" in2="shape" result="effect2_innerShadow"/>
</filter>
<filter id="filter1_di" x="13.726" y="176.007" width="91.2469" height="38.932" filterUnits="userSpaceOnUse" color-interpolation-filters="sRGB">
<feFlood flood-opacity="0" result="BackgroundImageFix"/>
<feColorMatrix in="SourceAlpha" type="matrix" values="0 0 0 0 0 0 0 0 0 0 0 0 0 0 0 0 0 0 127 0"/>
<feOffset dy="8.51637"/>
<feGaussianBlur stdDeviation="8.51637"/>
<feColorMatrix type="matrix" values="0 0 0 0 0.845833 0 0 0 0 0.449341 0 0 0 0 0.0563889 0 0 0 0.4 0"/>
<feBlend mode="normal" in2="BackgroundImageFix" result="effect1_dropShadow"/>
<feBlend mode="normal" in="SourceGraphic" in2="effect1_dropShadow" result="shape"/>
<feColorMatrix in="SourceAlpha" type="matrix" values="0 0 0 0 0 0 0 0 0 0 0 0 0 0 0 0 0 0 127 0" result="hardAlpha"/>
<feOffset dy="2.43325"/>
<feGaussianBlur stdDeviation="14.5995"/>
<feComposite in2="hardAlpha" operator="arithmetic" k2="-1" k3="1"/>
<feColorMatrix type="matrix" values="0 0 0 0 1 0 0 0 0 0.92775 0 0 0 0 0.7875 0 0 0 1 0"/>
<feBlend mode="normal" in2="shape" result="effect2_innerShadow"/>
</filter>
<filter id="filter2_di" x="167.696" y="233.931" width="65.0902" height="84.2388" filterUnits="userSpaceOnUse" color-interpolation-filters="sRGB">
<feFlood flood-opacity="0" result="BackgroundImageFix"/>
<feColorMatrix in="SourceAlpha" type="matrix" values="0 0 0 0 0 0 0 0 0 0 0 0 0 0 0 0 0 0 127 0"/>
<feOffset dy="8.51637"/>
<feGaussianBlur stdDeviation="8.51637"/>
<feColorMatrix type="matrix" values="0 0 0 0 0.845833 0 0 0 0 0.449341 0 0 0 0 0.0563889 0 0 0 0.4 0"/>
<feBlend mode="normal" in2="BackgroundImageFix" result="effect1_dropShadow"/>
<feBlend mode="normal" in="SourceGraphic" in2="effect1_dropShadow" result="shape"/>
<feColorMatrix in="SourceAlpha" type="matrix" values="0 0 0 0 0 0 0 0 0 0 0 0 0 0 0 0 0 0 127 0" result="hardAlpha"/>
<feOffset dy="2.43325"/>
<feGaussianBlur stdDeviation="14.5995"/>
<feComposite in2="hardAlpha" operator="arithmetic" k2="-1" k3="1"/>
<feColorMatrix type="matrix" values="0 0 0 0 1 0 0 0 0 0.92775 0 0 0 0 0.7875 0 0 0 1 0"/>
<feBlend mode="normal" in2="shape" result="effect2_innerShadow"/>
</filter>
<filter id="filter3_di" x="82.811" y="58.9114" width="204.293" height="162.669" filterUnits="userSpaceOnUse" color-interpolation-filters="sRGB">
<feFlood flood-opacity="0" result="BackgroundImageFix"/>
<feColorMatrix in="SourceAlpha" type="matrix" values="0 0 0 0 0 0 0 0 0 0 0 0 0 0 0 0 0 0 127 0"/>
<feOffset dy="8.51637"/>
<feGaussianBlur stdDeviation="8.51637"/>
<feColorMatrix type="matrix" values="0 0 0 0 0.845833 0 0 0 0 0.449341 0 0 0 0 0.0563889 0 0 0 0.4 0"/>
<feBlend mode="normal" in2="BackgroundImageFix" result="effect1_dropShadow"/>
<feBlend mode="normal" in="SourceGraphic" in2="effect1_dropShadow" result="shape"/>
<feColorMatrix in="SourceAlpha" type="matrix" values="0 0 0 0 0 0 0 0 0 0 0 0 0 0 0 0 0 0 127 0" result="hardAlpha"/>
<feOffset dy="2.43325"/>
<feGaussianBlur stdDeviation="14.5995"/>
<feComposite in2="hardAlpha" operator="arithmetic" k2="-1" k3="1"/>
<feColorMatrix type="matrix" values="0 0 0 0 1 0 0 0 0 0.92775 0 0 0 0 0.7875 0 0 0 1 0"/>
<feBlend mode="normal" in2="shape" result="effect2_innerShadow"/>
</filter>
<linearGradient id="paint0_linear" x1="227.058" y1="58.8376" x2="116.954" y2="249.544" gradientUnits="userSpaceOnUse">
<stop stop-color="#FFA800"/>
<stop offset="1" stop-color="#FF0000"/>
</linearGradient>
<linearGradient id="paint1_linear" x1="59.3495" y1="184.523" x2="59.3495" y2="189.39" gradientUnits="userSpaceOnUse">
<stop stop-color="#FFD600"/>
<stop offset="1" stop-color="#FF6B00"/>
</linearGradient>
<linearGradient id="paint2_linear" x1="28.5907" y1="0" x2="28.5907" y2="4.8665" gradientUnits="userSpaceOnUse">
<stop stop-color="#FFD600"/>
<stop offset="1" stop-color="#FF6B00"/>
</linearGradient>
<linearGradient id="paint3_linear" x1="227.058" y1="58.8376" x2="116.954" y2="249.544" gradientUnits="userSpaceOnUse">
<stop stop-color="#FFD600"/>
<stop offset="1" stop-color="#FF6B00"/>
</linearGradient>
</defs>
</svg>
