<svg width="20" height="21" viewBox="0 0 20 21" fill="none" xmlns="http://www.w3.org/2000/svg">
<path d="M15.9587 14.4288L13.0223 13.8407C12.7108 13.779 12.4839 13.5024 12.4839 13.1828V12.5088C12.6772 12.2403 12.8585 11.8818 13.0465 11.5072C13.1901 11.2239 13.4063 10.7969 13.503 10.6962C14.0723 10.139 14.6792 9.44754 14.8645 8.54661C15.0323 7.73027 14.8645 7.30598 14.6698 6.97032C14.6698 6.31375 14.6698 5.11207 14.4415 4.24605C14.4187 3.20011 14.2267 2.60934 13.7447 2.08301C13.4036 1.71512 12.9015 1.62919 12.4987 1.56071C12.3389 1.53386 12.12 1.49627 12.0435 1.45464C11.3467 1.0693 10.6391 0.878639 9.77306 0.857157C8.00074 0.92429 5.82562 2.0481 5.09789 4.06882C4.87635 4.68241 4.89784 5.68941 4.91395 6.49904L4.89515 6.97032C4.72463 7.30598 4.5568 7.73027 4.72598 8.54527C4.91126 9.45022 5.51815 10.1404 6.08475 10.6949C6.18277 10.7969 6.40162 11.2266 6.54663 11.5099C6.73729 11.8831 6.91989 12.2416 7.11324 12.5102V13.1828C7.11324 13.5024 6.88633 13.779 6.57349 13.8407L3.63707 14.4288C1.76137 14.8034 0.399902 16.4643 0.399902 18.3776V19.6545C0.399902 20.3943 1.00276 20.9972 1.74257 20.9972H17.8546C18.5944 20.9972 19.1972 20.3943 19.1972 19.6545V18.3776C19.1972 16.4643 17.8358 14.8034 15.9587 14.4288Z" fill="white"/>
</svg>
