<svg width="20" height="21" viewBox="0 0 20 21" fill="none" xmlns="http://www.w3.org/2000/svg">
<path d="M16.215 17.1303L14.4693 14.0983C14.1211 13.4964 13.3299 13.2998 12.7058 13.6613L11.1805 14.544C11.1158 14.4817 11.0489 14.4168 10.9787 14.3481C10.3323 13.7229 9.44791 12.8665 8.64819 11.4765C7.84586 10.0834 7.54818 8.8855 7.33021 8.01087C7.3073 7.91825 7.28547 7.82903 7.26313 7.74387L8.28656 7.15246L8.79001 6.86062C9.41508 6.49868 9.64004 5.71349 9.29328 5.11047L7.54764 2.07824C7.20071 1.47588 6.40922 1.27926 5.78415 1.6412L4.92979 2.13902L4.94327 2.16224C4.64043 2.39026 4.3628 2.67245 4.12641 2.99363C3.90561 3.30049 3.73779 3.6048 3.61348 3.92149C2.59667 6.45567 3.14934 9.16882 5.51933 13.2846C8.79549 18.9735 12.4958 19.6015 12.6559 19.6267C13.0059 19.6769 13.3527 19.6828 13.7174 19.6427C14.1095 19.5989 14.4918 19.4991 14.8399 19.3506L14.8511 19.3676L15.7117 18.8814C16.3357 18.5193 16.5613 17.734 16.215 17.1303Z" fill="white"/>
</svg>
