<svg width="24" height="19" viewBox="0 0 24 19" fill="none" xmlns="http://www.w3.org/2000/svg">
<path d="M16.5883 11.7894C16.4453 12.3229 16.7619 12.8712 17.2954 13.0141C17.8288 13.1571 18.3772 12.8405 18.5201 12.307L16.5883 11.7894ZM13.3651 2.80268L13.8074 1.90581L13.3651 2.80268ZM8.01017 2.18664L8.23724 3.16052L8.01017 2.18664ZM1.83106 10.2394L0.831591 10.2721L1.83106 10.2394ZM3.06021 15.9118C3.42436 16.327 4.05617 16.3684 4.4714 16.0043C4.88663 15.6401 4.92804 15.0083 4.56389 14.5931L3.06021 15.9118ZM18.5201 12.307C19.059 10.2958 18.8839 8.1599 18.0246 6.2633L16.2028 7.08871C16.8712 8.56385 17.0074 10.2251 16.5883 11.7894L18.5201 12.307ZM18.0246 6.2633C17.1652 4.3667 15.6748 2.82674 13.8074 1.90581L12.9228 3.69955C14.3753 4.41583 15.5344 5.61358 16.2028 7.08871L18.0246 6.2633ZM13.8074 1.90581C11.9399 0.984873 9.81089 0.739949 7.78309 1.21277L8.23724 3.16052C9.81442 2.79277 11.4703 2.98327 12.9228 3.69955L13.8074 1.90581ZM7.78309 1.21277C5.75528 1.68559 3.95416 2.84689 2.68659 4.49881L4.2733 5.71633C5.25918 4.43151 6.66006 3.52827 8.23724 3.16052L7.78309 1.21277ZM2.68659 4.49881C1.41903 6.15073 0.763464 8.19105 0.831591 10.2721L2.83052 10.2067C2.77753 8.58808 3.28742 7.00116 4.2733 5.71633L2.68659 4.49881ZM0.831591 10.2721C0.899718 12.3532 1.68732 14.3463 3.06021 15.9118L4.56389 14.5931C3.49609 13.3755 2.88351 11.8253 2.83052 10.2067L0.831591 10.2721Z" fill="#0A9DDC"/>
<path d="M12.4278 9.34367C12.0373 9.73421 12.0373 10.3674 12.4278 10.7579L17.4989 15.829L22.5699 10.7579C22.9605 10.3673 22.9604 9.73417 22.5699 9.34367C22.1794 8.95318 21.5463 8.95313 21.1557 9.34367L17.4989 13.0005L13.842 9.34367C13.4515 8.95318 12.8184 8.95313 12.4278 9.34367Z" fill="#0A9DDC"/>
</svg>
