<svg width="252" height="348" viewBox="0 0 252 348" fill="none" xmlns="http://www.w3.org/2000/svg">
<path d="M15 14H234.003L234.997 328H15V14Z" stroke="#E8E8E8" stroke-width="2"/>
<path d="M16 18H231.021L231.997 327H16V18Z" stroke="#E8E8E8" stroke-width="2"/>
<g filter="url(#filter0_d)">
<path d="M14 11H181L238 68.561V331H14V11Z" fill="url(#paint0_linear)"/>
</g>
<path d="M178 11V71H238V68.5L181 11H178Z" fill="#DDFBFF"/>
<g filter="url(#filter1_di)">
<path d="M31 278.8C31 274.32 31 272.079 31.8719 270.368C32.6389 268.863 33.8628 267.639 35.3681 266.872C37.0794 266 39.3196 266 43.8 266H210.2C214.68 266 216.921 266 218.632 266.872C220.137 267.639 221.361 268.863 222.128 270.368C223 272.079 223 274.32 223 278.8V302.2C223 306.68 223 308.921 222.128 310.632C221.361 312.137 220.137 313.361 218.632 314.128C216.921 315 214.68 315 210.2 315H43.8C39.3196 315 37.0794 315 35.3681 314.128C33.8628 313.361 32.6389 312.137 31.8719 310.632C31 308.921 31 306.68 31 302.2V278.8Z" fill="url(#paint1_linear)"/>
</g>
<g filter="url(#filter2_d)">
<path d="M65.4258 286.813C64.5996 286.813 63.9551 287.153 63.4922 287.833C63.0293 288.507 62.7979 289.438 62.7979 290.628C62.7979 293.101 63.7383 294.337 65.6191 294.337C66.1875 294.337 66.7383 294.258 67.2715 294.1C67.8047 293.941 68.3408 293.751 68.8799 293.528V296.464C67.8076 296.938 66.5947 297.176 65.2412 297.176C63.3018 297.176 61.8135 296.613 60.7764 295.488C59.7451 294.363 59.2295 292.737 59.2295 290.61C59.2295 289.28 59.4785 288.111 59.9766 287.104C60.4805 286.096 61.2012 285.322 62.1387 284.783C63.082 284.238 64.1895 283.966 65.4609 283.966C66.8496 283.966 68.1768 284.268 69.4424 284.871L68.3789 287.604C67.9043 287.382 67.4297 287.194 66.9551 287.042C66.4805 286.89 65.9707 286.813 65.4258 286.813ZM78.1611 287.042H81.958L78.2314 291.814L82.248 297H78.3193L74.6279 291.946V297H71.1914V287.042H74.6279V291.867L78.1611 287.042ZM89.8506 297L89.1914 295.682H89.1211C88.6582 296.256 88.1865 296.648 87.7061 296.859C87.2256 297.07 86.6045 297.176 85.8428 297.176C84.9053 297.176 84.167 296.895 83.6279 296.332C83.0889 295.77 82.8193 294.979 82.8193 293.959C82.8193 292.898 83.1885 292.11 83.9268 291.595C84.665 291.073 85.7344 290.78 87.1348 290.716L88.7959 290.663V290.522C88.7959 289.702 88.3916 289.292 87.583 289.292C86.8564 289.292 85.9336 289.538 84.8145 290.03L83.8213 287.763C84.9814 287.165 86.4463 286.866 88.2158 286.866C89.4932 286.866 90.4805 287.183 91.1777 287.815C91.8809 288.448 92.2324 289.333 92.2324 290.47V297H89.8506ZM87.3018 294.75C87.7178 294.75 88.0723 294.618 88.3652 294.354C88.6641 294.091 88.8135 293.748 88.8135 293.326V292.553L88.0225 292.588C86.8916 292.629 86.3262 293.045 86.3262 293.836C86.3262 294.445 86.6514 294.75 87.3018 294.75ZM97.5762 287.042V290.54C97.5762 291.226 97.8896 291.568 98.5166 291.568C99.1846 291.568 99.958 291.422 100.837 291.129V287.042H104.273V297H100.837V293.379C99.7002 293.871 98.6484 294.117 97.6816 294.117C96.4746 294.117 95.5811 293.842 95.001 293.291C94.4268 292.734 94.1396 291.876 94.1396 290.716V287.042H97.5762ZM113.142 297L112.482 295.682H112.412C111.949 296.256 111.478 296.648 110.997 296.859C110.517 297.07 109.896 297.176 109.134 297.176C108.196 297.176 107.458 296.895 106.919 296.332C106.38 295.77 106.11 294.979 106.11 293.959C106.11 292.898 106.479 292.11 107.218 291.595C107.956 291.073 109.025 290.78 110.426 290.716L112.087 290.663V290.522C112.087 289.702 111.683 289.292 110.874 289.292C110.147 289.292 109.225 289.538 108.105 290.03L107.112 287.763C108.272 287.165 109.737 286.866 111.507 286.866C112.784 286.866 113.771 287.183 114.469 287.815C115.172 288.448 115.523 289.333 115.523 290.47V297H113.142ZM110.593 294.75C111.009 294.75 111.363 294.618 111.656 294.354C111.955 294.091 112.104 293.748 112.104 293.326V292.553L111.313 292.588C110.183 292.629 109.617 293.045 109.617 293.836C109.617 294.445 109.942 294.75 110.593 294.75ZM127.099 289.6H123.82V297H120.384V289.6H117.105V287.042H127.099V289.6ZM132.161 287.042V290.628H132.486C134.215 290.628 135.466 290.868 136.239 291.349C137.013 291.829 137.399 292.614 137.399 293.704C137.399 294.847 137.027 295.682 136.283 296.209C135.539 296.736 134.411 297 132.899 297H128.725V287.042H132.161ZM133.963 293.854C133.963 293.508 133.866 293.259 133.673 293.106C133.479 292.954 133.157 292.878 132.706 292.878H132.161V294.75H132.741C133.556 294.75 133.963 294.451 133.963 293.854ZM153.598 289.617C153.598 290.197 153.428 290.678 153.088 291.059C152.748 291.439 152.282 291.68 151.69 291.779V291.85C152.405 291.932 152.953 292.178 153.334 292.588C153.715 292.992 153.905 293.514 153.905 294.152C153.905 296.051 152.358 297 149.265 297H143.842V287.042H149.282C150.729 287.042 151.811 287.253 152.525 287.675C153.24 288.097 153.598 288.744 153.598 289.617ZM150.416 293.818C150.416 293.508 150.311 293.285 150.1 293.15C149.889 293.016 149.584 292.948 149.186 292.948H147.278V294.75H149.15C149.994 294.75 150.416 294.439 150.416 293.818ZM150.179 290.074C150.179 289.553 149.862 289.292 149.229 289.292H147.278V290.786H149.098C149.461 290.786 149.73 290.719 149.906 290.584C150.088 290.449 150.179 290.279 150.179 290.074ZM170.104 288.237C170.104 289.673 169.679 290.783 168.829 291.568C167.985 292.348 166.784 292.737 165.226 292.737H164.25V297H160.778V284.15H165.226C166.849 284.15 168.067 284.505 168.882 285.214C169.696 285.923 170.104 286.931 170.104 288.237ZM164.25 289.907H164.883C165.404 289.907 165.817 289.761 166.122 289.468C166.433 289.175 166.588 288.771 166.588 288.255C166.588 287.388 166.107 286.954 165.146 286.954H164.25V289.907ZM183.059 290.303C183.059 292.447 182.467 294.1 181.283 295.26C180.105 296.42 178.447 297 176.309 297H172.151V284.15H176.599C178.661 284.15 180.252 284.678 181.371 285.732C182.496 286.787 183.059 288.311 183.059 290.303ZM179.455 290.426C179.455 289.248 179.221 288.375 178.752 287.807C178.289 287.238 177.583 286.954 176.634 286.954H175.623V294.152H176.396C177.451 294.152 178.225 293.848 178.717 293.238C179.209 292.623 179.455 291.686 179.455 290.426ZM188.789 297H185.37V284.15H192.964V286.937H188.789V289.389H192.639V292.175H188.789V297Z" fill="white"/>
</g>
<rect x="48" y="81" width="136" height="24" fill="#0A9DDC"/>
<rect x="47" y="107" width="77" height="24" fill="#0A9DDC"/>
<path d="M67.2422 101H63.3555V89.877H59.4199V101H55.543V86.7227H67.2422V101ZM76.7441 101.195C76.1842 101.195 75.6829 101.104 75.2402 100.922C74.7975 100.733 74.3581 100.398 73.9219 99.916H73.7461C73.8633 100.691 73.9219 101.173 73.9219 101.361V105.805H70.1035V89.9355H73.209L73.7461 91.3418H73.9219C74.6315 90.2741 75.6113 89.7402 76.8613 89.7402C78.0853 89.7402 79.0456 90.248 79.7422 91.2637C80.4388 92.2793 80.7871 93.6725 80.7871 95.4434C80.7871 97.2272 80.4225 98.6335 79.6934 99.6621C78.9707 100.684 77.9876 101.195 76.7441 101.195ZM75.4648 92.7383C74.9049 92.7383 74.5111 92.9401 74.2832 93.3438C74.0618 93.7409 73.9414 94.3333 73.9219 95.1211V95.4238C73.9219 96.3743 74.0488 97.0612 74.3027 97.4844C74.5566 97.9076 74.957 98.1191 75.5039 98.1191C75.9922 98.1191 76.347 97.9108 76.5684 97.4941C76.7897 97.071 76.9004 96.3743 76.9004 95.4043C76.9004 94.4538 76.7897 93.7734 76.5684 93.3633C76.347 92.9466 75.9792 92.7383 75.4648 92.7383ZM93.541 95.4434C93.541 97.2533 93.0527 98.666 92.0762 99.6816C91.1061 100.691 89.7454 101.195 87.9941 101.195C86.3145 101.195 84.9766 100.678 83.9805 99.6426C82.9909 98.6074 82.4961 97.2077 82.4961 95.4434C82.4961 93.64 82.9811 92.2402 83.9512 91.2441C84.9277 90.2415 86.2949 89.7402 88.0527 89.7402C89.14 89.7402 90.1003 89.9714 90.9336 90.4336C91.7669 90.8958 92.4082 91.5599 92.8574 92.4258C93.3132 93.2852 93.541 94.291 93.541 95.4434ZM86.373 95.4434C86.373 96.3939 86.5 97.1198 86.7539 97.6211C87.0078 98.1159 87.4342 98.3633 88.0332 98.3633C88.6257 98.3633 89.0423 98.1159 89.2832 97.6211C89.5306 97.1198 89.6543 96.3939 89.6543 95.4434C89.6543 94.4993 89.5306 93.7865 89.2832 93.3047C89.0358 92.8229 88.6126 92.582 88.0137 92.582C87.4277 92.582 87.0078 92.8229 86.7539 93.3047C86.5 93.7799 86.373 94.4928 86.373 95.4434ZM103.951 89.9355V92.7773H99.5469V101H95.7285V89.9355H103.951ZM112.389 101.195C111.829 101.195 111.327 101.104 110.885 100.922C110.442 100.733 110.003 100.398 109.566 99.916H109.391C109.508 100.691 109.566 101.173 109.566 101.361V105.805H105.748V89.9355H108.854L109.391 91.3418H109.566C110.276 90.2741 111.256 89.7402 112.506 89.7402C113.73 89.7402 114.69 90.248 115.387 91.2637C116.083 92.2793 116.432 93.6725 116.432 95.4434C116.432 97.2272 116.067 98.6335 115.338 99.6621C114.615 100.684 113.632 101.195 112.389 101.195ZM111.109 92.7383C110.549 92.7383 110.156 92.9401 109.928 93.3438C109.706 93.7409 109.586 94.3333 109.566 95.1211V95.4238C109.566 96.3743 109.693 97.0612 109.947 97.4844C110.201 97.9076 110.602 98.1191 111.148 98.1191C111.637 98.1191 111.992 97.9108 112.213 97.4941C112.434 97.071 112.545 96.3743 112.545 95.4043C112.545 94.4538 112.434 93.7734 112.213 93.3633C111.992 92.9466 111.624 92.7383 111.109 92.7383ZM125.836 101L125.104 99.5352H125.025C124.511 100.173 123.987 100.609 123.453 100.844C122.919 101.078 122.229 101.195 121.383 101.195C120.341 101.195 119.521 100.883 118.922 100.258C118.323 99.6328 118.023 98.7539 118.023 97.6211C118.023 96.4427 118.434 95.5671 119.254 94.9941C120.074 94.4147 121.262 94.0892 122.818 94.0176L124.664 93.959V93.8027C124.664 92.8913 124.215 92.4355 123.316 92.4355C122.509 92.4355 121.484 92.709 120.24 93.2559L119.137 90.7363C120.426 90.0723 122.053 89.7402 124.02 89.7402C125.439 89.7402 126.536 90.0918 127.311 90.7949C128.092 91.498 128.482 92.4811 128.482 93.7441V101H125.836ZM123.004 98.5C123.466 98.5 123.86 98.3535 124.186 98.0605C124.518 97.7676 124.684 97.3867 124.684 96.918V96.0586L123.805 96.0977C122.548 96.1432 121.92 96.6055 121.92 97.4844C121.92 98.1615 122.281 98.5 123.004 98.5ZM145.621 101H142.203V92.7383C141.995 93.5781 141.757 94.4473 141.49 95.3457C141.23 96.2376 140.621 98.1224 139.664 101H137.066L135.924 97.4648C135.54 96.2799 135.136 94.9486 134.713 93.4707L134.498 92.7383V101H131.08V89.9355H136.305L137.164 92.5234C137.327 93.0182 137.551 93.806 137.838 94.8867C138.124 95.9609 138.3 96.7064 138.365 97.123C138.404 96.8171 138.635 95.9512 139.059 94.5254L139.439 93.2168L140.504 89.9355H145.621V101ZM162.809 101H159.391V92.7383C159.182 93.5781 158.945 94.4473 158.678 95.3457C158.417 96.2376 157.809 98.1224 156.852 101H154.254L153.111 97.4648C152.727 96.2799 152.324 94.9486 151.9 93.4707L151.686 92.7383V101H148.268V89.9355H153.492L154.352 92.5234C154.514 93.0182 154.739 93.806 155.025 94.8867C155.312 95.9609 155.488 96.7064 155.553 97.123C155.592 96.8171 155.823 95.9512 156.246 94.5254L156.627 93.2168L157.691 89.9355H162.809V101ZM172.672 101L171.939 99.5352H171.861C171.347 100.173 170.823 100.609 170.289 100.844C169.755 101.078 169.065 101.195 168.219 101.195C167.177 101.195 166.357 100.883 165.758 100.258C165.159 99.6328 164.859 98.7539 164.859 97.6211C164.859 96.4427 165.27 95.5671 166.09 94.9941C166.91 94.4147 168.098 94.0892 169.654 94.0176L171.5 93.959V93.8027C171.5 92.8913 171.051 92.4355 170.152 92.4355C169.345 92.4355 168.32 92.709 167.076 93.2559L165.973 90.7363C167.262 90.0723 168.889 89.7402 170.855 89.7402C172.275 89.7402 173.372 90.0918 174.146 90.7949C174.928 91.498 175.318 92.4811 175.318 93.7441V101H172.672ZM169.84 98.5C170.302 98.5 170.696 98.3535 171.021 98.0605C171.354 97.7676 171.52 97.3867 171.52 96.918V96.0586L170.641 96.0977C169.384 96.1432 168.756 96.6055 168.756 97.4844C168.756 98.1615 169.117 98.5 169.84 98.5ZM63.0625 113.936H67.2812L63.1406 119.238L67.6035 125H63.2383L59.1367 119.385V125H55.3184V113.936H59.1367V119.297L63.0625 113.936ZM67.4961 113.936H71.5195L73.3945 120.283C73.4857 120.615 73.5475 121.016 73.5801 121.484H73.6582C73.7103 121.035 73.7884 120.641 73.8926 120.303L75.8164 113.936H79.7129L75.3379 125.703C74.778 127.201 74.0879 128.258 73.2676 128.877C72.4538 129.495 71.3893 129.805 70.0742 129.805C69.5664 129.805 69.0456 129.749 68.5117 129.639V126.641C68.8568 126.719 69.2507 126.758 69.6934 126.758C70.0319 126.758 70.3281 126.693 70.582 126.562C70.8359 126.432 71.0573 126.247 71.2461 126.006C71.4349 125.771 71.6367 125.384 71.8516 124.844L67.4961 113.936ZM87.6816 125.195C87.1217 125.195 86.6204 125.104 86.1777 124.922C85.735 124.733 85.2956 124.398 84.8594 123.916H84.6836C84.8008 124.691 84.8594 125.173 84.8594 125.361V129.805H81.041V113.936H84.1465L84.6836 115.342H84.8594C85.569 114.274 86.5488 113.74 87.7988 113.74C89.0228 113.74 89.9831 114.248 90.6797 115.264C91.3763 116.279 91.7246 117.673 91.7246 119.443C91.7246 121.227 91.36 122.633 90.6309 123.662C89.9082 124.684 88.9251 125.195 87.6816 125.195ZM86.4023 116.738C85.8424 116.738 85.4486 116.94 85.2207 117.344C84.9993 117.741 84.8789 118.333 84.8594 119.121V119.424C84.8594 120.374 84.9863 121.061 85.2402 121.484C85.4941 121.908 85.8945 122.119 86.4414 122.119C86.9297 122.119 87.2845 121.911 87.5059 121.494C87.7272 121.071 87.8379 120.374 87.8379 119.404C87.8379 118.454 87.7272 117.773 87.5059 117.363C87.2845 116.947 86.9167 116.738 86.4023 116.738ZM98.9512 125.195C97.1413 125.195 95.7676 124.707 94.8301 123.73C93.8991 122.754 93.4336 121.351 93.4336 119.521C93.4336 117.686 93.9382 116.263 94.9473 115.254C95.9564 114.245 97.3919 113.74 99.2539 113.74C100.536 113.74 101.744 114.02 102.877 114.58L101.754 117.402C101.292 117.201 100.865 117.041 100.475 116.924C100.084 116.8 99.6771 116.738 99.2539 116.738C98.6354 116.738 98.1569 116.979 97.8184 117.461C97.4798 117.943 97.3105 118.623 97.3105 119.502C97.3105 121.273 97.9648 122.158 99.2734 122.158C100.393 122.158 101.467 121.833 102.496 121.182V124.219C101.513 124.87 100.331 125.195 98.9512 125.195ZM111.91 125L111.178 123.535H111.1C110.585 124.173 110.061 124.609 109.527 124.844C108.993 125.078 108.303 125.195 107.457 125.195C106.415 125.195 105.595 124.883 104.996 124.258C104.397 123.633 104.098 122.754 104.098 121.621C104.098 120.443 104.508 119.567 105.328 118.994C106.148 118.415 107.337 118.089 108.893 118.018L110.738 117.959V117.803C110.738 116.891 110.289 116.436 109.391 116.436C108.583 116.436 107.558 116.709 106.314 117.256L105.211 114.736C106.5 114.072 108.128 113.74 110.094 113.74C111.513 113.74 112.61 114.092 113.385 114.795C114.166 115.498 114.557 116.481 114.557 117.744V125H111.91ZM109.078 122.5C109.54 122.5 109.934 122.354 110.26 122.061C110.592 121.768 110.758 121.387 110.758 120.918V120.059L109.879 120.098C108.622 120.143 107.994 120.605 107.994 121.484C107.994 122.161 108.355 122.5 109.078 122.5Z" fill="white"/>
<rect opacity="0.1" x="54" y="157" width="144" height="3" fill="#3C3C3C"/>
<rect opacity="0.1" x="54" y="164" width="136" height="3" fill="#3C3C3C"/>
<rect opacity="0.1" x="54" y="171" width="112" height="3" fill="#3C3C3C"/>
<rect opacity="0.1" x="54" y="190" width="144" height="3" fill="#3C3C3C"/>
<rect opacity="0.1" x="54" y="197" width="128" height="3" fill="#3C3C3C"/>
<rect opacity="0.1" x="54" y="224" width="112" height="3" fill="#3C3C3C"/>
<rect opacity="0.1" x="54" y="231" width="131" height="3" fill="#3C3C3C"/>
<defs>
<filter id="filter0_d" x="0" y="0" width="252" height="348" filterUnits="userSpaceOnUse" color-interpolation-filters="sRGB">
<feFlood flood-opacity="0" result="BackgroundImageFix"/>
<feColorMatrix in="SourceAlpha" type="matrix" values="0 0 0 0 0 0 0 0 0 0 0 0 0 0 0 0 0 0 127 0"/>
<feOffset dy="3"/>
<feGaussianBlur stdDeviation="7"/>
<feColorMatrix type="matrix" values="0 0 0 0 0.515035 0 0 0 0 0.72971 0 0 0 0 0.758333 0 0 0 0.5 0"/>
<feBlend mode="normal" in2="BackgroundImageFix" result="effect1_dropShadow"/>
<feBlend mode="normal" in="SourceGraphic" in2="effect1_dropShadow" result="shape"/>
</filter>
<filter id="filter1_di" x="17" y="256" width="220" height="77" filterUnits="userSpaceOnUse" color-interpolation-filters="sRGB">
<feFlood flood-opacity="0" result="BackgroundImageFix"/>
<feColorMatrix in="SourceAlpha" type="matrix" values="0 0 0 0 0 0 0 0 0 0 0 0 0 0 0 0 0 0 127 0"/>
<feOffset dy="4"/>
<feGaussianBlur stdDeviation="7"/>
<feColorMatrix type="matrix" values="0 0 0 0 0 0 0 0 0 0 0 0 0 0 0 0 0 0 0.2 0"/>
<feBlend mode="normal" in2="BackgroundImageFix" result="effect1_dropShadow"/>
<feBlend mode="normal" in="SourceGraphic" in2="effect1_dropShadow" result="shape"/>
<feColorMatrix in="SourceAlpha" type="matrix" values="0 0 0 0 0 0 0 0 0 0 0 0 0 0 0 0 0 0 127 0" result="hardAlpha"/>
<feOffset dy="2"/>
<feGaussianBlur stdDeviation="12"/>
<feComposite in2="hardAlpha" operator="arithmetic" k2="-1" k3="1"/>
<feColorMatrix type="matrix" values="0 0 0 0 1 0 0 0 0 0.807333 0 0 0 0 0.433333 0 0 0 0.6 0"/>
<feBlend mode="normal" in2="shape" result="effect2_innerShadow"/>
</filter>
<filter id="filter2_d" x="59.2295" y="282.965" width="133.734" height="14.21" filterUnits="userSpaceOnUse" color-interpolation-filters="sRGB">
<feFlood flood-opacity="0" result="BackgroundImageFix"/>
<feColorMatrix in="SourceAlpha" type="matrix" values="0 0 0 0 0 0 0 0 0 0 0 0 0 0 0 0 0 0 127 0"/>
<feOffset dy="-1"/>
<feColorMatrix type="matrix" values="0 0 0 0 0 0 0 0 0 0 0 0 0 0 0 0 0 0 0.15 0"/>
<feBlend mode="normal" in2="BackgroundImageFix" result="effect1_dropShadow"/>
<feBlend mode="normal" in="SourceGraphic" in2="effect1_dropShadow" result="shape"/>
</filter>
<linearGradient id="paint0_linear" x1="126" y1="11" x2="126" y2="331" gradientUnits="userSpaceOnUse">
<stop stop-color="white"/>
<stop offset="1" stop-color="#DCFBFF"/>
</linearGradient>
<linearGradient id="paint1_linear" x1="127" y1="266" x2="127" y2="315" gradientUnits="userSpaceOnUse">
<stop stop-color="#FF9900"/>
<stop offset="1" stop-color="#FF6B00"/>
</linearGradient>
</defs>
</svg>
