<svg width="16" height="16" viewBox="0 0 16 16" fill="none" xmlns="http://www.w3.org/2000/svg">
<g filter="url(#filter0_i)">
<path d="M6.39402 2.35432C6.8479 1.58014 7.07483 1.19306 7.36999 1.06258C7.62751 0.948754 7.92108 0.948754 8.17859 1.06258C8.47375 1.19306 8.70069 1.58014 9.15457 2.35432L10.3039 4.31472C10.4343 4.53709 10.4995 4.64828 10.5867 4.73685C10.664 4.81536 10.7537 4.88056 10.8522 4.92981C10.9634 4.98537 11.0893 5.01301 11.3411 5.06828L13.5607 5.55556C14.4372 5.74799 14.8755 5.84421 15.0908 6.08461C15.2786 6.29434 15.3694 6.57354 15.3407 6.85363C15.3078 7.17466 15.0098 7.51011 14.4138 8.18101L12.9045 9.87988C12.7333 10.0726 12.6477 10.1689 12.5904 10.2792C12.5396 10.377 12.5053 10.4825 12.4889 10.5915C12.4705 10.7144 12.4831 10.8426 12.5083 11.0992L12.7308 13.3607C12.8186 14.2538 12.8625 14.7004 12.7004 14.9794C12.559 15.2229 12.3215 15.3954 12.0463 15.4547C11.7308 15.5226 11.3197 15.3429 10.4974 14.9833L8.41531 14.0729C8.17913 13.9696 8.06104 13.918 7.93843 13.8976C7.82975 13.8795 7.71883 13.8795 7.61015 13.8976C7.48754 13.918 7.36945 13.9696 7.13327 14.0729L5.05115 14.9833C4.22891 15.3429 3.81778 15.5226 3.50231 15.4547C3.22707 15.3954 2.98956 15.2229 2.84814 14.9794C2.68604 14.7004 2.72996 14.2538 2.81782 13.3607L3.04028 11.0992C3.06552 10.8426 3.07813 10.7144 3.05965 10.5915C3.04326 10.4825 3.00899 10.377 2.9582 10.2792C2.90091 10.1689 2.81531 10.0726 2.64411 9.87988L1.13482 8.18101C0.538795 7.51011 0.240781 7.17466 0.207904 6.85363C0.179221 6.57354 0.269939 6.29434 0.457775 6.08461C0.67307 5.84421 1.11134 5.748 1.98788 5.55556L4.20749 5.06828C4.45927 5.01301 4.58516 4.98537 4.69634 4.92981C4.7949 4.88056 4.88463 4.81536 4.96193 4.73685C5.04913 4.64828 5.11431 4.53709 5.24469 4.31472L6.39402 2.35432Z" fill="url(#paint0_linear)"/>
</g>
<defs>
<filter id="filter0_i" x="0.203125" y="0.976562" width="15.1432" height="15.7612" filterUnits="userSpaceOnUse" color-interpolation-filters="sRGB">
<feFlood flood-opacity="0" result="BackgroundImageFix"/>
<feBlend mode="normal" in="SourceGraphic" in2="BackgroundImageFix" result="shape"/>
<feColorMatrix in="SourceAlpha" type="matrix" values="0 0 0 0 0 0 0 0 0 0 0 0 0 0 0 0 0 0 127 0" result="hardAlpha"/>
<feOffset dy="1.26957"/>
<feGaussianBlur stdDeviation="7.61742"/>
<feComposite in2="hardAlpha" operator="arithmetic" k2="-1" k3="1"/>
<feColorMatrix type="matrix" values="0 0 0 0 1 0 0 0 0 0.807333 0 0 0 0 0.433333 0 0 0 0.6 0"/>
<feBlend mode="normal" in2="shape" result="effect1_innerShadow"/>
</filter>
<linearGradient id="paint0_linear" x1="7.7743" y1="0" x2="7.7743" y2="16.0767" gradientUnits="userSpaceOnUse">
<stop stop-color="#FF9900"/>
<stop offset="1" stop-color="#FF6B00"/>
</linearGradient>
</defs>
</svg>
