<svg width="40" height="40" viewBox="0 0 40 40" fill="none" xmlns="http://www.w3.org/2000/svg">
<path d="M20 40C31.0457 40 40 31.0457 40 20C40 8.95431 31.0457 0 20 0C8.95431 0 0 8.95431 0 20C0 31.0457 8.95431 40 20 40Z" fill="#4D76A1"/>
<path fill-rule="evenodd" clip-rule="evenodd" d="M19.2452 28.7706H20.815C20.815 28.7706 21.2892 28.7186 21.5312 28.4576C21.7541 28.218 21.7469 27.7681 21.7469 27.7681C21.7469 27.7681 21.7163 25.6618 22.6938 25.3516C23.6575 25.0461 24.895 27.3874 26.2066 28.2876C27.1985 28.9689 27.9521 28.8195 27.9521 28.8195L31.4592 28.7706C31.4592 28.7706 33.2939 28.6576 32.424 27.2152C32.3527 27.0971 31.9173 26.1481 29.8164 24.1979C27.6174 22.1569 27.9119 22.487 30.5608 18.9564C32.174 16.8062 32.819 15.4935 32.6175 14.9313C32.4254 14.3958 31.2389 14.5373 31.2389 14.5373L27.2901 14.5619C27.2901 14.5619 26.9974 14.522 26.7803 14.6518C26.5681 14.7791 26.4316 15.0757 26.4316 15.0757C26.4316 15.0757 25.8066 16.7396 24.9731 18.1546C23.2147 21.1404 22.5117 21.298 22.2243 21.1126C21.5558 20.6805 21.7227 19.3767 21.7227 18.4505C21.7227 15.557 22.1616 14.3505 20.8681 14.0382C20.4389 13.9345 20.123 13.866 19.0253 13.855C17.6163 13.8404 16.4237 13.8592 15.7485 14.1901C15.2993 14.4101 14.9527 14.9003 15.1638 14.9284C15.4248 14.9634 16.0159 15.0878 16.3293 15.5146C16.7339 16.065 16.7197 17.3014 16.7197 17.3014C16.7197 17.3014 16.9521 20.7076 16.1767 21.1308C15.6444 21.421 14.9142 20.8285 13.3466 18.1196C12.5434 16.7321 11.937 15.1983 11.937 15.1983C11.937 15.1983 11.82 14.9117 11.6115 14.7584C11.3583 14.5726 11.0047 14.5135 11.0047 14.5135L7.2523 14.5381C7.2523 14.5381 6.689 14.5537 6.48222 14.7987C6.29825 15.0165 6.4676 15.4671 6.4676 15.4671C6.4676 15.4671 9.40531 22.3401 12.7316 25.8037C15.7817 28.9792 19.2452 28.7706 19.2452 28.7706Z" fill="white"/>
</svg>
