<svg width="142" height="139" viewBox="0 0 142 139" fill="none" xmlns="http://www.w3.org/2000/svg">
<g filter="url(#filter0_di)">
<path d="M24.4208 46.324C20.5944 48.5331 19.2834 53.4259 21.4926 57.2522L42.7783 94.1201C42.8099 94.175 42.8421 94.2293 42.8749 94.283L42.8745 94.2846L42.8741 94.2861L53.4922 112.678C53.4922 112.678 50.675 98.7986 66.2928 89.7816L110.864 64.0484C114.69 61.8392 116.001 56.9465 113.792 53.1201L92.5066 16.2522C90.2975 12.4259 85.4048 11.1149 81.5784 13.324L24.4208 46.324Z" fill="url(#paint0_linear)"/>
</g>
<rect opacity="0.6" x="46.4805" y="59.4883" width="46.8571" height="3.90476" transform="rotate(-30 46.4805 59.4883)" fill="url(#paint1_linear)"/>
<rect opacity="0.6" x="52.3369" y="69.6289" width="31.2381" height="3.90476" transform="rotate(-30 52.3369 69.6289)" fill="url(#paint2_linear)"/>
<defs>
<filter id="filter0_di" x="0.459442" y="0.807846" width="141.08" height="137.42" filterUnits="userSpaceOnUse" color-interpolation-filters="sRGB">
<feFlood flood-opacity="0" result="BackgroundImageFix"/>
<feColorMatrix in="SourceAlpha" type="matrix" values="0 0 0 0 0 0 0 0 0 0 0 0 0 0 0 0 0 0 127 0"/>
<feOffset dy="8.51637"/>
<feGaussianBlur stdDeviation="8.51637"/>
<feColorMatrix type="matrix" values="0 0 0 0 0.845833 0 0 0 0 0.449341 0 0 0 0 0.0563889 0 0 0 0.4 0"/>
<feBlend mode="normal" in2="BackgroundImageFix" result="effect1_dropShadow"/>
<feBlend mode="normal" in="SourceGraphic" in2="effect1_dropShadow" result="shape"/>
<feColorMatrix in="SourceAlpha" type="matrix" values="0 0 0 0 0 0 0 0 0 0 0 0 0 0 0 0 0 0 127 0" result="hardAlpha"/>
<feOffset dy="2.43325"/>
<feGaussianBlur stdDeviation="14.5995"/>
<feComposite in2="hardAlpha" operator="arithmetic" k2="-1" k3="1"/>
<feColorMatrix type="matrix" values="0 0 0 0 1 0 0 0 0 0.807333 0 0 0 0 0.433333 0 0 0 0.6 0"/>
<feBlend mode="normal" in2="shape" result="effect2_innerShadow"/>
</filter>
<linearGradient id="paint0_linear" x1="52.9992" y1="29.8242" x2="85.3158" y2="85.7982" gradientUnits="userSpaceOnUse">
<stop stop-color="#FFA800"/>
<stop offset="1" stop-color="#FF0000"/>
</linearGradient>
<linearGradient id="paint1_linear" x1="69.909" y1="59.4883" x2="69.909" y2="63.393" gradientUnits="userSpaceOnUse">
<stop stop-color="#FFEFD1"/>
<stop offset="1" stop-color="#FF9900"/>
</linearGradient>
<linearGradient id="paint2_linear" x1="67.956" y1="69.6289" x2="67.956" y2="73.5337" gradientUnits="userSpaceOnUse">
<stop stop-color="#FFEFD1"/>
<stop offset="1" stop-color="#FF9900"/>
</linearGradient>
</defs>
</svg>
