<svg width="145" height="145" viewBox="0 0 145 145" fill="none" xmlns="http://www.w3.org/2000/svg">
<g filter="url(#filter0_di)">
<circle cx="72.6881" cy="66.5075" r="44" transform="rotate(-30 72.6881 66.5075)" fill="url(#paint0_linear)"/>
</g>
<circle opacity="0.4" cx="72.6865" cy="66.5075" r="37.9677" transform="rotate(-30 72.6865 66.5075)" stroke="white" stroke-width="0.709677" stroke-dasharray="1.42 1.42"/>
<path opacity="0.6" d="M52.3311 60.3675C49.6295 55.6883 48.2788 53.3487 48.5012 51.4749C48.6951 49.8419 49.5875 48.3731 50.9475 47.4487C52.5082 46.3879 55.207 46.5089 60.6047 46.7508L88.1154 47.9839C92.8401 48.1956 95.2024 48.3015 96.6081 49.3618C97.8362 50.2881 98.6359 51.6731 98.824 53.1999C99.0394 54.9474 97.9499 57.0462 95.771 61.2438L83.0835 85.6853C80.5941 90.4807 79.3495 92.8785 77.6506 93.6996C76.1699 94.4153 74.4518 94.4538 72.9406 93.8051C71.2066 93.0609 69.8558 90.7213 67.1543 86.042L52.3311 60.3675Z" fill="url(#paint1_linear)"/>
<defs>
<filter id="filter0_di" x="0.495254" y="0.358467" width="144.386" height="144.386" filterUnits="userSpaceOnUse" color-interpolation-filters="sRGB">
<feFlood flood-opacity="0" result="BackgroundImageFix"/>
<feColorMatrix in="SourceAlpha" type="matrix" values="0 0 0 0 0 0 0 0 0 0 0 0 0 0 0 0 0 0 127 0"/>
<feOffset dy="6.04388"/>
<feGaussianBlur stdDeviation="6.04388"/>
<feColorMatrix type="matrix" values="0 0 0 0 0.845833 0 0 0 0 0.449341 0 0 0 0 0.0563889 0 0 0 0.4 0"/>
<feBlend mode="normal" in2="BackgroundImageFix" result="effect1_dropShadow"/>
<feBlend mode="normal" in="SourceGraphic" in2="effect1_dropShadow" result="shape"/>
<feColorMatrix in="SourceAlpha" type="matrix" values="0 0 0 0 0 0 0 0 0 0 0 0 0 0 0 0 0 0 127 0" result="hardAlpha"/>
<feOffset dy="1.72682"/>
<feGaussianBlur stdDeviation="10.3609"/>
<feComposite in2="hardAlpha" operator="arithmetic" k2="-1" k3="1"/>
<feColorMatrix type="matrix" values="0 0 0 0 1 0 0 0 0 0.807333 0 0 0 0 0.433333 0 0 0 0.6 0"/>
<feBlend mode="normal" in2="shape" result="effect2_innerShadow"/>
</filter>
<linearGradient id="paint0_linear" x1="72.6881" y1="22.5075" x2="72.6881" y2="110.507" gradientUnits="userSpaceOnUse">
<stop stop-color="#FFA800"/>
<stop offset="1" stop-color="#FF0000"/>
</linearGradient>
<linearGradient id="paint1_linear" x1="74.8078" y1="41.2478" x2="60.0621" y2="96.2794" gradientUnits="userSpaceOnUse">
<stop stop-color="#FFEFD1"/>
<stop offset="1" stop-color="#FF9900"/>
</linearGradient>
</defs>
</svg>
