<svg width="48" height="48" viewBox="0 0 48 48" fill="none" xmlns="http://www.w3.org/2000/svg">
<path d="M19.5703 31.2148C18.88 31.9052 18.88 33.0245 19.5703 33.7148C20.2607 34.4052 21.38 34.4052 22.0703 33.7148L31.9624 23.8227L22.0703 13.9306C21.38 13.2402 20.2607 13.2402 19.5703 13.9306C18.88 14.6209 18.88 15.7402 19.5703 16.4306L26.9624 23.8227L19.5703 31.2148Z" fill="white"/>
<path opacity="0.4" d="M0.5 8C0.5 3.85787 3.85786 0.5 8 0.5H40C44.1421 0.5 47.5 3.85787 47.5 8V40C47.5 44.1421 44.1421 47.5 40 47.5H8C3.85787 47.5 0.5 44.1421 0.5 40V8Z" stroke="white"/>
</svg>
