<svg width="185" height="34" viewBox="0 0 185 34" fill="none" xmlns="http://www.w3.org/2000/svg">
<path fill-rule="evenodd" clip-rule="evenodd" d="M32.2465 7.01697H24.3218C23.0296 7.01697 21.6751 8.0864 21.2858 9.42718L17.0043 24.5748L12.7228 9.42718C12.3492 8.10236 10.9947 7.01697 9.70242 7.01697H1.76217C0.469928 7.01697 -0.27739 8.10236 0.0962693 9.42718L4.37778 24.5748C4.75144 25.8996 6.10595 26.985 7.41376 26.985H15.3384C16.1792 26.985 16.7864 26.5222 17.0043 25.8358C17.2223 26.5222 17.8295 26.985 18.6702 26.985H26.5949C27.8872 26.985 29.2417 25.9156 29.6153 24.5748L33.8968 9.42718C34.2861 8.10236 33.5388 7.01697 32.2465 7.01697Z" fill="url(#paint0_linear)"/>
<path fill-rule="evenodd" clip-rule="evenodd" d="M13.7037 7.01596C13.0654 7.01596 12.3492 7.39904 11.8354 7.9577C12.2558 8.35674 12.5828 8.86752 12.7229 9.41022L17.0044 24.5579L21.2859 9.41022C21.4572 8.81963 21.753 8.34078 22.2201 7.92578C21.7063 7.415 21.0991 7 20.4919 7H13.7037V7.01596Z" fill="url(#paint1_linear)"/>
<path fill-rule="evenodd" clip-rule="evenodd" d="M28.3075 24.5898L23.123 9.44214C22.9673 8.89944 22.6715 8.34078 22.2355 7.94174C21.7529 8.35675 21.4571 8.88348 21.3014 9.42618L17.0043 24.5738V24.5898L12.7228 9.44214C12.5671 8.89944 12.2557 8.37271 11.8198 7.97367C11.3838 8.37271 11.0569 8.89944 10.9012 9.44214L5.71667 24.5898C5.31188 25.9146 6.12147 27 7.50712 27H15.3384C16.1791 27 16.7863 26.5531 17.0043 25.8667C17.2223 26.5531 17.8295 27 18.6702 27H26.5015C27.9027 26.984 28.6967 25.9146 28.3075 24.5898Z" fill="url(#paint2_linear)"/>
<path d="M56.56 10.105L53.2916 21.5675L50.3682 11.26C50.2592 10.8575 50.2411 10.6475 49.6963 10.6475H48.6795C48.1529 10.6475 48.1166 10.8575 48.0076 11.26L45.0661 21.5675L41.8158 10.105L40 10.5425L43.7405 23.2475C43.8495 23.6325 43.9221 23.86 44.4487 23.86H45.4837C46.0103 23.86 46.0829 23.6325 46.1918 23.2475L49.1697 12.9575L52.1658 23.2475C52.2747 23.65 52.3292 23.86 52.8739 23.86H53.9089C54.4537 23.86 54.5082 23.65 54.6171 23.2475L58.3395 10.5425L56.56 10.105ZM65.2395 14.6025C64.4224 14.165 63.6416 14.1125 62.6247 14.1125C61.8439 14.1125 60.7545 14.13 60.0282 14.445C58.4666 15.145 58.1579 16.9825 58.1579 18.47V19.6075C58.1579 21.095 58.4484 22.7575 59.8103 23.4575C60.5729 23.8425 61.5716 23.965 62.5339 23.965C63.5871 23.965 65.0761 23.86 65.9113 23.7025L65.7842 22.4075C64.6403 22.565 63.4055 22.6175 62.8426 22.6175C62.3161 22.6175 61.1176 22.5475 60.5729 22.11C60.0645 21.69 59.9011 20.7625 59.8829 19.6425H65.4029C66.2563 19.6425 66.6376 19.24 66.6376 18.715V17.7175C66.6558 15.95 65.9658 15.005 65.2395 14.6025ZM64.9308 18.33H59.8829C59.8829 17.14 60.0826 16.3175 60.6092 15.845C61.0995 15.4075 62.08 15.4075 62.5703 15.4075C63.2058 15.4075 63.8595 15.46 64.2771 15.7925C64.7311 16.1775 64.9308 16.8775 64.9308 17.945C64.9308 18.26 64.9308 18.05 64.9308 18.33ZM74.5 14.4975C73.6103 14.1125 72.5026 14.1125 71.7037 14.1125C71.2316 14.1125 70.2874 14.2 69.4884 14.3225V10H67.7634V21.5675C67.7634 23.615 69.5429 24 71.9216 24C74.8268 24 76.2432 23.335 76.2432 19.24V18.33C76.2613 16.8425 76.0797 15.18 74.5 14.4975ZM74.5182 19.3625C74.5182 22.1625 74.0824 22.705 72.1032 22.705C71.2316 22.705 70.5234 22.635 70.1239 22.4075C69.6337 22.1275 69.4884 21.6725 69.4884 20.99V15.705C70.2874 15.53 71.3042 15.4775 71.7763 15.4775C73.9734 15.4775 74.5 15.8625 74.5 18.2075V19.3625H74.5182ZM81.7813 22.6175C81.2547 22.6175 80.1289 22.6175 79.675 22.1975C79.1484 21.725 78.985 20.885 78.985 19.73V18.3475C78.985 17.1925 79.1303 16.3525 79.675 15.88C80.1289 15.4775 81.2366 15.46 81.7813 15.46C82.3442 15.46 83.1432 15.495 84.2871 15.67C84.2871 15.67 84.4142 14.41 84.4142 14.375C83.5789 14.235 82.2534 14.1125 81.4726 14.1125C80.7282 14.1125 79.675 14.1825 78.9124 14.5675C77.5324 15.2675 77.2055 16.9825 77.2055 18.47V19.59C77.2055 21.0775 77.5324 22.7925 78.9124 23.4925C79.675 23.8775 80.7282 23.9475 81.4726 23.9475C82.2534 23.9475 83.7605 23.8425 84.6139 23.685L84.4868 22.39C83.3247 22.5825 82.3261 22.6175 81.7813 22.6175ZM92.2039 14.4275C91.4776 14.1125 90.4608 14.1125 89.68 14.1125C88.8992 14.1125 87.8824 14.1125 87.1561 14.4275C85.5945 15.1275 85.4129 16.9825 85.4129 18.47V19.6075C85.4129 21.095 85.5763 22.985 87.1561 23.65C87.8642 23.965 88.8992 23.965 89.68 23.965C90.4608 23.965 91.4776 23.965 92.2039 23.65C93.7655 22.95 93.9471 21.095 93.9471 19.6075V18.47C93.9471 16.9825 93.7655 15.1275 92.2039 14.4275ZM92.2039 19.7475C92.2039 20.9025 92.1676 21.795 91.6411 22.2675C91.1871 22.6875 90.2066 22.67 89.68 22.6875C89.1353 22.6875 88.1729 22.6875 87.7189 22.2675C87.2105 21.795 87.1742 20.9025 87.1742 19.7475V18.3475C87.1742 17.1925 87.1924 16.3 87.7189 15.8275C88.1729 15.425 89.1534 15.4075 89.68 15.4075C90.2066 15.4075 91.1871 15.425 91.6411 15.8275C92.1495 16.3 92.2039 17.1925 92.2039 18.3475V19.7475ZM105.368 14.1125C103.97 14.1125 102.263 14.4975 101.701 14.6375C101.065 14.235 100.212 14.1125 99.2492 14.1125C98.1053 14.1125 96.6526 14.305 95.8718 14.445C95.6176 14.4975 95.0366 14.6375 95.0366 15.4075V23.86H96.7616V15.7575C97.379 15.635 98.2324 15.4775 98.9587 15.4775C100.629 15.4775 101.156 16.0375 101.156 17.525V23.86H102.881V17.385C102.881 16.7375 102.79 16.2125 102.608 15.775C103.298 15.635 104.224 15.46 105.078 15.46C106.73 15.46 107.275 16.02 107.275 17.5075V23.8425H109V17.385C108.982 14.62 107.42 14.1125 105.368 14.1125Z" fill="#231F20"/>
<path d="M126.34 24C126.266 24 126.207 23.9787 126.164 23.936C126.122 23.8933 126.1 23.84 126.1 23.776V12.4C126.1 12.2187 126.186 12.128 126.356 12.128H130.244C131.716 12.128 132.847 12.3947 133.636 12.928C134.426 13.4507 134.82 14.2133 134.82 15.216C134.82 15.8453 134.655 16.3787 134.325 16.816C133.994 17.2427 133.46 17.5893 132.724 17.856C132.682 17.8667 132.66 17.8933 132.66 17.936C132.66 17.968 132.682 17.9893 132.724 18C133.514 18.2133 134.106 18.5493 134.5 19.008C134.906 19.4667 135.108 20.0693 135.108 20.816C135.108 21.8827 134.708 22.6827 133.908 23.216C133.108 23.7387 131.935 24 130.388 24H126.34ZM130.468 17.296C131.14 17.296 131.711 17.1467 132.18 16.848C132.65 16.5493 132.884 16.08 132.884 15.44C132.884 14.8 132.65 14.3147 132.18 13.984C131.722 13.6533 131.087 13.488 130.276 13.488H128.276C128.116 13.488 128.036 13.5573 128.036 13.696V17.072C128.036 17.2213 128.095 17.296 128.212 17.296H130.468ZM130.308 22.64C132.164 22.64 133.092 21.9947 133.092 20.704C133.092 20.032 132.852 19.5307 132.372 19.2C131.892 18.8693 131.258 18.704 130.468 18.704H128.292C128.196 18.704 128.127 18.72 128.084 18.752C128.052 18.784 128.036 18.8373 128.036 18.912V22.4C128.036 22.56 128.095 22.64 128.212 22.64H130.308ZM138.741 20.352C138.741 20.832 138.853 21.2693 139.077 21.664C139.312 22.048 139.626 22.3573 140.021 22.592C140.416 22.816 140.848 22.928 141.317 22.928C141.808 22.928 142.245 22.8267 142.629 22.624C143.013 22.4213 143.365 22.1067 143.685 21.68C143.717 21.6373 143.754 21.616 143.797 21.616C143.85 21.616 143.893 21.6267 143.925 21.648L144.741 22.032C144.794 22.064 144.821 22.1067 144.821 22.16C144.821 22.192 144.805 22.2347 144.773 22.288C144.325 22.9493 143.813 23.4293 143.237 23.728C142.661 24.016 141.962 24.16 141.141 24.16C140.341 24.16 139.626 23.9787 138.997 23.616C138.368 23.2533 137.877 22.7467 137.525 22.096C137.173 21.4347 136.997 20.688 136.997 19.856C136.997 18.96 137.178 18.1707 137.541 17.488C137.904 16.8053 138.394 16.2827 139.013 15.92C139.642 15.5467 140.341 15.36 141.109 15.36C141.898 15.36 142.592 15.536 143.189 15.888C143.786 16.2293 144.245 16.7307 144.565 17.392C144.896 18.0533 145.061 18.8373 145.061 19.744V19.808C145.061 19.904 145.045 19.9787 145.013 20.032C144.992 20.0747 144.928 20.096 144.821 20.096H138.901C138.794 20.096 138.741 20.1813 138.741 20.352ZM143.109 19.088C143.216 19.088 143.285 19.072 143.317 19.04C143.36 19.008 143.381 18.9493 143.381 18.864C143.381 18.448 143.29 18.0587 143.109 17.696C142.938 17.3333 142.682 17.0453 142.341 16.832C142.01 16.608 141.616 16.496 141.157 16.496C140.677 16.496 140.256 16.6187 139.893 16.864C139.53 17.0987 139.248 17.4133 139.045 17.808C138.853 18.192 138.762 18.6133 138.773 19.072L143.109 19.088ZM148.789 23.696C148.789 23.8133 148.763 23.8933 148.709 23.936C148.667 23.9787 148.581 24 148.453 24H147.365C147.259 24 147.184 23.984 147.141 23.952C147.099 23.9093 147.077 23.84 147.077 23.744L147.109 12.368C147.109 12.208 147.179 12.128 147.317 12.128H148.581C148.72 12.128 148.789 12.208 148.789 12.368V23.696ZM156.214 23.04C155.436 23.7867 154.524 24.16 153.478 24.16C152.657 24.16 152.006 23.952 151.526 23.536C151.057 23.1093 150.822 22.544 150.822 21.84C150.822 20.976 151.196 20.288 151.942 19.776C152.7 19.264 153.772 18.976 155.158 18.912L156.198 18.832C156.369 18.8107 156.454 18.7307 156.454 18.592V18.192C156.454 17.6693 156.294 17.2587 155.974 16.96C155.654 16.6507 155.217 16.496 154.662 16.496C153.788 16.496 153.089 16.8907 152.566 17.68C152.534 17.744 152.497 17.7867 152.454 17.808C152.422 17.8187 152.369 17.8133 152.294 17.792L151.206 17.472C151.142 17.4507 151.11 17.408 151.11 17.344C151.11 17.3013 151.126 17.2427 151.158 17.168C151.457 16.592 151.91 16.1493 152.518 15.84C153.137 15.52 153.878 15.36 154.742 15.36C155.862 15.36 156.7 15.6 157.254 16.08C157.809 16.56 158.086 17.2267 158.086 18.08V23.728C158.086 23.8347 158.065 23.9093 158.022 23.952C157.99 23.984 157.932 24 157.846 24H156.774C156.625 24 156.54 23.8933 156.518 23.68L156.486 23.072C156.465 22.9867 156.433 22.944 156.39 22.944C156.358 22.944 156.3 22.976 156.214 23.04ZM156.454 20.016C156.454 19.8453 156.38 19.7653 156.23 19.776L155.366 19.84C154.481 19.8933 153.777 20.0747 153.254 20.384C152.742 20.6827 152.486 21.0987 152.486 21.632C152.486 22.048 152.636 22.3787 152.934 22.624C153.233 22.8587 153.633 22.976 154.134 22.976C154.71 22.976 155.254 22.7787 155.766 22.384C156.225 22.0107 156.454 21.6373 156.454 21.264V20.016ZM160.77 24C160.6 24 160.514 23.9147 160.514 23.744V15.76C160.514 15.6 160.584 15.52 160.722 15.52H161.954C162.082 15.52 162.146 15.5893 162.146 15.728V16.736C162.146 16.8 162.162 16.8373 162.194 16.848C162.237 16.8587 162.28 16.8373 162.322 16.784C162.717 16.3253 163.122 15.9733 163.538 15.728C163.965 15.4827 164.381 15.36 164.786 15.36C165.16 15.36 165.346 15.4347 165.346 15.584V16.832C165.346 16.96 165.288 17.0133 165.17 16.992C164.968 16.9387 164.685 16.912 164.322 16.912C164.024 16.912 163.709 16.9973 163.378 17.168C163.048 17.328 162.77 17.5413 162.546 17.808C162.322 18.0747 162.21 18.3467 162.21 18.624V23.728C162.21 23.9093 162.109 24 161.906 24H160.77ZM170.25 22.88C170.986 22.88 171.759 22.4587 172.57 21.616V15.792C172.57 15.6107 172.671 15.52 172.874 15.52H174.026C174.197 15.52 174.282 15.6053 174.282 15.776L174.25 23.776C174.25 23.9253 174.186 24 174.058 24H172.81C172.682 24 172.618 23.9307 172.618 23.792V22.896C172.618 22.768 172.565 22.752 172.458 22.848C171.935 23.328 171.45 23.6693 171.002 23.872C170.554 24.064 170.085 24.16 169.594 24.16C168.858 24.16 168.255 23.936 167.786 23.488C167.317 23.0293 167.082 22.4267 167.082 21.68V15.808C167.082 15.616 167.178 15.52 167.37 15.52H168.538C168.698 15.52 168.778 15.6053 168.778 15.776V21.328C168.778 21.7973 168.911 22.176 169.178 22.464C169.445 22.7413 169.802 22.88 170.25 22.88ZM181.962 17.504C181.738 17.1947 181.445 16.9493 181.082 16.768C180.72 16.576 180.298 16.48 179.818 16.48C179.285 16.48 178.848 16.592 178.506 16.816C178.165 17.0293 177.994 17.3227 177.994 17.696C177.994 17.9093 178.08 18.1013 178.25 18.272C178.421 18.4427 178.73 18.592 179.178 18.72L181.146 19.28C181.893 19.472 182.442 19.7707 182.794 20.176C183.157 20.5707 183.338 21.04 183.338 21.584C183.338 22.096 183.184 22.5493 182.874 22.944C182.576 23.328 182.154 23.6267 181.61 23.84C181.066 24.0533 180.453 24.16 179.77 24.16C178.917 24.16 178.165 24 177.514 23.68C176.864 23.3493 176.4 22.9227 176.122 22.4C176.09 22.3467 176.074 22.2987 176.074 22.256C176.074 22.192 176.101 22.144 176.154 22.112L176.938 21.696C177.002 21.664 177.056 21.648 177.098 21.648C177.152 21.648 177.194 21.6693 177.226 21.712C177.792 22.5653 178.629 22.992 179.738 22.992C180.325 22.992 180.81 22.8853 181.194 22.672C181.578 22.448 181.77 22.1493 181.77 21.776C181.77 21.5093 181.658 21.2853 181.434 21.104C181.221 20.912 180.864 20.752 180.362 20.624L178.73 20.208C177.941 20.016 177.365 19.7333 177.002 19.36C176.64 18.9867 176.458 18.5173 176.458 17.952C176.458 17.44 176.597 16.992 176.874 16.608C177.162 16.2133 177.557 15.9093 178.058 15.696C178.57 15.472 179.162 15.36 179.834 15.36C180.56 15.36 181.21 15.4987 181.786 15.776C182.362 16.0533 182.794 16.416 183.082 16.864C183.125 16.928 183.146 16.9813 183.146 17.024C183.146 17.0667 183.12 17.104 183.066 17.136L182.234 17.568C182.213 17.5787 182.181 17.584 182.138 17.584C182.074 17.584 182.016 17.5573 181.962 17.504Z" fill="#009731"/>
<path d="M117 0H118V34H117L117 0Z" fill="#B6CAD1"/>
<defs>
<linearGradient id="paint0_linear" x1="17.0081" y1="21.5402" x2="17.0081" y2="5.96642" gradientUnits="userSpaceOnUse">
<stop stop-color="#C6E9FA"/>
<stop offset="1" stop-color="#00A0E3"/>
</linearGradient>
<linearGradient id="paint1_linear" x1="17.0236" y1="19.7073" x2="17.0236" y2="6.57641" gradientUnits="userSpaceOnUse">
<stop stop-color="#FFF100"/>
<stop offset="1" stop-color="#F48120"/>
</linearGradient>
<linearGradient id="paint2_linear" x1="17.0086" y1="27.0353" x2="17.0086" y2="12.0733" gradientUnits="userSpaceOnUse">
<stop stop-color="#D6DE23"/>
<stop offset="1" stop-color="#00974A"/>
</linearGradient>
</defs>
</svg>
