<svg width="147" height="34" viewBox="0 0 147 34" fill="none" xmlns="http://www.w3.org/2000/svg">
<path d="M16.56 10.105L13.2916 21.5675L10.3682 11.26C10.2592 10.8575 10.2411 10.6475 9.69632 10.6475H8.67948C8.1529 10.6475 8.11658 10.8575 8.00763 11.26L5.06606 21.5675L1.81579 10.105L-2.21654e-06 10.5425L3.74053 23.2475C3.84947 23.6325 3.9221 23.86 4.44868 23.86H5.48368C6.01026 23.86 6.08289 23.6325 6.19184 23.2475L9.16973 12.9575L12.1658 23.2475C12.2747 23.65 12.3292 23.86 12.8739 23.86H13.9089C14.4537 23.86 14.5082 23.65 14.6171 23.2475L18.3395 10.5425L16.56 10.105ZM25.2395 14.6025C24.4224 14.165 23.6416 14.1125 22.6247 14.1125C21.8439 14.1125 20.7545 14.13 20.0282 14.445C18.4666 15.145 18.1579 16.9825 18.1579 18.47V19.6075C18.1579 21.095 18.4484 22.7575 19.8103 23.4575C20.5729 23.8425 21.5716 23.965 22.5339 23.965C23.5871 23.965 25.0761 23.86 25.9113 23.7025L25.7842 22.4075C24.6403 22.565 23.4055 22.6175 22.8426 22.6175C22.3161 22.6175 21.1176 22.5475 20.5729 22.11C20.0645 21.69 19.9011 20.7625 19.8829 19.6425H25.4029C26.2563 19.6425 26.6376 19.24 26.6376 18.715V17.7175C26.6558 15.95 25.9658 15.005 25.2395 14.6025ZM24.9308 18.33H19.8829C19.8829 17.14 20.0826 16.3175 20.6092 15.845C21.0995 15.4075 22.08 15.4075 22.5703 15.4075C23.2058 15.4075 23.8595 15.46 24.2771 15.7925C24.7311 16.1775 24.9308 16.8775 24.9308 17.945C24.9308 18.26 24.9308 18.05 24.9308 18.33ZM34.5 14.4975C33.6103 14.1125 32.5026 14.1125 31.7037 14.1125C31.2316 14.1125 30.2874 14.2 29.4884 14.3225V10H27.7634V21.5675C27.7634 23.615 29.5429 24 31.9216 24C34.8268 24 36.2432 23.335 36.2432 19.24V18.33C36.2613 16.8425 36.0797 15.18 34.5 14.4975ZM34.5182 19.3625C34.5182 22.1625 34.0824 22.705 32.1032 22.705C31.2316 22.705 30.5234 22.635 30.1239 22.4075C29.6337 22.1275 29.4884 21.6725 29.4884 20.99V15.705C30.2874 15.53 31.3042 15.4775 31.7763 15.4775C33.9734 15.4775 34.5 15.8625 34.5 18.2075V19.3625H34.5182ZM41.7813 22.6175C41.2547 22.6175 40.1289 22.6175 39.675 22.1975C39.1484 21.725 38.985 20.885 38.985 19.73V18.3475C38.985 17.1925 39.1303 16.3525 39.675 15.88C40.1289 15.4775 41.2366 15.46 41.7813 15.46C42.3442 15.46 43.1432 15.495 44.2871 15.67C44.2871 15.67 44.4142 14.41 44.4142 14.375C43.5789 14.235 42.2534 14.1125 41.4726 14.1125C40.7282 14.1125 39.675 14.1825 38.9124 14.5675C37.5324 15.2675 37.2055 16.9825 37.2055 18.47V19.59C37.2055 21.0775 37.5324 22.7925 38.9124 23.4925C39.675 23.8775 40.7282 23.9475 41.4726 23.9475C42.2534 23.9475 43.7605 23.8425 44.6139 23.685L44.4868 22.39C43.3247 22.5825 42.3261 22.6175 41.7813 22.6175ZM52.2039 14.4275C51.4776 14.1125 50.4608 14.1125 49.68 14.1125C48.8992 14.1125 47.8824 14.1125 47.1561 14.4275C45.5945 15.1275 45.4129 16.9825 45.4129 18.47V19.6075C45.4129 21.095 45.5763 22.985 47.1561 23.65C47.8642 23.965 48.8992 23.965 49.68 23.965C50.4608 23.965 51.4776 23.965 52.2039 23.65C53.7655 22.95 53.9471 21.095 53.9471 19.6075V18.47C53.9471 16.9825 53.7655 15.1275 52.2039 14.4275ZM52.2039 19.7475C52.2039 20.9025 52.1676 21.795 51.6411 22.2675C51.1871 22.6875 50.2066 22.67 49.68 22.6875C49.1353 22.6875 48.1729 22.6875 47.7189 22.2675C47.2105 21.795 47.1742 20.9025 47.1742 19.7475V18.3475C47.1742 17.1925 47.1924 16.3 47.7189 15.8275C48.1729 15.425 49.1534 15.4075 49.68 15.4075C50.2066 15.4075 51.1871 15.425 51.6411 15.8275C52.1495 16.3 52.2039 17.1925 52.2039 18.3475V19.7475ZM65.3684 14.1125C63.9703 14.1125 62.2634 14.4975 61.7005 14.6375C61.065 14.235 60.2116 14.1125 59.2492 14.1125C58.1053 14.1125 56.6526 14.305 55.8718 14.445C55.6176 14.4975 55.0366 14.6375 55.0366 15.4075V23.86H56.7616V15.7575C57.379 15.635 58.2324 15.4775 58.9587 15.4775C60.6292 15.4775 61.1558 16.0375 61.1558 17.525V23.86H62.8808V17.385C62.8808 16.7375 62.79 16.2125 62.6084 15.775C63.2984 15.635 64.2245 15.46 65.0779 15.46C66.7303 15.46 67.275 16.02 67.275 17.5075V23.8425H69V17.385C68.9818 14.62 67.4203 14.1125 65.3684 14.1125Z" fill="#231F20"/>
<path d="M94.884 15.664C94.884 16.8053 94.4947 17.6747 93.716 18.272C92.948 18.8693 91.9187 19.168 90.628 19.168H88.004C87.8973 19.168 87.844 19.2213 87.844 19.328V23.728C87.844 23.9093 87.748 24 87.556 24H86.164C85.9933 24 85.908 23.92 85.908 23.76V12.368C85.908 12.2827 85.924 12.224 85.956 12.192C85.988 12.1493 86.0467 12.128 86.132 12.128H90.404C91.748 12.128 92.8307 12.4267 93.652 13.024C94.4733 13.6107 94.884 14.4907 94.884 15.664ZM92.9 15.616C92.9 14.24 92.0307 13.552 90.292 13.552H88.084C87.9987 13.552 87.9347 13.568 87.892 13.6C87.86 13.632 87.844 13.6907 87.844 13.776V17.504C87.844 17.664 87.9027 17.744 88.02 17.744H90.404C91.1827 17.744 91.7907 17.568 92.228 17.216C92.676 16.8533 92.9 16.32 92.9 15.616ZM97.3679 24C97.1972 24 97.1119 23.9147 97.1119 23.744V15.76C97.1119 15.6 97.1812 15.52 97.3199 15.52H98.5519C98.6799 15.52 98.7439 15.5893 98.7439 15.728V16.736C98.7439 16.8 98.7599 16.8373 98.7919 16.848C98.8345 16.8587 98.8772 16.8373 98.9199 16.784C99.3145 16.3253 99.7199 15.9733 100.136 15.728C100.563 15.4827 100.979 15.36 101.384 15.36C101.757 15.36 101.944 15.4347 101.944 15.584V16.832C101.944 16.96 101.885 17.0133 101.768 16.992C101.565 16.9387 101.283 16.912 100.92 16.912C100.621 16.912 100.307 16.9973 99.9759 17.168C99.6452 17.328 99.3679 17.5413 99.1439 17.808C98.9199 18.0747 98.8079 18.3467 98.8079 18.624V23.728C98.8079 23.9093 98.7065 24 98.5039 24H97.3679ZM107.221 24.16C106.41 24.16 105.69 23.9787 105.061 23.616C104.442 23.2427 103.962 22.7253 103.621 22.064C103.28 21.4027 103.109 20.6507 103.109 19.808C103.109 18.944 103.285 18.176 103.637 17.504C103.989 16.8213 104.474 16.2933 105.093 15.92C105.722 15.5467 106.437 15.36 107.237 15.36C108.048 15.36 108.762 15.552 109.381 15.936C110.01 16.3093 110.496 16.832 110.837 17.504C111.178 18.176 111.349 18.9387 111.349 19.792C111.349 20.6347 111.173 21.3867 110.821 22.048C110.48 22.7093 109.994 23.2267 109.365 23.6C108.746 23.9733 108.032 24.16 107.221 24.16ZM107.253 22.96C108 22.96 108.581 22.6827 108.997 22.128C109.413 21.5627 109.621 20.7733 109.621 19.76C109.621 18.7467 109.408 17.9573 108.981 17.392C108.565 16.816 107.984 16.528 107.237 16.528C106.49 16.528 105.904 16.816 105.477 17.392C105.05 17.9573 104.837 18.7467 104.837 19.76C104.837 20.7627 105.05 21.5467 105.477 22.112C105.904 22.6773 106.496 22.96 107.253 22.96ZM112.959 12.352C112.959 12.2027 113.039 12.128 113.199 12.128H121.983C122.132 12.128 122.207 12.2027 122.207 12.352V13.376C122.207 13.504 122.132 13.568 121.983 13.568H118.815C118.751 13.568 118.708 13.5787 118.687 13.6C118.666 13.6213 118.655 13.6587 118.655 13.712V23.76C118.655 23.92 118.58 24 118.431 24H116.927C116.788 24 116.719 23.9253 116.719 23.776V13.744C116.719 13.6693 116.703 13.6213 116.671 13.6C116.65 13.5787 116.607 13.568 116.543 13.568H113.183C113.034 13.568 112.959 13.504 112.959 13.376V12.352ZM123.821 20.352C123.821 20.832 123.933 21.2693 124.157 21.664C124.392 22.048 124.706 22.3573 125.101 22.592C125.496 22.816 125.928 22.928 126.397 22.928C126.888 22.928 127.325 22.8267 127.709 22.624C128.093 22.4213 128.445 22.1067 128.765 21.68C128.797 21.6373 128.834 21.616 128.877 21.616C128.93 21.616 128.973 21.6267 129.005 21.648L129.821 22.032C129.874 22.064 129.901 22.1067 129.901 22.16C129.901 22.192 129.885 22.2347 129.853 22.288C129.405 22.9493 128.893 23.4293 128.317 23.728C127.741 24.016 127.042 24.16 126.221 24.16C125.421 24.16 124.706 23.9787 124.077 23.616C123.448 23.2533 122.957 22.7467 122.605 22.096C122.253 21.4347 122.077 20.688 122.077 19.856C122.077 18.96 122.258 18.1707 122.621 17.488C122.984 16.8053 123.474 16.2827 124.093 15.92C124.722 15.5467 125.421 15.36 126.189 15.36C126.978 15.36 127.672 15.536 128.269 15.888C128.866 16.2293 129.325 16.7307 129.645 17.392C129.976 18.0533 130.141 18.8373 130.141 19.744V19.808C130.141 19.904 130.125 19.9787 130.093 20.032C130.072 20.0747 130.008 20.096 129.901 20.096H123.981C123.874 20.096 123.821 20.1813 123.821 20.352ZM128.189 19.088C128.296 19.088 128.365 19.072 128.397 19.04C128.44 19.008 128.461 18.9493 128.461 18.864C128.461 18.448 128.37 18.0587 128.189 17.696C128.018 17.3333 127.762 17.0453 127.421 16.832C127.09 16.608 126.696 16.496 126.237 16.496C125.757 16.496 125.336 16.6187 124.973 16.864C124.61 17.0987 124.328 17.4133 124.125 17.808C123.933 18.192 123.842 18.6133 123.853 19.072L128.189 19.088ZM139.094 23.6C139.19 23.728 139.238 23.824 139.238 23.888C139.238 23.9627 139.163 24 139.014 24H137.606C137.425 24 137.291 23.9413 137.206 23.824L135.142 20.96C135.078 20.864 135.025 20.816 134.982 20.816C134.961 20.816 134.907 20.864 134.822 20.96L132.678 23.824C132.614 23.9413 132.486 24 132.294 24H131.366C131.185 24 131.094 23.9467 131.094 23.84C131.094 23.7547 131.137 23.6533 131.222 23.536L134.054 19.936C134.107 19.8507 134.134 19.7867 134.134 19.744C134.134 19.68 134.102 19.6107 134.038 19.536L131.318 15.84C131.286 15.7867 131.27 15.744 131.27 15.712C131.27 15.584 131.345 15.52 131.494 15.52H132.822C132.918 15.52 132.993 15.536 133.046 15.568C133.099 15.5893 133.153 15.632 133.206 15.696L135.158 18.368C135.201 18.432 135.243 18.464 135.286 18.464C135.329 18.464 135.366 18.432 135.398 18.368L137.286 15.696C137.329 15.632 137.377 15.5893 137.43 15.568C137.483 15.536 137.563 15.52 137.67 15.52H138.694C138.822 15.52 138.886 15.5627 138.886 15.648C138.886 15.68 138.865 15.728 138.822 15.792L136.214 19.28C136.161 19.344 136.134 19.408 136.134 19.472C136.134 19.5253 136.161 19.5947 136.214 19.68L139.094 23.6ZM143.368 16.736C143.272 16.736 143.224 16.7893 143.224 16.896V21.584C143.224 22.032 143.304 22.3413 143.464 22.512C143.635 22.6827 143.901 22.768 144.264 22.768H145.288C145.416 22.768 145.48 22.832 145.48 22.96V23.648C145.48 23.7973 145.4 23.888 145.24 23.92C144.899 23.9733 144.355 24 143.608 24C142.904 24 142.381 23.84 142.04 23.52C141.699 23.1893 141.528 22.6827 141.528 22V16.928C141.528 16.8 141.475 16.736 141.368 16.736H140.168C140.029 16.736 139.96 16.672 139.96 16.544V15.696C139.96 15.5787 140.024 15.52 140.152 15.52H141.432C141.517 15.52 141.56 15.472 141.56 15.376L141.752 12.864C141.773 12.7147 141.837 12.64 141.944 12.64H143.048C143.187 12.64 143.256 12.7253 143.256 12.896V15.376C143.256 15.472 143.304 15.52 143.4 15.52H145.32C145.448 15.52 145.512 15.5787 145.512 15.696V16.544C145.512 16.672 145.437 16.736 145.288 16.736H143.368Z" fill="#E2291C"/>
<path d="M77 0H78V34H77L77 0Z" fill="#B6CAD1"/>
</svg>
