<svg width="115" height="34" viewBox="0 0 115 34" fill="none" xmlns="http://www.w3.org/2000/svg">
<path d="M16.56 10.105L13.2916 21.5675L10.3682 11.26C10.2592 10.8575 10.2411 10.6475 9.69632 10.6475H8.67948C8.1529 10.6475 8.11658 10.8575 8.00763 11.26L5.06606 21.5675L1.81579 10.105L-2.21654e-06 10.5425L3.74053 23.2475C3.84947 23.6325 3.9221 23.86 4.44868 23.86H5.48368C6.01026 23.86 6.08289 23.6325 6.19184 23.2475L9.16973 12.9575L12.1658 23.2475C12.2747 23.65 12.3292 23.86 12.8739 23.86H13.9089C14.4537 23.86 14.5082 23.65 14.6171 23.2475L18.3395 10.5425L16.56 10.105ZM25.2395 14.6025C24.4224 14.165 23.6416 14.1125 22.6247 14.1125C21.8439 14.1125 20.7545 14.13 20.0282 14.445C18.4666 15.145 18.1579 16.9825 18.1579 18.47V19.6075C18.1579 21.095 18.4484 22.7575 19.8103 23.4575C20.5729 23.8425 21.5716 23.965 22.5339 23.965C23.5871 23.965 25.0761 23.86 25.9113 23.7025L25.7842 22.4075C24.6403 22.565 23.4055 22.6175 22.8426 22.6175C22.3161 22.6175 21.1176 22.5475 20.5729 22.11C20.0645 21.69 19.9011 20.7625 19.8829 19.6425H25.4029C26.2563 19.6425 26.6376 19.24 26.6376 18.715V17.7175C26.6558 15.95 25.9658 15.005 25.2395 14.6025ZM24.9308 18.33H19.8829C19.8829 17.14 20.0826 16.3175 20.6092 15.845C21.0995 15.4075 22.08 15.4075 22.5703 15.4075C23.2058 15.4075 23.8595 15.46 24.2771 15.7925C24.7311 16.1775 24.9308 16.8775 24.9308 17.945C24.9308 18.26 24.9308 18.05 24.9308 18.33ZM34.5 14.4975C33.6103 14.1125 32.5026 14.1125 31.7037 14.1125C31.2316 14.1125 30.2874 14.2 29.4884 14.3225V10H27.7634V21.5675C27.7634 23.615 29.5429 24 31.9216 24C34.8268 24 36.2432 23.335 36.2432 19.24V18.33C36.2613 16.8425 36.0797 15.18 34.5 14.4975ZM34.5182 19.3625C34.5182 22.1625 34.0824 22.705 32.1032 22.705C31.2316 22.705 30.5234 22.635 30.1239 22.4075C29.6337 22.1275 29.4884 21.6725 29.4884 20.99V15.705C30.2874 15.53 31.3042 15.4775 31.7763 15.4775C33.9734 15.4775 34.5 15.8625 34.5 18.2075V19.3625H34.5182ZM41.7813 22.6175C41.2547 22.6175 40.1289 22.6175 39.675 22.1975C39.1484 21.725 38.985 20.885 38.985 19.73V18.3475C38.985 17.1925 39.1303 16.3525 39.675 15.88C40.1289 15.4775 41.2366 15.46 41.7813 15.46C42.3442 15.46 43.1432 15.495 44.2871 15.67C44.2871 15.67 44.4142 14.41 44.4142 14.375C43.5789 14.235 42.2534 14.1125 41.4726 14.1125C40.7282 14.1125 39.675 14.1825 38.9124 14.5675C37.5324 15.2675 37.2055 16.9825 37.2055 18.47V19.59C37.2055 21.0775 37.5324 22.7925 38.9124 23.4925C39.675 23.8775 40.7282 23.9475 41.4726 23.9475C42.2534 23.9475 43.7605 23.8425 44.6139 23.685L44.4868 22.39C43.3247 22.5825 42.3261 22.6175 41.7813 22.6175ZM52.2039 14.4275C51.4776 14.1125 50.4608 14.1125 49.68 14.1125C48.8992 14.1125 47.8824 14.1125 47.1561 14.4275C45.5945 15.1275 45.4129 16.9825 45.4129 18.47V19.6075C45.4129 21.095 45.5763 22.985 47.1561 23.65C47.8642 23.965 48.8992 23.965 49.68 23.965C50.4608 23.965 51.4776 23.965 52.2039 23.65C53.7655 22.95 53.9471 21.095 53.9471 19.6075V18.47C53.9471 16.9825 53.7655 15.1275 52.2039 14.4275ZM52.2039 19.7475C52.2039 20.9025 52.1676 21.795 51.6411 22.2675C51.1871 22.6875 50.2066 22.67 49.68 22.6875C49.1353 22.6875 48.1729 22.6875 47.7189 22.2675C47.2105 21.795 47.1742 20.9025 47.1742 19.7475V18.3475C47.1742 17.1925 47.1924 16.3 47.7189 15.8275C48.1729 15.425 49.1534 15.4075 49.68 15.4075C50.2066 15.4075 51.1871 15.425 51.6411 15.8275C52.1495 16.3 52.2039 17.1925 52.2039 18.3475V19.7475ZM65.3684 14.1125C63.9703 14.1125 62.2634 14.4975 61.7005 14.6375C61.065 14.235 60.2116 14.1125 59.2492 14.1125C58.1053 14.1125 56.6526 14.305 55.8718 14.445C55.6176 14.4975 55.0366 14.6375 55.0366 15.4075V23.86H56.7616V15.7575C57.379 15.635 58.2324 15.4775 58.9587 15.4775C60.6292 15.4775 61.1558 16.0375 61.1558 17.525V23.86H62.8808V17.385C62.8808 16.7375 62.79 16.2125 62.6084 15.775C63.2984 15.635 64.2245 15.46 65.0779 15.46C66.7303 15.46 67.275 16.02 67.275 17.5075V23.8425H69V17.385C68.9818 14.62 67.4203 14.1125 65.3684 14.1125Z" fill="#231F20"/>
<path d="M95.0759 15.664C95.0759 16.8053 94.6865 17.6747 93.9079 18.272C93.1399 18.8693 92.1105 19.168 90.8199 19.168H88.1959C88.0892 19.168 88.0359 19.2213 88.0359 19.328V23.728C88.0359 23.9093 87.9399 24 87.7479 24H86.3559C86.1852 24 86.0999 23.92 86.0999 23.76V12.368C86.0999 12.2827 86.1159 12.224 86.1479 12.192C86.1799 12.1493 86.2385 12.128 86.3239 12.128H90.5959C91.9399 12.128 93.0225 12.4267 93.8439 13.024C94.6652 13.6107 95.0759 14.4907 95.0759 15.664ZM93.0919 15.616C93.0919 14.24 92.2225 13.552 90.4839 13.552H88.2759C88.1905 13.552 88.1265 13.568 88.0839 13.6C88.0519 13.632 88.0359 13.6907 88.0359 13.776V17.504C88.0359 17.664 88.0945 17.744 88.2119 17.744H90.5959C91.3745 17.744 91.9825 17.568 92.4199 17.216C92.8679 16.8533 93.0919 16.32 93.0919 15.616ZM102.152 23.04C101.373 23.7867 100.461 24.16 99.4158 24.16C98.5944 24.16 97.9438 23.952 97.4638 23.536C96.9944 23.1093 96.7598 22.544 96.7598 21.84C96.7598 20.976 97.1331 20.288 97.8798 19.776C98.6371 19.264 99.7091 18.976 101.096 18.912L102.136 18.832C102.306 18.8107 102.392 18.7307 102.392 18.592V18.192C102.392 17.6693 102.232 17.2587 101.912 16.96C101.592 16.6507 101.154 16.496 100.6 16.496C99.7251 16.496 99.0264 16.8907 98.5038 17.68C98.4718 17.744 98.4344 17.7867 98.3918 17.808C98.3598 17.8187 98.3064 17.8133 98.2318 17.792L97.1438 17.472C97.0798 17.4507 97.0478 17.408 97.0478 17.344C97.0478 17.3013 97.0638 17.2427 97.0958 17.168C97.3944 16.592 97.8478 16.1493 98.4558 15.84C99.0744 15.52 99.8158 15.36 100.68 15.36C101.8 15.36 102.637 15.6 103.192 16.08C103.746 16.56 104.024 17.2267 104.024 18.08V23.728C104.024 23.8347 104.002 23.9093 103.96 23.952C103.928 23.984 103.869 24 103.784 24H102.712C102.562 24 102.477 23.8933 102.456 23.68L102.424 23.072C102.402 22.9867 102.37 22.944 102.328 22.944C102.296 22.944 102.237 22.976 102.152 23.04ZM102.392 20.016C102.392 19.8453 102.317 19.7653 102.168 19.776L101.304 19.84C100.418 19.8933 99.7144 20.0747 99.1918 20.384C98.6798 20.6827 98.4238 21.0987 98.4238 21.632C98.4238 22.048 98.5731 22.3787 98.8718 22.624C99.1704 22.8587 99.5704 22.976 100.072 22.976C100.648 22.976 101.192 22.7787 101.704 22.384C102.162 22.0107 102.392 21.6373 102.392 21.264V20.016ZM107.028 26.64C106.665 26.64 106.409 26.624 106.26 26.592C106.121 26.5707 106.052 26.5067 106.052 26.4V25.584C106.052 25.4347 106.201 25.36 106.5 25.36H107.54C107.775 25.36 107.993 25.28 108.196 25.12C108.409 24.96 108.575 24.7573 108.692 24.512C108.809 24.2667 108.868 24.0267 108.868 23.792C108.868 23.6533 108.847 23.536 108.804 23.44L105.748 15.824C105.737 15.8027 105.732 15.7653 105.732 15.712C105.732 15.584 105.807 15.52 105.956 15.52H107.268C107.332 15.52 107.391 15.5413 107.444 15.584C107.497 15.616 107.529 15.664 107.54 15.728L109.748 21.488C109.78 21.584 109.817 21.632 109.86 21.632C109.924 21.632 109.977 21.568 110.02 21.44L112.196 15.712C112.249 15.584 112.335 15.52 112.452 15.52H113.396C113.471 15.52 113.524 15.552 113.556 15.616C113.599 15.6693 113.604 15.728 113.572 15.792L110.132 24.512C109.908 25.088 109.657 25.5253 109.38 25.824C109.103 26.1333 108.777 26.3467 108.404 26.464C108.041 26.5813 107.583 26.64 107.028 26.64Z" fill="#008EC5"/>
<path d="M77 0H78V34H77L77 0Z" fill="#B6CAD1"/>
</svg>
