<svg width="134" height="34" viewBox="0 0 134 34" fill="none" xmlns="http://www.w3.org/2000/svg">
<path d="M16.56 10.105L13.2916 21.5675L10.3682 11.26C10.2592 10.8575 10.2411 10.6475 9.69632 10.6475H8.67948C8.1529 10.6475 8.11658 10.8575 8.00763 11.26L5.06606 21.5675L1.81579 10.105L-2.21654e-06 10.5425L3.74053 23.2475C3.84947 23.6325 3.9221 23.86 4.44868 23.86H5.48368C6.01026 23.86 6.08289 23.6325 6.19184 23.2475L9.16973 12.9575L12.1658 23.2475C12.2747 23.65 12.3292 23.86 12.8739 23.86H13.9089C14.4537 23.86 14.5082 23.65 14.6171 23.2475L18.3395 10.5425L16.56 10.105ZM25.2395 14.6025C24.4224 14.165 23.6416 14.1125 22.6247 14.1125C21.8439 14.1125 20.7545 14.13 20.0282 14.445C18.4666 15.145 18.1579 16.9825 18.1579 18.47V19.6075C18.1579 21.095 18.4484 22.7575 19.8103 23.4575C20.5729 23.8425 21.5716 23.965 22.5339 23.965C23.5871 23.965 25.0761 23.86 25.9113 23.7025L25.7842 22.4075C24.6403 22.565 23.4055 22.6175 22.8426 22.6175C22.3161 22.6175 21.1176 22.5475 20.5729 22.11C20.0645 21.69 19.9011 20.7625 19.8829 19.6425H25.4029C26.2563 19.6425 26.6376 19.24 26.6376 18.715V17.7175C26.6558 15.95 25.9658 15.005 25.2395 14.6025ZM24.9308 18.33H19.8829C19.8829 17.14 20.0826 16.3175 20.6092 15.845C21.0995 15.4075 22.08 15.4075 22.5703 15.4075C23.2058 15.4075 23.8595 15.46 24.2771 15.7925C24.7311 16.1775 24.9308 16.8775 24.9308 17.945C24.9308 18.26 24.9308 18.05 24.9308 18.33ZM34.5 14.4975C33.6103 14.1125 32.5026 14.1125 31.7037 14.1125C31.2316 14.1125 30.2874 14.2 29.4884 14.3225V10H27.7634V21.5675C27.7634 23.615 29.5429 24 31.9216 24C34.8268 24 36.2432 23.335 36.2432 19.24V18.33C36.2613 16.8425 36.0797 15.18 34.5 14.4975ZM34.5182 19.3625C34.5182 22.1625 34.0824 22.705 32.1032 22.705C31.2316 22.705 30.5234 22.635 30.1239 22.4075C29.6337 22.1275 29.4884 21.6725 29.4884 20.99V15.705C30.2874 15.53 31.3042 15.4775 31.7763 15.4775C33.9734 15.4775 34.5 15.8625 34.5 18.2075V19.3625H34.5182ZM41.7813 22.6175C41.2547 22.6175 40.1289 22.6175 39.675 22.1975C39.1484 21.725 38.985 20.885 38.985 19.73V18.3475C38.985 17.1925 39.1303 16.3525 39.675 15.88C40.1289 15.4775 41.2366 15.46 41.7813 15.46C42.3442 15.46 43.1432 15.495 44.2871 15.67C44.2871 15.67 44.4142 14.41 44.4142 14.375C43.5789 14.235 42.2534 14.1125 41.4726 14.1125C40.7282 14.1125 39.675 14.1825 38.9124 14.5675C37.5324 15.2675 37.2055 16.9825 37.2055 18.47V19.59C37.2055 21.0775 37.5324 22.7925 38.9124 23.4925C39.675 23.8775 40.7282 23.9475 41.4726 23.9475C42.2534 23.9475 43.7605 23.8425 44.6139 23.685L44.4868 22.39C43.3247 22.5825 42.3261 22.6175 41.7813 22.6175ZM52.2039 14.4275C51.4776 14.1125 50.4608 14.1125 49.68 14.1125C48.8992 14.1125 47.8824 14.1125 47.1561 14.4275C45.5945 15.1275 45.4129 16.9825 45.4129 18.47V19.6075C45.4129 21.095 45.5763 22.985 47.1561 23.65C47.8642 23.965 48.8992 23.965 49.68 23.965C50.4608 23.965 51.4776 23.965 52.2039 23.65C53.7655 22.95 53.9471 21.095 53.9471 19.6075V18.47C53.9471 16.9825 53.7655 15.1275 52.2039 14.4275ZM52.2039 19.7475C52.2039 20.9025 52.1676 21.795 51.6411 22.2675C51.1871 22.6875 50.2066 22.67 49.68 22.6875C49.1353 22.6875 48.1729 22.6875 47.7189 22.2675C47.2105 21.795 47.1742 20.9025 47.1742 19.7475V18.3475C47.1742 17.1925 47.1924 16.3 47.7189 15.8275C48.1729 15.425 49.1534 15.4075 49.68 15.4075C50.2066 15.4075 51.1871 15.425 51.6411 15.8275C52.1495 16.3 52.2039 17.1925 52.2039 18.3475V19.7475ZM65.3684 14.1125C63.9703 14.1125 62.2634 14.4975 61.7005 14.6375C61.065 14.235 60.2116 14.1125 59.2492 14.1125C58.1053 14.1125 56.6526 14.305 55.8718 14.445C55.6176 14.4975 55.0366 14.6375 55.0366 15.4075V23.86H56.7616V15.7575C57.379 15.635 58.2324 15.4775 58.9587 15.4775C60.6292 15.4775 61.1558 16.0375 61.1558 17.525V23.86H62.8808V17.385C62.8808 16.7375 62.79 16.2125 62.6084 15.775C63.2984 15.635 64.2245 15.46 65.0779 15.46C66.7303 15.46 67.275 16.02 67.275 17.5075V23.8425H69V17.385C68.9818 14.62 67.4203 14.1125 65.3684 14.1125Z" fill="#231F20"/>
<path d="M86.1531 24C85.9824 24 85.8971 23.9093 85.8971 23.728V12.368C85.8971 12.2827 85.9131 12.224 85.9451 12.192C85.9771 12.1493 86.0357 12.128 86.1211 12.128H88.2171C88.3131 12.128 88.3824 12.144 88.4251 12.176C88.4677 12.1973 88.4997 12.2453 88.5211 12.32L91.7211 20.72C91.7531 20.816 91.7904 20.864 91.8331 20.864C91.8651 20.864 91.9077 20.8107 91.9611 20.704L95.1131 12.384C95.1771 12.2133 95.2731 12.128 95.4011 12.128H97.5771C97.7157 12.128 97.7851 12.208 97.7851 12.368V23.712C97.7851 23.8187 97.7637 23.8933 97.7211 23.936C97.6784 23.9787 97.6037 24 97.4971 24H96.1211C96.0251 24 95.9557 23.984 95.9131 23.952C95.8704 23.9093 95.8491 23.84 95.8491 23.744V14.976C95.8491 14.9227 95.8384 14.9013 95.8171 14.912C95.7957 14.912 95.7744 14.9387 95.7531 14.992L92.4571 23.776C92.4037 23.9253 92.3024 24 92.1531 24H91.1931C91.0331 24 90.9211 23.9307 90.8571 23.792L87.6251 15.088C87.6037 15.0133 87.5771 14.9813 87.5451 14.992C87.5237 14.992 87.5131 15.024 87.5131 15.088V23.776C87.5131 23.8613 87.4971 23.92 87.4651 23.952C87.4331 23.984 87.3691 24 87.2731 24H86.1531ZM101.928 20.352C101.928 20.832 102.04 21.2693 102.264 21.664C102.499 22.048 102.814 22.3573 103.208 22.592C103.603 22.816 104.035 22.928 104.504 22.928C104.995 22.928 105.432 22.8267 105.816 22.624C106.2 22.4213 106.552 22.1067 106.872 21.68C106.904 21.6373 106.942 21.616 106.984 21.616C107.038 21.616 107.08 21.6267 107.112 21.648L107.928 22.032C107.982 22.064 108.008 22.1067 108.008 22.16C108.008 22.192 107.992 22.2347 107.96 22.288C107.512 22.9493 107 23.4293 106.424 23.728C105.848 24.016 105.15 24.16 104.328 24.16C103.528 24.16 102.814 23.9787 102.184 23.616C101.555 23.2533 101.064 22.7467 100.712 22.096C100.36 21.4347 100.184 20.688 100.184 19.856C100.184 18.96 100.366 18.1707 100.728 17.488C101.091 16.8053 101.582 16.2827 102.2 15.92C102.83 15.5467 103.528 15.36 104.296 15.36C105.086 15.36 105.779 15.536 106.376 15.888C106.974 16.2293 107.432 16.7307 107.752 17.392C108.083 18.0533 108.248 18.8373 108.248 19.744V19.808C108.248 19.904 108.232 19.9787 108.2 20.032C108.179 20.0747 108.115 20.096 108.008 20.096H102.088C101.982 20.096 101.928 20.1813 101.928 20.352ZM106.296 19.088C106.403 19.088 106.472 19.072 106.504 19.04C106.547 19.008 106.568 18.9493 106.568 18.864C106.568 18.448 106.478 18.0587 106.296 17.696C106.126 17.3333 105.87 17.0453 105.528 16.832C105.198 16.608 104.803 16.496 104.344 16.496C103.864 16.496 103.443 16.6187 103.08 16.864C102.718 17.0987 102.435 17.4133 102.232 17.808C102.04 18.192 101.95 18.6133 101.96 19.072L106.296 19.088ZM116.249 24C116.078 24 115.993 23.9147 115.993 23.744V23.136C115.993 23.04 115.966 22.992 115.913 22.992C115.881 22.992 115.838 23.0187 115.785 23.072C115.465 23.3813 115.118 23.6427 114.745 23.856C114.371 24.0587 113.897 24.16 113.321 24.16C112.649 24.16 112.046 24 111.513 23.68C110.99 23.3493 110.579 22.864 110.281 22.224C109.982 21.5733 109.833 20.7893 109.833 19.872C109.833 18.9867 109.987 18.2027 110.297 17.52C110.617 16.8373 111.054 16.3093 111.609 15.936C112.174 15.552 112.803 15.36 113.497 15.36C113.955 15.36 114.361 15.4347 114.713 15.584C115.065 15.7333 115.395 15.9413 115.705 16.208C115.758 16.2613 115.811 16.288 115.865 16.288C115.929 16.288 115.961 16.224 115.961 16.096V12.368C115.961 12.208 116.03 12.128 116.169 12.128H117.449C117.513 12.128 117.561 12.1493 117.593 12.192C117.635 12.2347 117.657 12.2933 117.657 12.368V23.728C117.657 23.824 117.63 23.8933 117.577 23.936C117.534 23.9787 117.459 24 117.353 24H116.249ZM115.961 17.504C115.641 17.1733 115.326 16.928 115.017 16.768C114.707 16.608 114.366 16.528 113.993 16.528C113.267 16.528 112.681 16.8107 112.233 17.376C111.785 17.9413 111.561 18.7573 111.561 19.824C111.561 20.8907 111.779 21.6907 112.217 22.224C112.654 22.7467 113.219 23.008 113.913 23.008C114.286 23.008 114.627 22.9227 114.937 22.752C115.246 22.5707 115.491 22.3467 115.673 22.08C115.865 21.8027 115.961 21.5253 115.961 21.248V17.504ZM121.954 13.824C121.954 13.9413 121.927 14.0267 121.874 14.08C121.831 14.1333 121.751 14.16 121.634 14.16H120.45C120.343 14.16 120.268 14.1387 120.226 14.096C120.183 14.0427 120.162 13.9627 120.162 13.856V12.4C120.162 12.2187 120.242 12.128 120.402 12.128H121.73C121.794 12.128 121.847 12.1547 121.89 12.208C121.932 12.2507 121.954 12.3093 121.954 12.384V13.824ZM121.906 23.696C121.906 23.8133 121.879 23.8933 121.826 23.936C121.783 23.9787 121.703 24 121.586 24H120.498C120.391 24 120.316 23.984 120.274 23.952C120.231 23.9093 120.21 23.84 120.21 23.744V15.76C120.21 15.6747 120.226 15.616 120.258 15.584C120.29 15.5413 120.348 15.52 120.434 15.52H121.714C121.842 15.52 121.906 15.5947 121.906 15.744V23.696ZM129.331 23.04C128.552 23.7867 127.64 24.16 126.595 24.16C125.773 24.16 125.123 23.952 124.643 23.536C124.173 23.1093 123.939 22.544 123.939 21.84C123.939 20.976 124.312 20.288 125.059 19.776C125.816 19.264 126.888 18.976 128.275 18.912L129.315 18.832C129.485 18.8107 129.571 18.7307 129.571 18.592V18.192C129.571 17.6693 129.411 17.2587 129.091 16.96C128.771 16.6507 128.333 16.496 127.779 16.496C126.904 16.496 126.205 16.8907 125.683 17.68C125.651 17.744 125.613 17.7867 125.571 17.808C125.539 17.8187 125.485 17.8133 125.411 17.792L124.323 17.472C124.259 17.4507 124.227 17.408 124.227 17.344C124.227 17.3013 124.243 17.2427 124.275 17.168C124.573 16.592 125.027 16.1493 125.635 15.84C126.253 15.52 126.995 15.36 127.859 15.36C128.979 15.36 129.816 15.6 130.371 16.08C130.925 16.56 131.203 17.2267 131.203 18.08V23.728C131.203 23.8347 131.181 23.9093 131.139 23.952C131.107 23.984 131.048 24 130.963 24H129.891C129.741 24 129.656 23.8933 129.635 23.68L129.603 23.072C129.581 22.9867 129.549 22.944 129.507 22.944C129.475 22.944 129.416 22.976 129.331 23.04ZM129.571 20.016C129.571 19.8453 129.496 19.7653 129.347 19.776L128.483 19.84C127.597 19.8933 126.893 20.0747 126.371 20.384C125.859 20.6827 125.603 21.0987 125.603 21.632C125.603 22.048 125.752 22.3787 126.051 22.624C126.349 22.8587 126.749 22.976 127.251 22.976C127.827 22.976 128.371 22.7787 128.883 22.384C129.341 22.0107 129.571 21.6373 129.571 21.264V20.016Z" fill="#1ABD79"/>
<path d="M77 0H78V34H77L77 0Z" fill="#B6CAD1"/>
</svg>
