<svg width="188" height="34" viewBox="0 0 188 34" fill="none" xmlns="http://www.w3.org/2000/svg">
<path d="M16.56 10.105L13.2916 21.5675L10.3682 11.26C10.2592 10.8575 10.2411 10.6475 9.69632 10.6475H8.67948C8.1529 10.6475 8.11658 10.8575 8.00763 11.26L5.06606 21.5675L1.81579 10.105L0 10.5425L3.74053 23.2475C3.84947 23.6325 3.92211 23.86 4.44868 23.86H5.48369C6.01027 23.86 6.0829 23.6325 6.19184 23.2475L9.16974 12.9575L12.1658 23.2475C12.2747 23.65 12.3292 23.86 12.874 23.86H13.9089C14.4537 23.86 14.5082 23.65 14.6171 23.2475L18.3395 10.5425L16.56 10.105ZM25.2395 14.6025C24.4224 14.165 23.6416 14.1125 22.6247 14.1125C21.8439 14.1125 20.7545 14.13 20.0282 14.445C18.4666 15.145 18.1579 16.9825 18.1579 18.47V19.6075C18.1579 21.095 18.4484 22.7575 19.8103 23.4575C20.5729 23.8425 21.5716 23.965 22.5339 23.965C23.5871 23.965 25.0761 23.86 25.9113 23.7025L25.7842 22.4075C24.6403 22.565 23.4055 22.6175 22.8426 22.6175C22.3161 22.6175 21.1176 22.5475 20.5729 22.11C20.0645 21.69 19.9011 20.7625 19.8829 19.6425H25.4029C26.2563 19.6425 26.6376 19.24 26.6376 18.715V17.7175C26.6558 15.95 25.9658 15.005 25.2395 14.6025ZM24.9308 18.33H19.8829C19.8829 17.14 20.0826 16.3175 20.6092 15.845C21.0995 15.4075 22.08 15.4075 22.5703 15.4075C23.2058 15.4075 23.8595 15.46 24.2771 15.7925C24.7311 16.1775 24.9308 16.8775 24.9308 17.945C24.9308 18.26 24.9308 18.05 24.9308 18.33ZM34.5 14.4975C33.6103 14.1125 32.5026 14.1125 31.7037 14.1125C31.2316 14.1125 30.2874 14.2 29.4884 14.3225V10H27.7634V21.5675C27.7634 23.615 29.5429 24 31.9216 24C34.8268 24 36.2432 23.335 36.2432 19.24V18.33C36.2613 16.8425 36.0797 15.18 34.5 14.4975ZM34.5182 19.3625C34.5182 22.1625 34.0824 22.705 32.1032 22.705C31.2316 22.705 30.5234 22.635 30.124 22.4075C29.6337 22.1275 29.4884 21.6725 29.4884 20.99V15.705C30.2874 15.53 31.3042 15.4775 31.7763 15.4775C33.9734 15.4775 34.5 15.8625 34.5 18.2075V19.3625H34.5182ZM41.7813 22.6175C41.2547 22.6175 40.1289 22.6175 39.675 22.1975C39.1484 21.725 38.985 20.885 38.985 19.73V18.3475C38.985 17.1925 39.1303 16.3525 39.675 15.88C40.1289 15.4775 41.2366 15.46 41.7813 15.46C42.3442 15.46 43.1432 15.495 44.2871 15.67C44.2871 15.67 44.4142 14.41 44.4142 14.375C43.5789 14.235 42.2534 14.1125 41.4726 14.1125C40.7282 14.1125 39.675 14.1825 38.9124 14.5675C37.5324 15.2675 37.2055 16.9825 37.2055 18.47V19.59C37.2055 21.0775 37.5324 22.7925 38.9124 23.4925C39.675 23.8775 40.7282 23.9475 41.4726 23.9475C42.2534 23.9475 43.7605 23.8425 44.6139 23.685L44.4868 22.39C43.3247 22.5825 42.3261 22.6175 41.7813 22.6175ZM52.204 14.4275C51.4776 14.1125 50.4608 14.1125 49.68 14.1125C48.8992 14.1125 47.8824 14.1125 47.1561 14.4275C45.5945 15.1275 45.4129 16.9825 45.4129 18.47V19.6075C45.4129 21.095 45.5763 22.985 47.1561 23.65C47.8642 23.965 48.8992 23.965 49.68 23.965C50.4608 23.965 51.4776 23.965 52.204 23.65C53.7655 22.95 53.9471 21.095 53.9471 19.6075V18.47C53.9471 16.9825 53.7655 15.1275 52.204 14.4275ZM52.204 19.7475C52.204 20.9025 52.1676 21.795 51.6411 22.2675C51.1871 22.6875 50.2066 22.67 49.68 22.6875C49.1353 22.6875 48.1729 22.6875 47.7189 22.2675C47.2105 21.795 47.1742 20.9025 47.1742 19.7475V18.3475C47.1742 17.1925 47.1924 16.3 47.7189 15.8275C48.1729 15.425 49.1534 15.4075 49.68 15.4075C50.2066 15.4075 51.1871 15.425 51.6411 15.8275C52.1495 16.3 52.204 17.1925 52.204 18.3475V19.7475ZM65.3684 14.1125C63.9703 14.1125 62.2634 14.4975 61.7005 14.6375C61.065 14.235 60.2116 14.1125 59.2492 14.1125C58.1053 14.1125 56.6526 14.305 55.8718 14.445C55.6176 14.4975 55.0366 14.6375 55.0366 15.4075V23.86H56.7616V15.7575C57.379 15.635 58.2324 15.4775 58.9587 15.4775C60.6292 15.4775 61.1558 16.0375 61.1558 17.525V23.86H62.8808V17.385C62.8808 16.7375 62.79 16.2125 62.6084 15.775C63.2984 15.635 64.2245 15.46 65.0779 15.46C66.7303 15.46 67.275 16.02 67.275 17.5075V23.8425H69V17.385C68.9818 14.62 67.4203 14.1125 65.3684 14.1125Z" fill="#231F20"/>
<path d="M77 0H78V34H77L77 0Z" fill="#B6CAD1"/>
<path d="M94.7802 15.664C94.7802 16.8053 94.3909 17.6747 93.6122 18.272C92.8442 18.8693 91.8149 19.168 90.5242 19.168H87.9002C87.7936 19.168 87.7402 19.2213 87.7402 19.328V23.728C87.7402 23.9093 87.6442 24 87.4522 24H86.0602C85.8896 24 85.8042 23.92 85.8042 23.76V12.368C85.8042 12.2827 85.8202 12.224 85.8522 12.192C85.8842 12.1493 85.9429 12.128 86.0282 12.128H90.3002C91.6442 12.128 92.7269 12.4267 93.5482 13.024C94.3696 13.6107 94.7802 14.4907 94.7802 15.664ZM92.7962 15.616C92.7962 14.24 91.9269 13.552 90.1882 13.552H87.9802C87.8949 13.552 87.8309 13.568 87.7882 13.6C87.7562 13.632 87.7402 13.6907 87.7402 13.776V17.504C87.7402 17.664 87.7989 17.744 87.9162 17.744H90.3002C91.0789 17.744 91.6869 17.568 92.1242 17.216C92.5722 16.8533 92.7962 16.32 92.7962 15.616ZM97.5541 20.352C97.5541 20.832 97.6661 21.2693 97.8901 21.664C98.1248 22.048 98.4395 22.3573 98.8341 22.592C99.2288 22.816 99.6608 22.928 100.13 22.928C100.621 22.928 101.058 22.8267 101.442 22.624C101.826 22.4213 102.178 22.1067 102.498 21.68C102.53 21.6373 102.567 21.616 102.61 21.616C102.663 21.616 102.706 21.6267 102.738 21.648L103.554 22.032C103.607 22.064 103.634 22.1067 103.634 22.16C103.634 22.192 103.618 22.2347 103.586 22.288C103.138 22.9493 102.626 23.4293 102.05 23.728C101.474 24.016 100.775 24.16 99.9541 24.16C99.1541 24.16 98.4395 23.9787 97.8101 23.616C97.1808 23.2533 96.6901 22.7467 96.3381 22.096C95.9861 21.4347 95.8101 20.688 95.8101 19.856C95.8101 18.96 95.9915 18.1707 96.3541 17.488C96.7168 16.8053 97.2075 16.2827 97.8261 15.92C98.4555 15.5467 99.1541 15.36 99.9221 15.36C100.711 15.36 101.405 15.536 102.002 15.888C102.599 16.2293 103.058 16.7307 103.378 17.392C103.709 18.0533 103.874 18.8373 103.874 19.744V19.808C103.874 19.904 103.858 19.9787 103.826 20.032C103.805 20.0747 103.741 20.096 103.634 20.096H97.7141C97.6075 20.096 97.5541 20.1813 97.5541 20.352ZM101.922 19.088C102.029 19.088 102.098 19.072 102.13 19.04C102.173 19.008 102.194 18.9493 102.194 18.864C102.194 18.448 102.103 18.0587 101.922 17.696C101.751 17.3333 101.495 17.0453 101.154 16.832C100.823 16.608 100.429 16.496 99.9701 16.496C99.4901 16.496 99.0688 16.6187 98.7061 16.864C98.3435 17.0987 98.0608 17.4133 97.8581 17.808C97.6661 18.192 97.5755 18.6133 97.5861 19.072L101.922 19.088ZM106.147 24C105.976 24 105.891 23.9147 105.891 23.744V15.76C105.891 15.6 105.96 15.52 106.099 15.52H107.331C107.459 15.52 107.523 15.5893 107.523 15.728V16.736C107.523 16.8 107.539 16.8373 107.571 16.848C107.613 16.8587 107.656 16.8373 107.699 16.784C108.093 16.3253 108.499 15.9733 108.915 15.728C109.341 15.4827 109.757 15.36 110.163 15.36C110.536 15.36 110.723 15.4347 110.723 15.584V16.832C110.723 16.96 110.664 17.0133 110.547 16.992C110.344 16.9387 110.061 16.912 109.699 16.912C109.4 16.912 109.085 16.9973 108.755 17.168C108.424 17.328 108.147 17.5413 107.923 17.808C107.699 18.0747 107.587 18.3467 107.587 18.624V23.728C107.587 23.9093 107.485 24 107.283 24H106.147ZM117.034 15.52C117.184 15.52 117.258 15.5893 117.258 15.728V16.56C117.258 16.6773 117.189 16.736 117.05 16.736H115.386C115.29 16.736 115.242 16.784 115.242 16.88V23.744C115.242 23.9147 115.173 24 115.034 24H113.738C113.61 24 113.546 23.9253 113.546 23.776V16.864C113.546 16.7787 113.509 16.736 113.434 16.736H111.994C111.866 16.736 111.802 16.6773 111.802 16.56V15.728C111.802 15.5893 111.872 15.52 112.01 15.52H113.386C113.45 15.52 113.493 15.5093 113.514 15.488C113.536 15.456 113.546 15.4027 113.546 15.328V14.224C113.546 13.552 113.722 13.0347 114.074 12.672C114.437 12.3093 114.965 12.128 115.658 12.128H117.082C117.242 12.128 117.322 12.208 117.322 12.368L117.338 13.12C117.338 13.1733 117.317 13.2213 117.274 13.264C117.242 13.296 117.194 13.312 117.13 13.312H116.106C115.808 13.312 115.584 13.408 115.434 13.6C115.285 13.792 115.21 14.0587 115.21 14.4V15.376C115.21 15.472 115.264 15.52 115.37 15.52H117.034ZM122.398 24.16C121.587 24.16 120.867 23.9787 120.238 23.616C119.619 23.2427 119.139 22.7253 118.798 22.064C118.456 21.4027 118.286 20.6507 118.286 19.808C118.286 18.944 118.462 18.176 118.814 17.504C119.166 16.8213 119.651 16.2933 120.27 15.92C120.899 15.5467 121.614 15.36 122.414 15.36C123.224 15.36 123.939 15.552 124.558 15.936C125.187 16.3093 125.672 16.832 126.014 17.504C126.355 18.176 126.526 18.9387 126.526 19.792C126.526 20.6347 126.35 21.3867 125.998 22.048C125.656 22.7093 125.171 23.2267 124.542 23.6C123.923 23.9733 123.208 24.16 122.398 24.16ZM122.43 22.96C123.176 22.96 123.758 22.6827 124.174 22.128C124.59 21.5627 124.798 20.7733 124.798 19.76C124.798 18.7467 124.584 17.9573 124.158 17.392C123.742 16.816 123.16 16.528 122.414 16.528C121.667 16.528 121.08 16.816 120.654 17.392C120.227 17.9573 120.014 18.7467 120.014 19.76C120.014 20.7627 120.227 21.5467 120.654 22.112C121.08 22.6773 121.672 22.96 122.43 22.96ZM128.888 24C128.717 24 128.632 23.9147 128.632 23.744V15.76C128.632 15.6 128.701 15.52 128.84 15.52H130.072C130.2 15.52 130.264 15.5893 130.264 15.728V16.736C130.264 16.8 130.28 16.8373 130.312 16.848C130.355 16.8587 130.397 16.8373 130.44 16.784C130.835 16.3253 131.24 15.9733 131.656 15.728C132.083 15.4827 132.499 15.36 132.904 15.36C133.277 15.36 133.464 15.4347 133.464 15.584V16.832C133.464 16.96 133.405 17.0133 133.288 16.992C133.085 16.9387 132.803 16.912 132.44 16.912C132.141 16.912 131.827 16.9973 131.496 17.168C131.165 17.328 130.888 17.5413 130.664 17.808C130.44 18.0747 130.328 18.3467 130.328 18.624V23.728C130.328 23.9093 130.227 24 130.024 24H128.888ZM135.552 24C135.381 24 135.296 23.9147 135.296 23.744V15.76C135.296 15.6 135.365 15.52 135.504 15.52H136.752C136.88 15.52 136.944 15.5893 136.944 15.728V16.608C136.944 16.672 136.96 16.7093 136.992 16.72C137.024 16.7307 137.061 16.7093 137.104 16.656C137.637 16.208 138.112 15.8827 138.528 15.68C138.954 15.4667 139.413 15.36 139.904 15.36C140.49 15.36 140.976 15.4933 141.36 15.76C141.744 16.0267 142.016 16.3733 142.176 16.8C142.197 16.832 142.218 16.848 142.24 16.848C142.282 16.848 142.33 16.8213 142.384 16.768C142.885 16.3093 143.365 15.9627 143.824 15.728C144.282 15.4827 144.762 15.36 145.264 15.36C146.032 15.36 146.629 15.584 147.056 16.032C147.493 16.4693 147.712 17.072 147.712 17.84V23.712C147.712 23.904 147.616 24 147.424 24H146.24C146.154 24 146.096 23.984 146.064 23.952C146.032 23.9093 146.016 23.84 146.016 23.744V18.144C146.016 17.664 145.898 17.296 145.664 17.04C145.429 16.7733 145.077 16.64 144.608 16.64C143.968 16.64 143.285 16.976 142.56 17.648C142.485 17.7227 142.432 17.7973 142.4 17.872C142.368 17.936 142.352 18.016 142.352 18.112V23.712C142.352 23.904 142.256 24 142.064 24H140.896C140.736 24 140.656 23.9147 140.656 23.744V18.144C140.656 17.664 140.538 17.296 140.304 17.04C140.08 16.7733 139.728 16.64 139.248 16.64C138.864 16.64 138.506 16.736 138.176 16.928C137.845 17.1093 137.45 17.4133 136.992 17.84V23.728C136.992 23.824 136.965 23.8933 136.912 23.936C136.869 23.9787 136.794 24 136.688 24H135.552ZM155.026 23.04C154.247 23.7867 153.335 24.16 152.29 24.16C151.469 24.16 150.818 23.952 150.338 23.536C149.869 23.1093 149.634 22.544 149.634 21.84C149.634 20.976 150.007 20.288 150.754 19.776C151.511 19.264 152.583 18.976 153.97 18.912L155.01 18.832C155.181 18.8107 155.266 18.7307 155.266 18.592V18.192C155.266 17.6693 155.106 17.2587 154.786 16.96C154.466 16.6507 154.029 16.496 153.474 16.496C152.599 16.496 151.901 16.8907 151.378 17.68C151.346 17.744 151.309 17.7867 151.266 17.808C151.234 17.8187 151.181 17.8133 151.106 17.792L150.018 17.472C149.954 17.4507 149.922 17.408 149.922 17.344C149.922 17.3013 149.938 17.2427 149.97 17.168C150.269 16.592 150.722 16.1493 151.33 15.84C151.949 15.52 152.69 15.36 153.554 15.36C154.674 15.36 155.511 15.6 156.066 16.08C156.621 16.56 156.898 17.2267 156.898 18.08V23.728C156.898 23.8347 156.877 23.9093 156.834 23.952C156.802 23.984 156.743 24 156.658 24H155.586C155.437 24 155.351 23.8933 155.33 23.68L155.298 23.072C155.277 22.9867 155.245 22.944 155.202 22.944C155.17 22.944 155.111 22.976 155.026 23.04ZM155.266 20.016C155.266 19.8453 155.191 19.7653 155.042 19.776L154.178 19.84C153.293 19.8933 152.589 20.0747 152.066 20.384C151.554 20.6827 151.298 21.0987 151.298 21.632C151.298 22.048 151.447 22.3787 151.746 22.624C152.045 22.8587 152.445 22.976 152.946 22.976C153.522 22.976 154.066 22.7787 154.578 22.384C155.037 22.0107 155.266 21.6373 155.266 21.264V20.016ZM159.582 24C159.412 24 159.326 23.9147 159.326 23.744V15.76C159.326 15.6 159.396 15.52 159.534 15.52H160.798C160.926 15.52 160.99 15.5893 160.99 15.728V16.608C160.99 16.672 161.001 16.7093 161.022 16.72C161.054 16.7307 161.097 16.7093 161.15 16.656C161.705 16.208 162.196 15.8827 162.622 15.68C163.049 15.4667 163.513 15.36 164.014 15.36C164.814 15.36 165.438 15.584 165.886 16.032C166.345 16.4693 166.574 17.0613 166.574 17.808V23.712C166.574 23.904 166.484 24 166.302 24H165.118C164.958 24 164.878 23.9147 164.878 23.744V18.144C164.878 17.664 164.75 17.296 164.494 17.04C164.249 16.7733 163.876 16.64 163.374 16.64C162.969 16.64 162.59 16.736 162.238 16.928C161.897 17.1093 161.492 17.4133 161.022 17.84V23.728C161.022 23.824 160.996 23.8933 160.942 23.936C160.9 23.9787 160.825 24 160.718 24H159.582ZM172.684 15.36C173.516 15.36 174.22 15.5573 174.796 15.952C175.372 16.3467 175.804 16.8587 176.092 17.488C176.114 17.5307 176.124 17.5787 176.124 17.632C176.124 17.696 176.076 17.7387 175.98 17.76L174.844 17.952H174.796C174.732 17.952 174.679 17.9093 174.636 17.824C174.338 17.3867 174.05 17.0667 173.772 16.864C173.495 16.6507 173.159 16.544 172.764 16.544C172.018 16.544 171.426 16.8267 170.988 17.392C170.551 17.9573 170.332 18.7467 170.332 19.76C170.332 20.784 170.556 21.5787 171.004 22.144C171.452 22.7093 172.06 22.992 172.828 22.992C173.308 22.992 173.719 22.8693 174.06 22.624C174.412 22.3787 174.738 22.0107 175.036 21.52C175.068 21.4773 175.1 21.4507 175.132 21.44C175.164 21.4293 175.207 21.4347 175.26 21.456L176.108 21.712C176.204 21.744 176.226 21.824 176.172 21.952C175.874 22.5813 175.431 23.1093 174.844 23.536C174.268 23.952 173.548 24.16 172.684 24.16C171.895 24.16 171.191 23.9787 170.572 23.616C169.954 23.2427 169.468 22.7253 169.116 22.064C168.775 21.4027 168.604 20.6453 168.604 19.792C168.604 18.9387 168.78 18.176 169.132 17.504C169.484 16.832 169.97 16.3093 170.588 15.936C171.207 15.552 171.906 15.36 172.684 15.36ZM179.387 20.352C179.387 20.832 179.499 21.2693 179.723 21.664C179.958 22.048 180.273 22.3573 180.667 22.592C181.062 22.816 181.494 22.928 181.963 22.928C182.454 22.928 182.891 22.8267 183.275 22.624C183.659 22.4213 184.011 22.1067 184.331 21.68C184.363 21.6373 184.401 21.616 184.443 21.616C184.497 21.616 184.539 21.6267 184.571 21.648L185.387 22.032C185.441 22.064 185.467 22.1067 185.467 22.16C185.467 22.192 185.451 22.2347 185.419 22.288C184.971 22.9493 184.459 23.4293 183.883 23.728C183.307 24.016 182.609 24.16 181.787 24.16C180.987 24.16 180.273 23.9787 179.643 23.616C179.014 23.2533 178.523 22.7467 178.171 22.096C177.819 21.4347 177.643 20.688 177.643 19.856C177.643 18.96 177.825 18.1707 178.187 17.488C178.55 16.8053 179.041 16.2827 179.659 15.92C180.289 15.5467 180.987 15.36 181.755 15.36C182.545 15.36 183.238 15.536 183.835 15.888C184.433 16.2293 184.891 16.7307 185.211 17.392C185.542 18.0533 185.707 18.8373 185.707 19.744V19.808C185.707 19.904 185.691 19.9787 185.659 20.032C185.638 20.0747 185.574 20.096 185.467 20.096H179.547C179.441 20.096 179.387 20.1813 179.387 20.352ZM183.755 19.088C183.862 19.088 183.931 19.072 183.963 19.04C184.006 19.008 184.027 18.9493 184.027 18.864C184.027 18.448 183.937 18.0587 183.755 17.696C183.585 17.3333 183.329 17.0453 182.987 16.832C182.657 16.608 182.262 16.496 181.803 16.496C181.323 16.496 180.902 16.6187 180.539 16.864C180.177 17.0987 179.894 17.4133 179.691 17.808C179.499 18.192 179.409 18.6133 179.419 19.072L183.755 19.088Z" fill="#44AD3D"/>
</svg>
