<svg width="153" height="34" viewBox="0 0 153 34" fill="none" xmlns="http://www.w3.org/2000/svg">
<path d="M16.56 10.105L13.2916 21.5675L10.3682 11.26C10.2592 10.8575 10.2411 10.6475 9.69632 10.6475H8.67948C8.1529 10.6475 8.11658 10.8575 8.00763 11.26L5.06606 21.5675L1.81579 10.105L-2.21654e-06 10.5425L3.74053 23.2475C3.84947 23.6325 3.9221 23.86 4.44868 23.86H5.48368C6.01026 23.86 6.08289 23.6325 6.19184 23.2475L9.16973 12.9575L12.1658 23.2475C12.2747 23.65 12.3292 23.86 12.8739 23.86H13.9089C14.4537 23.86 14.5082 23.65 14.6171 23.2475L18.3395 10.5425L16.56 10.105ZM25.2395 14.6025C24.4224 14.165 23.6416 14.1125 22.6247 14.1125C21.8439 14.1125 20.7545 14.13 20.0282 14.445C18.4666 15.145 18.1579 16.9825 18.1579 18.47V19.6075C18.1579 21.095 18.4484 22.7575 19.8103 23.4575C20.5729 23.8425 21.5716 23.965 22.5339 23.965C23.5871 23.965 25.0761 23.86 25.9113 23.7025L25.7842 22.4075C24.6403 22.565 23.4055 22.6175 22.8426 22.6175C22.3161 22.6175 21.1176 22.5475 20.5729 22.11C20.0645 21.69 19.9011 20.7625 19.8829 19.6425H25.4029C26.2563 19.6425 26.6376 19.24 26.6376 18.715V17.7175C26.6558 15.95 25.9658 15.005 25.2395 14.6025ZM24.9308 18.33H19.8829C19.8829 17.14 20.0826 16.3175 20.6092 15.845C21.0995 15.4075 22.08 15.4075 22.5703 15.4075C23.2058 15.4075 23.8595 15.46 24.2771 15.7925C24.7311 16.1775 24.9308 16.8775 24.9308 17.945C24.9308 18.26 24.9308 18.05 24.9308 18.33ZM34.5 14.4975C33.6103 14.1125 32.5026 14.1125 31.7037 14.1125C31.2316 14.1125 30.2874 14.2 29.4884 14.3225V10H27.7634V21.5675C27.7634 23.615 29.5429 24 31.9216 24C34.8268 24 36.2432 23.335 36.2432 19.24V18.33C36.2613 16.8425 36.0797 15.18 34.5 14.4975ZM34.5182 19.3625C34.5182 22.1625 34.0824 22.705 32.1032 22.705C31.2316 22.705 30.5234 22.635 30.1239 22.4075C29.6337 22.1275 29.4884 21.6725 29.4884 20.99V15.705C30.2874 15.53 31.3042 15.4775 31.7763 15.4775C33.9734 15.4775 34.5 15.8625 34.5 18.2075V19.3625H34.5182ZM41.7813 22.6175C41.2547 22.6175 40.1289 22.6175 39.675 22.1975C39.1484 21.725 38.985 20.885 38.985 19.73V18.3475C38.985 17.1925 39.1303 16.3525 39.675 15.88C40.1289 15.4775 41.2366 15.46 41.7813 15.46C42.3442 15.46 43.1432 15.495 44.2871 15.67C44.2871 15.67 44.4142 14.41 44.4142 14.375C43.5789 14.235 42.2534 14.1125 41.4726 14.1125C40.7282 14.1125 39.675 14.1825 38.9124 14.5675C37.5324 15.2675 37.2055 16.9825 37.2055 18.47V19.59C37.2055 21.0775 37.5324 22.7925 38.9124 23.4925C39.675 23.8775 40.7282 23.9475 41.4726 23.9475C42.2534 23.9475 43.7605 23.8425 44.6139 23.685L44.4868 22.39C43.3247 22.5825 42.3261 22.6175 41.7813 22.6175ZM52.2039 14.4275C51.4776 14.1125 50.4608 14.1125 49.68 14.1125C48.8992 14.1125 47.8824 14.1125 47.1561 14.4275C45.5945 15.1275 45.4129 16.9825 45.4129 18.47V19.6075C45.4129 21.095 45.5763 22.985 47.1561 23.65C47.8642 23.965 48.8992 23.965 49.68 23.965C50.4608 23.965 51.4776 23.965 52.2039 23.65C53.7655 22.95 53.9471 21.095 53.9471 19.6075V18.47C53.9471 16.9825 53.7655 15.1275 52.2039 14.4275ZM52.2039 19.7475C52.2039 20.9025 52.1676 21.795 51.6411 22.2675C51.1871 22.6875 50.2066 22.67 49.68 22.6875C49.1353 22.6875 48.1729 22.6875 47.7189 22.2675C47.2105 21.795 47.1742 20.9025 47.1742 19.7475V18.3475C47.1742 17.1925 47.1924 16.3 47.7189 15.8275C48.1729 15.425 49.1534 15.4075 49.68 15.4075C50.2066 15.4075 51.1871 15.425 51.6411 15.8275C52.1495 16.3 52.2039 17.1925 52.2039 18.3475V19.7475ZM65.3684 14.1125C63.9703 14.1125 62.2634 14.4975 61.7005 14.6375C61.065 14.235 60.2116 14.1125 59.2492 14.1125C58.1053 14.1125 56.6526 14.305 55.8718 14.445C55.6176 14.4975 55.0366 14.6375 55.0366 15.4075V23.86H56.7616V15.7575C57.379 15.635 58.2324 15.4775 58.9587 15.4775C60.6292 15.4775 61.1558 16.0375 61.1558 17.525V23.86H62.8808V17.385C62.8808 16.7375 62.79 16.2125 62.6084 15.775C63.2984 15.635 64.2245 15.46 65.0779 15.46C66.7303 15.46 67.275 16.02 67.275 17.5075V23.8425H69V17.385C68.9818 14.62 67.4203 14.1125 65.3684 14.1125Z" fill="#231F20"/>
<path d="M87.834 13.824C87.834 13.9413 87.8073 14.0267 87.754 14.08C87.7113 14.1333 87.6313 14.16 87.514 14.16H86.33C86.2233 14.16 86.1487 14.1387 86.106 14.096C86.0633 14.0427 86.042 13.9627 86.042 13.856V12.4C86.042 12.2187 86.122 12.128 86.282 12.128H87.61C87.674 12.128 87.7273 12.1547 87.77 12.208C87.8127 12.2507 87.834 12.3093 87.834 12.384V13.824ZM87.786 23.696C87.786 23.8133 87.7593 23.8933 87.706 23.936C87.6633 23.9787 87.5833 24 87.466 24H86.378C86.2713 24 86.1967 23.984 86.154 23.952C86.1113 23.9093 86.09 23.84 86.09 23.744V15.76C86.09 15.6747 86.106 15.616 86.138 15.584C86.17 15.5413 86.2287 15.52 86.314 15.52H87.594C87.722 15.52 87.786 15.5947 87.786 15.744V23.696ZM95.3071 11.968C96.0431 11.968 96.7365 12.1227 97.3871 12.432C98.0378 12.7307 98.5765 13.136 99.0031 13.648C99.4298 14.16 99.6911 14.72 99.7871 15.328C99.7978 15.3707 99.8031 15.424 99.8031 15.488C99.8031 15.5413 99.7925 15.5787 99.7711 15.6C99.7498 15.6107 99.7071 15.6213 99.6431 15.632L98.1551 15.728H98.1071C98.0431 15.728 97.9951 15.6693 97.9631 15.552C97.8138 14.8907 97.5098 14.3627 97.0511 13.968C96.6031 13.5733 96.0431 13.376 95.3711 13.376C94.3365 13.376 93.5471 13.7653 93.0031 14.544C92.4698 15.312 92.2031 16.48 92.2031 18.048C92.2031 19.6053 92.4698 20.768 93.0031 21.536C93.5471 22.304 94.3578 22.688 95.4351 22.688C96.1605 22.688 96.7631 22.512 97.2431 22.16C97.7338 21.808 98.1285 21.2427 98.4271 20.464C98.4378 20.3893 98.5178 20.3627 98.6671 20.384L99.8031 20.656C99.8991 20.6773 99.9365 20.768 99.9151 20.928C99.7658 21.44 99.4938 21.9413 99.0991 22.432C98.7151 22.9227 98.2031 23.3333 97.5631 23.664C96.9231 23.9947 96.1871 24.16 95.3551 24.16C94.2885 24.16 93.3658 23.9093 92.5871 23.408C91.8085 22.9067 91.2111 22.1973 90.7951 21.28C90.3791 20.352 90.1711 19.2693 90.1711 18.032C90.1711 16.784 90.3738 15.7067 90.7791 14.8C91.1951 13.8827 91.7871 13.184 92.5551 12.704C93.3338 12.2133 94.2511 11.968 95.3071 11.968ZM105.738 24.16C104.927 24.16 104.207 23.9787 103.578 23.616C102.959 23.2427 102.479 22.7253 102.138 22.064C101.796 21.4027 101.626 20.6507 101.626 19.808C101.626 18.944 101.802 18.176 102.154 17.504C102.506 16.8213 102.991 16.2933 103.61 15.92C104.239 15.5467 104.954 15.36 105.754 15.36C106.564 15.36 107.279 15.552 107.898 15.936C108.527 16.3093 109.012 16.832 109.354 17.504C109.695 18.176 109.866 18.9387 109.866 19.792C109.866 20.6347 109.69 21.3867 109.338 22.048C108.996 22.7093 108.511 23.2267 107.882 23.6C107.263 23.9733 106.548 24.16 105.738 24.16ZM105.77 22.96C106.516 22.96 107.098 22.6827 107.514 22.128C107.93 21.5627 108.138 20.7733 108.138 19.76C108.138 18.7467 107.924 17.9573 107.498 17.392C107.082 16.816 106.5 16.528 105.754 16.528C105.007 16.528 104.42 16.816 103.994 17.392C103.567 17.9573 103.354 18.7467 103.354 19.76C103.354 20.7627 103.567 21.5467 103.994 22.112C104.42 22.6773 105.012 22.96 105.77 22.96ZM112.228 24C112.057 24 111.972 23.9147 111.972 23.744V15.76C111.972 15.6 112.041 15.52 112.18 15.52H113.444C113.572 15.52 113.636 15.5893 113.636 15.728V16.608C113.636 16.672 113.647 16.7093 113.668 16.72C113.7 16.7307 113.743 16.7093 113.796 16.656C114.351 16.208 114.841 15.8827 115.268 15.68C115.695 15.4667 116.159 15.36 116.66 15.36C117.46 15.36 118.084 15.584 118.532 16.032C118.991 16.4693 119.22 17.0613 119.22 17.808V23.712C119.22 23.904 119.129 24 118.948 24H117.764C117.604 24 117.524 23.9147 117.524 23.744V18.144C117.524 17.664 117.396 17.296 117.14 17.04C116.895 16.7733 116.521 16.64 116.02 16.64C115.615 16.64 115.236 16.736 114.884 16.928C114.543 17.1093 114.137 17.4133 113.668 17.84V23.728C113.668 23.824 113.641 23.8933 113.588 23.936C113.545 23.9787 113.471 24 113.364 24H112.228ZM124.354 16.736C124.258 16.736 124.21 16.7893 124.21 16.896V21.584C124.21 22.032 124.29 22.3413 124.45 22.512C124.621 22.6827 124.887 22.768 125.25 22.768H126.274C126.402 22.768 126.466 22.832 126.466 22.96V23.648C126.466 23.7973 126.386 23.888 126.226 23.92C125.885 23.9733 125.341 24 124.594 24C123.89 24 123.367 23.84 123.026 23.52C122.685 23.1893 122.514 22.6827 122.514 22V16.928C122.514 16.8 122.461 16.736 122.354 16.736H121.154C121.015 16.736 120.946 16.672 120.946 16.544V15.696C120.946 15.5787 121.01 15.52 121.138 15.52H122.418C122.503 15.52 122.546 15.472 122.546 15.376L122.738 12.864C122.759 12.7147 122.823 12.64 122.93 12.64H124.034C124.173 12.64 124.242 12.7253 124.242 12.896V15.376C124.242 15.472 124.29 15.52 124.386 15.52H126.306C126.434 15.52 126.498 15.5787 126.498 15.696V16.544C126.498 16.672 126.423 16.736 126.274 16.736H124.354ZM129.517 20.352C129.517 20.832 129.629 21.2693 129.853 21.664C130.088 22.048 130.403 22.3573 130.797 22.592C131.192 22.816 131.624 22.928 132.093 22.928C132.584 22.928 133.021 22.8267 133.405 22.624C133.789 22.4213 134.141 22.1067 134.461 21.68C134.493 21.6373 134.531 21.616 134.573 21.616C134.627 21.616 134.669 21.6267 134.701 21.648L135.517 22.032C135.571 22.064 135.597 22.1067 135.597 22.16C135.597 22.192 135.581 22.2347 135.549 22.288C135.101 22.9493 134.589 23.4293 134.013 23.728C133.437 24.016 132.739 24.16 131.917 24.16C131.117 24.16 130.403 23.9787 129.773 23.616C129.144 23.2533 128.653 22.7467 128.301 22.096C127.949 21.4347 127.773 20.688 127.773 19.856C127.773 18.96 127.955 18.1707 128.317 17.488C128.68 16.8053 129.171 16.2827 129.789 15.92C130.419 15.5467 131.117 15.36 131.885 15.36C132.675 15.36 133.368 15.536 133.965 15.888C134.563 16.2293 135.021 16.7307 135.341 17.392C135.672 18.0533 135.837 18.8373 135.837 19.744V19.808C135.837 19.904 135.821 19.9787 135.789 20.032C135.768 20.0747 135.704 20.096 135.597 20.096H129.677C129.571 20.096 129.517 20.1813 129.517 20.352ZM133.885 19.088C133.992 19.088 134.061 19.072 134.093 19.04C134.136 19.008 134.157 18.9493 134.157 18.864C134.157 18.448 134.067 18.0587 133.885 17.696C133.715 17.3333 133.459 17.0453 133.117 16.832C132.787 16.608 132.392 16.496 131.933 16.496C131.453 16.496 131.032 16.6187 130.669 16.864C130.307 17.0987 130.024 17.4133 129.821 17.808C129.629 18.192 129.539 18.6133 129.549 19.072L133.885 19.088ZM144.79 23.6C144.886 23.728 144.934 23.824 144.934 23.888C144.934 23.9627 144.86 24 144.71 24H143.302C143.121 24 142.988 23.9413 142.902 23.824L140.838 20.96C140.774 20.864 140.721 20.816 140.678 20.816C140.657 20.816 140.604 20.864 140.518 20.96L138.374 23.824C138.31 23.9413 138.182 24 137.99 24H137.062C136.881 24 136.79 23.9467 136.79 23.84C136.79 23.7547 136.833 23.6533 136.918 23.536L139.75 19.936C139.804 19.8507 139.83 19.7867 139.83 19.744C139.83 19.68 139.798 19.6107 139.734 19.536L137.014 15.84C136.982 15.7867 136.966 15.744 136.966 15.712C136.966 15.584 137.041 15.52 137.19 15.52H138.518C138.614 15.52 138.689 15.536 138.742 15.568C138.796 15.5893 138.849 15.632 138.902 15.696L140.854 18.368C140.897 18.432 140.94 18.464 140.982 18.464C141.025 18.464 141.062 18.432 141.094 18.368L142.982 15.696C143.025 15.632 143.073 15.5893 143.126 15.568C143.18 15.536 143.26 15.52 143.366 15.52H144.39C144.518 15.52 144.582 15.5627 144.582 15.648C144.582 15.68 144.561 15.728 144.518 15.792L141.91 19.28C141.857 19.344 141.83 19.408 141.83 19.472C141.83 19.5253 141.857 19.5947 141.91 19.68L144.79 23.6ZM149.064 16.736C148.968 16.736 148.92 16.7893 148.92 16.896V21.584C148.92 22.032 149 22.3413 149.16 22.512C149.331 22.6827 149.597 22.768 149.96 22.768H150.984C151.112 22.768 151.176 22.832 151.176 22.96V23.648C151.176 23.7973 151.096 23.888 150.936 23.92C150.595 23.9733 150.051 24 149.304 24C148.6 24 148.077 23.84 147.736 23.52C147.395 23.1893 147.224 22.6827 147.224 22V16.928C147.224 16.8 147.171 16.736 147.064 16.736H145.864C145.725 16.736 145.656 16.672 145.656 16.544V15.696C145.656 15.5787 145.72 15.52 145.848 15.52H147.128C147.213 15.52 147.256 15.472 147.256 15.376L147.448 12.864C147.469 12.7147 147.533 12.64 147.64 12.64H148.744C148.883 12.64 148.952 12.7253 148.952 12.896V15.376C148.952 15.472 149 15.52 149.096 15.52H151.016C151.144 15.52 151.208 15.5787 151.208 15.696V16.544C151.208 16.672 151.133 16.736 150.984 16.736H149.064Z" fill="#885DFF"/>
<path d="M77 0H78V34H77L77 0Z" fill="#B6CAD1"/>
</svg>
