<svg width="129" height="34" viewBox="0 0 129 34" fill="none" xmlns="http://www.w3.org/2000/svg">
<path d="M16.56 10.105L13.2916 21.5675L10.3682 11.26C10.2592 10.8575 10.2411 10.6475 9.69632 10.6475H8.67948C8.1529 10.6475 8.11658 10.8575 8.00763 11.26L5.06606 21.5675L1.81579 10.105L-2.21654e-06 10.5425L3.74053 23.2475C3.84947 23.6325 3.9221 23.86 4.44868 23.86H5.48368C6.01026 23.86 6.08289 23.6325 6.19184 23.2475L9.16973 12.9575L12.1658 23.2475C12.2747 23.65 12.3292 23.86 12.8739 23.86H13.9089C14.4537 23.86 14.5082 23.65 14.6171 23.2475L18.3395 10.5425L16.56 10.105ZM25.2395 14.6025C24.4224 14.165 23.6416 14.1125 22.6247 14.1125C21.8439 14.1125 20.7545 14.13 20.0282 14.445C18.4666 15.145 18.1579 16.9825 18.1579 18.47V19.6075C18.1579 21.095 18.4484 22.7575 19.8103 23.4575C20.5729 23.8425 21.5716 23.965 22.5339 23.965C23.5871 23.965 25.0761 23.86 25.9113 23.7025L25.7842 22.4075C24.6403 22.565 23.4055 22.6175 22.8426 22.6175C22.3161 22.6175 21.1176 22.5475 20.5729 22.11C20.0645 21.69 19.9011 20.7625 19.8829 19.6425H25.4029C26.2563 19.6425 26.6376 19.24 26.6376 18.715V17.7175C26.6558 15.95 25.9658 15.005 25.2395 14.6025ZM24.9308 18.33H19.8829C19.8829 17.14 20.0826 16.3175 20.6092 15.845C21.0995 15.4075 22.08 15.4075 22.5703 15.4075C23.2058 15.4075 23.8595 15.46 24.2771 15.7925C24.7311 16.1775 24.9308 16.8775 24.9308 17.945C24.9308 18.26 24.9308 18.05 24.9308 18.33ZM34.5 14.4975C33.6103 14.1125 32.5026 14.1125 31.7037 14.1125C31.2316 14.1125 30.2874 14.2 29.4884 14.3225V10H27.7634V21.5675C27.7634 23.615 29.5429 24 31.9216 24C34.8268 24 36.2432 23.335 36.2432 19.24V18.33C36.2613 16.8425 36.0797 15.18 34.5 14.4975ZM34.5182 19.3625C34.5182 22.1625 34.0824 22.705 32.1032 22.705C31.2316 22.705 30.5234 22.635 30.1239 22.4075C29.6337 22.1275 29.4884 21.6725 29.4884 20.99V15.705C30.2874 15.53 31.3042 15.4775 31.7763 15.4775C33.9734 15.4775 34.5 15.8625 34.5 18.2075V19.3625H34.5182ZM41.7813 22.6175C41.2547 22.6175 40.1289 22.6175 39.675 22.1975C39.1484 21.725 38.985 20.885 38.985 19.73V18.3475C38.985 17.1925 39.1303 16.3525 39.675 15.88C40.1289 15.4775 41.2366 15.46 41.7813 15.46C42.3442 15.46 43.1432 15.495 44.2871 15.67C44.2871 15.67 44.4142 14.41 44.4142 14.375C43.5789 14.235 42.2534 14.1125 41.4726 14.1125C40.7282 14.1125 39.675 14.1825 38.9124 14.5675C37.5324 15.2675 37.2055 16.9825 37.2055 18.47V19.59C37.2055 21.0775 37.5324 22.7925 38.9124 23.4925C39.675 23.8775 40.7282 23.9475 41.4726 23.9475C42.2534 23.9475 43.7605 23.8425 44.6139 23.685L44.4868 22.39C43.3247 22.5825 42.3261 22.6175 41.7813 22.6175ZM52.2039 14.4275C51.4776 14.1125 50.4608 14.1125 49.68 14.1125C48.8992 14.1125 47.8824 14.1125 47.1561 14.4275C45.5945 15.1275 45.4129 16.9825 45.4129 18.47V19.6075C45.4129 21.095 45.5763 22.985 47.1561 23.65C47.8642 23.965 48.8992 23.965 49.68 23.965C50.4608 23.965 51.4776 23.965 52.2039 23.65C53.7655 22.95 53.9471 21.095 53.9471 19.6075V18.47C53.9471 16.9825 53.7655 15.1275 52.2039 14.4275ZM52.2039 19.7475C52.2039 20.9025 52.1676 21.795 51.6411 22.2675C51.1871 22.6875 50.2066 22.67 49.68 22.6875C49.1353 22.6875 48.1729 22.6875 47.7189 22.2675C47.2105 21.795 47.1742 20.9025 47.1742 19.7475V18.3475C47.1742 17.1925 47.1924 16.3 47.7189 15.8275C48.1729 15.425 49.1534 15.4075 49.68 15.4075C50.2066 15.4075 51.1871 15.425 51.6411 15.8275C52.1495 16.3 52.2039 17.1925 52.2039 18.3475V19.7475ZM65.3684 14.1125C63.9703 14.1125 62.2634 14.4975 61.7005 14.6375C61.065 14.235 60.2116 14.1125 59.2492 14.1125C58.1053 14.1125 56.6526 14.305 55.8718 14.445C55.6176 14.4975 55.0366 14.6375 55.0366 15.4075V23.86H56.7616V15.7575C57.379 15.635 58.2324 15.4775 58.9587 15.4775C60.6292 15.4775 61.1558 16.0375 61.1558 17.525V23.86H62.8808V17.385C62.8808 16.7375 62.79 16.2125 62.6084 15.775C63.2984 15.635 64.2245 15.46 65.0779 15.46C66.7303 15.46 67.275 16.02 67.275 17.5075V23.8425H69V17.385C68.9818 14.62 67.4203 14.1125 65.3684 14.1125Z" fill="#231F20"/>
<path d="M101.324 12.128C101.431 12.128 101.506 12.16 101.548 12.224C101.602 12.288 101.612 12.3733 101.58 12.48L98.3003 23.728C98.2683 23.824 98.2203 23.8933 98.1563 23.936C98.1029 23.9787 98.0229 24 97.9163 24H96.7003C96.4763 24 96.3429 23.9147 96.3003 23.744L93.9003 15.328C93.8896 15.2533 93.8683 15.216 93.8363 15.216C93.8256 15.216 93.8043 15.2587 93.7723 15.344L91.3403 23.728C91.3189 23.824 91.2763 23.8933 91.2123 23.936C91.1589 23.9787 91.0736 24 90.9563 24H89.7083C89.5056 24 89.3723 23.9147 89.3083 23.744L86.0603 12.48C86.0496 12.448 86.0443 12.4107 86.0443 12.368C86.0443 12.208 86.1403 12.128 86.3323 12.128H87.6603C87.7563 12.128 87.8256 12.144 87.8683 12.176C87.9216 12.208 87.9589 12.2613 87.9803 12.336L90.4283 21.024C90.4603 21.1413 90.4923 21.2 90.5243 21.2C90.5563 21.2 90.5883 21.1467 90.6203 21.04L93.0843 12.336C93.1269 12.1973 93.2389 12.128 93.4203 12.128H94.5723C94.6789 12.128 94.7536 12.144 94.7963 12.176C94.8389 12.208 94.8709 12.2613 94.8923 12.336L97.3563 21.088C97.3883 21.1733 97.4203 21.216 97.4523 21.216C97.4949 21.216 97.5269 21.1733 97.5483 21.088L99.9963 12.336C100.028 12.1973 100.135 12.128 100.316 12.128H101.324ZM105.447 13.824C105.447 13.9413 105.42 14.0267 105.367 14.08C105.324 14.1333 105.244 14.16 105.127 14.16H103.943C103.836 14.16 103.761 14.1387 103.719 14.096C103.676 14.0427 103.655 13.9627 103.655 13.856V12.4C103.655 12.2187 103.735 12.128 103.895 12.128H105.223C105.287 12.128 105.34 12.1547 105.383 12.208C105.425 12.2507 105.447 12.3093 105.447 12.384V13.824ZM105.399 23.696C105.399 23.8133 105.372 23.8933 105.319 23.936C105.276 23.9787 105.196 24 105.079 24H103.991C103.884 24 103.809 23.984 103.767 23.952C103.724 23.9093 103.703 23.84 103.703 23.744V15.76C103.703 15.6747 103.719 15.616 103.751 15.584C103.783 15.5413 103.841 15.52 103.927 15.52H105.207C105.335 15.52 105.399 15.5947 105.399 15.744V23.696ZM112.024 20.16C112.024 20.3307 111.917 20.416 111.704 20.416H108.024C107.938 20.416 107.874 20.4 107.832 20.368C107.8 20.336 107.784 20.2773 107.784 20.192V19.344C107.784 19.1947 107.842 19.12 107.96 19.12H111.832C111.96 19.12 112.024 19.1787 112.024 19.296V20.16ZM114.677 12.368C114.677 12.208 114.752 12.128 114.901 12.128H122.213C122.341 12.128 122.405 12.1973 122.405 12.336L122.389 13.344C122.389 13.504 122.309 13.584 122.149 13.584H116.853C116.768 13.584 116.704 13.6 116.661 13.632C116.629 13.664 116.613 13.7173 116.613 13.792V17.28C116.613 17.408 116.683 17.472 116.821 17.472H120.837C120.965 17.472 121.029 17.536 121.029 17.664V18.72C121.029 18.784 121.013 18.832 120.981 18.864C120.96 18.8853 120.912 18.896 120.837 18.896H116.805C116.677 18.896 116.613 18.96 116.613 19.088V23.744C116.613 23.84 116.592 23.9093 116.549 23.952C116.507 23.984 116.432 24 116.325 24H114.949C114.843 24 114.768 23.984 114.725 23.952C114.693 23.9093 114.677 23.84 114.677 23.744V12.368ZM126.235 13.824C126.235 13.9413 126.208 14.0267 126.155 14.08C126.112 14.1333 126.032 14.16 125.915 14.16H124.731C124.624 14.16 124.549 14.1387 124.507 14.096C124.464 14.0427 124.443 13.9627 124.443 13.856V12.4C124.443 12.2187 124.523 12.128 124.683 12.128H126.011C126.075 12.128 126.128 12.1547 126.171 12.208C126.213 12.2507 126.235 12.3093 126.235 12.384V13.824ZM126.187 23.696C126.187 23.8133 126.16 23.8933 126.107 23.936C126.064 23.9787 125.984 24 125.867 24H124.779C124.672 24 124.597 23.984 124.555 23.952C124.512 23.9093 124.491 23.84 124.491 23.744V15.76C124.491 15.6747 124.507 15.616 124.539 15.584C124.571 15.5413 124.629 15.52 124.715 15.52H125.995C126.123 15.52 126.187 15.5947 126.187 15.744V23.696Z" fill="#008EC5"/>
<path d="M77 0H78V34H77L77 0Z" fill="#B6CAD1"/>
</svg>
