<svg fill="none" height="20" viewBox="0 0 109 20" width="109" xmlns="http://www.w3.org/2000/svg" xmlns:xlink="http://www.w3.org/1999/xlink"><linearGradient id="a" gradientUnits="userSpaceOnUse" x1="17.0081" x2="17.0081" y1="14.5402" y2="-1.03358"><stop offset="0" stop-color="#c6e9fa"/><stop offset="1" stop-color="#00a0e3"/></linearGradient><linearGradient id="b" gradientUnits="userSpaceOnUse" x1="17.0236" x2="17.0236" y1="12.7073" y2="-.423591"><stop offset="0" stop-color="#fff100"/><stop offset="1" stop-color="#f48120"/></linearGradient><linearGradient id="c" gradientUnits="userSpaceOnUse" x1="17.0086" x2="17.0086" y1="20.0353" y2="5.07327"><stop offset="0" stop-color="#d6de23"/><stop offset="1" stop-color="#00974a"/></linearGradient><g clip-rule="evenodd" fill-rule="evenodd"><path d="m32.2465.0169678h-7.9247c-1.2922 0-2.6467 1.0694322-3.036 2.4102122l-4.2815 15.14762-4.2815-15.14762c-.3736-1.32482-1.7281-2.4102122-3.02038-2.4102122h-7.94025c-1.292242 0-2.03956 1.0853922-1.6659007 2.4102122l4.2815107 15.14762c.37366 1.3248 1.72817 2.4102 3.03598 2.4102h7.92464c.8408 0 1.448-.4628 1.6659-1.1492.218.6864.8252 1.1492 1.6659 1.1492h7.9247c1.2923 0 2.6468-1.0694 3.0204-2.4102l4.2815-15.14762c.3893-1.32482-.358-2.4102122-1.6503-2.4102122z" fill="url(#a)"/><path d="m13.7037.0159617c-.6383 0-1.3545.3830803-1.8683.9417393.4204.399039.7474.909819.8875 1.452519l4.2815 15.14768 4.2815-15.14768c.1713-.59059.4671-1.06944.9342-1.484442-.5138-.510774-1.121-.925778-1.7282-.925778h-6.7882z" fill="url(#b)"/><path d="m28.3075 17.5898-5.1845-15.14769c-.1557-.5427-.4516-1.10136-.8875-1.500399-.4826.415009-.7784.941739-.9341 1.484439l-4.2971 15.14765v.016l-4.2815-15.14769c-.1557-.5427-.4671-1.06943-.903-1.468475-.436.399045-.7629.925775-.9186 1.468475l-5.18453 15.14769c-.40479 1.3248.4048 2.4102 1.79045 2.4102h7.83128c.8407 0 1.4479-.447 1.6659-1.1333.218.6863.8252 1.1333 1.6659 1.1333h7.8313c1.4012-.016 2.1952-1.0854 1.806-2.4102z" fill="url(#c)"/></g><path d="m56.5601 3.105-3.2685 11.4625-2.9234-10.3075c-.1089-.4025-.1271-.6125-.6718-.6125h-1.0169c-.5265 0-.5629.21-.6718.6125l-2.9416 10.3075-3.2503-11.4625-1.8157.4375 3.7405 12.705c.1089.385.1816.6125.7081.6125h1.035c.5266 0 .5993-.2275.7082-.6125l2.9779-10.29 2.996 10.29c.109.4025.1635.6125.7082.6125h1.035c.5447 0 .5992-.21.7082-.6125l3.7223-12.705zm8.6794 4.4975c-.8171-.4375-1.5979-.49-2.6147-.49-.7808 0-1.8703.0175-2.5966.3325-1.5616.7-1.8702 2.5375-1.8702 4.025v1.1375c0 1.4875.2905 3.15 1.6523 3.85.7627.385 1.7613.5075 2.7237.5075 1.0532 0 2.5421-.105 3.3774-.2625l-.1271-1.295c-1.144.1575-2.3787.21-2.9416.21-.5266 0-1.725-.07-2.2697-.5075-.5085-.42-.6719-1.3475-.69-2.4675h5.52c.8534 0 1.2347-.4025 1.2347-.9275v-.9975c.0181-1.7675-.6719-2.7125-1.3982-3.115zm-.3086 3.7275h-5.0479c0-1.19.1997-2.0125.7263-2.485.4902-.4375 1.4708-.4375 1.961-.4375.6356 0 1.2892.0525 1.7069.385.4539.385.6537 1.085.6537 2.1525zm9.5692-3.8325c-.8898-.385-1.9974-.385-2.7964-.385-.4721 0-1.4163.0875-2.2152.21v-4.3225h-1.725v11.5675c0 2.0475 1.7795 2.4325 4.1581 2.4325 2.9053 0 4.3216-.665 4.3216-4.76v-.91c.0182-1.4875-.1634-3.15-1.7431-3.8325zm.0181 4.865c0 2.8-.4358 3.3425-2.415 3.3425-.8716 0-1.5797-.07-1.9792-.2975-.4903-.28-.6355-.735-.6355-1.4175v-5.285c.7989-.175 1.8158-.2275 2.2879-.2275 2.1971 0 2.7237.385 2.7237 2.73v1.155zm7.2632 3.255c-.5266 0-1.6524 0-2.1063-.42-.5266-.4725-.69-1.3125-.69-2.4675v-1.3825c0-1.155.1452-1.995.69-2.4675.4539-.4025 1.5615-.42 2.1063-.42.5629 0 1.3618.035 2.5058.21 0 0 .1271-1.26.1271-1.295-.8353-.14-2.1608-.2625-2.9416-.2625-.7445 0-1.7976.07-2.5603.455-1.38.7-1.7068 2.415-1.7068 3.9025v1.12c0 1.4875.3268 3.2025 1.7068 3.9025.7627.385 1.8158.455 2.5603.455.7808 0 2.2879-.105 3.1413-.2625l-.1271-1.295c-1.1621.1925-2.1608.2275-2.7055.2275zm10.4226-8.19c-.7263-.315-1.7431-.315-2.5239-.315s-1.7977 0-2.524.315c-1.5616.7-1.7431 2.555-1.7431 4.0425v1.1375c0 1.4875.1634 3.3775 1.7431 4.0425.7082.315 1.7432.315 2.524.315s1.7976 0 2.5239-.315c1.5616-.7 1.7432-2.555 1.7432-4.0425v-1.1375c0-1.4875-.1816-3.3425-1.7432-4.0425zm0 5.32c0 1.155-.0363 2.0475-.5629 2.52-.4539.42-1.4345.4025-1.961.42-.5448 0-1.5071 0-1.9611-.42-.5084-.4725-.5447-1.365-.5447-2.52v-1.4c0-1.155.0181-2.0475.5447-2.52.454-.4025 1.4345-.42 1.9611-.42.5265 0 1.5071.0175 1.961.42.5084.4725.5629 1.365.5629 2.52zm13.164-5.635c-1.398 0-3.105.385-3.667.525-.636-.4025-1.489-.525-2.4517-.525-1.144 0-2.5966.1925-3.3774.3325-.2542.0525-.8353.1925-.8353.9625v8.4525h1.725v-8.1025c.6174-.1225 1.4708-.28 2.1971-.28 1.6703 0 2.1973.56 2.1973 2.0475v6.335h1.725v-6.475c0-.6475-.091-1.1725-.273-1.61.69-.14 1.617-.315 2.47-.315 1.652 0 2.197.56 2.197 2.0475v6.335h1.725v-6.4575c-.018-2.765-1.58-3.2725-3.632-3.2725z" fill="#231f20"/></svg>