<svg width="199" height="34" viewBox="0 0 199 34" fill="none" xmlns="http://www.w3.org/2000/svg">
<path d="M125.948 24.0009C125.82 24.0009 125.756 23.9369 125.756 23.8089L125.788 23.6649L129.868 12.3849C129.9 12.2889 129.942 12.2249 129.996 12.1929C130.049 12.1502 130.124 12.1289 130.22 12.1289H131.836C132.038 12.1289 132.172 12.2196 132.236 12.4009L136.284 23.6809C136.294 23.7022 136.3 23.7396 136.3 23.7929C136.3 23.9316 136.241 24.0009 136.124 24.0009H134.604C134.465 24.0009 134.374 23.9369 134.332 23.8089L133.308 20.9609C133.286 20.9076 133.265 20.8702 133.244 20.8489C133.222 20.8276 133.18 20.8169 133.116 20.8169H128.684C128.588 20.8169 128.524 20.8596 128.492 20.9449L127.452 23.8409C127.42 23.9476 127.329 24.0009 127.18 24.0009H125.948ZM132.62 19.3129C132.694 19.3129 132.737 19.2969 132.748 19.2649C132.769 19.2222 132.769 19.1636 132.748 19.0889L131.02 14.2889C130.988 14.2142 130.95 14.1769 130.908 14.1769C130.865 14.1769 130.828 14.2196 130.796 14.3049L129.02 19.1049L129.004 19.2009C129.004 19.2756 129.052 19.3129 129.148 19.3129H132.62ZM142.031 15.3609C142.863 15.3609 143.567 15.5582 144.143 15.9529C144.719 16.3476 145.151 16.8596 145.439 17.4889C145.46 17.5316 145.471 17.5796 145.471 17.6329C145.471 17.6969 145.423 17.7396 145.327 17.7609L144.191 17.9529H144.143C144.079 17.9529 144.026 17.9102 143.983 17.8249C143.684 17.3876 143.396 17.0676 143.119 16.8649C142.842 16.6516 142.506 16.5449 142.111 16.5449C141.364 16.5449 140.772 16.8276 140.335 17.3929C139.898 17.9582 139.679 18.7476 139.679 19.7609C139.679 20.7849 139.903 21.5796 140.351 22.1449C140.799 22.7102 141.407 22.9929 142.175 22.9929C142.655 22.9929 143.066 22.8702 143.407 22.6249C143.759 22.3796 144.084 22.0116 144.383 21.5209C144.415 21.4782 144.447 21.4516 144.479 21.4409C144.511 21.4302 144.554 21.4356 144.607 21.4569L145.455 21.7129C145.551 21.7449 145.572 21.8249 145.519 21.9529C145.22 22.5822 144.778 23.1102 144.191 23.5369C143.615 23.9529 142.895 24.1609 142.031 24.1609C141.242 24.1609 140.538 23.9796 139.919 23.6169C139.3 23.2436 138.815 22.7262 138.463 22.0649C138.122 21.4036 137.951 20.6462 137.951 19.7929C137.951 18.9396 138.127 18.1769 138.479 17.5049C138.831 16.8329 139.316 16.3102 139.935 15.9369C140.554 15.5529 141.252 15.3609 142.031 15.3609ZM152.286 23.0409C151.507 23.7876 150.595 24.1609 149.55 24.1609C148.729 24.1609 148.078 23.9529 147.598 23.5369C147.129 23.1102 146.894 22.5449 146.894 21.8409C146.894 20.9769 147.267 20.2889 148.014 19.7769C148.771 19.2649 149.843 18.9769 151.23 18.9129L152.27 18.8329C152.441 18.8116 152.526 18.7316 152.526 18.5929V18.1929C152.526 17.6702 152.366 17.2596 152.046 16.9609C151.726 16.6516 151.289 16.4969 150.734 16.4969C149.859 16.4969 149.161 16.8916 148.638 17.6809C148.606 17.7449 148.569 17.7876 148.526 17.8089C148.494 17.8196 148.441 17.8142 148.366 17.7929L147.278 17.4729C147.214 17.4516 147.182 17.4089 147.182 17.3449C147.182 17.3022 147.198 17.2436 147.23 17.1689C147.529 16.5929 147.982 16.1502 148.59 15.8409C149.209 15.5209 149.95 15.3609 150.814 15.3609C151.934 15.3609 152.771 15.6009 153.326 16.0809C153.881 16.5609 154.158 17.2276 154.158 18.0809V23.7289C154.158 23.8356 154.137 23.9102 154.094 23.9529C154.062 23.9849 154.003 24.0009 153.918 24.0009H152.846C152.697 24.0009 152.611 23.8942 152.59 23.6809L152.558 23.0729C152.537 22.9876 152.505 22.9449 152.462 22.9449C152.43 22.9449 152.371 22.9769 152.286 23.0409ZM152.526 20.0169C152.526 19.8462 152.451 19.7662 152.302 19.7769L151.438 19.8409C150.553 19.8942 149.849 20.0756 149.326 20.3849C148.814 20.6836 148.558 21.0996 148.558 21.6329C148.558 22.0489 148.707 22.3796 149.006 22.6249C149.305 22.8596 149.705 22.9769 150.206 22.9769C150.782 22.9769 151.326 22.7796 151.838 22.3849C152.297 22.0116 152.526 21.6382 152.526 21.2649V20.0169ZM162.57 24.0009C162.399 24.0009 162.314 23.9156 162.314 23.7449V23.1369C162.314 23.0409 162.287 22.9929 162.234 22.9929C162.202 22.9929 162.159 23.0196 162.106 23.0729C161.786 23.3822 161.439 23.6436 161.066 23.8569C160.693 24.0596 160.218 24.1609 159.642 24.1609C158.97 24.1609 158.367 24.0009 157.834 23.6809C157.311 23.3502 156.901 22.8649 156.602 22.2249C156.303 21.5742 156.154 20.7902 156.154 19.8729C156.154 18.9876 156.309 18.2036 156.618 17.5209C156.938 16.8382 157.375 16.3102 157.93 15.9369C158.495 15.5529 159.125 15.3609 159.818 15.3609C160.277 15.3609 160.682 15.4356 161.034 15.5849C161.386 15.7342 161.717 15.9422 162.026 16.2089C162.079 16.2622 162.133 16.2889 162.186 16.2889C162.25 16.2889 162.282 16.2249 162.282 16.0969V12.3689C162.282 12.2089 162.351 12.1289 162.49 12.1289H163.77C163.834 12.1289 163.882 12.1502 163.914 12.1929C163.957 12.2356 163.978 12.2942 163.978 12.3689V23.7289C163.978 23.8249 163.951 23.8942 163.898 23.9369C163.855 23.9796 163.781 24.0009 163.674 24.0009H162.57ZM162.282 17.5049C161.962 17.1742 161.647 16.9289 161.338 16.7689C161.029 16.6089 160.687 16.5289 160.314 16.5289C159.589 16.5289 159.002 16.8116 158.554 17.3769C158.106 17.9422 157.882 18.7582 157.882 19.8249C157.882 20.8916 158.101 21.6916 158.538 22.2249C158.975 22.7476 159.541 23.0089 160.234 23.0089C160.607 23.0089 160.949 22.9236 161.258 22.7529C161.567 22.5716 161.813 22.3476 161.994 22.0809C162.186 21.8036 162.282 21.5262 162.282 21.2489V17.5049ZM167.827 20.3529C167.827 20.8329 167.939 21.2702 168.163 21.6649C168.398 22.0489 168.712 22.3582 169.107 22.5929C169.502 22.8169 169.934 22.9289 170.403 22.9289C170.894 22.9289 171.331 22.8276 171.715 22.6249C172.099 22.4222 172.451 22.1076 172.771 21.6809C172.803 21.6382 172.84 21.6169 172.883 21.6169C172.936 21.6169 172.979 21.6276 173.011 21.6489L173.827 22.0329C173.88 22.0649 173.907 22.1076 173.907 22.1609C173.907 22.1929 173.891 22.2356 173.859 22.2889C173.411 22.9502 172.899 23.4302 172.323 23.7289C171.747 24.0169 171.048 24.1609 170.227 24.1609C169.427 24.1609 168.712 23.9796 168.083 23.6169C167.454 23.2542 166.963 22.7476 166.611 22.0969C166.259 21.4356 166.083 20.6889 166.083 19.8569C166.083 18.9609 166.264 18.1716 166.627 17.4889C166.99 16.8062 167.48 16.2836 168.099 15.9209C168.728 15.5476 169.427 15.3609 170.195 15.3609C170.984 15.3609 171.678 15.5369 172.275 15.8889C172.872 16.2302 173.331 16.7316 173.651 17.3929C173.982 18.0542 174.147 18.8382 174.147 19.7449V19.8089C174.147 19.9049 174.131 19.9796 174.099 20.0329C174.078 20.0756 174.014 20.0969 173.907 20.0969H167.987C167.88 20.0969 167.827 20.1822 167.827 20.3529ZM172.195 19.0889C172.302 19.0889 172.371 19.0729 172.403 19.0409C172.446 19.0089 172.467 18.9502 172.467 18.8649C172.467 18.4489 172.376 18.0596 172.195 17.6969C172.024 17.3342 171.768 17.0462 171.427 16.8329C171.096 16.6089 170.702 16.4969 170.243 16.4969C169.763 16.4969 169.342 16.6196 168.979 16.8649C168.616 17.0996 168.334 17.4142 168.131 17.8089C167.939 18.1929 167.848 18.6142 167.859 19.0729L172.195 19.0889ZM176.419 24.0009C176.249 24.0009 176.163 23.9156 176.163 23.7449V15.7609C176.163 15.6009 176.233 15.5209 176.371 15.5209H177.619C177.747 15.5209 177.811 15.5902 177.811 15.7289V16.6089C177.811 16.6729 177.827 16.7102 177.859 16.7209C177.891 16.7316 177.929 16.7102 177.971 16.6569C178.505 16.2089 178.979 15.8836 179.395 15.6809C179.822 15.4676 180.281 15.3609 180.771 15.3609C181.358 15.3609 181.843 15.4942 182.228 15.7609C182.611 16.0276 182.883 16.3742 183.043 16.8009C183.065 16.8329 183.086 16.8489 183.107 16.8489C183.15 16.8489 183.198 16.8222 183.251 16.7689C183.753 16.3102 184.233 15.9636 184.692 15.7289C185.15 15.4836 185.63 15.3609 186.131 15.3609C186.9 15.3609 187.497 15.5849 187.924 16.0329C188.361 16.4702 188.579 17.0729 188.579 17.8409V23.7129C188.579 23.9049 188.484 24.0009 188.292 24.0009H187.107C187.022 24.0009 186.964 23.9849 186.932 23.9529C186.899 23.9102 186.883 23.8409 186.883 23.7449V18.1449C186.883 17.6649 186.766 17.2969 186.532 17.0409C186.297 16.7742 185.945 16.6409 185.475 16.6409C184.835 16.6409 184.153 16.9769 183.428 17.6489C183.353 17.7236 183.299 17.7982 183.267 17.8729C183.235 17.9369 183.22 18.0169 183.22 18.1129V23.7129C183.22 23.9049 183.124 24.0009 182.932 24.0009H181.763C181.603 24.0009 181.524 23.9156 181.524 23.7449V18.1449C181.524 17.6649 181.406 17.2969 181.171 17.0409C180.947 16.7742 180.595 16.6409 180.115 16.6409C179.731 16.6409 179.374 16.7369 179.043 16.9289C178.713 17.1102 178.318 17.4142 177.859 17.8409V23.7289C177.859 23.8249 177.833 23.8942 177.779 23.9369C177.737 23.9796 177.662 24.0009 177.555 24.0009H176.419ZM191.622 26.6409C191.259 26.6409 191.003 26.6249 190.854 26.5929C190.715 26.5716 190.646 26.5076 190.646 26.4009V25.5849C190.646 25.4356 190.795 25.3609 191.094 25.3609H192.134C192.369 25.3609 192.587 25.2809 192.79 25.1209C193.003 24.9609 193.169 24.7582 193.286 24.5129C193.403 24.2676 193.462 24.0276 193.462 23.7929C193.462 23.6542 193.441 23.5369 193.398 23.4409L190.342 15.8249C190.331 15.8036 190.326 15.7662 190.326 15.7129C190.326 15.5849 190.401 15.5209 190.55 15.5209H191.862C191.926 15.5209 191.985 15.5422 192.038 15.5849C192.091 15.6169 192.123 15.6649 192.134 15.7289L194.342 21.4889C194.374 21.5849 194.411 21.6329 194.454 21.6329C194.518 21.6329 194.571 21.5689 194.614 21.4409L196.79 15.7129C196.843 15.5849 196.929 15.5209 197.046 15.5209H197.99C198.065 15.5209 198.118 15.5529 198.15 15.6169C198.193 15.6702 198.198 15.7289 198.166 15.7929L194.726 24.5129C194.502 25.0889 194.251 25.5262 193.974 25.8249C193.697 26.1342 193.371 26.3476 192.998 26.4649C192.635 26.5822 192.177 26.6409 191.622 26.6409Z" fill="#FF7700"/>
<path fill-rule="evenodd" clip-rule="evenodd" d="M32.2465 7.01562H24.3218C23.0296 7.01562 21.6751 8.08506 21.2858 9.42584L17.0043 24.5735L12.7228 9.42584C12.3492 8.10102 10.9947 7.01562 9.7024 7.01562H1.76217C0.469928 7.01562 -0.27739 8.10102 0.0962693 9.42584L4.37778 24.5735C4.75144 25.8983 6.10595 26.9837 7.41376 26.9837H15.3384C16.1792 26.9837 16.7864 26.5209 17.0043 25.8345C17.2223 26.5209 17.8295 26.9837 18.6702 26.9837H26.5949C27.8872 26.9837 29.2417 25.9143 29.6153 24.5735L33.8968 9.42584C34.2861 8.10102 33.5388 7.01562 32.2465 7.01562Z" fill="url(#paint0_linear)"/>
<path fill-rule="evenodd" clip-rule="evenodd" d="M13.7042 7.01596C13.0659 7.01596 12.3497 7.39904 11.8359 7.9577C12.2563 8.35674 12.5833 8.86752 12.7234 9.41022L17.0049 24.5579L21.2864 9.41022C21.4577 8.81963 21.7535 8.34078 22.2206 7.92578C21.7068 7.415 21.0996 7 20.4924 7H13.7042V7.01596Z" fill="url(#paint1_linear)"/>
<path fill-rule="evenodd" clip-rule="evenodd" d="M28.3085 24.5895L23.124 9.44181C22.9683 8.89911 22.6724 8.34045 22.2365 7.94141C21.7539 8.35642 21.4581 8.88315 21.3024 9.42585L17.0053 24.5735V24.5895L12.7238 9.44181C12.5681 8.89911 12.2567 8.37238 11.8208 7.97334C11.3848 8.37238 11.0579 8.89911 10.9022 9.44181L5.71765 24.5895C5.31286 25.9143 6.12245 26.9997 7.5081 26.9997H15.3394C16.1801 26.9997 16.7873 26.5528 17.0053 25.8664C17.2233 26.5528 17.8305 26.9997 18.6712 26.9997H26.5025C27.9037 26.9837 28.6977 25.9143 28.3085 24.5895Z" fill="url(#paint2_linear)"/>
<path d="M56.56 10.105L53.2916 21.5675L50.3682 11.26C50.2592 10.8575 50.2411 10.6475 49.6963 10.6475H48.6795C48.1529 10.6475 48.1166 10.8575 48.0076 11.26L45.0661 21.5675L41.8158 10.105L40 10.5425L43.7405 23.2475C43.8495 23.6325 43.9221 23.86 44.4487 23.86H45.4837C46.0103 23.86 46.0829 23.6325 46.1918 23.2475L49.1697 12.9575L52.1658 23.2475C52.2747 23.65 52.3292 23.86 52.8739 23.86H53.9089C54.4537 23.86 54.5082 23.65 54.6171 23.2475L58.3395 10.5425L56.56 10.105ZM65.2395 14.6025C64.4224 14.165 63.6416 14.1125 62.6247 14.1125C61.8439 14.1125 60.7545 14.13 60.0282 14.445C58.4666 15.145 58.1579 16.9825 58.1579 18.47V19.6075C58.1579 21.095 58.4484 22.7575 59.8103 23.4575C60.5729 23.8425 61.5716 23.965 62.5339 23.965C63.5871 23.965 65.0761 23.86 65.9113 23.7025L65.7842 22.4075C64.6403 22.565 63.4055 22.6175 62.8426 22.6175C62.3161 22.6175 61.1176 22.5475 60.5729 22.11C60.0645 21.69 59.9011 20.7625 59.8829 19.6425H65.4029C66.2563 19.6425 66.6376 19.24 66.6376 18.715V17.7175C66.6558 15.95 65.9658 15.005 65.2395 14.6025ZM64.9308 18.33H59.8829C59.8829 17.14 60.0826 16.3175 60.6092 15.845C61.0995 15.4075 62.08 15.4075 62.5703 15.4075C63.2058 15.4075 63.8595 15.46 64.2771 15.7925C64.7311 16.1775 64.9308 16.8775 64.9308 17.945C64.9308 18.26 64.9308 18.05 64.9308 18.33ZM74.5 14.4975C73.6103 14.1125 72.5026 14.1125 71.7037 14.1125C71.2316 14.1125 70.2874 14.2 69.4884 14.3225V10H67.7634V21.5675C67.7634 23.615 69.5429 24 71.9216 24C74.8268 24 76.2432 23.335 76.2432 19.24V18.33C76.2613 16.8425 76.0797 15.18 74.5 14.4975ZM74.5182 19.3625C74.5182 22.1625 74.0824 22.705 72.1032 22.705C71.2316 22.705 70.5234 22.635 70.1239 22.4075C69.6337 22.1275 69.4884 21.6725 69.4884 20.99V15.705C70.2874 15.53 71.3042 15.4775 71.7763 15.4775C73.9734 15.4775 74.5 15.8625 74.5 18.2075V19.3625H74.5182ZM81.7813 22.6175C81.2547 22.6175 80.1289 22.6175 79.675 22.1975C79.1484 21.725 78.985 20.885 78.985 19.73V18.3475C78.985 17.1925 79.1303 16.3525 79.675 15.88C80.1289 15.4775 81.2366 15.46 81.7813 15.46C82.3442 15.46 83.1432 15.495 84.2871 15.67C84.2871 15.67 84.4142 14.41 84.4142 14.375C83.5789 14.235 82.2534 14.1125 81.4726 14.1125C80.7282 14.1125 79.675 14.1825 78.9124 14.5675C77.5324 15.2675 77.2055 16.9825 77.2055 18.47V19.59C77.2055 21.0775 77.5324 22.7925 78.9124 23.4925C79.675 23.8775 80.7282 23.9475 81.4726 23.9475C82.2534 23.9475 83.7605 23.8425 84.6139 23.685L84.4868 22.39C83.3247 22.5825 82.326 22.6175 81.7813 22.6175ZM92.2039 14.4275C91.4776 14.1125 90.4608 14.1125 89.68 14.1125C88.8992 14.1125 87.8824 14.1125 87.1561 14.4275C85.5945 15.1275 85.4129 16.9825 85.4129 18.47V19.6075C85.4129 21.095 85.5763 22.985 87.1561 23.65C87.8642 23.965 88.8992 23.965 89.68 23.965C90.4608 23.965 91.4776 23.965 92.2039 23.65C93.7655 22.95 93.9471 21.095 93.9471 19.6075V18.47C93.9471 16.9825 93.7655 15.1275 92.2039 14.4275ZM92.2039 19.7475C92.2039 20.9025 92.1676 21.795 91.6411 22.2675C91.1871 22.6875 90.2066 22.67 89.68 22.6875C89.1353 22.6875 88.1729 22.6875 87.7189 22.2675C87.2105 21.795 87.1742 20.9025 87.1742 19.7475V18.3475C87.1742 17.1925 87.1924 16.3 87.7189 15.8275C88.1729 15.425 89.1534 15.4075 89.68 15.4075C90.2066 15.4075 91.1871 15.425 91.6411 15.8275C92.1495 16.3 92.2039 17.1925 92.2039 18.3475V19.7475ZM105.368 14.1125C103.97 14.1125 102.263 14.4975 101.701 14.6375C101.065 14.235 100.212 14.1125 99.2492 14.1125C98.1053 14.1125 96.6526 14.305 95.8718 14.445C95.6176 14.4975 95.0366 14.6375 95.0366 15.4075V23.86H96.7616V15.7575C97.379 15.635 98.2324 15.4775 98.9587 15.4775C100.629 15.4775 101.156 16.0375 101.156 17.525V23.86H102.881V17.385C102.881 16.7375 102.79 16.2125 102.608 15.775C103.298 15.635 104.224 15.46 105.078 15.46C106.73 15.46 107.275 16.02 107.275 17.5075V23.8425H109V17.385C108.982 14.62 107.42 14.1125 105.368 14.1125Z" fill="#231F20"/>
<path d="M117 0H118V34H117V0Z" fill="#B6CAD1"/>
<defs>
<linearGradient id="paint0_linear" x1="17.0081" y1="21.5389" x2="17.0081" y2="5.96508" gradientUnits="userSpaceOnUse">
<stop stop-color="#C6E9FA"/>
<stop offset="1" stop-color="#00A0E3"/>
</linearGradient>
<linearGradient id="paint1_linear" x1="17.0241" y1="19.7073" x2="17.0241" y2="6.57641" gradientUnits="userSpaceOnUse">
<stop stop-color="#FFF100"/>
<stop offset="1" stop-color="#F48120"/>
</linearGradient>
<linearGradient id="paint2_linear" x1="17.0096" y1="27.035" x2="17.0096" y2="12.073" gradientUnits="userSpaceOnUse">
<stop stop-color="#D6DE23"/>
<stop offset="1" stop-color="#00974A"/>
</linearGradient>
</defs>
</svg>
