<svg width="572" height="357" viewBox="0 0 572 357" fill="none" xmlns="http://www.w3.org/2000/svg"><g clip-path="url(#a)"><path d="M387 0h-81.467a6.267 6.267 0 0 0-6.266 6.267v43.866h-94A6.267 6.267 0 0 0 199 56.4v313.333a6.267 6.267 0 0 0 6.267 6.267H387a6.267 6.267 0 0 0 6.267-6.267V6.267A6.267 6.267 0 0 0 387 0zm-6.267 325.867H311.8v-12.534h68.933v12.534zM211.533 94h87.734v188h-87.734V94zm169.2-25.067H311.8v-18.8h68.933v18.8zm-169.2 225.6h87.734v18.8h-87.734v-18.8zM311.8 300.8V81.467h68.933V300.8H311.8zm68.933-288.267V37.6H311.8V12.533h68.933zm-81.466 50.134v18.8h-87.734v-18.8h87.734zm-87.734 263.2h87.734v37.6h-87.734v-37.6zm100.267 37.6V338.4h68.933v25.067H311.8z" fill="url(#b)" fill-opacity=".14"/><path d="M574.799 343.086l-75.2-288.267a6.26 6.26 0 0 0-7.68-4.473l-94 25.066a6.263 6.263 0 0 0-4.45 7.632l75.2 288.267a6.254 6.254 0 0 0 7.681 4.461l94-25.067a6.265 6.265 0 0 0 4.449-7.619zM417.156 124.19l81.892-21.832 2.947 11.279-81.886 21.866-2.953-11.313zm88.003 1.607l36.345 139.418-81.861 21.841-36.346-139.427 81.862-21.832zm39.537 151.55l6.416 24.593-81.892 21.832-6.392-24.583 81.868-21.842zM489.061 64.076l6.823 26.162-81.892 21.826-6.817-26.15 81.886-21.838zm-9.853 297.978l-6.824-26.162 81.892-21.838 6.818 26.15-81.886 21.85z" fill="url(#c)" fill-opacity=".14"/><path d="M181.057 450.123l1.971-297.907a6.258 6.258 0 0 0-6.26-6.309l-97.285-.116a6.263 6.263 0 0 0-6.273 6.219l-1.97 297.908a6.247 6.247 0 0 0 6.264 6.297l97.285.116a6.265 6.265 0 0 0 6.269-6.208zM85.44 197.885l84.752.107-.072 11.657-84.755-.072.075-11.692zm84.588 24.329l-.977 144.074-84.725-.09.98-144.083 84.722.099zm-1.034 156.619l-.167 25.415-84.752-.106.188-25.4 84.731.091zm1.459-220.404l-.18 27.037-84.75-.113.183-27.023 84.747.099zm-86.64 285.276l.18-27.037 84.755.101-.183 27.023-84.751-.087z" fill="url(#d)" fill-opacity=".14"/><path d="M280.466 112.801h-50.133a6.267 6.267 0 0 0-6.267 6.266v50.134a6.266 6.266 0 0 0 6.267 6.266h50.133a6.266 6.266 0 0 0 6.267-6.266v-50.134a6.267 6.267 0 0 0-6.267-6.266zm-6.266 50.133h-37.6v-37.6h37.6v37.6z" fill="url(#e)" fill-opacity=".14"/><path d="M413.707 204.121a1 1 0 0 1 1.414-1.414l8.486 8.485a1 1 0 0 1-1.415 1.414l-8.485-8.485z" fill="#F70"/><path d="M429.141 205.246a1 1 0 0 1 1.414 1.414l-6.364 6.364a.999.999 0 1 1-1.414-1.414l6.364-6.364z" fill="#F70"/></g><circle cx="422" cy="209" r="17" stroke="url(#f)" stroke-width="2" filter="url(#g)"/><g filter="url(#h)"><mask id="j" fill="#fff"><path fill-rule="evenodd" clip-rule="evenodd" d="M460.473 270.191a3.502 3.502 0 0 0-4.109.655 6.08 6.08 0 0 0-7.571 2.41 8.938 8.938 0 0 0-8.354 4.451 8.912 8.912 0 0 0-1.182 3.897 8.906 8.906 0 0 0-5.064 4.06 8.943 8.943 0 0 0 .863 10.184 6.502 6.502 0 0 0 5.745 8.416l19.672-34.073z"/></mask><path d="M456.364 270.846l-.788 1.838 1.258.54.958-.978-1.428-1.4zm4.109-.655l1.732 1 1.046-1.811-1.856-.964-.922 1.775zm-11.68 3.065l-.135 1.995 1.207.082.633-1.032-1.705-1.045zm-9.536 8.348l.599 1.908 1.31-.411.087-1.37-1.996-.127zm-4.201 14.244l1.909.596.324-1.037-.694-.836-1.539 1.277zm5.745 8.416l-.141 1.995 1.247.089.626-1.084-1.732-1zm16.991-32.018a1.504 1.504 0 0 1 1.759-.28l1.844-3.55a5.503 5.503 0 0 0-6.459 1.03l2.856 2.8zm-7.294 2.055a4.08 4.08 0 0 1 5.078-1.617l1.577-3.676a8.08 8.08 0 0 0-10.065 3.202l3.41 2.091zm-8.327 4.406a6.94 6.94 0 0 1 6.487-3.456l.27-3.991a10.94 10.94 0 0 0-10.221 5.447l3.464 2zm-.918 3.024a6.908 6.908 0 0 1 .918-3.024l-3.464-2a10.906 10.906 0 0 0-1.446 4.77l3.992.254zm-5.328 4.933a6.911 6.911 0 0 1 3.931-3.152l-1.197-3.816a10.903 10.903 0 0 0-6.198 4.968l3.464 2zm.67 7.907a6.944 6.944 0 0 1-.67-7.907l-3.464-2c-2.356 4.08-1.783 9.042 1.057 12.462l3.077-2.555zm2.419 7.105a4.502 4.502 0 0 1-2.049-5.232l-3.818-1.191a8.504 8.504 0 0 0 3.867 9.888l2-3.465zm1.928.593a4.464 4.464 0 0 1-1.928-.593l-2 3.465a8.478 8.478 0 0 0 3.646 1.118l.282-3.99zm1.591 2.995l19.672-34.073-3.464-2-19.672 34.073 3.464 2z" fill="url(#i)" mask="url(#j)"/></g><g filter="url(#k)"><mask id="m" fill="#fff"><path fill-rule="evenodd" clip-rule="evenodd" d="M462.183 271.18a3.503 3.503 0 0 1 1.488 3.886 6.082 6.082 0 0 1 1.699 7.762 8.94 8.94 0 0 1 .321 9.46 8.896 8.896 0 0 1-2.784 2.972 8.905 8.905 0 0 1-.984 6.416 8.942 8.942 0 0 1-9.251 4.344 6.503 6.503 0 0 1-10.161-.767l19.672-34.073z"/></mask><path d="M463.671 275.066l-1.198 1.601-1.096-.819.367-1.319 1.927.537zm-1.488-3.886l-1.732-1 1.046-1.811 1.763 1.126-1.077 1.685zm3.187 11.648l-1.661 1.114-.675-1.004.578-1.064 1.758.954zm-2.463 12.432l-1.952.436-.299-1.341 1.143-.76 1.108 1.665zm-10.235 10.76l-1.471-1.355.737-.799 1.071.183-.337 1.971zm-10.161-.767l-1.657 1.12-.7-1.036.625-1.084 1.732 1zm19.233-30.724a1.503 1.503 0 0 0-.637-1.663l2.153-3.371a5.5 5.5 0 0 1 2.337 6.107l-3.853-1.073zm1.868 7.345a4.082 4.082 0 0 0-1.139-5.207l2.395-3.203a8.079 8.079 0 0 1 2.259 10.317l-3.515-1.907zm.347 9.414a6.94 6.94 0 0 0-.25-7.346l3.321-2.229a10.94 10.94 0 0 1 .393 11.575l-3.464-2zm-2.16 2.307a6.895 6.895 0 0 0 2.16-2.307l3.464 2a10.897 10.897 0 0 1-3.408 3.637l-2.216-3.33zm-1.608 7.081a6.908 6.908 0 0 0 .764-4.98l3.904-.872c.576 2.58.223 5.381-1.204 7.852l-3.464-2zm-7.182 3.373a6.944 6.944 0 0 0 7.182-3.373l3.464 2c-2.355 4.08-6.939 6.065-11.32 5.316l.674-3.943zm-7.363 1.457a4.5 4.5 0 0 0 5.555-.841l2.941 2.711a8.503 8.503 0 0 1-10.496 1.595l2-3.465zm-1.478-1.372a4.477 4.477 0 0 0 1.478 1.372l-2 3.465a8.482 8.482 0 0 1-2.792-2.598l3.314-2.239zm-3.389.119l19.672-34.073 3.465 2-19.673 34.073-3.464-2z" fill="url(#l)" mask="url(#m)"/></g><path transform="rotate(45 305.322 227.191)" fill="url(#n)" d="M305.322 227.191h12v2h-12z" filter="url(#o)"/><path transform="rotate(45 304.615 230.727)" fill="url(#p)" d="M304.615 230.727h8v2h-8z" filter="url(#q)"/><path d="M320.838 229.509l-.614-.249-.469.469-4.534 4.534-8.485-8.486 4.534-4.533.469-.469-.25-.615c-2.493-6.142-1.247-13.444 3.732-18.424 6.639-6.639 17.403-6.639 24.042 0 6.639 6.639 6.639 17.403 0 24.041-4.98 4.98-12.282 6.226-18.425 3.732z" stroke="url(#r)" stroke-width="2" filter="url(#s)"/><g filter="url(#t)"><path d="M319.818 209.869a1.5 1.5 0 0 1 2.122 0l9.192 9.193a1.5 1.5 0 1 1-2.121 2.121l-9.193-9.192a1.5 1.5 0 0 1 0-2.122z" fill="url(#u)"/><path d="M323.707 215.88l1.415 1.414-8.486 8.485-1.414-1.414 8.485-8.485z" fill="url(#v)"/></g><g clip-path="url(#w)" filter="url(#x)"><path d="M434.511 43.845l-.016.009-5.224 3.016-1.032-1.788a1.78 1.78 0 0 0-2-.9 50.142 50.142 0 0 0-11.931 4.997c-6.164 3.56-13.763 9.796-16.326 19.701-9.849-2.821-19.075.738-25.224 4.289a50.152 50.152 0 0 0-10.294 7.833 1.78 1.78 0 0 0-.22 2.182l1.024 1.772-5.194 3a1.78 1.78 0 0 0-.652 2.43l28.421 49.226a1.78 1.78 0 0 0 3.071.015c.109-.166 10.654-17.494 35.301-24.491l.231-.134.139-.08c.132-.056.256-.128.37-.213 18.418-17.929 38.688-18.412 38.861-18.327a1.78 1.78 0 0 0 1.546-2.66l-28.42-49.226a1.78 1.78 0 0 0-2.431-.651zm-47 91.537l-26.107-45.219 3.683-2.127 22.316 38.654a1.782 1.782 0 0 0 2.663.518 77.778 77.778 0 0 1 9.187-6.332 46.15 46.15 0 0 1 14.31-5.611 65.419 65.419 0 0 0-26.052 20.117zm9.972-17.573a78.194 78.194 0 0 0-8.073 5.38l-23.411-40.55a49.086 49.086 0 0 1 8.552-6.293c5.764-3.328 14.482-6.594 23.594-3.553l22.212 38.365c-4.416-.246-12.302.547-22.874 6.651zm3.791-46.822c1.958-9.35 9.11-15.33 14.874-18.657a49.273 49.273 0 0 1 9.727-4.26l23.411 40.55a78.32 78.32 0 0 0-8.659 4.259c-10.511 6.068-15.155 12.51-17.197 16.484l-22.156-38.376zm59.567 22.058a65.435 65.435 0 0 0-30.51 12.539 46.256 46.256 0 0 1 12.076-9.623 77.844 77.844 0 0 1 10.13-4.842 1.78 1.78 0 0 0 .883-2.564l-22.308-38.638 3.683-2.127 26.046 45.255z" fill="url(#y)"/></g><defs><filter id="g" x="399.276" y="190.325" width="45.447" height="46.122" filterUnits="userSpaceOnUse" color-interpolation-filters="sRGB"><feFlood flood-opacity="0" result="BackgroundImageFix"/><feColorMatrix in="SourceAlpha" values="0 0 0 0 0 0 0 0 0 0 0 0 0 0 0 0 0 0 127 0"/><feOffset dy="4.724"/><feGaussianBlur stdDeviation="2.362"/><feColorMatrix values="0 0 0 0 0 0 0 0 0 0 0 0 0 0 0 0 0 0 0.2 0"/><feBlend in2="BackgroundImageFix" result="effect1_dropShadow"/><feBlend in="SourceGraphic" in2="effect1_dropShadow" result="shape"/><feColorMatrix in="SourceAlpha" values="0 0 0 0 0 0 0 0 0 0 0 0 0 0 0 0 0 0 127 0" result="hardAlpha"/><feOffset dy="-.675"/><feGaussianBlur stdDeviation=".337"/><feComposite in2="hardAlpha" operator="arithmetic" k2="-1" k3="1"/><feColorMatrix values="0 0 0 0 0.433333 0 0 0 0 0.83 0 0 0 0 1 0 0 0 1 0"/><feBlend in2="shape" result="effect2_innerShadow"/></filter><filter id="h" x="428.27" y="269.122" width="36.927" height="44.588" filterUnits="userSpaceOnUse" color-interpolation-filters="sRGB"><feFlood flood-opacity="0" result="BackgroundImageFix"/><feColorMatrix in="SourceAlpha" values="0 0 0 0 0 0 0 0 0 0 0 0 0 0 0 0 0 0 127 0"/><feOffset dy="4.724"/><feGaussianBlur stdDeviation="2.362"/><feColorMatrix values="0 0 0 0 0 0 0 0 0 0 0 0 0 0 0 0 0 0 0.2 0"/><feBlend in2="BackgroundImageFix" result="effect1_dropShadow"/><feBlend in="SourceGraphic" in2="effect1_dropShadow" result="shape"/><feColorMatrix in="SourceAlpha" values="0 0 0 0 0 0 0 0 0 0 0 0 0 0 0 0 0 0 127 0" result="hardAlpha"/><feOffset dy="-.675"/><feGaussianBlur stdDeviation=".337"/><feComposite in2="hardAlpha" operator="arithmetic" k2="-1" k3="1"/><feColorMatrix values="0 0 0 0 0.433333 0 0 0 0 0.83 0 0 0 0 1 0 0 0 1 0"/><feBlend in2="shape" result="effect2_innerShadow"/></filter><filter id="k" x="437.788" y="270.505" width="33.827" height="47.053" filterUnits="userSpaceOnUse" color-interpolation-filters="sRGB"><feFlood flood-opacity="0" result="BackgroundImageFix"/><feColorMatrix in="SourceAlpha" values="0 0 0 0 0 0 0 0 0 0 0 0 0 0 0 0 0 0 127 0"/><feOffset dy="4.724"/><feGaussianBlur stdDeviation="2.362"/><feColorMatrix values="0 0 0 0 0 0 0 0 0 0 0 0 0 0 0 0 0 0 0.2 0"/><feBlend in2="BackgroundImageFix" result="effect1_dropShadow"/><feBlend in="SourceGraphic" in2="effect1_dropShadow" result="shape"/><feColorMatrix in="SourceAlpha" values="0 0 0 0 0 0 0 0 0 0 0 0 0 0 0 0 0 0 127 0" result="hardAlpha"/><feOffset dy="-.675"/><feGaussianBlur stdDeviation=".337"/><feComposite in2="hardAlpha" operator="arithmetic" k2="-1" k3="1"/><feColorMatrix values="0 0 0 0 0.433333 0 0 0 0 0.83 0 0 0 0 1 0 0 0 1 0"/><feBlend in2="shape" result="effect2_innerShadow"/></filter><filter id="o" x="299.185" y="226.517" width="19.347" height="20.022" filterUnits="userSpaceOnUse" color-interpolation-filters="sRGB"><feFlood flood-opacity="0" result="BackgroundImageFix"/><feColorMatrix in="SourceAlpha" values="0 0 0 0 0 0 0 0 0 0 0 0 0 0 0 0 0 0 127 0"/><feOffset dy="4.724"/><feGaussianBlur stdDeviation="2.362"/><feColorMatrix values="0 0 0 0 0 0 0 0 0 0 0 0 0 0 0 0 0 0 0.2 0"/><feBlend in2="BackgroundImageFix" result="effect1_dropShadow"/><feBlend in="SourceGraphic" in2="effect1_dropShadow" result="shape"/><feColorMatrix in="SourceAlpha" values="0 0 0 0 0 0 0 0 0 0 0 0 0 0 0 0 0 0 127 0" result="hardAlpha"/><feOffset dy="-.675"/><feGaussianBlur stdDeviation=".337"/><feComposite in2="hardAlpha" operator="arithmetic" k2="-1" k3="1"/><feColorMatrix values="0 0 0 0 0.433333 0 0 0 0 0.83 0 0 0 0 1 0 0 0 1 0"/><feBlend in2="shape" result="effect2_innerShadow"/></filter><filter id="q" x="298.478" y="230.052" width="16.518" height="17.193" filterUnits="userSpaceOnUse" color-interpolation-filters="sRGB"><feFlood flood-opacity="0" result="BackgroundImageFix"/><feColorMatrix in="SourceAlpha" values="0 0 0 0 0 0 0 0 0 0 0 0 0 0 0 0 0 0 127 0"/><feOffset dy="4.724"/><feGaussianBlur stdDeviation="2.362"/><feColorMatrix values="0 0 0 0 0 0 0 0 0 0 0 0 0 0 0 0 0 0 0.2 0"/><feBlend in2="BackgroundImageFix" result="effect1_dropShadow"/><feBlend in="SourceGraphic" in2="effect1_dropShadow" result="shape"/><feColorMatrix in="SourceAlpha" values="0 0 0 0 0 0 0 0 0 0 0 0 0 0 0 0 0 0 127 0" result="hardAlpha"/><feOffset dy="-.675"/><feGaussianBlur stdDeviation=".337"/><feComposite in2="hardAlpha" operator="arithmetic" k2="-1" k3="1"/><feColorMatrix values="0 0 0 0 0.433333 0 0 0 0 0.83 0 0 0 0 1 0 0 0 1 0"/><feBlend in2="shape" result="effect2_innerShadow"/></filter><filter id="s" x="300.599" y="195.083" width="49.368" height="50.042" filterUnits="userSpaceOnUse" color-interpolation-filters="sRGB"><feFlood flood-opacity="0" result="BackgroundImageFix"/><feColorMatrix in="SourceAlpha" values="0 0 0 0 0 0 0 0 0 0 0 0 0 0 0 0 0 0 127 0"/><feOffset dy="4.724"/><feGaussianBlur stdDeviation="2.362"/><feColorMatrix values="0 0 0 0 0 0 0 0 0 0 0 0 0 0 0 0 0 0 0.2 0"/><feBlend in2="BackgroundImageFix" result="effect1_dropShadow"/><feBlend in="SourceGraphic" in2="effect1_dropShadow" result="shape"/><feColorMatrix in="SourceAlpha" values="0 0 0 0 0 0 0 0 0 0 0 0 0 0 0 0 0 0 127 0" result="hardAlpha"/><feOffset dy="-.675"/><feGaussianBlur stdDeviation=".337"/><feComposite in2="hardAlpha" operator="arithmetic" k2="-1" k3="1"/><feColorMatrix values="0 0 0 0 0.433333 0 0 0 0 0.83 0 0 0 0 1 0 0 0 1 0"/><feBlend in2="shape" result="effect2_innerShadow"/></filter><filter id="t" x="310.499" y="208.755" width="25.797" height="26.471" filterUnits="userSpaceOnUse" color-interpolation-filters="sRGB"><feFlood flood-opacity="0" result="BackgroundImageFix"/><feColorMatrix in="SourceAlpha" values="0 0 0 0 0 0 0 0 0 0 0 0 0 0 0 0 0 0 127 0"/><feOffset dy="4.724"/><feGaussianBlur stdDeviation="2.362"/><feColorMatrix values="0 0 0 0 0 0 0 0 0 0 0 0 0 0 0 0 0 0 0.2 0"/><feBlend in2="BackgroundImageFix" result="effect1_dropShadow"/><feBlend in="SourceGraphic" in2="effect1_dropShadow" result="shape"/><feColorMatrix in="SourceAlpha" values="0 0 0 0 0 0 0 0 0 0 0 0 0 0 0 0 0 0 127 0" result="hardAlpha"/><feOffset dy="-.675"/><feGaussianBlur stdDeviation=".337"/><feComposite in2="hardAlpha" operator="arithmetic" k2="-1" k3="1"/><feColorMatrix values="0 0 0 0 0.433333 0 0 0 0 0.83 0 0 0 0 1 0 0 0 1 0"/><feBlend in2="shape" result="effect2_innerShadow"/></filter><filter id="x" x="342.593" y="26.298" width="134.863" height="135.538" filterUnits="userSpaceOnUse" color-interpolation-filters="sRGB"><feFlood flood-opacity="0" result="BackgroundImageFix"/><feColorMatrix in="SourceAlpha" values="0 0 0 0 0 0 0 0 0 0 0 0 0 0 0 0 0 0 127 0"/><feOffset dy="4.724"/><feGaussianBlur stdDeviation="2.362"/><feColorMatrix values="0 0 0 0 0 0 0 0 0 0 0 0 0 0 0 0 0 0 0.2 0"/><feBlend in2="BackgroundImageFix" result="effect1_dropShadow"/><feBlend in="SourceGraphic" in2="effect1_dropShadow" result="shape"/><feColorMatrix in="SourceAlpha" values="0 0 0 0 0 0 0 0 0 0 0 0 0 0 0 0 0 0 127 0" result="hardAlpha"/><feOffset dy="-.675"/><feGaussianBlur stdDeviation=".337"/><feComposite in2="hardAlpha" operator="arithmetic" k2="-1" k3="1"/><feColorMatrix values="0 0 0 0 0.433333 0 0 0 0 0.83 0 0 0 0 1 0 0 0 1 0"/><feBlend in2="shape" result="effect2_innerShadow"/></filter><linearGradient id="b" x1="296.133" x2="296.133" y2="376" gradientUnits="userSpaceOnUse"><stop/><stop offset="1" stop-opacity=".7"/></linearGradient><linearGradient id="c" x1="484.132" y1="50.133" x2="484.132" y2="375.988" gradientUnits="userSpaceOnUse"><stop/><stop offset="1" stop-opacity=".7"/></linearGradient><linearGradient id="d" x1="169.302" y1="143.686" x2="84.964" y2="458.438" gradientUnits="userSpaceOnUse"><stop/><stop offset="1" stop-opacity=".7"/></linearGradient><linearGradient id="e" x1="255.4" y1="112.801" x2="255.4" y2="175.467" gradientUnits="userSpaceOnUse"><stop/><stop offset="1" stop-opacity=".7"/></linearGradient><linearGradient id="f" x1="422" y1="191" x2="422" y2="227" gradientUnits="userSpaceOnUse"><stop stop-color="#fff"/><stop offset="1" stop-color="#DCFBFF"/></linearGradient><linearGradient id="i" x1="514.567" y1="291.031" x2="365.24" y2="549.672" gradientUnits="userSpaceOnUse"><stop stop-color="#fff"/><stop offset="1" stop-color="#DCFBFF"/></linearGradient><linearGradient id="l" x1="417.09" y1="234.754" x2="267.763" y2="493.395" gradientUnits="userSpaceOnUse"><stop stop-color="#fff"/><stop offset="1" stop-color="#DCFBFF"/></linearGradient><linearGradient id="n" x1="311.322" y1="227.191" x2="311.322" y2="229.191" gradientUnits="userSpaceOnUse"><stop stop-color="#fff"/><stop offset="1" stop-color="#DCFBFF"/></linearGradient><linearGradient id="p" x1="308.615" y1="230.727" x2="308.615" y2="232.727" gradientUnits="userSpaceOnUse"><stop stop-color="#fff"/><stop offset="1" stop-color="#DCFBFF"/></linearGradient><linearGradient id="r" x1="339.97" y1="201.029" x2="310.272" y2="230.727" gradientUnits="userSpaceOnUse"><stop stop-color="#fff"/><stop offset="1" stop-color="#DCFBFF"/></linearGradient><linearGradient id="u" x1="324.414" y1="216.587" x2="315.929" y2="225.072" gradientUnits="userSpaceOnUse"><stop stop-color="#fff"/><stop offset="1" stop-color="#DCFBFF"/></linearGradient><linearGradient id="v" x1="324.414" y1="216.587" x2="315.929" y2="225.072" gradientUnits="userSpaceOnUse"><stop stop-color="#fff"/><stop offset="1" stop-color="#DCFBFF"/></linearGradient><linearGradient id="y" x1="393.556" y1="61.161" x2="426.492" y2="118.207" gradientUnits="userSpaceOnUse"><stop stop-color="#fff"/><stop offset="1" stop-color="#DCFBFF"/></linearGradient><clipPath id="a"><path fill="#fff" d="M0 0h572v357H0z"/></clipPath><clipPath id="w"><path fill="#fff" transform="rotate(-30 309.652 -611.661)" d="M0 0h91.811v91.811H0z"/></clipPath></defs></svg>