<svg width="92" height="76" viewBox="0 0 92 76" fill="none" xmlns="http://www.w3.org/2000/svg"><path d="M20.064 0C25.658 0 30.4 2.189 34.291 6.566c3.892 4.135 5.837 9.85 5.837 17.146 0 10.7-1.702 19.335-5.107 25.9-3.162 6.567-6.688 11.796-10.58 15.687-4.377 4.378-9.484 7.661-15.321 9.85l-3.648-5.837c4.134-1.945 7.782-4.256 10.944-6.931 2.675-2.189 5.107-4.986 7.296-8.39 2.432-3.405 3.648-7.418 3.648-12.039 0-.973-.122-1.702-.365-2.189a14.154 14.154 0 0 0-.73-1.824l-.729-1.459c-.486.487-1.216.851-2.189 1.095-1.945.486-3.648.73-5.107.73-5.594 0-10.093-1.582-13.498-4.743C1.581 30.157 0 25.658 0 20.064 0 14.47 1.946 9.728 5.837 5.837S14.47 0 20.064 0zm51.072 0c5.594 0 10.336 2.189 14.227 6.566 3.892 4.135 5.837 9.85 5.837 17.146 0 10.7-1.702 19.335-5.107 25.9-3.162 6.567-6.688 11.796-10.58 15.687-4.377 4.378-9.484 7.661-15.32 9.85l-3.649-5.837c4.135-1.945 7.782-4.256 10.944-6.931 2.675-2.189 5.107-4.986 7.296-8.39 2.432-3.405 3.648-7.418 3.648-12.039 0-.973-.121-1.702-.365-2.189a14.154 14.154 0 0 0-.73-1.824l-.729-1.459c-.486.487-1.216.851-2.189 1.095-1.945.486-3.648.73-5.107.73-5.593 0-10.093-1.582-13.497-4.743-3.162-3.405-4.743-7.904-4.743-13.498 0-5.594 1.946-10.336 5.837-14.227S65.543 0 71.136 0z" fill="url(#a)"/><defs><linearGradient id="a" x1="91.2" x2="18.558" y2="94.399" gradientUnits="userSpaceOnUse"><stop stop-color="#E5EAEA"/><stop offset="1" stop-color="#F4F5F5" stop-opacity=".32"/></linearGradient></defs></svg>