<svg width="41" height="40" viewBox="0 0 41 40" fill="none" xmlns="http://www.w3.org/2000/svg"><path transform="rotate(-30 7.156 12.121)" fill="#fff" d="M7.156 12.121h21v16h-21z" filter="url(#a)"/><path stroke="#F70" stroke-width="2" d="M8.522 14.487l16.454-9.5 7 12.125-16.454 9.5z"/><path fill="#F70" d="M9.12 9.523l2.599-1.5 3.5 6.062-2.598 1.5zm4.5 7.793l2.599-1.5 1 1.732-2.598 1.5zm8.66-5l2.599-1.5 1 1.732-2.598 1.5zm-4.33 2.5l2.599-1.5 1 1.732-2.598 1.5zm-2.33 5.965l2.599-1.5 1 1.732-2.598 1.5zm4.33-2.5l2.599-1.5 1 1.732-2.598 1.5zM17.78 4.523l2.599-1.5 3.5 6.062-2.598 1.5z"/><defs><filter id="a" x=".156" y=".621" width="40.187" height="39.356" filterUnits="userSpaceOnUse" color-interpolation-filters="sRGB"><feFlood flood-opacity="0" result="BackgroundImageFix"/><feColorMatrix in="SourceAlpha" values="0 0 0 0 0 0 0 0 0 0 0 0 0 0 0 0 0 0 127 0"/><feOffset dy="7"/><feGaussianBlur stdDeviation="3.5"/><feColorMatrix values="0 0 0 0 0 0 0 0 0 0 0 0 0 0 0 0 0 0 0.2 0"/><feBlend in2="BackgroundImageFix" result="effect1_dropShadow"/><feBlend in="SourceGraphic" in2="effect1_dropShadow" result="shape"/><feColorMatrix in="SourceAlpha" values="0 0 0 0 0 0 0 0 0 0 0 0 0 0 0 0 0 0 127 0" result="hardAlpha"/><feOffset dy="-1"/><feGaussianBlur stdDeviation=".5"/><feComposite in2="hardAlpha" operator="arithmetic" k2="-1" k3="1"/><feColorMatrix values="0 0 0 0 0.433333 0 0 0 0 0.83 0 0 0 0 1 0 0 0 1 0"/><feBlend in2="shape" result="effect2_innerShadow"/></filter></defs></svg>