<svg width="274" height="274" viewBox="0 0 274 274" fill="none" xmlns="http://www.w3.org/2000/svg"><g clip-path="url(#a)"><path d="M38.875 148.042l-7.544-13.066a10 10 0 0 1-.261-9.517l21.01-41.496a10 10 0 0 1 9.565-5.463l45.643 2.944a10 10 0 0 1 8.017 4.98l7.574 13.118" stroke="url(#b)" stroke-width="3" filter="url(#c)"/><path d="M27.754 115.78c-2.762-4.783-1.123-10.899 3.66-13.66l55.426-32c4.783-2.761 10.899-1.123 13.66 3.66l13 22.517-72.746 42-13-22.517z" fill="url(#d)" filter="url(#e)"/><rect opacity=".1" x="32.326" y="139.699" width="100" height="60" rx="10" transform="rotate(-30 32.326 139.699)" fill="#fff"/><rect x="34.375" y="140.248" width="97" height="57" rx="8.5" transform="rotate(-30 34.375 140.248)" stroke="url(#f)" stroke-width="3" filter="url(#g)"/><path fill="#F70" d="M35.048 110.414l31.177-18 2 3.464-31.177 18z"/><path fill="#3C3C3C" d="M39.548 118.208l10.392-6 .5.866-10.392 6zm11.258-6.5l24.249-14 .5.866-24.249 14zm-9.758 9.098l24.249-14 .5.866-24.249 14zm25.115-14.5l17.32-10 .5.866-17.32 10zm-23.615 17.098l17.32-10 .5.866-17.32 10zm18.187-10.5l17.32-10 .5.866-17.32 10zm16.052-16.196l7.794-4.5.5.866-7.794 4.5z"/><path d="M61.558 186.33l26.814-40.612a10 10 0 0 1 7.746-4.472l48.578-2.916" stroke="url(#h)" stroke-width="3" filter="url(#i)"/></g><defs><filter id="c" x="4.566" y="52.742" width="126.612" height="110.05" filterUnits="userSpaceOnUse" color-interpolation-filters="sRGB"><feFlood flood-opacity="0" result="BackgroundImageFix"/><feColorMatrix in="SourceAlpha" values="0 0 0 0 0 0 0 0 0 0 0 0 0 0 0 0 0 0 127 0"/><feOffset dy="7"/><feGaussianBlur stdDeviation="3.5"/><feColorMatrix values="0 0 0 0 0 0 0 0 0 0 0 0 0 0 0 0 0 0 0.2 0"/><feBlend in2="BackgroundImageFix" result="effect1_dropShadow"/><feBlend in="SourceGraphic" in2="effect1_dropShadow" result="shape"/><feColorMatrix in="SourceAlpha" values="0 0 0 0 0 0 0 0 0 0 0 0 0 0 0 0 0 0 127 0" result="hardAlpha"/><feOffset dy="-1"/><feGaussianBlur stdDeviation=".5"/><feComposite in2="hardAlpha" operator="arithmetic" k2="-1" k3="1"/><feColorMatrix values="0 0 0 0 0.433333 0 0 0 0 0.83 0 0 0 0 1 0 0 0 1 0"/><feBlend in2="shape" result="effect2_innerShadow"/></filter><filter id="e" x="15.754" y="64.12" width="104.746" height="88.177" filterUnits="userSpaceOnUse" color-interpolation-filters="sRGB"><feFlood flood-opacity="0" result="BackgroundImageFix"/><feColorMatrix in="SourceAlpha" values="0 0 0 0 0 0 0 0 0 0 0 0 0 0 0 0 0 0 127 0"/><feOffset dy="7"/><feGaussianBlur stdDeviation="3.5"/><feColorMatrix values="0 0 0 0 0 0 0 0 0 0 0 0 0 0 0 0 0 0 0.2 0"/><feBlend in2="BackgroundImageFix" result="effect1_dropShadow"/><feBlend in="SourceGraphic" in2="effect1_dropShadow" result="shape"/><feColorMatrix in="SourceAlpha" values="0 0 0 0 0 0 0 0 0 0 0 0 0 0 0 0 0 0 127 0" result="hardAlpha"/><feOffset dy="-1"/><feGaussianBlur stdDeviation=".5"/><feComposite in2="hardAlpha" operator="arithmetic" k2="-1" k3="1"/><feColorMatrix values="0 0 0 0 0.433333 0 0 0 0 0.83 0 0 0 0 1 0 0 0 1 0"/><feBlend in2="shape" result="effect2_innerShadow"/></filter><filter id="g" x="25.326" y="88.699" width="130.603" height="116.962" filterUnits="userSpaceOnUse" color-interpolation-filters="sRGB"><feFlood flood-opacity="0" result="BackgroundImageFix"/><feColorMatrix in="SourceAlpha" values="0 0 0 0 0 0 0 0 0 0 0 0 0 0 0 0 0 0 127 0"/><feOffset dy="7"/><feGaussianBlur stdDeviation="3.5"/><feColorMatrix values="0 0 0 0 0 0 0 0 0 0 0 0 0 0 0 0 0 0 0.2 0"/><feBlend in2="BackgroundImageFix" result="effect1_dropShadow"/><feBlend in="SourceGraphic" in2="effect1_dropShadow" result="shape"/><feColorMatrix in="SourceAlpha" values="0 0 0 0 0 0 0 0 0 0 0 0 0 0 0 0 0 0 127 0" result="hardAlpha"/><feOffset dy="-1"/><feGaussianBlur stdDeviation=".5"/><feComposite in2="hardAlpha" operator="arithmetic" k2="-1" k3="1"/><feColorMatrix values="0 0 0 0 0.433333 0 0 0 0 0.83 0 0 0 0 1 0 0 0 1 0"/><feBlend in2="shape" result="effect2_innerShadow"/></filter><filter id="i" x="41.817" y="115.933" width="111.131" height="85.894" filterUnits="userSpaceOnUse" color-interpolation-filters="sRGB"><feFlood flood-opacity="0" result="BackgroundImageFix"/><feColorMatrix in="SourceAlpha" values="0 0 0 0 0 0 0 0 0 0 0 0 0 0 0 0 0 0 127 0"/><feOffset dy="7"/><feGaussianBlur stdDeviation="3.5"/><feColorMatrix values="0 0 0 0 0 0 0 0 0 0 0 0 0 0 0 0 0 0 0.2 0"/><feBlend in2="BackgroundImageFix" result="effect1_dropShadow"/><feBlend in="SourceGraphic" in2="effect1_dropShadow" result="shape"/><feColorMatrix in="SourceAlpha" values="0 0 0 0 0 0 0 0 0 0 0 0 0 0 0 0 0 0 127 0" result="hardAlpha"/><feOffset dy="-1"/><feGaussianBlur stdDeviation=".5"/><feComposite in2="hardAlpha" operator="arithmetic" k2="-1" k3="1"/><feColorMatrix values="0 0 0 0 0.433333 0 0 0 0 0.83 0 0 0 0 1 0 0 0 1 0"/><feBlend in2="shape" result="effect2_innerShadow"/></filter><linearGradient id="b" x1="70.627" y1="106.038" x2="71.127" y2="106.904" gradientUnits="userSpaceOnUse"><stop stop-color="#fff"/><stop offset="1" stop-color="#DCFBFF"/></linearGradient><linearGradient id="d" x1="59.127" y1="86.12" x2="77.127" y2="117.297" gradientUnits="userSpaceOnUse"><stop stop-color="#fff"/><stop offset="1" stop-color="#DCFBFF"/></linearGradient><linearGradient id="f" x1="82.326" y1="139.699" x2="82.326" y2="199.699" gradientUnits="userSpaceOnUse"><stop stop-color="#fff"/><stop offset="1" stop-color="#DCFBFF"/></linearGradient><linearGradient id="h" x1="103.127" y1="162.33" x2="103.502" y2="162.98" gradientUnits="userSpaceOnUse"><stop stop-color="#fff"/><stop offset="1" stop-color="#DCFBFF"/></linearGradient><clipPath id="a"><path transform="rotate(-30 .397 100.397)" fill="#fff" d="M.397 100.397h200v200h-200z"/></clipPath></defs></svg>