<svg width="65" height="65" viewBox="0 0 65 65" fill="none" xmlns="http://www.w3.org/2000/svg"><g clip-path="url(#a)"><path d="M7.728 11.152C22.604-6.16 50.189-2.744 60.498 17.481c-7.26.004-18.625-.004-24.781 0-4.464 0-7.349-.1-10.469 1.544-3.668 1.932-6.44 5.512-7.404 9.72L7.728 11.152z" fill="#F44336"/><path d="M21.356 32.004c0 5.868 4.773 10.64 10.637 10.64 5.864 0 10.636-4.772 10.636-10.64s-4.772-10.64-10.636-10.64c-5.868-.005-10.637 4.771-10.637 10.64z" fill="#2196F3"/><path d="M36.117 45.932c-5.969 1.773-12.957-.192-16.781-6.8-2.92-5.04-10.64-18.484-14.145-24.6-12.288 18.832-1.7 44.493 20.605 48.873l10.32-17.473z" fill="#4CAF50"/><path d="M41.869 21.36c4.972 4.624 6.056 12.112 2.688 17.916-2.536 4.376-10.637 18.045-14.56 24.661 22.98 1.416 39.733-21.105 32.164-42.581l-20.292.003z" fill="#FFC107"/></g><defs><clipPath id="a"><path fill="#fff" d="M0 0h64.003v64.003H0z"/></clipPath></defs></svg>