<svg width="28" height="28" viewBox="0 0 28 28" fill="none" xmlns="http://www.w3.org/2000/svg"><path d="M27.5 14c0 7.456-6.044 13.5-13.5 13.5S.5 21.456.5 14 6.544.5 14 .5 27.5 6.544 27.5 14z" fill="#fff" stroke="#0A9DDC"/><path d="M13.54 17.458v-.475c0-.685.106-1.248.316-1.687.211-.445.604-.914 1.178-1.406.797-.674 1.298-1.181 1.503-1.52.211-.34.317-.75.317-1.231 0-.598-.194-1.058-.58-1.38-.381-.328-.932-.492-1.653-.492a5.49 5.49 0 0 0-1.353.167c-.44.105-.944.301-1.512.589l-.519-1.187a7.385 7.385 0 0 1 3.472-.87c1.12 0 1.99.275 2.61.826.621.55.932 1.327.932 2.33 0 .427-.059.805-.176 1.133-.111.322-.278.63-.5.923-.223.287-.704.753-1.442 1.397-.592.504-.985.923-1.178 1.257-.187.334-.281.78-.281 1.336v.29H13.54zm-.43 2.61c0-.797.35-1.195 1.054-1.195.34 0 .6.103.782.308.188.205.281.5.281.887 0 .375-.093.668-.28.88-.188.204-.449.307-.783.307-.305 0-.557-.09-.756-.273-.199-.187-.299-.492-.299-.914z" fill="#0A9DDC"/></svg>