<svg width="50" height="50" viewBox="0 0 50 50" fill="none" xmlns="http://www.w3.org/2000/svg"><path d="M11 17.8c0-2.257 0-3.89.106-5.173.104-1.272.305-2.114.657-2.805a7 7 0 0 1 3.06-3.059c.69-.352 1.532-.553 2.804-.657C18.911 6 20.543 6 22.8 6h7.4c2.257 0 3.89 0 5.173.106 1.272.104 2.114.305 2.805.657a7 7 0 0 1 3.059 3.06c.352.69.553 1.532.657 2.804C42 13.911 42 15.543 42 17.8v.4c0 2.257 0 3.89-.106 5.173-.104 1.272-.305 2.114-.657 2.805a7 7 0 0 1-3.06 3.059c-.69.352-1.532.553-2.804.657C34.089 30 32.457 30 30.2 30h-7.4c-2.257 0-3.89 0-5.173-.106-1.272-.104-2.114-.305-2.805-.657a7 7 0 0 1-3.059-3.06c-.352-.69-.553-1.532-.657-2.804C11 22.089 11 20.457 11 18.2v-.4z" stroke="#0A9DDC" stroke-width="2"/><path d="M21.64 13.565c0-2.044 0-3.066.423-3.608a2 2 0 0 1 1.526-.77c.687-.017 1.51.59 3.153 1.805l5.68 4.196c1.18.872 1.77 1.308 1.98 1.844a2 2 0 0 1 0 1.46c-.21.536-.8.972-1.98 1.844l-5.68 4.197c-1.644 1.214-2.466 1.821-3.153 1.804a2 2 0 0 1-1.526-.77c-.422-.542-.422-1.564-.422-3.608v-8.394z" fill="#F00" filter="url(#a)"/><defs><filter id="a" x=".236" y=".223" width="49.078" height="49.078" filterUnits="userSpaceOnUse" color-interpolation-filters="sRGB"><feFlood flood-opacity="0" result="BackgroundImageFix"/><feColorMatrix in="SourceAlpha" values="0 0 0 0 0 0 0 0 0 0 0 0 0 0 0 0 0 0 127 0"/><feOffset dy="7"/><feGaussianBlur stdDeviation="7"/><feColorMatrix values="0 0 0 0 0.845833 0 0 0 0 0.449341 0 0 0 0 0.0563889 0 0 0 0.4 0"/><feBlend in2="BackgroundImageFix" result="effect1_dropShadow"/><feBlend in="SourceGraphic" in2="effect1_dropShadow" result="shape"/><feColorMatrix in="SourceAlpha" values="0 0 0 0 0 0 0 0 0 0 0 0 0 0 0 0 0 0 127 0" result="hardAlpha"/><feOffset dy="2"/><feGaussianBlur stdDeviation="12"/><feComposite in2="hardAlpha" operator="arithmetic" k2="-1" k3="1"/><feColorMatrix values="0 0 0 0 1 0 0 0 0 0.807333 0 0 0 0 0.433333 0 0 0 0.6 0"/><feBlend in2="shape" result="effect2_innerShadow"/></filter></defs></svg>