<svg width="73" height="43" viewBox="0 0 73 43" fill="none" xmlns="http://www.w3.org/2000/svg"><path d="M72.988 21.805c0 3.672-.84 7.09-2.52 10.254-1.64 3.164-3.964 5.664-6.972 7.5-3.008 1.836-6.328 2.754-9.96 2.754-6.524 0-12.188-2.872-16.993-8.614-2.461 2.617-5.098 4.649-7.91 6.094-2.774 1.445-5.508 2.168-8.203 2.168-5.82 0-10.567-1.875-14.239-5.625-3.632-3.79-5.449-8.79-5.449-15 0-5.938 1.856-10.84 5.567-14.707 3.71-3.867 8.418-5.8 14.12-5.8 6.876 0 12.403 2.831 16.583 8.495 2.304-2.578 4.765-4.59 7.383-6.035 2.656-1.484 5.703-2.227 9.14-2.227 5.82 0 10.508 1.895 14.063 5.684 3.593 3.79 5.39 8.809 5.39 15.059zm-51.855 5.39c2.5 0 4.941-1.953 7.324-5.86-2.46-3.905-4.941-5.858-7.441-5.858-1.68 0-3.028.566-4.043 1.699-.977 1.133-1.465 2.558-1.465 4.277 0 1.758.527 3.164 1.582 4.219 1.055 1.015 2.402 1.523 4.043 1.523zm31.582-11.367c-2.461 0-5.02 1.914-7.676 5.742 1.211 1.758 2.5 3.223 3.867 4.395 1.407 1.172 2.715 1.758 3.926 1.758 1.64 0 2.95-.606 3.926-1.817.976-1.21 1.465-2.656 1.465-4.336 0-1.64-.508-3.008-1.524-4.101-1.015-1.094-2.343-1.64-3.984-1.64z" fill="#0A9DDC"/></svg>