<svg width="24" height="24" viewBox="0 0 24 24" fill="none" xmlns="http://www.w3.org/2000/svg"><circle cx="12" cy="12" r="11" stroke="#0A9DDC" stroke-width="2"/><path d="M11.073 13.748v-.469c0-.537.097-.984.293-1.34.195-.357.537-.725 1.025-1.106.581-.459.955-.815 1.12-1.07.172-.253.257-.556.257-.908 0-.41-.137-.725-.41-.944-.274-.22-.667-.33-1.18-.33-.463 0-.893.066-1.288.198a9.09 9.09 0 0 0-1.158.476l-.615-1.29a6.448 6.448 0 0 1 3.186-.827c.957 0 1.716.235 2.278.703.562.47.842 1.116.842 1.941 0 .366-.053.694-.16.982a2.782 2.782 0 0 1-.492.813c-.214.258-.588.595-1.12 1.01-.454.357-.76.652-.916.887-.151.234-.227.549-.227.944v.33h-1.435zm-.3 2.336c0-.737.358-1.105 1.076-1.105.352 0 .62.097.806.293.185.19.278.46.278.812 0 .347-.095.623-.285.828-.186.2-.452.3-.799.3-.347 0-.613-.097-.798-.293-.186-.2-.278-.478-.278-.835z" fill="#F70"/></svg>