<svg width="287" height="50" viewBox="0 0 287 50" fill="none" xmlns="http://www.w3.org/2000/svg"><path d="M161.947 32c-.128 0-.192-.064-.192-.192l.032-.144 4.08-11.28c.032-.096.074-.16.128-.192a.35.35 0 0 1 .224-.064h1.616c.202 0 .336.09.4.272l4.048 11.28c.01.021.016.059.016.112 0 .139-.059.208-.176.208h-1.52c-.139 0-.23-.064-.272-.192l-1.024-2.848a.363.363 0 0 0-.064-.112c-.022-.021-.064-.032-.128-.032h-4.432c-.096 0-.16.043-.192.128l-1.04 2.896c-.032.107-.123.16-.272.16h-1.232zm6.672-4.688c.074 0 .117-.016.128-.048.021-.043.021-.101 0-.176l-1.728-4.8c-.032-.075-.07-.112-.112-.112-.043 0-.08.043-.112.128l-1.776 4.8-.016.096c0 .075.048.112.144.112h3.472zm9.411-3.952c.832 0 1.536.197 2.112.592a3.695 3.695 0 0 1 1.296 1.536.32.32 0 0 1 .032.144c0 .064-.048.107-.144.128l-1.136.192h-.048c-.064 0-.117-.043-.16-.128-.299-.437-.587-.757-.864-.96-.277-.213-.613-.32-1.008-.32-.747 0-1.339.283-1.776.848-.437.565-.656 1.355-.656 2.368 0 1.024.224 1.819.672 2.384.448.565 1.056.848 1.824.848.48 0 .891-.123 1.232-.368.352-.245.677-.613.976-1.104a.213.213 0 0 1 .096-.08c.032-.01.075-.005.128.016l.848.256c.096.032.117.112.064.24a4.125 4.125 0 0 1-1.328 1.584c-.576.416-1.296.624-2.16.624-.789 0-1.493-.181-2.112-.544a3.926 3.926 0 0 1-1.456-1.552c-.341-.661-.512-1.419-.512-2.272 0-.853.176-1.616.528-2.288a3.9 3.9 0 0 1 1.456-1.568c.619-.384 1.317-.576 2.096-.576zm10.255 7.68c-.779.747-1.691 1.12-2.736 1.12-.821 0-1.472-.208-1.952-.624-.469-.427-.704-.992-.704-1.696 0-.864.373-1.552 1.12-2.064.757-.512 1.829-.8 3.216-.864l1.04-.08c.171-.021.256-.101.256-.24v-.4c0-.523-.16-.933-.48-1.232-.32-.31-.757-.464-1.312-.464-.875 0-1.573.395-2.096 1.184a.269.269 0 0 1-.112.128c-.032.01-.085.005-.16-.016l-1.088-.32c-.064-.021-.096-.064-.096-.128 0-.043.016-.101.048-.176a3.037 3.037 0 0 1 1.36-1.328c.619-.32 1.36-.48 2.224-.48 1.12 0 1.957.24 2.512.72.555.48.832 1.147.832 2v5.648c0 .107-.021.181-.064.224-.032.032-.091.048-.176.048h-1.072c-.149 0-.235-.107-.256-.32l-.032-.608c-.021-.085-.053-.128-.096-.128-.032 0-.091.032-.176.096zm.24-3.024c0-.17-.075-.25-.224-.24l-.864.064c-.885.053-1.589.235-2.112.544-.512.299-.768.715-.768 1.248 0 .416.149.747.448.992.299.235.699.352 1.2.352.576 0 1.12-.197 1.632-.592.459-.373.688-.747.688-1.12v-1.248zM198.569 32c-.171 0-.256-.085-.256-.256v-.608c0-.096-.027-.144-.08-.144-.032 0-.075.027-.128.08-.32.31-.667.57-1.04.784-.373.203-.848.304-1.424.304-.672 0-1.275-.16-1.808-.48-.523-.33-.933-.816-1.232-1.456-.299-.65-.448-1.435-.448-2.352 0-.885.155-1.67.464-2.352.32-.683.757-1.21 1.312-1.584a3.286 3.286 0 0 1 1.888-.576c.459 0 .864.075 1.216.224.352.15.683.357.992.624.053.053.107.08.16.08.064 0 .096-.064.096-.192v-3.728c0-.16.069-.24.208-.24h1.28c.064 0 .112.021.144.064a.237.237 0 0 1 .064.176v11.36c0 .096-.027.165-.08.208-.043.043-.117.064-.224.064h-1.104zm-.288-6.496c-.32-.33-.635-.576-.944-.736a2.195 2.195 0 0 0-1.024-.24c-.725 0-1.312.283-1.76.848-.448.565-.672 1.381-.672 2.448s.219 1.867.656 2.4c.437.523 1.003.784 1.696.784a2.08 2.08 0 0 0 1.024-.256c.309-.181.555-.405.736-.672.192-.277.288-.555.288-.832v-3.744zm5.545 2.848c0 .48.112.917.336 1.312.235.384.549.693.944.928.395.224.827.336 1.296.336.491 0 .928-.101 1.312-.304.384-.203.736-.517 1.056-.944.032-.043.069-.064.112-.064.053 0 .096.01.128.032l.816.384c.053.032.08.075.08.128a.273.273 0 0 1-.048.128c-.448.661-.96 1.141-1.536 1.44-.576.288-1.275.432-2.096.432-.8 0-1.515-.181-2.144-.544a3.812 3.812 0 0 1-1.472-1.52c-.352-.661-.528-1.408-.528-2.24 0-.896.181-1.685.544-2.368.363-.683.853-1.205 1.472-1.568a4.03 4.03 0 0 1 2.096-.56c.789 0 1.483.176 2.08.528.597.341 1.056.843 1.376 1.504.331.661.496 1.445.496 2.352v.064c0 .096-.016.17-.048.224-.021.043-.085.064-.192.064h-5.92c-.107 0-.16.085-.16.256zm4.368-1.264c.107 0 .176-.016.208-.048.043-.032.064-.09.064-.176a2.58 2.58 0 0 0-.272-1.168 2.01 2.01 0 0 0-.768-.864c-.331-.224-.725-.336-1.184-.336-.48 0-.901.123-1.264.368-.363.235-.645.55-.848.944a2.641 2.641 0 0 0-.272 1.264l4.336.016zM212.418 32c-.17 0-.256-.085-.256-.256V23.76c0-.16.07-.24.208-.24h1.248c.128 0 .192.07.192.208v.88c0 .064.016.101.048.112.032.01.07-.01.112-.064.534-.448 1.008-.773 1.424-.976.427-.213.886-.32 1.376-.32.587 0 1.072.133 1.457.4.383.267.655.613.815 1.04.022.032.043.048.064.048.043 0 .091-.027.144-.08.502-.459.982-.805 1.441-1.04a3.008 3.008 0 0 1 1.439-.368c.769 0 1.366.224 1.793.672.437.437.655 1.04.655 1.808v5.872c0 .192-.095.288-.287.288h-1.185c-.085 0-.143-.016-.175-.048-.033-.043-.049-.112-.049-.208v-5.6c0-.48-.117-.848-.351-1.104-.235-.267-.587-.4-1.057-.4-.64 0-1.322.336-2.047 1.008a.73.73 0 0 0-.161.224.535.535 0 0 0-.047.24v5.6c0 .192-.096.288-.288.288h-1.169c-.16 0-.239-.085-.239-.256v-5.6c0-.48-.118-.848-.353-1.104-.224-.267-.576-.4-1.056-.4a2.1 2.1 0 0 0-1.072.288c-.33.181-.725.485-1.184.912v5.888c0 .096-.026.165-.08.208-.042.043-.117.064-.224.064h-1.136zm15.203 2.64c-.363 0-.619-.016-.768-.048-.139-.021-.208-.085-.208-.192v-.816c0-.15.149-.224.448-.224h1.04c.235 0 .453-.08.656-.24.213-.16.379-.363.496-.608.117-.245.176-.485.176-.72a.86.86 0 0 0-.064-.352l-3.056-7.616a.269.269 0 0 1-.016-.112c0-.128.075-.192.224-.192h1.312c.064 0 .123.021.176.064a.2.2 0 0 1 .096.144l2.208 5.76c.032.096.069.144.112.144.064 0 .117-.064.16-.192l2.176-5.728c.053-.128.139-.192.256-.192h.944c.075 0 .128.032.16.096.043.053.048.112.016.176l-3.44 8.72c-.224.576-.475 1.013-.752 1.312a2.17 2.17 0 0 1-.976.64c-.363.117-.821.176-1.376.176z" fill="#F70"/><path fill-rule="evenodd" clip-rule="evenodd" d="M68.246 15.017h-7.924c-1.292 0-2.647 1.07-3.036 2.41l-4.282 15.148-4.281-15.148c-.374-1.325-1.728-2.41-3.02-2.41h-7.94c-1.293 0-2.04 1.085-1.667 2.41l4.282 15.148c.373 1.325 1.728 2.41 3.036 2.41h7.924c.841 0 1.448-.463 1.666-1.15.218.687.826 1.15 1.666 1.15h7.925c1.292 0 2.647-1.07 3.02-2.41l4.282-15.148c.39-1.325-.358-2.41-1.65-2.41z" fill="url(#a)"/><path fill-rule="evenodd" clip-rule="evenodd" d="M49.704 15.016c-.639 0-1.355.383-1.869.942.42.399.748.91.888 1.452l4.281 15.148 4.282-15.148c.171-.59.467-1.07.934-1.484-.514-.511-1.12-.926-1.728-.926h-6.788v.016z" fill="url(#b)"/><path fill-rule="evenodd" clip-rule="evenodd" d="M64.308 32.59l-5.185-15.148c-.156-.543-.451-1.101-.887-1.5a3.037 3.037 0 0 0-.935 1.484l-4.297 15.148v.016l-4.281-15.148a3.214 3.214 0 0 0-.903-1.468 3.245 3.245 0 0 0-.919 1.468L41.717 32.59c-.405 1.325.404 2.41 1.79 2.41h7.831c.841 0 1.448-.447 1.666-1.133.218.686.826 1.133 1.666 1.133h7.831c1.402-.016 2.196-1.085 1.807-2.41z" fill="url(#c)"/><path d="M92.56 18.105l-3.268 11.462-2.924-10.307c-.109-.402-.127-.613-.672-.613H84.68c-.527 0-.563.21-.672.613l-2.942 10.307-3.25-11.462-1.816.438 3.74 12.704c.11.386.182.613.709.613h1.035c.526 0 .599-.227.708-.613l2.978-10.29 2.996 10.29c.109.403.163.613.708.613h1.035c.545 0 .6-.21.708-.613l3.722-12.704-1.779-.438zm8.679 4.497c-.817-.437-1.597-.49-2.614-.49-.781 0-1.87.018-2.597.333-1.561.7-1.87 2.538-1.87 4.025v1.138c0 1.487.29 3.15 1.652 3.85.763.385 1.762.507 2.724.507 1.053 0 2.542-.105 3.377-.262l-.127-1.296c-1.144.158-2.379.21-2.941.21-.527 0-1.725-.07-2.27-.507-.508-.42-.672-1.348-.69-2.468h5.52c.853 0 1.235-.402 1.235-.927v-.997c.018-1.768-.672-2.713-1.399-3.116zm-.308 3.728h-5.048c0-1.19.2-2.012.726-2.485.49-.438 1.471-.438 1.961-.438.636 0 1.29.053 1.707.386.454.384.654 1.085.654 2.152v.385zm9.569-3.832c-.89-.386-1.997-.386-2.796-.386-.472 0-1.417.088-2.216.21V18h-1.725v11.567c0 2.048 1.78 2.433 4.159 2.433 2.905 0 4.321-.665 4.321-4.76v-.91c.018-1.487-.163-3.15-1.743-3.832zm.018 4.864c0 2.8-.436 3.343-2.415 3.343-.871 0-1.58-.07-1.979-.297-.49-.28-.636-.736-.636-1.418v-5.285c.799-.175 1.816-.227 2.288-.227 2.197 0 2.724.384 2.724 2.73v1.155h.018zm7.263 3.256c-.526 0-1.652 0-2.106-.42-.527-.473-.69-1.313-.69-2.468v-1.383c0-1.155.145-1.995.69-2.467.454-.402 1.562-.42 2.106-.42.563 0 1.362.035 2.506.21 0 0 .127-1.26.127-1.295-.835-.14-2.161-.262-2.941-.262-.745 0-1.798.07-2.561.454-1.38.7-1.706 2.416-1.706 3.903v1.12c0 1.488.326 3.203 1.706 3.902.763.386 1.816.456 2.561.456.78 0 2.288-.105 3.141-.263l-.127-1.295a17.036 17.036 0 0 1-2.706.227zm10.423-8.19c-.726-.316-1.743-.316-2.524-.316-.781 0-1.798 0-2.524.316-1.562.7-1.743 2.555-1.743 4.042v1.138c0 1.487.163 3.377 1.743 4.042.708.315 1.743.315 2.524.315.781 0 1.798 0 2.524-.315 1.562-.7 1.743-2.555 1.743-4.042V26.47c0-1.487-.181-3.342-1.743-4.043zm0 5.32c0 1.154-.036 2.047-.563 2.52-.454.42-1.434.402-1.961.42-.545 0-1.507 0-1.961-.42-.508-.473-.545-1.366-.545-2.52v-1.4c0-1.155.018-2.048.545-2.52.454-.403 1.434-.42 1.961-.42.527 0 1.507.017 1.961.42.508.472.563 1.364.563 2.52v1.4zm13.164-5.636c-1.398 0-3.105.386-3.667.526-.636-.403-1.489-.526-2.452-.526-1.144 0-2.596.193-3.377.333-.254.052-.835.192-.835.962v8.453h1.725v-8.102c.617-.123 1.47-.28 2.197-.28 1.67 0 2.197.56 2.197 2.047v6.335h1.725v-6.475c0-.648-.091-1.173-.273-1.61.69-.14 1.616-.315 2.47-.315 1.652 0 2.197.56 2.197 2.047v6.335H145v-6.457c-.018-2.765-1.58-3.273-3.632-3.273z" fill="#231F20"/><path d="M153 8h1v34h-1V8z" fill="#B6CAD1"/><path fill-rule="evenodd" clip-rule="evenodd" d="M247.47 28.055L243.414 24 242 25.414l5.47 5.47 5.469-5.47L251.525 24l-4.055 4.055z" fill="#8A979F"/><defs><linearGradient id="a" x1="53.008" y1="29.54" x2="53.008" y2="13.966" gradientUnits="userSpaceOnUse"><stop stop-color="#C6E9FA"/><stop offset="1" stop-color="#00A0E3"/></linearGradient><linearGradient id="b" x1="53.024" y1="27.707" x2="53.024" y2="14.576" gradientUnits="userSpaceOnUse"><stop stop-color="#FFF100"/><stop offset="1" stop-color="#F48120"/></linearGradient><linearGradient id="c" x1="53.009" y1="35.035" x2="53.009" y2="20.073" gradientUnits="userSpaceOnUse"><stop stop-color="#D6DE23"/><stop offset="1" stop-color="#00974A"/></linearGradient></defs></svg>