<svg width="273" height="50" viewBox="0 0 273 50" fill="none" xmlns="http://www.w3.org/2000/svg"><path d="M22.88 4.093A7.996 7.996 0 0 1 29.855.002L268.995 0c3.055 0 4.982 3.288 3.488 5.954L250.12 45.907a7.988 7.988 0 0 1-6.977 4.091L4.003 50C.948 50-.977 46.712.515 44.046L22.878 4.093h.002z" fill="#fff"/><path d="M167.946 32c-.128 0-.192-.064-.192-.192l.032-.144 4.08-11.28c.032-.096.074-.16.128-.192a.35.35 0 0 1 .224-.064h1.616c.202 0 .336.09.4.272l4.048 11.28c.01.02.016.059.016.112 0 .139-.059.208-.176.208h-1.52c-.139 0-.23-.064-.272-.192l-1.024-2.848a.37.37 0 0 0-.064-.112c-.022-.021-.064-.032-.128-.032h-4.432c-.096 0-.16.043-.192.128l-1.04 2.896c-.032.107-.123.16-.272.16h-1.232zm6.672-4.688c.074 0 .117-.016.128-.048.021-.043.021-.101 0-.176l-1.728-4.8c-.032-.075-.07-.112-.112-.112-.043 0-.08.043-.112.128l-1.776 4.8-.016.096c0 .075.048.112.144.112h3.472zm9.411-3.952c.832 0 1.536.197 2.112.592a3.694 3.694 0 0 1 1.296 1.536.312.312 0 0 1 .032.144c0 .064-.048.107-.144.128l-1.136.192h-.048c-.064 0-.117-.043-.16-.128-.298-.437-.586-.757-.864-.96-.277-.213-.613-.32-1.008-.32-.746 0-1.338.283-1.776.848-.437.565-.656 1.355-.656 2.368 0 1.024.224 1.819.672 2.384.448.565 1.056.848 1.824.848.48 0 .891-.123 1.232-.368.352-.245.678-.613.976-1.104a.213.213 0 0 1 .096-.08c.032-.01.075-.005.128.016l.848.256c.096.032.118.112.064.24a4.12 4.12 0 0 1-1.328 1.584c-.576.416-1.296.624-2.16.624-.789 0-1.493-.181-2.112-.544a3.928 3.928 0 0 1-1.456-1.552c-.341-.661-.512-1.42-.512-2.272 0-.853.176-1.616.528-2.288a3.906 3.906 0 0 1 1.456-1.568c.619-.384 1.318-.576 2.096-.576zm10.255 7.68c-.779.747-1.691 1.12-2.736 1.12-.821 0-1.472-.208-1.952-.624-.469-.427-.704-.992-.704-1.696 0-.864.373-1.552 1.12-2.064.757-.512 1.829-.8 3.216-.864l1.04-.08c.171-.021.256-.101.256-.24v-.4c0-.523-.16-.933-.48-1.232-.32-.31-.757-.464-1.312-.464-.875 0-1.573.395-2.096 1.184a.272.272 0 0 1-.112.128c-.032.01-.085.005-.16-.016l-1.088-.32c-.064-.021-.096-.064-.096-.128 0-.043.016-.101.048-.176a3.033 3.033 0 0 1 1.36-1.328c.619-.32 1.36-.48 2.224-.48 1.12 0 1.957.24 2.512.72.555.48.832 1.147.832 2v5.648c0 .107-.021.18-.064.224-.032.032-.091.048-.176.048h-1.072c-.149 0-.235-.107-.256-.32l-.032-.608c-.021-.085-.053-.128-.096-.128-.032 0-.091.032-.176.096zm.24-3.024c0-.17-.075-.25-.224-.24l-.864.064c-.885.053-1.589.235-2.112.544-.512.299-.768.715-.768 1.248 0 .416.149.747.448.992.299.235.699.352 1.2.352.576 0 1.12-.197 1.632-.592.459-.373.688-.747.688-1.12v-1.248zM204.568 32c-.171 0-.256-.085-.256-.256v-.608c0-.096-.027-.144-.08-.144-.032 0-.075.027-.128.08-.32.31-.667.57-1.04.784-.373.203-.848.304-1.424.304-.672 0-1.275-.16-1.808-.48-.523-.33-.933-.816-1.232-1.456-.299-.65-.448-1.435-.448-2.352 0-.885.155-1.67.464-2.352.32-.683.757-1.21 1.312-1.584a3.284 3.284 0 0 1 1.888-.576c.459 0 .864.075 1.216.224.352.15.683.357.992.624.053.053.107.08.16.08.064 0 .096-.064.096-.192v-3.728c0-.16.069-.24.208-.24h1.28c.064 0 .112.02.144.064a.239.239 0 0 1 .064.176v11.36c0 .096-.027.165-.08.208-.043.043-.117.064-.224.064h-1.104zm-.288-6.496c-.32-.33-.635-.576-.944-.736a2.194 2.194 0 0 0-1.024-.24c-.725 0-1.312.283-1.76.848-.448.565-.672 1.38-.672 2.448 0 1.067.219 1.867.656 2.4.437.523 1.003.784 1.696.784a2.08 2.08 0 0 0 1.024-.256c.309-.181.555-.405.736-.672.192-.277.288-.555.288-.832v-3.744zm5.545 2.848c0 .48.112.917.336 1.312.235.384.549.693.944.928.395.224.827.336 1.296.336.491 0 .928-.101 1.312-.304.384-.203.736-.517 1.056-.944.032-.043.069-.064.112-.064.053 0 .096.01.128.032l.816.384c.053.032.08.075.08.128a.28.28 0 0 1-.048.128c-.448.66-.96 1.14-1.536 1.44-.576.288-1.275.432-2.096.432-.8 0-1.515-.181-2.144-.544a3.811 3.811 0 0 1-1.472-1.52c-.352-.661-.528-1.408-.528-2.24 0-.896.181-1.685.544-2.368.363-.683.853-1.205 1.472-1.568a4.03 4.03 0 0 1 2.096-.56c.789 0 1.483.176 2.08.528.597.34 1.056.843 1.376 1.504.331.66.496 1.445.496 2.352v.064c0 .096-.016.17-.048.224-.021.043-.085.064-.192.064h-5.92c-.107 0-.16.085-.16.256zm4.368-1.264c.107 0 .176-.016.208-.048.043-.032.064-.09.064-.176a2.586 2.586 0 0 0-.272-1.168 2.011 2.011 0 0 0-.768-.864c-.331-.224-.725-.336-1.184-.336-.48 0-.901.123-1.264.368-.363.235-.645.55-.848.944a2.635 2.635 0 0 0-.272 1.264l4.336.016zM218.418 32c-.171 0-.256-.085-.256-.256V23.76c0-.16.069-.24.208-.24h1.248c.128 0 .192.07.192.208v.88c0 .064.016.1.048.112.032.01.069-.01.112-.064.533-.448 1.008-.773 1.424-.976.426-.213.885-.32 1.376-.32.586 0 1.072.133 1.456.4.384.267.656.613.816 1.04.021.032.042.048.064.048.042 0 .09-.027.144-.08.501-.46.981-.805 1.44-1.04a3.01 3.01 0 0 1 1.44-.368c.768 0 1.365.224 1.792.672.437.437.656 1.04.656 1.808v5.872c0 .192-.096.288-.288.288h-1.184c-.086 0-.144-.016-.176-.048-.032-.043-.048-.112-.048-.208v-5.6c0-.48-.118-.848-.352-1.104-.235-.267-.587-.4-1.056-.4-.64 0-1.323.336-2.048 1.008a.72.72 0 0 0-.16.224.536.536 0 0 0-.048.24v5.6c0 .192-.096.288-.288.288h-1.168c-.16 0-.24-.085-.24-.256v-5.6c0-.48-.118-.848-.352-1.104-.224-.267-.576-.4-1.056-.4-.384 0-.742.096-1.072.288-.331.18-.726.485-1.184.912v5.888c0 .096-.027.165-.08.208-.043.043-.118.064-.224.064h-1.136zm15.202 2.64c-.363 0-.619-.016-.768-.048-.139-.021-.208-.085-.208-.192v-.816c0-.15.149-.224.448-.224h1.04c.235 0 .453-.08.656-.24.213-.16.379-.363.496-.608.117-.245.176-.485.176-.72a.866.866 0 0 0-.064-.352l-3.056-7.616a.267.267 0 0 1-.016-.112c0-.128.075-.192.224-.192h1.312c.064 0 .123.02.176.064a.191.191 0 0 1 .064.06.193.193 0 0 1 .032.084l2.208 5.76c.032.096.069.144.112.144.064 0 .117-.064.16-.192l2.176-5.728c.053-.128.139-.192.256-.192h.944c.075 0 .128.032.16.096.043.053.048.112.016.176l-3.44 8.72c-.224.576-.475 1.013-.752 1.312a2.17 2.17 0 0 1-.976.64c-.363.117-.821.176-1.376.176z" fill="#F70"/><path fill-rule="evenodd" clip-rule="evenodd" d="M64.246 15.018h-7.924c-1.292 0-2.647 1.07-3.036 2.41l-4.282 15.148-4.281-15.148c-.374-1.325-1.728-2.41-3.02-2.41h-7.94c-1.293 0-2.04 1.085-1.667 2.41l4.282 15.148c.373 1.325 1.728 2.41 3.036 2.41h7.924c.841 0 1.448-.463 1.666-1.15.218.687.826 1.15 1.666 1.15h7.925c1.292 0 2.647-1.07 3.02-2.41l4.282-15.148c.39-1.325-.358-2.41-1.65-2.41h-.001z" fill="url(#a)"/><path fill-rule="evenodd" clip-rule="evenodd" d="M45.702 15.016c-.638 0-1.354.383-1.868.942.42.399.747.91.887 1.452l4.282 15.148 4.282-15.148c.17-.59.467-1.07.934-1.484-.514-.511-1.121-.926-1.728-.926h-6.789v.016z" fill="url(#b)"/><path fill-rule="evenodd" clip-rule="evenodd" d="M60.306 32.59l-5.184-15.15c-.156-.542-.452-1.1-.888-1.5a3.05 3.05 0 0 0-.934 1.484l-4.297 15.148v.016L44.721 17.44a3.214 3.214 0 0 0-.903-1.468 3.249 3.249 0 0 0-.918 1.468l-5.185 15.15c-.404 1.325.405 2.41 1.79 2.41h7.832c.84 0 1.448-.447 1.666-1.133.218.686.825 1.133 1.666 1.133h7.83c1.401-.016 2.195-1.085 1.806-2.41h.001z" fill="url(#c)"/><path d="M88.615 18.105l-3.28 11.462-2.933-10.307c-.109-.402-.127-.613-.674-.613h-1.02c-.528 0-.565.21-.674.613l-2.951 10.307-3.261-11.462-1.822.438 3.753 12.704c.11.386.182.613.71.613h1.039c.528 0 .6-.227.71-.613l2.988-10.29 3.006 10.29c.11.403.164.613.71.613h1.039c.546 0 .6-.21.71-.613L90.4 18.543l-1.785-.438zm8.708 4.497c-.82-.437-1.604-.49-2.624-.49-.783 0-1.876.018-2.605.333-1.567.7-1.876 2.538-1.876 4.025v1.138c0 1.487.291 3.15 1.657 3.85.766.385 1.767.507 2.733.507 1.057 0 2.55-.105 3.388-.262l-.127-1.296a24.56 24.56 0 0 1-2.951.21c-.529 0-1.73-.07-2.277-.507-.51-.42-.675-1.348-.693-2.468h5.538c.857 0 1.24-.402 1.24-.927v-.997c.017-1.768-.675-2.713-1.403-3.116zm-.31 3.728h-5.065c0-1.19.2-2.012.729-2.485.492-.438 1.476-.438 1.967-.438.638 0 1.294.053 1.713.386.455.384.656 1.085.656 2.152v.385zm9.601-3.832c-.893-.386-2.004-.386-2.806-.386-.474 0-1.421.088-2.223.21V18h-1.73v11.567c0 2.048 1.785 2.433 4.172 2.433 2.914 0 4.335-.665 4.335-4.76v-.91c.019-1.487-.164-3.15-1.748-3.832zm.018 4.864c0 2.8-.437 3.343-2.423 3.343-.875 0-1.585-.07-1.986-.297-.492-.28-.638-.736-.638-1.418v-5.285c.802-.175 1.822-.227 2.296-.227 2.204 0 2.733.384 2.733 2.73v1.155h.018v-.001zm7.287 3.256c-.529 0-1.658 0-2.113-.42-.529-.473-.693-1.313-.693-2.468v-1.383c0-1.155.146-1.995.693-2.467.455-.402 1.566-.42 2.113-.42.565 0 1.366.035 2.514.21 0 0 .127-1.26.127-1.295-.838-.14-2.168-.262-2.951-.262-.747 0-1.803.07-2.569.454-1.384.7-1.712 2.416-1.712 3.903v1.12c0 1.488.328 3.203 1.712 3.902.766.386 1.822.456 2.569.456.783 0 2.295-.105 3.152-.263l-.128-1.295a17.15 17.15 0 0 1-2.714.227v.001zm10.457-8.19c-.729-.316-1.749-.316-2.533-.316-.783 0-1.803 0-2.532.316-1.567.7-1.749 2.555-1.749 4.042v1.138c0 1.487.164 3.377 1.749 4.042.711.315 1.749.315 2.532.315.784 0 1.804 0 2.533-.315 1.566-.7 1.749-2.555 1.749-4.042V26.47c0-1.487-.183-3.342-1.749-4.043v.001zm0 5.32c0 1.154-.037 2.047-.565 2.52-.455.42-1.439.402-1.968.42-.546 0-1.512 0-1.967-.42-.51-.473-.547-1.366-.547-2.52v-1.4c0-1.155.019-2.048.547-2.52.455-.403 1.439-.42 1.967-.42.529 0 1.513.017 1.968.42.51.472.565 1.364.565 2.52v1.4zm13.207-5.636c-1.402 0-3.115.386-3.679.526-.638-.403-1.494-.526-2.46-.526-1.148 0-2.605.193-3.388.333-.255.052-.838.192-.838.962v8.453h1.73v-8.102c.62-.123 1.476-.28 2.205-.28 1.676 0 2.204.56 2.204 2.047v6.335h1.731v-6.475c0-.648-.091-1.173-.274-1.61.693-.14 1.622-.315 2.478-.315 1.658 0 2.204.56 2.204 2.047v6.335h1.731v-6.457c-.018-2.765-1.585-3.273-3.644-3.273zm7.251-.385v.035c0 .018-.018.018-.036.018s-.055.017-.091.017h-.31c-.036 0-.073-.017-.091-.017-.018 0-.037-.018-.055-.035-.018-.018-.018-.035-.036-.07l-.11-.332a.48.48 0 0 0-.163-.263c-.055-.052-.146-.07-.274-.07h-.145v.7c0 .035-.019.052-.055.07-.037.017-.109.017-.219.017-.109 0-.182 0-.218-.017-.037-.018-.055-.035-.055-.07v-1.785c0-.07.018-.123.055-.175.036-.052.109-.07.182-.07h.619c.146 0 .273.018.383.035.109.018.2.052.291.105.073.052.146.105.182.192a.56.56 0 0 1 .055.263c0 .158-.055.28-.146.367a.777.777 0 0 1-.382.193.65.65 0 0 1 .237.14c.073.07.145.157.2.28l.128.315c.036.087.054.122.054.157zm-.674-1.4c0-.035 0-.07-.018-.105a.376.376 0 0 0-.055-.087.165.165 0 0 0-.127-.053c-.055-.017-.11-.017-.182-.017h-.255v.595h.236c.146 0 .255-.035.31-.087.055-.088.091-.158.091-.245v-.001z" fill="#231F20"/><path d="M143.794 22.866c-1.22 0-2.204-.945-2.204-2.117 0-1.173.984-2.118 2.204-2.118 1.221 0 2.205.945 2.205 2.117 0 1.173-.984 2.118-2.205 2.118zm0-3.78c-.947 0-1.73.752-1.73 1.662 0 .91.783 1.663 1.73 1.663.948 0 1.731-.753 1.731-1.663s-.765-1.662-1.731-1.662z" fill="#212121"/><path d="M162 13l-12 24h2l12-24h-2z" fill="#B6CAD1"/><defs><linearGradient id="a" x1="41.413" y1="29.541" x2="41.413" y2="13.967" gradientUnits="userSpaceOnUse"><stop stop-color="#C6E9FA"/><stop offset="1" stop-color="#00A0E3"/></linearGradient><linearGradient id="b" x1="42.618" y1="27.707" x2="42.618" y2="14.576" gradientUnits="userSpaceOnUse"><stop stop-color="#FFF100"/><stop offset="1" stop-color="#F48120"/></linearGradient><linearGradient id="c" x1="41.71" y1="35.035" x2="41.71" y2="20.073" gradientUnits="userSpaceOnUse"><stop stop-color="#D6DE23"/><stop offset="1" stop-color="#00974A"/></linearGradient></defs></svg>