<svg width="348" height="342" viewBox="0 0 348 342" fill="none" xmlns="http://www.w3.org/2000/svg"><path d="M223.658 64.856L89.273 79.999a5.269 5.269 0 0 0-3.927 2.593L20.582 194.767c-1.356 2.349-.453 5.72 1.896 7.077l192.951 111.4c2.349 1.356 5.721.453 7.078-1.896l64.763-112.174a5.264 5.264 0 0 0 .282-4.698L233.474 70.523a5.218 5.218 0 0 0-2.178-2.38l-4.487-2.59c-.941-.675-2.221-.586-3.151-.697zm-.628 10.48l1.682.972 49.604 113.891-123.575 13.906-1.402-.809L99.595 89.324 223.03 75.336z" fill="url(#a)" filter="url(#b)"/><rect x="32.759" y="192.523" width="57.181" height="4.867" rx="2.433" fill="url(#c)" filter="url(#d)"/><rect width="57.181" height="4.867" rx="2.433" transform="scale(1 -1) rotate(-60 -125.313 -286.937)" fill="url(#e)" filter="url(#f)"/><path d="M222.064 75.446a2.95 2.95 0 0 1 3.036 1.752l45.006 103.333c1.425 3.274 2.138 4.911 1.929 6.297a4.87 4.87 0 0 1-1.779 3.078c-1.096.873-2.87 1.073-6.418 1.472l-112.292 12.637a2.46 2.46 0 0 1-2.531-1.461L103.813 98.988c-1.428-3.272-2.142-4.909-1.934-6.295a4.866 4.866 0 0 1 1.777-3.079c1.095-.874 2.869-1.076 6.417-1.478l111.991-12.69z" fill="url(#g)" filter="url(#h)"/><defs><filter id="b" x=".958" y=".031" width="346.095" height="341.354" filterUnits="userSpaceOnUse" color-interpolation-filters="sRGB"><feFlood flood-opacity="0" result="BackgroundImageFix"/><feColorMatrix in="SourceAlpha" values="0 0 0 0 0 0 0 0 0 0 0 0 0 0 0 0 0 0 127 0"/><feOffset dy="8.516"/><feGaussianBlur stdDeviation="8.516"/><feColorMatrix values="0 0 0 0 0.845833 0 0 0 0 0.449341 0 0 0 0 0.0563889 0 0 0 0.4 0"/><feBlend in2="BackgroundImageFix" result="effect1_dropShadow"/><feBlend in="SourceGraphic" in2="effect1_dropShadow" result="shape"/><feColorMatrix in="SourceAlpha" values="0 0 0 0 0 0 0 0 0 0 0 0 0 0 0 0 0 0 127 0" result="hardAlpha"/><feOffset dy="2.433"/><feGaussianBlur stdDeviation="14.6"/><feComposite in2="hardAlpha" operator="arithmetic" k2="-1" k3="1"/><feColorMatrix values="0 0 0 0 1 0 0 0 0 0.807333 0 0 0 0 0.433333 0 0 0 0.6 0"/><feBlend in2="shape" result="effect2_innerShadow"/></filter><filter id="d" x="15.726" y="184.007" width="91.247" height="38.932" filterUnits="userSpaceOnUse" color-interpolation-filters="sRGB"><feFlood flood-opacity="0" result="BackgroundImageFix"/><feColorMatrix in="SourceAlpha" values="0 0 0 0 0 0 0 0 0 0 0 0 0 0 0 0 0 0 127 0"/><feOffset dy="8.516"/><feGaussianBlur stdDeviation="8.516"/><feColorMatrix values="0 0 0 0 0.845833 0 0 0 0 0.449341 0 0 0 0 0.0563889 0 0 0 0.4 0"/><feBlend in2="BackgroundImageFix" result="effect1_dropShadow"/><feBlend in="SourceGraphic" in2="effect1_dropShadow" result="shape"/><feColorMatrix in="SourceAlpha" values="0 0 0 0 0 0 0 0 0 0 0 0 0 0 0 0 0 0 127 0" result="hardAlpha"/><feOffset dy="2.433"/><feGaussianBlur stdDeviation="14.6"/><feComposite in2="hardAlpha" operator="arithmetic" k2="-1" k3="1"/><feColorMatrix values="0 0 0 0 1 0 0 0 0 0.92775 0 0 0 0 0.7875 0 0 0 1 0"/><feBlend in2="shape" result="effect2_innerShadow"/></filter><filter id="f" x="168.805" y="241.042" width="66.871" height="86.019" filterUnits="userSpaceOnUse" color-interpolation-filters="sRGB"><feFlood flood-opacity="0" result="BackgroundImageFix"/><feColorMatrix in="SourceAlpha" values="0 0 0 0 0 0 0 0 0 0 0 0 0 0 0 0 0 0 127 0"/><feOffset dy="8.516"/><feGaussianBlur stdDeviation="8.516"/><feColorMatrix values="0 0 0 0 0.845833 0 0 0 0 0.449341 0 0 0 0 0.0563889 0 0 0 0.4 0"/><feBlend in2="BackgroundImageFix" result="effect1_dropShadow"/><feBlend in="SourceGraphic" in2="effect1_dropShadow" result="shape"/><feColorMatrix in="SourceAlpha" values="0 0 0 0 0 0 0 0 0 0 0 0 0 0 0 0 0 0 127 0" result="hardAlpha"/><feOffset dy="2.433"/><feGaussianBlur stdDeviation="14.6"/><feComposite in2="hardAlpha" operator="arithmetic" k2="-1" k3="1"/><feColorMatrix values="0 0 0 0 1 0 0 0 0 0.92775 0 0 0 0 0.7875 0 0 0 1 0"/><feBlend in2="shape" result="effect2_innerShadow"/></filter><filter id="h" x="48.528" y="18.53" width="276.857" height="259.493" filterUnits="userSpaceOnUse" color-interpolation-filters="sRGB"><feFlood flood-opacity="0" result="BackgroundImageFix"/><feColorMatrix in="SourceAlpha" values="0 0 0 0 0 0 0 0 0 0 0 0 0 0 0 0 0 0 127 0"/><feOffset dy="8.516"/><feGaussianBlur stdDeviation="8.516"/><feColorMatrix values="0 0 0 0 0.845833 0 0 0 0 0.449341 0 0 0 0 0.0563889 0 0 0 0.4 0"/><feBlend in2="BackgroundImageFix" result="effect1_dropShadow"/><feBlend in="SourceGraphic" in2="effect1_dropShadow" result="shape"/><feColorMatrix in="SourceAlpha" values="0 0 0 0 0 0 0 0 0 0 0 0 0 0 0 0 0 0 127 0" result="hardAlpha"/><feOffset dy="2.433"/><feGaussianBlur stdDeviation="14.6"/><feComposite in2="hardAlpha" operator="arithmetic" k2="-1" k3="1"/><feColorMatrix values="0 0 0 0 1 0 0 0 0 0.92775 0 0 0 0 0.7875 0 0 0 1 0"/><feBlend in2="shape" result="effect2_innerShadow"/></filter><linearGradient id="a" x1="229.058" y1="66.838" x2="118.954" y2="257.544" gradientUnits="userSpaceOnUse"><stop stop-color="#FFA800"/><stop offset="1" stop-color="#F00"/></linearGradient><linearGradient id="c" x1="61.349" y1="192.523" x2="61.349" y2="197.39" gradientUnits="userSpaceOnUse"><stop stop-color="#FFD600"/><stop offset="1" stop-color="#FF6B00"/></linearGradient><linearGradient id="e" x1="28.591" x2="28.591" y2="4.867" gradientUnits="userSpaceOnUse"><stop stop-color="#FFD600"/><stop offset="1" stop-color="#FF6B00"/></linearGradient><linearGradient id="g" x1="229.058" y1="66.838" x2="118.954" y2="257.544" gradientUnits="userSpaceOnUse"><stop stop-color="#FFD600"/><stop offset="1" stop-color="#FF6B00"/></linearGradient></defs></svg>