<svg width="655" height="611" viewBox="0 0 655 611" fill="none" xmlns="http://www.w3.org/2000/svg"><g clip-path="url(#a)"><g opacity=".1" fill="#000"><path d="M75.408 302.211l.966-.259 75.575 282.05-.966.26zm26.214-56.719l.966-.259 94.21 351.597-.966.259zm24.144-64.443l.966-.259 116.986 436.6-.966.258zm75.906 128.74l.966-.259 75.575 282.05-.966.26zm28.284-48.99l.966-.259 75.575 282.05-.966.26zm26.214-56.717l.966-.259 94.21 351.597-.966.259zm61.413 74.648l.966-.259 75.575 282.05-.966.26zm1.367-149.445l.966-.259 116.986 436.599-.966.258zm65.555 90.104l.966-.259 75.575 282.05-.966.26zm26.214-56.719l.966-.259 75.575 282.05-.966.26zm51.059 36.012l.966-.259 75.575 282.05-.966.26zm38.638-10.352l.966-.259 75.575 282.05-.966.26zm15.86-95.355l.966-.259 106.633 397.962-.965.258zm53.131 43.74l.966-.259 106.633 397.962-.966.258zm24.143-64.446l.967-.259L701.15 469.972l-.966.258zm53.132 43.741l.966-.259L754.28 513.713l-.966.258z"/><path d="M639.167 128.324l.262.978-515.15 138.035-.262-.979zm95.177 16.459l.262.978-642.173 172.07-.263-.978zm109.295 12.678l.262.978L46.476 372.11l-.262-.979zM600.072 264.686l.262.978L85.184 403.7l-.262-.979zm81.084 20.236l.262.978-515.15 138.035-.262-.979zm95.151 16.467l.262.978-642.173 172.07-.263-.978zm-144.763 80.752l.262.978-515.15 138.035-.262-.979zm264.547-28.924l.262.978-797.425 213.67-.262-.979zm-172.973 88.31l.262.978L208.23 580.54l-.262-.979zm95.151 16.467l.262.978-515.15 138.035-.262-.979zM744.1 519.83l.262.978-515.15 138.035-.262-.979zm10.49 39.152l.262.978-515.15 138.035-.262-.979z"/></g><rect x="81.002" y="417.889" width="204" height="364" rx="40" transform="rotate(-15 81.002 417.889)" fill="url(#b)" fill-opacity=".1"/><path d="M277.913 356.844c-9.761-36.427-14.641-54.641-6.357-68.989 8.284-14.349 26.498-19.23 62.925-28.99l42.501-11.388c36.427-9.761 54.641-14.641 68.99-6.357 14.348 8.284 19.229 26.498 28.989 62.925l73.505 274.323c9.761 36.428 14.641 54.641 6.357 68.99-8.284 14.349-26.498 19.229-62.926 28.99l-42.5 11.388c-36.428 9.761-54.641 14.641-68.99 6.357-14.349-8.285-19.229-26.498-28.99-62.926l-73.504-274.323z" fill="url(#c)" fill-opacity=".1"/><path d="M449.976 203.073c-9.761-36.427-14.641-54.641-6.357-68.99 8.285-14.349 26.498-19.229 62.926-28.99l42.5-11.388c36.428-9.76 54.641-14.64 68.99-6.356 14.349 8.284 19.229 26.497 28.99 62.925L749.517 532.78c9.761 36.428 14.641 54.641 6.357 68.99-8.284 14.349-26.498 19.229-62.925 28.99l-42.501 11.388c-36.427 9.761-54.641 14.641-68.99 6.357-14.349-8.284-19.229-26.498-28.99-62.925L449.976 203.073z" fill="url(#d)" fill-opacity=".1"/><path d="M93.453 522.361a3.499 3.499 0 1 0 3.094 6.278l-3.094-6.278zm54.697-23.056l1.547 3.139-1.547-3.139zm35.267-12.009l-.69-3.431.69 3.431zm17.914-3.603l-.69-3.431.69 3.431zm134.673-105.049l1.479 3.173v-.001l-1.479-3.172zm22.446-10.466l-1.479-3.172 1.479 3.172zm54.16-43.864l-2.795-2.106 2.795 2.106zM447.5 278l-2.793-2.11-.003.004L447.5 278zm24.243-32.093l2.793 2.11-2.793-2.11zm73.12-51.009l-1.015-3.35 1.015 3.35zm23.967-7.267l-1.015-3.349 1.015 3.349zm46.017-23.667l-2.134-2.774 2.134 2.774zm26.787-16.19a3.5 3.5 0 1 0-4.268-5.548l4.268 5.548zM282.577 426.6l2.994 1.812-2.994-1.812zM96.547 528.639l53.15-26.195-3.095-6.279-53.15 26.196 3.095 6.278zm87.56-37.912l17.914-3.602-1.38-6.863-17.914 3.603 1.38 6.862zm153.376-108.911l22.446-10.466-2.958-6.344-22.447 10.466 2.959 6.344zm77.923-55.396l34.89-46.314-5.592-4.212-34.889 46.314 5.591 4.212zm34.887-46.31l24.243-32.093-5.586-4.22-24.243 32.093 5.586 4.22zm95.586-81.863l23.967-7.266-2.031-6.699-23.967 7.266 2.031 6.699zm71.102-31.509l24.653-18.964-4.268-5.548-24.653 18.964 4.268 5.548zm-47.135 24.243a147.514 147.514 0 0 0 47.135-24.243l-4.268-5.548a140.51 140.51 0 0 1-44.898 23.092l2.031 6.699zM359.929 371.35a147.51 147.51 0 0 0 55.477-44.93l-5.591-4.212a140.506 140.506 0 0 1-52.844 42.798l2.958 6.344zm-74.358 57.062a119.891 119.891 0 0 1 51.912-46.595l-2.959-6.345a126.902 126.902 0 0 0-54.942 49.316l5.989 3.624zm-83.55 58.713a126.902 126.902 0 0 0 83.55-58.713l-5.989-3.624a119.898 119.898 0 0 1-78.941 55.474l1.38 6.863zm272.515-239.108a140.496 140.496 0 0 1 71.343-49.77l-2.031-6.699a147.5 147.5 0 0 0-74.898 52.249l5.586 4.22zM149.697 502.444a140.54 140.54 0 0 1 34.41-11.717l-1.38-6.862a147.472 147.472 0 0 0-36.125 12.3l3.095 6.279z" fill="#0A9DDC"/><path opacity=".3" d="M94.779 525.052a.5.5 0 1 0 .442.896l-.442-.896zm53.371-25.747l.221.448-.221-.448zm35.267-12.009l-.099-.49.099.49zm17.914-3.603l-.099-.49.099.49zm134.673-105.049l.211.454-.211-.454zm22.446-10.466l-.212-.453.212.453zm54.16-43.864l-.399-.301.399.301zM447.5 278l-.399-.301.399.301zm24.243-32.093l.399.301-.399-.301zm73.12-51.009l-.145-.479.145.479zm23.967-7.267l-.145-.478.145.478zm46.017-23.667l-.305-.397.305.397zm24.958-18.568a.499.499 0 1 0-.61-.792l.61.792zM282.577 426.6l.427.258-.427-.258zM95.221 525.948l53.15-26.195-.442-.897-53.15 26.196.442.896zm88.294-38.162l17.914-3.603-.197-.98-17.914 3.603.197.98zm152.7-108.688l22.446-10.467-.423-.906-22.446 10.466.423.907zm76.794-54.483l34.89-46.314-.798-.602-34.89 46.314.798.602zm34.89-46.314l24.243-32.093-.798-.602-24.243 32.093.798.602zm97.109-82.925l23.967-7.266-.29-.957-23.967 7.266.29.957zm70.144-31.016l24.653-18.964-.61-.792-24.653 18.963.61.793zm-46.177 23.75a144.516 144.516 0 0 0 46.177-23.75l-.61-.793a143.474 143.474 0 0 1-45.857 23.586l.29.957zM358.661 368.631a144.487 144.487 0 0 0 54.348-44.016l-.798-.602a143.506 143.506 0 0 1-53.973 43.712l.423.906zm-75.657 58.227a122.899 122.899 0 0 1 53.211-47.76l-.423-.907a123.899 123.899 0 0 0-53.643 48.15l.855.517zm-81.575 57.325a123.893 123.893 0 0 0 81.575-57.325l-.855-.517a122.902 122.902 0 0 1-80.917 56.862l.197.98zm270.713-237.975a143.505 143.505 0 0 1 72.866-50.832l-.29-.957a144.499 144.499 0 0 0-73.374 51.187l.798.602zM148.371 499.753a143.528 143.528 0 0 1 35.144-11.967l-.197-.98a144.498 144.498 0 0 0-35.389 12.05l.442.897z" fill="#000"/><path d="M304.004 314.644l.423.907-.423-.907zm22.446-10.466l-.422-.906.422.906zm54.161-43.864l-.799-.602.799.602zm35.88-46.453a1 1 0 0 0-1.13-.851l-8.912 1.254a1 1 0 1 0 .279 1.98l7.921-1.114 1.115 7.922a1 1 0 0 0 1.98-.279l-1.253-8.912zM249.722 362.082a1 1 0 1 0 1.711 1.035l-1.711-1.035zm54.705-46.531l22.446-10.467-.845-1.812-22.447 10.466.846 1.813zm76.982-54.635l34.89-46.314-1.597-1.204-34.89 46.314 1.597 1.204zm-54.536 44.168a145 145 0 0 0 54.536-44.168l-1.597-1.204a143.004 143.004 0 0 1-53.784 43.56l.845 1.812zm-75.44 58.033a122.396 122.396 0 0 1 52.994-47.566l-.846-1.813a124.4 124.4 0 0 0-53.859 48.344l1.711 1.035z" fill="#F70"/><circle cx="167" cy="492" r="10" stroke="url(#e)" stroke-width="4" filter="url(#f)"/><circle cx="308" cy="397" r="10" stroke="url(#g)" stroke-width="4" filter="url(#h)"/><circle cx="447" cy="278" r="10" stroke="url(#i)" stroke-width="4" filter="url(#j)"/><circle cx="569" cy="187" r="10" stroke="url(#k)" stroke-width="4" filter="url(#l)"/><circle cx="167" cy="492" r="5" fill="#3C3C3C" stroke="#29D3FF" stroke-width="2"/><circle cx="308" cy="397" r="5" fill="#3C3C3C" stroke="#29D3FF" stroke-width="2"/><circle cx="447" cy="278" r="5" fill="#3C3C3C" stroke="#29D3FF" stroke-width="2"/><circle cx="569" cy="187" r="5" fill="#3C3C3C" stroke="#29D3FF" stroke-width="2"/><g filter="url(#m)"><path d="M423.755 181.435a1.28 1.28 0 0 0 1.81 0l3.62-3.62a1.28 1.28 0 0 0 0-1.81l-18.1-18.1a1.28 1.28 0 0 0-1.81 0l-3.62 3.62a1.28 1.28 0 0 0 0 1.81 1.28 1.28 0 0 1-1.81 1.81 1.28 1.28 0 0 0-1.81 0l-3.62 3.62a1.28 1.28 0 0 0 0 1.81l18.1 18.1a1.28 1.28 0 0 0 1.81 0l3.62-3.62a1.28 1.28 0 0 0 0-1.81 1.28 1.28 0 0 1 1.81-1.81zm.75-2.56a3.84 3.84 0 0 0-5.121 5.12l-1.964 1.965-4.525-4.525.905-.905-1.81-1.81-.905.905-9.955-9.955 1.964-1.965a3.84 3.84 0 0 0 5.121-5.12l1.965-1.965 16.29 16.29-1.965 1.965z" fill="url(#n)"/><path d="M421.04 173.29l-1.81-1.81-1.81 1.81 1.81 1.81 1.81-1.81z" fill="url(#o)"/><path d="M417.42 176.91l-1.81-1.81-1.81 1.81 1.81 1.81 1.81-1.81z" fill="url(#p)"/></g><g filter="url(#q)"><path d="M273.502 250.568l14.757 25.561a1.957 1.957 0 0 0 2.674.716l13.561-7.829a1.956 1.956 0 0 0 .716-2.674l-7.848-13.593a10.347 10.347 0 0 0 3.307-13.845l-1.663-2.882 3.093-1.786 43.43-7.671.294.508a5.869 5.869 0 0 0 8.021 2.15 5.873 5.873 0 0 0 2.149-8.022l-10.863-18.815a9.791 9.791 0 0 0 1.993-12.226 9.78 9.78 0 0 0-11.584-4.386l-10.863-18.816a5.87 5.87 0 0 0-10.757 1.416 5.867 5.867 0 0 0 .586 4.456l.349.603-26.526 37.111-26.755 15.448a13.7 13.7 0 0 0 1.941 24.579 13.699 13.699 0 0 0 9.988-.003zm64.077-61.262a5.832 5.832 0 0 1 6.147 2.815 5.837 5.837 0 0 1-.636 6.732l-5.511-9.547zm-19.684-18.433a1.959 1.959 0 0 1 3.391-1.958l31.317 54.244a1.956 1.956 0 0 1-2.202 2.869 1.953 1.953 0 0 1-1.188-.912l-31.318-54.243zm-25.896 41.268l25.005-34.984 26.442 45.801-41.019 7.246-10.428-18.063zm8.842 54.463l-10.17 5.872-1.958-3.39 3.391-1.957-1.958-3.391-3.39 1.958-1.957-3.391 3.39-1.957-1.957-3.39-3.391 1.957-1.957-3.39 3.39-1.957-1.957-3.391-3.39 1.958-1.958-3.39 10.171-5.872 13.701 23.731zm-3.562-25.743a6.394 6.394 0 0 1-1.889 8.472l-4.86-8.418 5.086-2.936 1.663 2.882zm-38.307-5.536a9.717 9.717 0 0 1 4.558-5.943l25.427-14.68 9.787 16.951-25.427 14.68a9.788 9.788 0 0 1-14.345-11.008z" fill="url(#r)"/><path d="M278.14 239.028a5.871 5.871 0 1 0-5.872-10.169 5.871 5.871 0 0 0 5.872 10.169zm-3.915-6.78a1.956 1.956 0 0 1 2.869 2.202 1.96 1.96 0 0 1-2.756 1.249 1.97 1.97 0 0 1-.83-.777 1.963 1.963 0 0 1-.195-1.486c.134-.501.462-.929.912-1.188z" fill="url(#s)"/><path d="M335.905 147.919a1.952 1.952 0 0 0-1.495-.099 1.969 1.969 0 0 0-1.127.987l-6.256 12.653a1.955 1.955 0 0 0 .888 2.622 1.955 1.955 0 0 0 2.622-.888l6.256-12.652a1.944 1.944 0 0 0 .099-1.495 1.947 1.947 0 0 0-.987-1.128z" fill="url(#t)"/><path d="M346.463 170.245l-7.497 6.589a1.954 1.954 0 0 0-.292 2.61 1.956 1.956 0 0 0 2.888.321l7.497-6.589a1.958 1.958 0 0 0-2.583-2.938l-.013.007z" fill="url(#u)"/><path d="M362.799 196.976l-9.454 3.198a1.956 1.956 0 0 0-1.389 1.728 1.974 1.974 0 0 0 .49 1.448 1.97 1.97 0 0 0 1.382.654c.263.011.525-.031.771-.124l9.454-3.198a1.952 1.952 0 0 0 1.23-1.248 1.956 1.956 0 0 0-2.484-2.458z" fill="url(#v)"/><path d="M374.067 215.524l-13.107.787a1.957 1.957 0 0 0-1.18 3.42c.388.345.898.52 1.416.489l13.107-.787a1.954 1.954 0 0 0 1.836-2.072 1.938 1.938 0 0 0-.194-.739 1.94 1.94 0 0 0-1.121-.994 1.97 1.97 0 0 0-.757-.104z" fill="url(#w)"/></g><g filter="url(#x)"><path d="M222.493 294.426a1.49 1.49 0 0 0 1.056-.438l13.439-13.439a1.491 1.491 0 0 0-.018-2.093 1.495 1.495 0 0 0-2.093-.018l-13.44 13.439a1.488 1.488 0 0 0-.323 1.627 1.489 1.489 0 0 0 1.379.922z" fill="url(#y)"/><path d="M234.44 294.426a2.986 2.986 0 1 0 0-5.973 2.986 2.986 0 0 0 0 5.973z" fill="url(#z)"/><path d="M223.987 283.973a2.986 2.986 0 1 0 0-5.972 2.986 2.986 0 0 0 0 5.972z" fill="url(#A)"/></g><g filter="url(#B)"><path d="M325.189 332.193a3.055 3.055 0 0 0 3.063-3.048 3.056 3.056 0 0 0-3.063-3.048 3.056 3.056 0 0 0-3.063 3.048 3.055 3.055 0 0 0 3.063 3.048z" fill="url(#C)"/><path d="M329.783 320h-12.252c-.406 0-.795.161-1.082.446a1.519 1.519 0 0 0-.449 1.078l.032 12.162c.003.4.163.783.447 1.067l13.784 13.717a1.529 1.529 0 0 0 1.083.447 1.532 1.532 0 0 0 1.084-.447l12.22-12.163a1.52 1.52 0 0 0 0-2.155l-13.784-13.718a1.537 1.537 0 0 0-1.083-.434zm1.564 25.248l-12.252-12.193-.032-10.007h10.082l12.252 12.194-10.05 10.006z" fill="url(#D)"/></g></g><defs><filter id="f" x="148" y="479" width="38" height="39" filterUnits="userSpaceOnUse" color-interpolation-filters="sRGB"><feFlood flood-opacity="0" result="BackgroundImageFix"/><feColorMatrix in="SourceAlpha" values="0 0 0 0 0 0 0 0 0 0 0 0 0 0 0 0 0 0 127 0"/><feOffset dy="7"/><feGaussianBlur stdDeviation="3.5"/><feColorMatrix values="0 0 0 0 0 0 0 0 0 0 0 0 0 0 0 0 0 0 0.2 0"/><feBlend in2="BackgroundImageFix" result="effect1_dropShadow"/><feBlend in="SourceGraphic" in2="effect1_dropShadow" result="shape"/><feColorMatrix in="SourceAlpha" values="0 0 0 0 0 0 0 0 0 0 0 0 0 0 0 0 0 0 127 0" result="hardAlpha"/><feOffset dy="-1"/><feGaussianBlur stdDeviation=".5"/><feComposite in2="hardAlpha" operator="arithmetic" k2="-1" k3="1"/><feColorMatrix values="0 0 0 0 0.433333 0 0 0 0 0.83 0 0 0 0 1 0 0 0 1 0"/><feBlend in2="shape" result="effect2_innerShadow"/></filter><filter id="h" x="289" y="384" width="38" height="39" filterUnits="userSpaceOnUse" color-interpolation-filters="sRGB"><feFlood flood-opacity="0" result="BackgroundImageFix"/><feColorMatrix in="SourceAlpha" values="0 0 0 0 0 0 0 0 0 0 0 0 0 0 0 0 0 0 127 0"/><feOffset dy="7"/><feGaussianBlur stdDeviation="3.5"/><feColorMatrix values="0 0 0 0 0 0 0 0 0 0 0 0 0 0 0 0 0 0 0.2 0"/><feBlend in2="BackgroundImageFix" result="effect1_dropShadow"/><feBlend in="SourceGraphic" in2="effect1_dropShadow" result="shape"/><feColorMatrix in="SourceAlpha" values="0 0 0 0 0 0 0 0 0 0 0 0 0 0 0 0 0 0 127 0" result="hardAlpha"/><feOffset dy="-1"/><feGaussianBlur stdDeviation=".5"/><feComposite in2="hardAlpha" operator="arithmetic" k2="-1" k3="1"/><feColorMatrix values="0 0 0 0 0.433333 0 0 0 0 0.83 0 0 0 0 1 0 0 0 1 0"/><feBlend in2="shape" result="effect2_innerShadow"/></filter><filter id="j" x="428" y="265" width="38" height="39" filterUnits="userSpaceOnUse" color-interpolation-filters="sRGB"><feFlood flood-opacity="0" result="BackgroundImageFix"/><feColorMatrix in="SourceAlpha" values="0 0 0 0 0 0 0 0 0 0 0 0 0 0 0 0 0 0 127 0"/><feOffset dy="7"/><feGaussianBlur stdDeviation="3.5"/><feColorMatrix values="0 0 0 0 0 0 0 0 0 0 0 0 0 0 0 0 0 0 0.2 0"/><feBlend in2="BackgroundImageFix" result="effect1_dropShadow"/><feBlend in="SourceGraphic" in2="effect1_dropShadow" result="shape"/><feColorMatrix in="SourceAlpha" values="0 0 0 0 0 0 0 0 0 0 0 0 0 0 0 0 0 0 127 0" result="hardAlpha"/><feOffset dy="-1"/><feGaussianBlur stdDeviation=".5"/><feComposite in2="hardAlpha" operator="arithmetic" k2="-1" k3="1"/><feColorMatrix values="0 0 0 0 0.433333 0 0 0 0 0.83 0 0 0 0 1 0 0 0 1 0"/><feBlend in2="shape" result="effect2_innerShadow"/></filter><filter id="l" x="550" y="174" width="38" height="39" filterUnits="userSpaceOnUse" color-interpolation-filters="sRGB"><feFlood flood-opacity="0" result="BackgroundImageFix"/><feColorMatrix in="SourceAlpha" values="0 0 0 0 0 0 0 0 0 0 0 0 0 0 0 0 0 0 127 0"/><feOffset dy="7"/><feGaussianBlur stdDeviation="3.5"/><feColorMatrix values="0 0 0 0 0 0 0 0 0 0 0 0 0 0 0 0 0 0 0.2 0"/><feBlend in2="BackgroundImageFix" result="effect1_dropShadow"/><feBlend in="SourceGraphic" in2="effect1_dropShadow" result="shape"/><feColorMatrix in="SourceAlpha" values="0 0 0 0 0 0 0 0 0 0 0 0 0 0 0 0 0 0 127 0" result="hardAlpha"/><feOffset dy="-1"/><feGaussianBlur stdDeviation=".5"/><feComposite in2="hardAlpha" operator="arithmetic" k2="-1" k3="1"/><feColorMatrix values="0 0 0 0 0.433333 0 0 0 0 0.83 0 0 0 0 1 0 0 0 1 0"/><feBlend in2="shape" result="effect2_innerShadow"/></filter><filter id="m" x="391.04" y="156.529" width="45.52" height="46.52" filterUnits="userSpaceOnUse" color-interpolation-filters="sRGB"><feFlood flood-opacity="0" result="BackgroundImageFix"/><feColorMatrix in="SourceAlpha" values="0 0 0 0 0 0 0 0 0 0 0 0 0 0 0 0 0 0 127 0"/><feOffset dy="7"/><feGaussianBlur stdDeviation="3.5"/><feColorMatrix values="0 0 0 0 0 0 0 0 0 0 0 0 0 0 0 0 0 0 0.2 0"/><feBlend in2="BackgroundImageFix" result="effect1_dropShadow"/><feBlend in="SourceGraphic" in2="effect1_dropShadow" result="shape"/><feColorMatrix in="SourceAlpha" values="0 0 0 0 0 0 0 0 0 0 0 0 0 0 0 0 0 0 127 0" result="hardAlpha"/><feOffset dy="-1"/><feGaussianBlur stdDeviation=".5"/><feComposite in2="hardAlpha" operator="arithmetic" k2="-1" k3="1"/><feColorMatrix values="0 0 0 0 0.433333 0 0 0 0 0.83 0 0 0 0 1 0 0 0 1 0"/><feBlend in2="shape" result="effect2_innerShadow"/></filter><filter id="q" x="247.803" y="146.717" width="135.34" height="144.391" filterUnits="userSpaceOnUse" color-interpolation-filters="sRGB"><feFlood flood-opacity="0" result="BackgroundImageFix"/><feColorMatrix in="SourceAlpha" values="0 0 0 0 0 0 0 0 0 0 0 0 0 0 0 0 0 0 127 0"/><feOffset dy="7"/><feGaussianBlur stdDeviation="3.5"/><feColorMatrix values="0 0 0 0 0 0 0 0 0 0 0 0 0 0 0 0 0 0 0.2 0"/><feBlend in2="BackgroundImageFix" result="effect1_dropShadow"/><feBlend in="SourceGraphic" in2="effect1_dropShadow" result="shape"/><feColorMatrix in="SourceAlpha" values="0 0 0 0 0 0 0 0 0 0 0 0 0 0 0 0 0 0 127 0" result="hardAlpha"/><feOffset dy="-1"/><feGaussianBlur stdDeviation=".5"/><feComposite in2="hardAlpha" operator="arithmetic" k2="-1" k3="1"/><feColorMatrix values="0 0 0 0 0.433333 0 0 0 0 0.83 0 0 0 0 1 0 0 0 1 0"/><feBlend in2="shape" result="effect2_innerShadow"/></filter><filter id="x" x="214" y="277" width="30.426" height="31.426" filterUnits="userSpaceOnUse" color-interpolation-filters="sRGB"><feFlood flood-opacity="0" result="BackgroundImageFix"/><feColorMatrix in="SourceAlpha" values="0 0 0 0 0 0 0 0 0 0 0 0 0 0 0 0 0 0 127 0"/><feOffset dy="7"/><feGaussianBlur stdDeviation="3.5"/><feColorMatrix values="0 0 0 0 0 0 0 0 0 0 0 0 0 0 0 0 0 0 0.2 0"/><feBlend in2="BackgroundImageFix" result="effect1_dropShadow"/><feBlend in="SourceGraphic" in2="effect1_dropShadow" result="shape"/><feColorMatrix in="SourceAlpha" values="0 0 0 0 0 0 0 0 0 0 0 0 0 0 0 0 0 0 127 0" result="hardAlpha"/><feOffset dy="-1"/><feGaussianBlur stdDeviation=".5"/><feComposite in2="hardAlpha" operator="arithmetic" k2="-1" k3="1"/><feColorMatrix values="0 0 0 0 0.433333 0 0 0 0 0.83 0 0 0 0 1 0 0 0 1 0"/><feBlend in2="shape" result="effect2_innerShadow"/></filter><filter id="B" x="309" y="319" width="43.098" height="43.917" filterUnits="userSpaceOnUse" color-interpolation-filters="sRGB"><feFlood flood-opacity="0" result="BackgroundImageFix"/><feColorMatrix in="SourceAlpha" values="0 0 0 0 0 0 0 0 0 0 0 0 0 0 0 0 0 0 127 0"/><feOffset dy="7"/><feGaussianBlur stdDeviation="3.5"/><feColorMatrix values="0 0 0 0 0 0 0 0 0 0 0 0 0 0 0 0 0 0 0.2 0"/><feBlend in2="BackgroundImageFix" result="effect1_dropShadow"/><feBlend in="SourceGraphic" in2="effect1_dropShadow" result="shape"/><feColorMatrix in="SourceAlpha" values="0 0 0 0 0 0 0 0 0 0 0 0 0 0 0 0 0 0 127 0" result="hardAlpha"/><feOffset dy="-1"/><feGaussianBlur stdDeviation=".5"/><feComposite in2="hardAlpha" operator="arithmetic" k2="-1" k3="1"/><feColorMatrix values="0 0 0 0 0.433333 0 0 0 0 0.83 0 0 0 0 1 0 0 0 1 0"/><feBlend in2="shape" result="effect2_innerShadow"/></filter><linearGradient id="b" x1="183.002" y1="417.889" x2="183.002" y2="781.889" gradientUnits="userSpaceOnUse"><stop/><stop offset="1" stop-color="#fff" stop-opacity=".7"/></linearGradient><linearGradient id="c" x1="355.731" y1="253.171" x2="470.647" y2="682.042" gradientUnits="userSpaceOnUse"><stop/><stop offset="1" stop-color="#fff" stop-opacity="0"/></linearGradient><linearGradient id="d" x1="527.795" y1="99.399" x2="671.698" y2="636.454" gradientUnits="userSpaceOnUse"><stop/><stop offset="1" stop-color="#fff" stop-opacity=".7"/></linearGradient><linearGradient id="e" x1="167" y1="480" x2="167" y2="504" gradientUnits="userSpaceOnUse"><stop stop-color="#fff"/><stop offset="1" stop-color="#DCFBFF"/></linearGradient><linearGradient id="g" x1="308" y1="385" x2="308" y2="409" gradientUnits="userSpaceOnUse"><stop stop-color="#fff"/><stop offset="1" stop-color="#DCFBFF"/></linearGradient><linearGradient id="i" x1="447" y1="266" x2="447" y2="290" gradientUnits="userSpaceOnUse"><stop stop-color="#fff"/><stop offset="1" stop-color="#DCFBFF"/></linearGradient><linearGradient id="k" x1="569" y1="175" x2="569" y2="199" gradientUnits="userSpaceOnUse"><stop stop-color="#fff"/><stop offset="1" stop-color="#DCFBFF"/></linearGradient><linearGradient id="n" x1="420.135" y1="166.955" x2="407.465" y2="179.625" gradientUnits="userSpaceOnUse"><stop stop-color="#fff"/><stop offset="1" stop-color="#DCFBFF"/></linearGradient><linearGradient id="o" x1="420.135" y1="166.955" x2="407.465" y2="179.625" gradientUnits="userSpaceOnUse"><stop stop-color="#fff"/><stop offset="1" stop-color="#DCFBFF"/></linearGradient><linearGradient id="p" x1="420.135" y1="166.955" x2="407.465" y2="179.625" gradientUnits="userSpaceOnUse"><stop stop-color="#fff"/><stop offset="1" stop-color="#DCFBFF"/></linearGradient><linearGradient id="r" x1="284.942" y1="176.337" x2="329.961" y2="254.312" gradientUnits="userSpaceOnUse"><stop stop-color="#fff"/><stop offset="1" stop-color="#DCFBFF"/></linearGradient><linearGradient id="s" x1="284.942" y1="176.337" x2="329.961" y2="254.312" gradientUnits="userSpaceOnUse"><stop stop-color="#fff"/><stop offset="1" stop-color="#DCFBFF"/></linearGradient><linearGradient id="t" x1="284.942" y1="176.337" x2="329.961" y2="254.312" gradientUnits="userSpaceOnUse"><stop stop-color="#fff"/><stop offset="1" stop-color="#DCFBFF"/></linearGradient><linearGradient id="u" x1="284.942" y1="176.337" x2="329.961" y2="254.312" gradientUnits="userSpaceOnUse"><stop stop-color="#fff"/><stop offset="1" stop-color="#DCFBFF"/></linearGradient><linearGradient id="v" x1="284.942" y1="176.337" x2="329.961" y2="254.312" gradientUnits="userSpaceOnUse"><stop stop-color="#fff"/><stop offset="1" stop-color="#DCFBFF"/></linearGradient><linearGradient id="w" x1="284.942" y1="176.337" x2="329.961" y2="254.312" gradientUnits="userSpaceOnUse"><stop stop-color="#fff"/><stop offset="1" stop-color="#DCFBFF"/></linearGradient><linearGradient id="y" x1="229.213" y1="278" x2="229.213" y2="294.426" gradientUnits="userSpaceOnUse"><stop stop-color="#fff"/><stop offset="1" stop-color="#DCFBFF"/></linearGradient><linearGradient id="z" x1="229.213" y1="278" x2="229.213" y2="294.426" gradientUnits="userSpaceOnUse"><stop stop-color="#fff"/><stop offset="1" stop-color="#DCFBFF"/></linearGradient><linearGradient id="A" x1="229.213" y1="278" x2="229.213" y2="294.426" gradientUnits="userSpaceOnUse"><stop stop-color="#fff"/><stop offset="1" stop-color="#DCFBFF"/></linearGradient><linearGradient id="C" x1="330.549" y1="320" x2="330.549" y2="348.917" gradientUnits="userSpaceOnUse"><stop stop-color="#fff"/><stop offset="1" stop-color="#DCFBFF"/></linearGradient><linearGradient id="D" x1="330.549" y1="320" x2="330.549" y2="348.917" gradientUnits="userSpaceOnUse"><stop stop-color="#fff"/><stop offset="1" stop-color="#DCFBFF"/></linearGradient><clipPath id="a"><path fill="#fff" d="M0 0h655v611H0z"/></clipPath></defs></svg>