<svg width="20" height="21" viewBox="0 0 20 21" fill="none" xmlns="http://www.w3.org/2000/svg"><path d="M15.959 14.429l-2.937-.588a.672.672 0 0 1-.538-.658v-.674c.193-.269.374-.627.563-1.002.143-.283.36-.71.456-.81.57-.558 1.176-1.25 1.361-2.15.168-.817 0-1.241-.194-1.577 0-.656 0-1.858-.229-2.724-.022-1.046-.214-1.637-.696-2.163-.341-.368-.843-.454-1.246-.522-.16-.027-.379-.065-.456-.106-.696-.386-1.404-.576-2.27-.598C8.001.924 5.826 2.048 5.098 4.07c-.222.613-.2 1.62-.184 2.43l-.019.471c-.17.336-.338.76-.169 1.575.185.905.792 1.595 1.359 2.15.098.102.317.532.462.815.19.373.373.732.566 1v.673c0 .32-.227.596-.54.658l-2.936.588A4.037 4.037 0 0 0 .4 18.378v1.276c0 .74.603 1.343 1.343 1.343h16.112c.74 0 1.342-.603 1.342-1.343v-1.276a4.037 4.037 0 0 0-3.238-3.95z" fill="#fff"/></svg>