<svg width="20" height="21" viewBox="0 0 20 21" fill="none" xmlns="http://www.w3.org/2000/svg"><path d="M16.215 17.13l-1.746-3.032c-.348-.602-1.14-.798-1.763-.437l-1.525.883a34.624 34.624 0 0 1-.202-.196c-.647-.625-1.531-1.482-2.33-2.872-.803-1.393-1.1-2.59-1.319-3.465l-.067-.267 1.024-.592.503-.291c.625-.362.85-1.148.503-1.75L7.548 2.077c-.347-.602-1.139-.799-1.764-.437l-.854.498.013.023c-.303.228-.58.51-.817.832-.22.306-.388.61-.513.927-1.016 2.536-.463 5.25 1.907 9.365 3.276 5.689 6.977 6.317 7.137 6.342.35.05.697.056 1.061.016a4.01 4.01 0 0 0 1.123-.292l.011.017.86-.487c.625-.362.85-1.147.504-1.75z" fill="#fff"/></svg>