<svg width="24" height="19" viewBox="0 0 24 19" fill="none" xmlns="http://www.w3.org/2000/svg"><path d="M16.588 11.79a1 1 0 1 0 1.932.517l-1.932-.518zm-3.223-8.987l.442-.897-.442.897zM8.01 2.187l.227.974-.227-.974zm-6.179 8.052l-1 .033 1-.033zm1.23 5.673a1 1 0 0 0 1.503-1.319L3.06 15.912zm15.46-3.605a9 9 0 0 0-.496-6.044l-1.822.826a7 7 0 0 1 .385 4.7l1.932.518zm-.496-6.044a9 9 0 0 0-4.218-4.357L12.923 3.7a7 7 0 0 1 3.28 3.389l1.822-.826zm-4.218-4.357a9 9 0 0 0-6.024-.693l.454 1.948a7 7 0 0 1 4.686.539l.884-1.794zm-6.024-.693a9 9 0 0 0-5.096 3.286l1.586 1.217a7 7 0 0 1 3.964-2.555l-.454-1.948zM2.687 4.499a9 9 0 0 0-1.855 5.773l1.999-.065a7 7 0 0 1 1.442-4.49L2.687 4.498zM.832 10.272a9 9 0 0 0 2.228 5.64l1.504-1.319a7 7 0 0 1-1.733-4.386l-2 .065z" fill="#0A9DDC"/><path d="M12.428 9.344a1 1 0 0 0 0 1.414l5.07 5.071 5.072-5.071a1 1 0 1 0-1.414-1.414L17.499 13l-3.657-3.657a1 1 0 0 0-1.414 0z" fill="#0A9DDC"/></svg>