<svg width="48" height="48" viewBox="0 0 48 48" fill="none" xmlns="http://www.w3.org/2000/svg"><path d="M34.455 27.96L31.5 22.828c-.59-1.02-1.928-1.352-2.985-.74l-2.582 1.494c-.11-.105-.222-.215-.341-.331-1.094-1.059-2.591-2.508-3.945-4.861-1.358-2.358-1.862-4.386-2.23-5.866-.04-.157-.077-.308-.115-.452l1.733-1.001.852-.494c1.058-.613 1.439-1.942.852-2.963l-2.955-5.132c-.587-1.02-1.927-1.353-2.985-.74l-1.446.842.023.04a6.835 6.835 0 0 0-1.383 1.407 7.134 7.134 0 0 0-.868 1.57c-1.721 4.29-.786 8.883 3.226 15.85 5.545 9.629 11.809 10.692 12.08 10.735.592.085 1.18.095 1.797.027a6.79 6.79 0 0 0 1.9-.495l.019.03 1.456-.824c1.057-.613 1.438-1.942.852-2.964z" fill="url(#a)" filter="url(#b)"/><defs><filter id="b" x=".416" y=".416" width="47.17" height="47.17" filterUnits="userSpaceOnUse" color-interpolation-filters="sRGB"><feFlood flood-opacity="0" result="BackgroundImageFix"/><feColorMatrix in="SourceAlpha" values="0 0 0 0 0 0 0 0 0 0 0 0 0 0 0 0 0 0 127 0"/><feOffset dy="7"/><feGaussianBlur stdDeviation="3.5"/><feColorMatrix values="0 0 0 0 0 0 0 0 0 0 0 0 0 0 0 0 0 0 0.2 0"/><feBlend in2="BackgroundImageFix" result="effect1_dropShadow"/><feBlend in="SourceGraphic" in2="effect1_dropShadow" result="shape"/></filter><linearGradient id="a" x1="27.506" y1="3.921" x2="20.496" y2="30.081" gradientUnits="userSpaceOnUse"><stop stop-color="#fff"/><stop offset="1" stop-color="#DCFBFF"/></linearGradient></defs></svg>