<svg width="252" height="348" viewBox="0 0 252 348" fill="none" xmlns="http://www.w3.org/2000/svg"><path d="M15 14h219.003l.994 314H15V14z" stroke="#E8E8E8" stroke-width="2"/><path d="M16 18h215.021l.976 309H16V18z" stroke="#E8E8E8" stroke-width="2"/><path d="M14 11h167l57 57.561V331H14V11z" fill="url(#a)" filter="url(#b)"/><path d="M178 11v60h60v-2.5L181 11h-3z" fill="#DDFBFF"/><path d="M31 278.8c0-4.48 0-6.721.872-8.432a8.002 8.002 0 0 1 3.496-3.496C37.08 266 39.32 266 43.8 266h166.4c4.48 0 6.721 0 8.432.872a8.003 8.003 0 0 1 3.496 3.496c.872 1.711.872 3.952.872 8.432v23.4c0 4.48 0 6.721-.872 8.432a8.003 8.003 0 0 1-3.496 3.496c-1.711.872-3.952.872-8.432.872H43.8c-4.48 0-6.72 0-8.432-.872a8.002 8.002 0 0 1-3.496-3.496C31 308.921 31 306.68 31 302.2v-23.4z" fill="url(#c)" filter="url(#d)"/><path d="M65.426 286.813c-.826 0-1.47.34-1.934 1.02-.463.674-.694 1.605-.694 2.795 0 2.473.94 3.709 2.821 3.709.569 0 1.12-.079 1.653-.237a16.666 16.666 0 0 0 1.608-.572v2.936c-1.072.474-2.285.712-3.639.712-1.94 0-3.428-.563-4.465-1.688-1.03-1.125-1.547-2.751-1.547-4.878 0-1.33.25-2.499.748-3.506.504-1.008 1.224-1.782 2.162-2.321.943-.545 2.05-.817 3.322-.817 1.389 0 2.716.302 3.981.905l-1.063 2.733c-.475-.222-.95-.41-1.424-.562a4.986 4.986 0 0 0-1.53-.229zm12.735.229h3.797l-3.727 4.772L82.248 297h-3.929l-3.691-5.054V297H71.19v-9.958h3.437v4.825l3.533-4.825zM89.851 297l-.66-1.318h-.07c-.463.574-.934.966-1.415 1.177-.48.211-1.102.317-1.863.317-.938 0-1.676-.281-2.215-.844-.54-.562-.809-1.353-.809-2.373 0-1.061.37-1.849 1.108-2.364.738-.522 1.807-.815 3.208-.879l1.66-.053v-.141c0-.82-.403-1.23-1.212-1.23-.727 0-1.65.246-2.769.738l-.993-2.267c1.16-.598 2.625-.897 4.395-.897 1.277 0 2.265.317 2.962.949.703.633 1.054 1.518 1.054 2.655V297h-2.381zm-2.55-2.25c.417 0 .771-.132 1.064-.396.3-.263.449-.606.449-1.028v-.773l-.791.035c-1.131.041-1.697.457-1.697 1.248 0 .609.325.914.976.914zm10.275-7.708v3.498c0 .686.314 1.028.94 1.028.669 0 1.442-.146 2.321-.439v-4.087h3.436V297h-3.436v-3.621c-1.137.492-2.189.738-3.155.738-1.207 0-2.1-.275-2.681-.826-.574-.557-.861-1.415-.861-2.575v-3.674h3.436zM113.142 297l-.66-1.318h-.07c-.463.574-.934.966-1.415 1.177-.48.211-1.101.317-1.863.317-.938 0-1.676-.281-2.215-.844-.539-.562-.809-1.353-.809-2.373 0-1.061.369-1.849 1.108-2.364.738-.522 1.807-.815 3.208-.879l1.661-.053v-.141c0-.82-.404-1.23-1.213-1.23-.727 0-1.649.246-2.769.738l-.993-2.267c1.16-.598 2.625-.897 4.395-.897 1.277 0 2.264.317 2.962.949.703.633 1.054 1.518 1.054 2.655V297h-2.381zm-2.549-2.25c.416 0 .77-.132 1.063-.396.299-.263.448-.606.448-1.028v-.773l-.791.035c-1.13.041-1.696.457-1.696 1.248 0 .609.325.914.976.914zm16.506-5.15h-3.279v7.4h-3.436v-7.4h-3.279v-2.558h9.994v2.558zm5.062-2.558v3.586h.325c1.729 0 2.98.24 3.753.721.774.48 1.16 1.265 1.16 2.355 0 1.143-.372 1.978-1.116 2.505-.744.527-1.872.791-3.384.791h-4.174v-9.958h3.436zm1.802 6.812c0-.346-.097-.595-.29-.748-.194-.152-.516-.228-.967-.228h-.545v1.872h.58c.815 0 1.222-.299 1.222-.896zm19.635-4.237c0 .58-.17 1.061-.51 1.442-.34.38-.806.621-1.398.72v.071c.715.082 1.263.328 1.644.738.381.404.571.926.571 1.564 0 1.899-1.547 2.848-4.64 2.848h-5.423v-9.958h5.44c1.447 0 2.529.211 3.243.633.715.422 1.073 1.069 1.073 1.942zm-3.182 4.201c0-.31-.105-.533-.316-.668-.211-.134-.516-.202-.914-.202h-1.908v1.802h1.872c.844 0 1.266-.311 1.266-.932zm-.237-3.744c0-.521-.317-.782-.95-.782h-1.951v1.494h1.82c.363 0 .632-.067.808-.202a.612.612 0 0 0 .273-.51zm19.925-1.837c0 1.436-.425 2.546-1.275 3.331-.844.78-2.045 1.169-3.603 1.169h-.976V297h-3.472v-12.85h4.448c1.623 0 2.841.355 3.656 1.064.814.709 1.222 1.717 1.222 3.023zm-5.854 1.67h.633c.521 0 .934-.146 1.239-.439.311-.293.466-.697.466-1.213 0-.867-.481-1.301-1.442-1.301h-.896v2.953zm18.809.396c0 2.144-.592 3.797-1.776 4.957-1.178 1.16-2.836 1.74-4.974 1.74h-4.158v-12.85h4.448c2.062 0 3.653.528 4.772 1.582 1.125 1.055 1.688 2.579 1.688 4.571zm-3.604.123c0-1.178-.234-2.051-.703-2.619-.463-.569-1.169-.853-2.118-.853h-1.011v7.198h.773c1.055 0 1.829-.304 2.321-.914.492-.615.738-1.552.738-2.812zm9.334 6.574h-3.419v-12.85h7.594v2.787h-4.175v2.452h3.85v2.786h-3.85V297z" fill="#fff" filter="url(#e)"/><path fill="#0A9DDC" d="M48 81h136v24H48zm-1 26h77v24H47z"/><path d="M67.242 101h-3.887V89.877H59.42V101h-3.877V86.723h11.7V101zm9.502.195c-.56 0-1.061-.091-1.504-.273-.442-.189-.882-.524-1.318-1.006h-.176c.117.775.176 1.257.176 1.445v4.444h-3.819v-15.87h3.106l.537 1.407h.176c.71-1.068 1.69-1.602 2.94-1.602 1.223 0 2.184.508 2.88 1.524.697 1.015 1.045 2.409 1.045 4.18 0 1.783-.365 3.19-1.094 4.218-.722 1.022-1.705 1.533-2.949 1.533zm-1.28-8.457c-.56 0-.953.202-1.18.606-.222.397-.343.99-.362 1.777v.303c0 .95.127 1.637.38 2.06.255.424.655.635 1.202.635.488 0 .843-.208 1.064-.625.222-.423.332-1.12.332-2.09 0-.95-.11-1.63-.332-2.04-.221-.417-.589-.626-1.103-.626zm18.077 2.705c0 1.81-.488 3.223-1.465 4.239-.97 1.009-2.33 1.513-4.082 1.513-1.68 0-3.017-.517-4.013-1.552-.99-1.036-1.485-2.435-1.485-4.2 0-1.803.485-3.203 1.455-4.199.977-1.002 2.344-1.504 4.102-1.504 1.087 0 2.047.231 2.88.694a4.696 4.696 0 0 1 1.924 1.992c.456.86.684 1.865.684 3.017zm-7.168 0c0 .95.127 1.677.38 2.178.255.495.681.742 1.28.742.593 0 1.01-.247 1.25-.742.248-.501.371-1.227.371-2.178 0-.944-.123-1.656-.37-2.138-.248-.482-.671-.723-1.27-.723-.586 0-1.006.24-1.26.723-.254.475-.381 1.188-.381 2.138zm17.578-5.507v2.841h-4.404V101h-3.819V89.936h8.223zm8.438 11.259c-.56 0-1.062-.091-1.504-.273-.443-.189-.882-.524-1.319-1.006h-.175c.117.775.175 1.257.175 1.445v4.444h-3.818v-15.87h3.106l.537 1.407h.175c.71-1.068 1.69-1.602 2.94-1.602 1.224 0 2.184.508 2.881 1.524.696 1.015 1.045 2.409 1.045 4.18 0 1.783-.365 3.19-1.094 4.218-.723 1.022-1.706 1.533-2.949 1.533zm-1.28-8.457c-.56 0-.953.202-1.181.606-.222.397-.342.99-.362 1.777v.303c0 .95.127 1.637.381 2.06.254.424.655.635 1.201.635.489 0 .844-.208 1.065-.625.221-.423.332-1.12.332-2.09 0-.95-.111-1.63-.332-2.04-.221-.417-.589-.626-1.104-.626zM125.836 101l-.732-1.465h-.079c-.514.638-1.038 1.074-1.572 1.309-.534.234-1.224.351-2.07.351-1.042 0-1.862-.312-2.461-.937-.599-.625-.899-1.504-.899-2.637 0-1.178.411-2.054 1.231-2.627.82-.58 2.008-.905 3.564-.976l1.846-.059v-.156c0-.912-.449-1.367-1.348-1.367-.807 0-1.832.273-3.076.82l-1.103-2.52c1.289-.664 2.916-.996 4.883-.996 1.419 0 2.516.352 3.291 1.055.781.703 1.171 1.686 1.171 2.95V101h-2.646zm-2.832-2.5c.462 0 .856-.147 1.182-.44.332-.292.498-.673.498-1.142v-.86l-.879.04c-1.257.045-1.885.508-1.885 1.386 0 .678.361 1.016 1.084 1.016zm22.617 2.5h-3.418v-8.262a58.74 58.74 0 0 1-.713 2.608c-.26.892-.869 2.776-1.826 5.654h-2.598l-1.142-3.535a121.421 121.421 0 0 1-1.211-3.994l-.215-.733V101h-3.418V89.936h5.225l.859 2.587c.163.495.387 1.283.674 2.364.286 1.074.462 1.82.527 2.236.039-.306.27-1.172.694-2.598l.38-1.308 1.065-3.281h5.117V101zm17.188 0h-3.418v-8.262c-.209.84-.446 1.71-.713 2.608-.261.892-.869 2.776-1.826 5.654h-2.598l-1.143-3.535a123.907 123.907 0 0 1-1.211-3.994l-.214-.733V101h-3.418V89.936h5.224l.86 2.587c.162.495.387 1.283.673 2.364.287 1.074.463 1.82.528 2.236.039-.306.27-1.172.693-2.598l.381-1.308 1.064-3.281h5.118V101zm9.863 0l-.733-1.465h-.078c-.514.638-1.038 1.074-1.572 1.309-.534.234-1.224.351-2.07.351-1.042 0-1.862-.312-2.461-.937-.599-.625-.899-1.504-.899-2.637 0-1.178.411-2.054 1.231-2.627.82-.58 2.008-.905 3.564-.976l1.846-.059v-.156c0-.912-.449-1.367-1.348-1.367-.807 0-1.832.273-3.076.82l-1.103-2.52c1.289-.664 2.916-.996 4.882-.996 1.42 0 2.517.352 3.291 1.055.782.703 1.172 1.686 1.172 2.95V101h-2.646zm-2.832-2.5c.462 0 .856-.147 1.181-.44.333-.292.499-.673.499-1.142v-.86l-.879.04c-1.257.045-1.885.508-1.885 1.386 0 .678.361 1.016 1.084 1.016zM63.062 113.936h4.22l-4.141 5.302L67.603 125h-4.365l-4.101-5.615V125h-3.819v-11.064h3.819v5.361l3.925-5.361zm4.434 0h4.023l1.875 6.347a6.2 6.2 0 0 1 .186 1.201h.078c.052-.449.13-.843.235-1.181l1.923-6.367h3.897l-4.375 11.767c-.56 1.498-1.25 2.555-2.07 3.174-.814.618-1.879.928-3.194.928a7.736 7.736 0 0 1-1.562-.166v-2.998c.345.078.739.117 1.181.117.339 0 .635-.065.889-.196.254-.13.475-.315.664-.556.189-.235.39-.622.606-1.162l-4.356-10.908zm20.186 11.259c-.56 0-1.062-.091-1.504-.273-.443-.189-.882-.524-1.319-1.006h-.175c.117.775.175 1.257.175 1.445v4.444h-3.818v-15.869h3.106l.537 1.406h.175c.71-1.068 1.69-1.602 2.94-1.602 1.224 0 2.184.508 2.88 1.524.697 1.015 1.046 2.409 1.046 4.179 0 1.784-.365 3.19-1.094 4.219-.723 1.022-1.706 1.533-2.95 1.533zm-1.28-8.457c-.56 0-.953.202-1.181.606-.222.397-.342.989-.362 1.777v.303c0 .95.127 1.637.381 2.06.254.424.654.635 1.201.635.489 0 .843-.208 1.065-.625.221-.423.332-1.12.332-2.09 0-.95-.11-1.631-.332-2.041-.222-.416-.59-.625-1.104-.625zm12.55 8.457c-1.81 0-3.184-.488-4.122-1.465-.93-.976-1.396-2.379-1.396-4.209 0-1.835.504-3.258 1.513-4.267 1.01-1.009 2.445-1.514 4.307-1.514 1.282 0 2.49.28 3.623.84l-1.123 2.822a11.598 11.598 0 0 0-1.279-.478 4.014 4.014 0 0 0-1.221-.186c-.619 0-1.097.241-1.436.723-.338.482-.507 1.162-.507 2.041 0 1.771.654 2.656 1.962 2.656 1.12 0 2.194-.325 3.223-.976v3.037c-.983.651-2.165.976-3.545.976zM111.91 125l-.732-1.465h-.078c-.515.638-1.039 1.074-1.573 1.309-.534.234-1.224.351-2.07.351-1.042 0-1.862-.312-2.461-.937-.599-.625-.898-1.504-.898-2.637 0-1.178.41-2.054 1.23-2.627.82-.579 2.009-.905 3.565-.976l1.845-.059v-.156c0-.912-.449-1.367-1.347-1.367-.808 0-1.833.273-3.077.82l-1.103-2.52c1.289-.664 2.917-.996 4.883-.996 1.419 0 2.516.352 3.291 1.055.781.703 1.172 1.686 1.172 2.949V125h-2.647zm-2.832-2.5c.462 0 .856-.146 1.182-.439.332-.293.498-.674.498-1.143v-.859l-.879.039c-1.257.045-1.885.507-1.885 1.386 0 .677.361 1.016 1.084 1.016z" fill="#fff"/><path opacity=".1" fill="#3C3C3C" d="M54 157h144v3H54zm0 7h136v3H54zm0 7h112v3H54zm0 19h144v3H54zm0 7h128v3H54zm0 27h112v3H54zm0 7h131v3H54z"/><defs><filter id="b" x="0" y="0" width="252" height="348" filterUnits="userSpaceOnUse" color-interpolation-filters="sRGB"><feFlood flood-opacity="0" result="BackgroundImageFix"/><feColorMatrix in="SourceAlpha" values="0 0 0 0 0 0 0 0 0 0 0 0 0 0 0 0 0 0 127 0"/><feOffset dy="3"/><feGaussianBlur stdDeviation="7"/><feColorMatrix values="0 0 0 0 0.515035 0 0 0 0 0.72971 0 0 0 0 0.758333 0 0 0 0.5 0"/><feBlend in2="BackgroundImageFix" result="effect1_dropShadow"/><feBlend in="SourceGraphic" in2="effect1_dropShadow" result="shape"/></filter><filter id="d" x="17" y="256" width="220" height="77" filterUnits="userSpaceOnUse" color-interpolation-filters="sRGB"><feFlood flood-opacity="0" result="BackgroundImageFix"/><feColorMatrix in="SourceAlpha" values="0 0 0 0 0 0 0 0 0 0 0 0 0 0 0 0 0 0 127 0"/><feOffset dy="4"/><feGaussianBlur stdDeviation="7"/><feColorMatrix values="0 0 0 0 0 0 0 0 0 0 0 0 0 0 0 0 0 0 0.2 0"/><feBlend in2="BackgroundImageFix" result="effect1_dropShadow"/><feBlend in="SourceGraphic" in2="effect1_dropShadow" result="shape"/><feColorMatrix in="SourceAlpha" values="0 0 0 0 0 0 0 0 0 0 0 0 0 0 0 0 0 0 127 0" result="hardAlpha"/><feOffset dy="2"/><feGaussianBlur stdDeviation="12"/><feComposite in2="hardAlpha" operator="arithmetic" k2="-1" k3="1"/><feColorMatrix values="0 0 0 0 1 0 0 0 0 0.807333 0 0 0 0 0.433333 0 0 0 0.6 0"/><feBlend in2="shape" result="effect2_innerShadow"/></filter><filter id="e" x="59.23" y="282.965" width="133.734" height="14.21" filterUnits="userSpaceOnUse" color-interpolation-filters="sRGB"><feFlood flood-opacity="0" result="BackgroundImageFix"/><feColorMatrix in="SourceAlpha" values="0 0 0 0 0 0 0 0 0 0 0 0 0 0 0 0 0 0 127 0"/><feOffset dy="-1"/><feColorMatrix values="0 0 0 0 0 0 0 0 0 0 0 0 0 0 0 0 0 0 0.15 0"/><feBlend in2="BackgroundImageFix" result="effect1_dropShadow"/><feBlend in="SourceGraphic" in2="effect1_dropShadow" result="shape"/></filter><linearGradient id="a" x1="126" y1="11" x2="126" y2="331" gradientUnits="userSpaceOnUse"><stop stop-color="#fff"/><stop offset="1" stop-color="#DCFBFF"/></linearGradient><linearGradient id="c" x1="127" y1="266" x2="127" y2="315" gradientUnits="userSpaceOnUse"><stop stop-color="#F90"/><stop offset="1" stop-color="#FF6B00"/></linearGradient></defs></svg>