<svg id="Слой_1" xmlns="http://www.w3.org/2000/svg" viewBox="0 0 16 16"><style>.st0{fill:#c9c9c9}.st1{fill:url(#SVGID_1_)}</style><path class="st0" d="M15.1 6.1c-.2-.2-.7-.3-1.5-.5l-2.2-.5c-.3-.1-.4-.1-.5-.2-.1 0-.2-.1-.3-.2-.1-.1-.2-.2-.3-.4l-1.1-2c-.5-.8-.7-1.2-1-1.3h-.4v12.9H8c.1 0 .2.1.5.2l2.1.9c.8.4 1.2.5 1.5.5.3-.1.5-.2.7-.5.2-.3.1-.7 0-1.6l-.2-2.3v-.5c0-.1.1-.2.1-.3.1-.1.1-.2.3-.4l1.5-1.7c.6-.7.9-1 .9-1.3 0-.3-.1-.6-.3-.8z"/><linearGradient id="SVGID_1_" gradientUnits="userSpaceOnUse" x1="3.989" y1="15.12" x2="3.989" y2="-.957"><stop offset="0" stop-color="#ff9a32"/><stop offset="1" stop-color="#ffaf35"/></linearGradient><path class="st1" d="M7.8 1c-.2 0-.3 0-.4.1-.3.1-.5.5-1 1.3l-1.1 2c-.2.1-.3.2-.3.3-.1.1-.2.2-.3.2-.1.1-.2.1-.5.2L2 5.6c-.9.1-1.3.2-1.5.5-.2.2-.3.5-.3.8 0 .3.3.7.9 1.3l1.5 1.7c.2.2.3.3.3.4.1.1.1.2.2.3v.5l-.2 2.3c-.1.9-.1 1.3 0 1.6.1.2.4.4.7.5.3.1.7-.1 1.5-.5l2.1-.9c.2-.1.4-.2.5-.2h.2V1z"/></svg>