<svg width="16" height="16" viewBox="0 0 16 16" fill="none" xmlns="http://www.w3.org/2000/svg"><path d="M6.394 2.354c.454-.774.68-1.16.976-1.291a1 1 0 0 1 .809 0c.295.13.522.517.976 1.291l1.149 1.96c.13.223.195.334.283.423a1 1 0 0 0 .265.193c.111.055.237.083.49.138l2.219.488c.876.192 1.315.288 1.53.529a1 1 0 0 1 .25.769c-.033.32-.331.656-.927 1.327l-1.51 1.699c-.17.193-.256.289-.314.4a1 1 0 0 0-.101.312c-.019.122-.006.25.02.507l.222 2.262c.088.893.132 1.34-.03 1.618a1 1 0 0 1-.655.476c-.315.068-.726-.112-1.549-.472l-2.082-.91c-.236-.103-.354-.155-.477-.175a1 1 0 0 0-.328 0c-.122.02-.24.072-.477.175l-2.082.91c-.822.36-1.233.54-1.549.472a1 1 0 0 1-.654-.476c-.162-.279-.118-.725-.03-1.618l.222-2.262c.026-.256.038-.385.02-.508a1 1 0 0 0-.102-.312c-.057-.11-.143-.206-.314-.4l-1.51-1.698C.54 7.511.242 7.175.209 6.854a1 1 0 0 1 .25-.77c.215-.24.653-.336 1.53-.528l2.22-.488c.251-.055.377-.083.488-.138a1 1 0 0 0 .266-.193c.087-.089.152-.2.283-.422l1.149-1.96z" fill="url(#a)" filter="url(#b)"/><defs><filter id="b" x=".203" y=".977" width="15.143" height="15.761" filterUnits="userSpaceOnUse" color-interpolation-filters="sRGB"><feFlood flood-opacity="0" result="BackgroundImageFix"/><feBlend in="SourceGraphic" in2="BackgroundImageFix" result="shape"/><feColorMatrix in="SourceAlpha" values="0 0 0 0 0 0 0 0 0 0 0 0 0 0 0 0 0 0 127 0" result="hardAlpha"/><feOffset dy="1.27"/><feGaussianBlur stdDeviation="7.617"/><feComposite in2="hardAlpha" operator="arithmetic" k2="-1" k3="1"/><feColorMatrix values="0 0 0 0 1 0 0 0 0 0.807333 0 0 0 0 0.433333 0 0 0 0.6 0"/><feBlend in2="shape" result="effect1_innerShadow"/></filter><linearGradient id="a" x1="7.774" x2="7.774" y2="16.077" gradientUnits="userSpaceOnUse"><stop stop-color="#F90"/><stop offset="1" stop-color="#FF6B00"/></linearGradient></defs></svg>