<svg width="40" height="40" viewBox="0 0 40 40" fill="none" xmlns="http://www.w3.org/2000/svg"><path d="M20 40c11.046 0 20-8.954 20-20S31.046 0 20 0 0 8.954 0 20s8.954 20 20 20z" fill="#4D76A1"/><path fill-rule="evenodd" clip-rule="evenodd" d="M19.245 28.77h1.57s.474-.051.716-.312c.223-.24.216-.69.216-.69s-.03-2.106.947-2.416c.963-.306 2.201 2.035 3.513 2.936.991.68 1.745.532 1.745.532l3.507-.05s1.835-.112.965-1.555c-.071-.118-.507-1.067-2.608-3.017-2.199-2.041-1.904-1.711.745-5.242 1.613-2.15 2.258-3.463 2.056-4.025-.192-.535-1.378-.394-1.378-.394l-3.949.025s-.293-.04-.51.09c-.212.127-.348.424-.348.424s-.625 1.664-1.459 3.079c-1.758 2.985-2.461 3.143-2.749 2.958-.668-.433-.501-1.736-.501-2.662 0-2.894.439-4.1-.855-4.413-.43-.104-.745-.172-1.843-.183-1.409-.015-2.601.004-3.276.335-.45.22-.796.71-.585.738.26.035.852.16 1.165.587.405.55.39 1.786.39 1.786s.233 3.407-.542 3.83c-.533.29-1.263-.303-2.83-3.011a25.175 25.175 0 0 1-1.41-2.922s-.117-.286-.325-.44a1.647 1.647 0 0 0-.607-.244l-3.753.024s-.563.016-.77.26c-.184.219-.014.67-.014.67s2.937 6.872 6.264 10.336c3.05 3.175 6.513 2.967 6.513 2.967z" fill="#fff"/></svg>