<svg width="145" height="145" viewBox="0 0 145 145" fill="none" xmlns="http://www.w3.org/2000/svg"><circle cx="72.688" cy="66.507" r="44" transform="rotate(-30 72.688 66.507)" fill="url(#a)" filter="url(#b)"/><circle opacity=".4" cx="72.686" cy="66.507" r="37.968" transform="rotate(-30 72.686 66.507)" stroke="#fff" stroke-width=".71" stroke-dasharray="1.42 1.42"/><path opacity=".6" d="M52.331 60.367c-2.702-4.679-4.052-7.018-3.83-8.892a5.678 5.678 0 0 1 2.447-4.026c1.56-1.061 4.259-.94 9.657-.698l27.51 1.233c4.725.212 7.087.317 8.493 1.378a5.677 5.677 0 0 1 2.216 3.838c.215 1.747-.874 3.846-3.053 8.044L83.083 85.685c-2.489 4.796-3.733 7.194-5.432 8.015a5.677 5.677 0 0 1-4.71.105c-1.734-.744-3.085-3.084-5.787-7.763L52.331 60.367z" fill="url(#c)"/><defs><filter id="b" x=".495" y=".358" width="144.386" height="144.386" filterUnits="userSpaceOnUse" color-interpolation-filters="sRGB"><feFlood flood-opacity="0" result="BackgroundImageFix"/><feColorMatrix in="SourceAlpha" values="0 0 0 0 0 0 0 0 0 0 0 0 0 0 0 0 0 0 127 0"/><feOffset dy="6.044"/><feGaussianBlur stdDeviation="6.044"/><feColorMatrix values="0 0 0 0 0.845833 0 0 0 0 0.449341 0 0 0 0 0.0563889 0 0 0 0.4 0"/><feBlend in2="BackgroundImageFix" result="effect1_dropShadow"/><feBlend in="SourceGraphic" in2="effect1_dropShadow" result="shape"/><feColorMatrix in="SourceAlpha" values="0 0 0 0 0 0 0 0 0 0 0 0 0 0 0 0 0 0 127 0" result="hardAlpha"/><feOffset dy="1.727"/><feGaussianBlur stdDeviation="10.361"/><feComposite in2="hardAlpha" operator="arithmetic" k2="-1" k3="1"/><feColorMatrix values="0 0 0 0 1 0 0 0 0 0.807333 0 0 0 0 0.433333 0 0 0 0.6 0"/><feBlend in2="shape" result="effect2_innerShadow"/></filter><linearGradient id="a" x1="72.688" y1="22.508" x2="72.688" y2="110.507" gradientUnits="userSpaceOnUse"><stop stop-color="#FFA800"/><stop offset="1" stop-color="#F00"/></linearGradient><linearGradient id="c" x1="74.808" y1="41.248" x2="60.062" y2="96.279" gradientUnits="userSpaceOnUse"><stop stop-color="#FFEFD1"/><stop offset="1" stop-color="#F90"/></linearGradient></defs></svg>