<svg width="138" height="135" viewBox="0 0 138 135" fill="none" xmlns="http://www.w3.org/2000/svg"><path d="M21.352 63.938a9 9 0 0 1 1.438-10.871l30.773-30.7c4.186-4.176 11.194-3.25 14.15 1.872L88.4 60.067a9 9 0 0 1-1.44 10.873l-30.773 30.699c-4.187 4.177-11.194 3.25-14.15-1.871l-20.686-35.83z" fill="#F70"/><rect x="17.395" y="57.086" width="84" height="60" rx="8" transform="rotate(-30 17.395 57.086)" fill="url(#a)" filter="url(#b)"/><rect opacity=".4" x="24.908" y="59.097" width="73" height="49" rx="2.5" transform="rotate(-30 24.908 59.097)" stroke="#fff" stroke-dasharray="2 2"/><rect x="75.026" y="46.906" width="33" height="20" rx="4" transform="rotate(-30 75.026 46.906)" fill="#F70" filter="url(#c)"/><circle opacity=".6" cx="88.686" cy="50.563" r="6" transform="rotate(-30 88.686 50.563)" fill="url(#d)"/><defs><filter id="b" x=".362" y="6.57" width="136.812" height="128.027" filterUnits="userSpaceOnUse" color-interpolation-filters="sRGB"><feFlood flood-opacity="0" result="BackgroundImageFix"/><feColorMatrix in="SourceAlpha" values="0 0 0 0 0 0 0 0 0 0 0 0 0 0 0 0 0 0 127 0"/><feOffset dy="8.516"/><feGaussianBlur stdDeviation="8.516"/><feColorMatrix values="0 0 0 0 0.845833 0 0 0 0 0.449341 0 0 0 0 0.0563889 0 0 0 0.4 0"/><feBlend in2="BackgroundImageFix" result="effect1_dropShadow"/><feBlend in="SourceGraphic" in2="effect1_dropShadow" result="shape"/><feColorMatrix in="SourceAlpha" values="0 0 0 0 0 0 0 0 0 0 0 0 0 0 0 0 0 0 127 0" result="hardAlpha"/><feOffset dy="2.433"/><feGaussianBlur stdDeviation="14.6"/><feComposite in2="hardAlpha" operator="arithmetic" k2="-1" k3="1"/><feColorMatrix values="0 0 0 0 1 0 0 0 0 0.807333 0 0 0 0 0.433333 0 0 0 0.6 0"/><feBlend in2="shape" result="effect2_innerShadow"/></filter><filter id="c" x="57.994" y="21.89" width="72.644" height="67.886" filterUnits="userSpaceOnUse" color-interpolation-filters="sRGB"><feFlood flood-opacity="0" result="BackgroundImageFix"/><feColorMatrix in="SourceAlpha" values="0 0 0 0 0 0 0 0 0 0 0 0 0 0 0 0 0 0 127 0"/><feOffset dy="8.516"/><feGaussianBlur stdDeviation="8.516"/><feColorMatrix values="0 0 0 0 0.845833 0 0 0 0 0.449341 0 0 0 0 0.0563889 0 0 0 0.4 0"/><feBlend in2="BackgroundImageFix" result="effect1_dropShadow"/><feBlend in="SourceGraphic" in2="effect1_dropShadow" result="shape"/><feColorMatrix in="SourceAlpha" values="0 0 0 0 0 0 0 0 0 0 0 0 0 0 0 0 0 0 127 0" result="hardAlpha"/><feOffset dy="2.433"/><feGaussianBlur stdDeviation="14.6"/><feComposite in2="hardAlpha" operator="arithmetic" k2="-1" k3="1"/><feColorMatrix values="0 0 0 0 1 0 0 0 0 0.807333 0 0 0 0 0.433333 0 0 0 0.6 0"/><feBlend in2="shape" result="effect2_innerShadow"/></filter><linearGradient id="a" x1="59.395" y1="57.086" x2="59.395" y2="117.086" gradientUnits="userSpaceOnUse"><stop stop-color="#FFA800"/><stop offset="1" stop-color="#F00"/></linearGradient><linearGradient id="d" x1="88.686" y1="44.563" x2="88.686" y2="56.563" gradientUnits="userSpaceOnUse"><stop stop-color="#FFEFD1"/><stop offset="1" stop-color="#F90"/></linearGradient></defs></svg>