<svg width="142" height="139" viewBox="0 0 142 139" fill="none" xmlns="http://www.w3.org/2000/svg"><path d="M24.42 46.324a8 8 0 0 0-2.927 10.928L42.778 94.12c.032.055.064.11.097.163v.003l10.617 18.392s-2.817-13.88 12.8-22.896l44.572-25.734a8 8 0 0 0 2.928-10.928L92.507 16.252a8 8 0 0 0-10.929-2.928l-57.157 33z" fill="url(#a)" filter="url(#b)"/><path opacity=".6" transform="rotate(-30 46.48 59.488)" fill="url(#c)" d="M46.48 59.488h46.857v3.905H46.48z"/><path opacity=".6" transform="rotate(-30 52.337 69.629)" fill="url(#d)" d="M52.337 69.629h31.238v3.905H52.337z"/><defs><filter id="b" x=".459" y=".808" width="141.08" height="137.42" filterUnits="userSpaceOnUse" color-interpolation-filters="sRGB"><feFlood flood-opacity="0" result="BackgroundImageFix"/><feColorMatrix in="SourceAlpha" values="0 0 0 0 0 0 0 0 0 0 0 0 0 0 0 0 0 0 127 0"/><feOffset dy="8.516"/><feGaussianBlur stdDeviation="8.516"/><feColorMatrix values="0 0 0 0 0.845833 0 0 0 0 0.449341 0 0 0 0 0.0563889 0 0 0 0.4 0"/><feBlend in2="BackgroundImageFix" result="effect1_dropShadow"/><feBlend in="SourceGraphic" in2="effect1_dropShadow" result="shape"/><feColorMatrix in="SourceAlpha" values="0 0 0 0 0 0 0 0 0 0 0 0 0 0 0 0 0 0 127 0" result="hardAlpha"/><feOffset dy="2.433"/><feGaussianBlur stdDeviation="14.6"/><feComposite in2="hardAlpha" operator="arithmetic" k2="-1" k3="1"/><feColorMatrix values="0 0 0 0 1 0 0 0 0 0.807333 0 0 0 0 0.433333 0 0 0 0.6 0"/><feBlend in2="shape" result="effect2_innerShadow"/></filter><linearGradient id="a" x1="52.999" y1="29.824" x2="85.316" y2="85.798" gradientUnits="userSpaceOnUse"><stop stop-color="#FFA800"/><stop offset="1" stop-color="#F00"/></linearGradient><linearGradient id="c" x1="69.909" y1="59.488" x2="69.909" y2="63.393" gradientUnits="userSpaceOnUse"><stop stop-color="#FFEFD1"/><stop offset="1" stop-color="#F90"/></linearGradient><linearGradient id="d" x1="67.956" y1="69.629" x2="67.956" y2="73.534" gradientUnits="userSpaceOnUse"><stop stop-color="#FFEFD1"/><stop offset="1" stop-color="#F90"/></linearGradient></defs></svg>