<svg width="185" height="34" viewBox="0 0 185 34" fill="none" xmlns="http://www.w3.org/2000/svg"><path fill-rule="evenodd" clip-rule="evenodd" d="M32.246 7.017h-7.924c-1.292 0-2.647 1.07-3.036 2.41l-4.282 15.148-4.281-15.148c-.374-1.325-1.728-2.41-3.02-2.41h-7.94c-1.293 0-2.04 1.085-1.667 2.41l4.282 15.148c.373 1.325 1.728 2.41 3.036 2.41h7.924c.841 0 1.448-.463 1.666-1.15.218.687.825 1.15 1.666 1.15h7.925c1.292 0 2.647-1.07 3.02-2.41l4.282-15.148c.39-1.325-.358-2.41-1.65-2.41z" fill="url(#a)"/><path fill-rule="evenodd" clip-rule="evenodd" d="M13.704 7.016c-.639 0-1.355.383-1.869.942.42.399.748.91.888 1.452l4.281 15.148L21.286 9.41c.171-.59.467-1.07.934-1.484C21.706 7.415 21.1 7 20.492 7h-6.788v.016z" fill="url(#b)"/><path fill-rule="evenodd" clip-rule="evenodd" d="M28.308 24.59L23.123 9.442c-.156-.543-.451-1.101-.888-1.5a3.037 3.037 0 0 0-.934 1.484l-4.297 15.148v.016L12.723 9.442a3.214 3.214 0 0 0-.903-1.468 3.245 3.245 0 0 0-.919 1.468L5.717 24.59C5.312 25.915 6.12 27 7.507 27h7.831c.841 0 1.448-.447 1.666-1.133.218.686.825 1.133 1.666 1.133h7.831c1.402-.016 2.196-1.085 1.806-2.41z" fill="url(#c)"/><path d="M56.56 10.105l-3.268 11.462-2.924-10.307c-.109-.402-.127-.612-.672-.612H48.68c-.526 0-.562.21-.671.612l-2.942 10.307-3.25-11.462-1.816.438 3.74 12.704c.11.386.182.613.709.613h1.035c.526 0 .599-.227.708-.613l2.978-10.29 2.996 10.29c.109.403.163.613.708.613h1.035c.545 0 .6-.21.708-.613l3.723-12.704-1.78-.438zm8.68 4.497c-.818-.437-1.598-.49-2.615-.49-.781 0-1.87.018-2.597.333-1.561.7-1.87 2.538-1.87 4.025v1.138c0 1.487.29 3.15 1.652 3.85.763.385 1.762.507 2.724.507 1.053 0 2.542-.105 3.377-.262l-.127-1.296c-1.144.158-2.379.21-2.941.21-.527 0-1.725-.07-2.27-.507-.508-.42-.672-1.348-.69-2.468h5.52c.853 0 1.235-.402 1.235-.927v-.997c.018-1.768-.672-2.713-1.398-3.116zm-.31 3.728h-5.047c0-1.19.2-2.012.726-2.485.49-.438 1.471-.438 1.961-.438.636 0 1.29.053 1.707.386.454.384.654 1.085.654 2.152v.385zm9.57-3.832c-.89-.385-1.997-.385-2.796-.385-.472 0-1.417.087-2.216.21V10h-1.725v11.567c0 2.048 1.78 2.433 4.159 2.433 2.905 0 4.321-.665 4.321-4.76v-.91c.018-1.487-.163-3.15-1.743-3.832zm.018 4.865c0 2.8-.436 3.342-2.415 3.342-.871 0-1.58-.07-1.98-.297-.49-.28-.635-.736-.635-1.418v-5.285c.8-.175 1.816-.228 2.288-.228 2.197 0 2.724.386 2.724 2.73v1.155h.018zm7.263 3.255c-.526 0-1.652 0-2.106-.42-.527-.473-.69-1.313-.69-2.468v-1.383c0-1.155.145-1.995.69-2.467.454-.403 1.562-.42 2.106-.42.563 0 1.362.035 2.506.21 0 0 .127-1.26.127-1.295-.835-.14-2.16-.262-2.941-.262-.745 0-1.798.07-2.56.455-1.38.7-1.707 2.415-1.707 3.902v1.12c0 1.488.326 3.203 1.706 3.902.763.386 1.816.456 2.56.456.781 0 2.288-.105 3.142-.263l-.127-1.295c-1.162.192-2.16.227-2.706.227zm10.423-8.19c-.726-.316-1.743-.316-2.524-.316-.78 0-1.798 0-2.524.316-1.562.7-1.743 2.555-1.743 4.042v1.138c0 1.487.163 3.377 1.743 4.042.708.315 1.743.315 2.524.315.78 0 1.798 0 2.524-.315 1.562-.7 1.743-2.555 1.743-4.042V18.47c0-1.487-.181-3.342-1.743-4.042zm0 5.32c0 1.154-.036 2.047-.563 2.52-.454.42-1.434.402-1.961.42-.545 0-1.507 0-1.961-.42-.508-.473-.545-1.366-.545-2.52v-1.4c0-1.155.018-2.048.545-2.52.454-.403 1.434-.42 1.961-.42.527 0 1.507.017 1.961.42.508.472.563 1.364.563 2.52v1.4zm13.164-5.636c-1.398 0-3.105.386-3.667.525-.636-.402-1.489-.524-2.452-.524-1.144 0-2.596.192-3.377.332-.254.053-.835.192-.835.963v8.452h1.725v-8.102c.617-.123 1.47-.28 2.197-.28 1.67 0 2.197.56 2.197 2.047v6.335h1.725v-6.475c0-.648-.091-1.173-.273-1.61.69-.14 1.616-.315 2.47-.315 1.652 0 2.197.56 2.197 2.047v6.335H109v-6.457c-.018-2.765-1.58-3.273-3.632-3.273z" fill="#231F20"/><path d="M126.34 24a.24.24 0 0 1-.176-.064.22.22 0 0 1-.064-.16V12.4c0-.181.086-.272.256-.272h3.888c1.472 0 2.603.267 3.392.8.79.523 1.184 1.285 1.184 2.288 0 .63-.165 1.163-.495 1.6-.331.427-.865.773-1.601 1.04-.042.01-.064.037-.064.08 0 .032.022.053.064.064.79.213 1.382.55 1.776 1.008.406.459.608 1.061.608 1.808 0 1.067-.4 1.867-1.2 2.4-.8.523-1.973.784-3.52.784h-4.048zm4.128-6.704c.672 0 1.243-.15 1.712-.448.47-.299.704-.768.704-1.408 0-.64-.234-1.125-.704-1.456-.458-.33-1.093-.496-1.904-.496h-2c-.16 0-.24.07-.24.208v3.376c0 .15.059.224.176.224h2.256zm-.16 5.344c1.856 0 2.784-.645 2.784-1.936 0-.672-.24-1.173-.72-1.504-.48-.33-1.114-.496-1.904-.496h-2.176c-.096 0-.165.016-.208.048-.032.032-.048.085-.048.16V22.4c0 .16.059.24.176.24h2.096zm8.433-2.288c0 .48.112.917.336 1.312.235.384.549.693.944.928.395.224.827.336 1.296.336.491 0 .928-.101 1.312-.304.384-.203.736-.517 1.056-.944.032-.043.069-.064.112-.064.053 0 .096.01.128.032l.816.384c.053.032.08.075.08.128a.273.273 0 0 1-.048.128c-.448.661-.96 1.141-1.536 1.44-.576.288-1.275.432-2.096.432-.8 0-1.515-.181-2.144-.544a3.812 3.812 0 0 1-1.472-1.52c-.352-.661-.528-1.408-.528-2.24 0-.896.181-1.685.544-2.368.363-.683.853-1.205 1.472-1.568a4.03 4.03 0 0 1 2.096-.56c.789 0 1.483.176 2.08.528.597.341 1.056.843 1.376 1.504.331.661.496 1.445.496 2.352v.064c0 .096-.016.17-.048.224-.021.043-.085.064-.192.064h-5.92c-.107 0-.16.085-.16.256zm4.368-1.264c.107 0 .176-.016.208-.048.043-.032.064-.09.064-.176a2.58 2.58 0 0 0-.272-1.168 2.01 2.01 0 0 0-.768-.864c-.331-.224-.725-.336-1.184-.336-.48 0-.901.123-1.264.368-.363.235-.645.55-.848.944a2.641 2.641 0 0 0-.272 1.264l4.336.016zm5.68 4.608c0 .117-.026.197-.08.24-.042.043-.128.064-.256.064h-1.088c-.106 0-.181-.016-.224-.048-.042-.043-.064-.112-.064-.208l.032-11.376c0-.16.07-.24.208-.24h1.264c.139 0 .208.08.208.24v11.328zm7.425-.656c-.778.747-1.69 1.12-2.736 1.12-.821 0-1.472-.208-1.952-.624-.469-.427-.704-.992-.704-1.696 0-.864.374-1.552 1.12-2.064.758-.512 1.83-.8 3.216-.864l1.04-.08c.171-.021.256-.101.256-.24v-.4c0-.523-.16-.933-.48-1.232-.32-.31-.757-.464-1.312-.464-.874 0-1.573.395-2.096 1.184a.269.269 0 0 1-.112.128c-.032.01-.085.005-.16-.016l-1.088-.32c-.064-.021-.096-.064-.096-.128 0-.043.016-.101.048-.176a3.037 3.037 0 0 1 1.36-1.328c.619-.32 1.36-.48 2.224-.48 1.12 0 1.958.24 2.512.72.555.48.832 1.147.832 2v5.648c0 .107-.021.181-.064.224-.032.032-.09.048-.176.048h-1.072c-.149 0-.234-.107-.256-.32l-.032-.608c-.021-.085-.053-.128-.096-.128-.032 0-.09.032-.176.096zm.24-3.024c0-.17-.074-.25-.224-.24l-.864.064c-.885.053-1.589.235-2.112.544-.512.299-.768.715-.768 1.248 0 .416.15.747.448.992.299.235.699.352 1.2.352.576 0 1.12-.197 1.632-.592.459-.373.688-.747.688-1.12v-1.248zM160.77 24c-.17 0-.256-.085-.256-.256V15.76c0-.16.07-.24.208-.24h1.232c.128 0 .192.07.192.208v1.008c0 .064.016.101.048.112.043.01.086-.01.128-.064.395-.459.8-.81 1.216-1.056.427-.245.843-.368 1.248-.368.374 0 .56.075.56.224v1.248c0 .128-.058.181-.176.16-.202-.053-.485-.08-.848-.08-.298 0-.613.085-.944.256a2.49 2.49 0 0 0-.832.64c-.224.267-.336.539-.336.816v5.104c0 .181-.101.272-.304.272h-1.136zm9.48-1.12c.736 0 1.509-.421 2.32-1.264v-5.824c0-.181.101-.272.304-.272h1.152c.171 0 .256.085.256.256l-.032 8c0 .15-.064.224-.192.224h-1.248c-.128 0-.192-.07-.192-.208v-.896c0-.128-.053-.144-.16-.048-.523.48-1.008.821-1.456 1.024a3.537 3.537 0 0 1-1.408.288c-.736 0-1.339-.224-1.808-.672-.469-.459-.704-1.061-.704-1.808v-5.872c0-.192.096-.288.288-.288h1.168c.16 0 .24.085.24.256v5.552c0 .47.133.848.4 1.136.267.277.624.416 1.072.416zm11.712-5.376a2.376 2.376 0 0 0-.88-.736c-.362-.192-.784-.288-1.264-.288-.533 0-.97.112-1.312.336-.341.213-.512.507-.512.88a.8.8 0 0 0 .256.576c.171.17.48.32.928.448l1.968.56c.747.192 1.296.49 1.648.896.363.395.544.864.544 1.408 0 .512-.154.965-.464 1.36-.298.384-.72.683-1.264.896-.544.213-1.157.32-1.84.32-.853 0-1.605-.16-2.256-.48-.65-.33-1.114-.757-1.392-1.28a.287.287 0 0 1-.048-.144c0-.064.027-.112.08-.144l.784-.416a.38.38 0 0 1 .16-.048.15.15 0 0 1 .128.064c.566.853 1.403 1.28 2.512 1.28.587 0 1.072-.107 1.456-.32.384-.224.576-.523.576-.896a.833.833 0 0 0-.336-.672c-.213-.192-.57-.352-1.072-.48l-1.632-.416c-.789-.192-1.365-.475-1.728-.848-.362-.373-.544-.843-.544-1.408 0-.512.139-.96.416-1.344.288-.395.683-.699 1.184-.912.512-.224 1.104-.336 1.776-.336.726 0 1.376.139 1.952.416.576.277 1.008.64 1.296 1.088a.308.308 0 0 1 .064.16c0 .043-.026.08-.08.112l-.832.432a.22.22 0 0 1-.096.016.246.246 0 0 1-.176-.08z" fill="#009731"/><path d="M117 0h1v34h-1V0z" fill="#B6CAD1"/><defs><linearGradient id="a" x1="17.008" y1="21.54" x2="17.008" y2="5.966" gradientUnits="userSpaceOnUse"><stop stop-color="#C6E9FA"/><stop offset="1" stop-color="#00A0E3"/></linearGradient><linearGradient id="b" x1="17.024" y1="19.707" x2="17.024" y2="6.576" gradientUnits="userSpaceOnUse"><stop stop-color="#FFF100"/><stop offset="1" stop-color="#F48120"/></linearGradient><linearGradient id="c" x1="17.009" y1="27.035" x2="17.009" y2="12.073" gradientUnits="userSpaceOnUse"><stop stop-color="#D6DE23"/><stop offset="1" stop-color="#00974A"/></linearGradient></defs></svg>