<svg width="188" height="34" viewBox="0 0 188 34" fill="none" xmlns="http://www.w3.org/2000/svg"><path d="M16.56 10.105l-3.268 11.462-2.924-10.307c-.109-.402-.127-.612-.672-.612H8.68c-.526 0-.562.21-.671.612L5.066 21.567l-3.25-11.462L0 10.543l3.74 12.704c.11.386.182.613.709.613h1.035c.526 0 .599-.227.708-.613l2.978-10.29 2.996 10.29c.109.403.163.613.708.613h1.035c.545 0 .6-.21.708-.613l3.723-12.704-1.78-.438zm8.68 4.497c-.818-.437-1.598-.49-2.615-.49-.781 0-1.87.018-2.597.333-1.561.7-1.87 2.538-1.87 4.025v1.138c0 1.487.29 3.15 1.652 3.85.763.385 1.762.507 2.724.507 1.053 0 2.542-.105 3.377-.262l-.127-1.296c-1.144.158-2.378.21-2.941.21-.527 0-1.725-.07-2.27-.507-.509-.42-.672-1.348-.69-2.468h5.52c.853 0 1.235-.402 1.235-.927v-.997c.018-1.768-.672-2.713-1.399-3.116zm-.31 3.728h-5.047c0-1.19.2-2.012.726-2.485.49-.438 1.471-.438 1.961-.438.636 0 1.29.053 1.707.386.454.384.654 1.085.654 2.152v.385zm9.57-3.832c-.89-.385-1.997-.385-2.796-.385-.472 0-1.417.087-2.216.21V10h-1.725v11.567c0 2.048 1.78 2.433 4.159 2.433 2.905 0 4.321-.665 4.321-4.76v-.91c.018-1.487-.163-3.15-1.743-3.832zm.018 4.865c0 2.8-.436 3.342-2.415 3.342-.871 0-1.58-.07-1.979-.297-.49-.28-.636-.736-.636-1.418v-5.285c.8-.175 1.816-.228 2.288-.228 2.197 0 2.724.386 2.724 2.73v1.155h.018zm7.263 3.255c-.526 0-1.652 0-2.106-.42-.527-.473-.69-1.313-.69-2.468v-1.383c0-1.155.145-1.995.69-2.467.454-.403 1.562-.42 2.106-.42.563 0 1.362.035 2.506.21 0 0 .127-1.26.127-1.295-.835-.14-2.16-.262-2.941-.262-.745 0-1.798.07-2.56.455-1.38.7-1.707 2.415-1.707 3.902v1.12c0 1.488.326 3.203 1.706 3.902.763.386 1.816.456 2.56.456.781 0 2.288-.105 3.142-.263l-.127-1.295c-1.162.192-2.16.227-2.706.227zm10.423-8.19c-.726-.316-1.743-.316-2.524-.316-.78 0-1.798 0-2.524.316-1.562.7-1.743 2.555-1.743 4.042v1.138c0 1.487.163 3.377 1.743 4.042.708.315 1.743.315 2.524.315.78 0 1.798 0 2.524-.315 1.562-.7 1.743-2.555 1.743-4.042V18.47c0-1.487-.181-3.342-1.743-4.042zm0 5.32c0 1.154-.036 2.047-.563 2.52-.454.42-1.434.402-1.961.42-.545 0-1.507 0-1.961-.42-.508-.473-.545-1.366-.545-2.52v-1.4c0-1.155.018-2.048.545-2.52.454-.403 1.434-.42 1.961-.42.527 0 1.507.017 1.961.42.509.472.563 1.364.563 2.52v1.4zm13.164-5.636c-1.398 0-3.105.386-3.667.525-.636-.402-1.49-.524-2.452-.524-1.144 0-2.596.192-3.377.332-.254.053-.835.192-.835.963v8.452h1.725v-8.102c.617-.123 1.47-.28 2.197-.28 1.67 0 2.197.56 2.197 2.047v6.335h1.725v-6.475c0-.648-.091-1.173-.273-1.61.69-.14 1.617-.315 2.47-.315 1.652 0 2.197.56 2.197 2.047v6.335H69v-6.457c-.018-2.765-1.58-3.273-3.632-3.273z" fill="#231F20"/><path d="M77 0h1v34h-1V0z" fill="#B6CAD1"/><path d="M94.78 15.664c0 1.141-.39 2.01-1.168 2.608-.768.597-1.797.896-3.088.896H87.9c-.106 0-.16.053-.16.16v4.4c0 .181-.096.272-.288.272H86.06c-.17 0-.256-.08-.256-.24V12.368c0-.085.016-.144.048-.176.032-.043.09-.064.176-.064H90.3c1.344 0 2.427.299 3.248.896.822.587 1.232 1.467 1.232 2.64zm-1.984-.048c0-1.376-.87-2.064-2.608-2.064H87.98a.318.318 0 0 0-.192.048c-.032.032-.048.09-.048.176v3.728c0 .16.059.24.176.24H90.3c.779 0 1.387-.176 1.824-.528.448-.363.672-.896.672-1.6zm4.758 4.736c0 .48.112.917.336 1.312.235.384.55.693.944.928a2.58 2.58 0 0 0 1.296.336c.491 0 .928-.101 1.312-.304.384-.203.736-.517 1.056-.944.032-.043.069-.064.112-.064.053 0 .096.01.128.032l.816.384c.053.032.08.075.08.128a.273.273 0 0 1-.048.128c-.448.661-.96 1.141-1.536 1.44-.576.288-1.275.432-2.096.432-.8 0-1.514-.181-2.144-.544a3.81 3.81 0 0 1-1.472-1.52c-.352-.661-.528-1.408-.528-2.24 0-.896.181-1.685.544-2.368.363-.683.853-1.205 1.472-1.568a4.031 4.031 0 0 1 2.096-.56c.789 0 1.483.176 2.08.528.597.341 1.056.843 1.376 1.504.331.661.496 1.445.496 2.352v.064c0 .096-.016.17-.048.224-.021.043-.085.064-.192.064h-5.92c-.106 0-.16.085-.16.256zm4.368-1.264c.107 0 .176-.016.208-.048.043-.032.064-.09.064-.176a2.58 2.58 0 0 0-.272-1.168 2.01 2.01 0 0 0-.768-.864c-.331-.224-.725-.336-1.184-.336-.48 0-.901.123-1.264.368-.362.235-.645.55-.848.944a2.646 2.646 0 0 0-.272 1.264l4.336.016zM106.147 24c-.171 0-.256-.085-.256-.256V15.76c0-.16.069-.24.208-.24h1.232c.128 0 .192.07.192.208v1.008c0 .064.016.101.048.112.042.01.085-.01.128-.064.394-.459.8-.81 1.216-1.056.426-.245.842-.368 1.248-.368.373 0 .56.075.56.224v1.248c0 .128-.059.181-.176.16-.203-.053-.486-.08-.848-.08-.299 0-.614.085-.944.256a2.48 2.48 0 0 0-.832.64c-.224.267-.336.539-.336.816v5.104c0 .181-.102.272-.304.272h-1.136zm10.887-8.48c.15 0 .224.07.224.208v.832c0 .117-.069.176-.208.176h-1.664c-.096 0-.144.048-.144.144v6.864c0 .17-.069.256-.208.256h-1.296c-.128 0-.192-.075-.192-.224v-6.912c0-.085-.037-.128-.112-.128h-1.44c-.128 0-.192-.059-.192-.176v-.832c0-.139.07-.208.208-.208h1.376c.064 0 .107-.01.128-.032.022-.032.032-.085.032-.16v-1.104c0-.672.176-1.19.528-1.552.363-.363.891-.544 1.584-.544h1.424c.16 0 .24.08.24.24l.016.752a.198.198 0 0 1-.064.144c-.032.032-.08.048-.144.048h-1.024c-.298 0-.522.096-.672.288-.149.192-.224.459-.224.8v.976c0 .096.054.144.16.144h1.664zm5.364 8.64c-.811 0-1.531-.181-2.16-.544a3.813 3.813 0 0 1-1.44-1.552c-.342-.661-.512-1.413-.512-2.256 0-.864.176-1.632.528-2.304a3.876 3.876 0 0 1 1.456-1.584c.629-.373 1.344-.56 2.144-.56.81 0 1.525.192 2.144.576a3.768 3.768 0 0 1 1.456 1.568c.341.672.512 1.435.512 2.288 0 .843-.176 1.595-.528 2.256a3.79 3.79 0 0 1-1.456 1.552c-.619.373-1.334.56-2.144.56zm.032-1.2c.746 0 1.328-.277 1.744-.832.416-.565.624-1.355.624-2.368s-.214-1.803-.64-2.368c-.416-.576-.998-.864-1.744-.864-.747 0-1.334.288-1.76.864-.427.565-.64 1.355-.64 2.368 0 1.003.213 1.787.64 2.352.426.565 1.018.848 1.776.848zm6.458 1.04c-.171 0-.256-.085-.256-.256V15.76c0-.16.069-.24.208-.24h1.232c.128 0 .192.07.192.208v1.008c0 .064.016.101.048.112.043.01.085-.01.128-.064.395-.459.8-.81 1.216-1.056.427-.245.843-.368 1.248-.368.373 0 .56.075.56.224v1.248c0 .128-.059.181-.176.16-.203-.053-.485-.08-.848-.08-.299 0-.613.085-.944.256a2.48 2.48 0 0 0-.832.64c-.224.267-.336.539-.336.816v5.104c0 .181-.101.272-.304.272h-1.136zm6.664 0c-.171 0-.256-.085-.256-.256V15.76c0-.16.069-.24.208-.24h1.248c.128 0 .192.07.192.208v.88c0 .064.016.101.048.112.032.01.069-.01.112-.064.533-.448 1.008-.773 1.424-.976.426-.213.885-.32 1.376-.32.586 0 1.072.133 1.456.4.384.267.656.613.816 1.04.021.032.042.048.064.048.042 0 .09-.027.144-.08.501-.459.981-.805 1.44-1.04a3.009 3.009 0 0 1 1.44-.368c.768 0 1.365.224 1.792.672.437.437.656 1.04.656 1.808v5.872c0 .192-.096.288-.288.288h-1.184c-.086 0-.144-.016-.176-.048-.032-.043-.048-.112-.048-.208v-5.6c0-.48-.118-.848-.352-1.104-.235-.267-.587-.4-1.056-.4-.64 0-1.323.336-2.048 1.008a.725.725 0 0 0-.16.224.534.534 0 0 0-.048.24v5.6c0 .192-.096.288-.288.288h-1.168c-.16 0-.24-.085-.24-.256v-5.6c0-.48-.118-.848-.352-1.104-.224-.267-.576-.4-1.056-.4-.384 0-.742.096-1.072.288-.331.181-.726.485-1.184.912v5.888c0 .096-.027.165-.08.208-.043.043-.118.064-.224.064h-1.136zm19.474-.96c-.779.747-1.691 1.12-2.736 1.12-.821 0-1.472-.208-1.952-.624-.469-.427-.704-.992-.704-1.696 0-.864.373-1.552 1.12-2.064.757-.512 1.829-.8 3.216-.864l1.04-.08c.171-.021.256-.101.256-.24v-.4c0-.523-.16-.933-.48-1.232-.32-.31-.757-.464-1.312-.464-.875 0-1.573.395-2.096 1.184a.269.269 0 0 1-.112.128c-.032.01-.085.005-.16-.016l-1.088-.32c-.064-.021-.096-.064-.096-.128 0-.043.016-.101.048-.176a3.037 3.037 0 0 1 1.36-1.328c.619-.32 1.36-.48 2.224-.48 1.12 0 1.957.24 2.512.72.555.48.832 1.147.832 2v5.648c0 .107-.021.181-.064.224-.032.032-.091.048-.176.048h-1.072c-.149 0-.235-.107-.256-.32l-.032-.608c-.021-.085-.053-.128-.096-.128-.032 0-.091.032-.176.096zm.24-3.024c0-.17-.075-.25-.224-.24l-.864.064c-.885.053-1.589.235-2.112.544-.512.299-.768.715-.768 1.248 0 .416.149.747.448.992.299.235.699.352 1.2.352.576 0 1.12-.197 1.632-.592.459-.373.688-.747.688-1.12v-1.248zM159.582 24c-.17 0-.256-.085-.256-.256V15.76c0-.16.07-.24.208-.24h1.264c.128 0 .192.07.192.208v.88c0 .064.011.101.032.112.032.01.075-.01.128-.064.555-.448 1.046-.773 1.472-.976.427-.213.891-.32 1.392-.32.8 0 1.424.224 1.872.672.459.437.688 1.03.688 1.776v5.904c0 .192-.09.288-.272.288h-1.184c-.16 0-.24-.085-.24-.256v-5.6c0-.48-.128-.848-.384-1.104-.245-.267-.618-.4-1.12-.4-.405 0-.784.096-1.136.288-.341.181-.746.485-1.216.912v5.888c0 .096-.026.165-.08.208-.042.043-.117.064-.224.064h-1.136zm13.102-8.64c.832 0 1.536.197 2.112.592a3.695 3.695 0 0 1 1.296 1.536.31.31 0 0 1 .032.144c0 .064-.048.107-.144.128l-1.136.192h-.048c-.064 0-.117-.043-.16-.128-.298-.437-.586-.757-.864-.96-.277-.213-.613-.32-1.008-.32-.746 0-1.338.283-1.776.848-.437.565-.656 1.355-.656 2.368 0 1.024.224 1.819.672 2.384.448.565 1.056.848 1.824.848.48 0 .891-.123 1.232-.368.352-.245.678-.613.976-1.104a.213.213 0 0 1 .096-.08c.032-.01.075-.005.128.016l.848.256c.096.032.118.112.064.24a4.116 4.116 0 0 1-1.328 1.584c-.576.416-1.296.624-2.16.624-.789 0-1.493-.181-2.112-.544a3.933 3.933 0 0 1-1.456-1.552c-.341-.661-.512-1.419-.512-2.272 0-.853.176-1.616.528-2.288a3.907 3.907 0 0 1 1.456-1.568c.619-.384 1.318-.576 2.096-.576zm6.703 4.992c0 .48.112.917.336 1.312.235.384.55.693.944.928.395.224.827.336 1.296.336.491 0 .928-.101 1.312-.304.384-.203.736-.517 1.056-.944.032-.043.07-.064.112-.064a.22.22 0 0 1 .128.032l.816.384c.054.032.08.075.08.128a.273.273 0 0 1-.048.128c-.448.661-.96 1.141-1.536 1.44-.576.288-1.274.432-2.096.432-.8 0-1.514-.181-2.144-.544a3.812 3.812 0 0 1-1.472-1.52c-.352-.661-.528-1.408-.528-2.24 0-.896.182-1.685.544-2.368.363-.683.854-1.205 1.472-1.568a4.033 4.033 0 0 1 2.096-.56c.79 0 1.483.176 2.08.528.598.341 1.056.843 1.376 1.504.331.661.496 1.445.496 2.352v.064c0 .096-.016.17-.048.224-.021.043-.085.064-.192.064h-5.92c-.106 0-.16.085-.16.256zm4.368-1.264c.107 0 .176-.016.208-.048.043-.032.064-.09.064-.176 0-.416-.09-.805-.272-1.168a1.998 1.998 0 0 0-.768-.864c-.33-.224-.725-.336-1.184-.336-.48 0-.901.123-1.264.368-.362.235-.645.55-.848.944a2.653 2.653 0 0 0-.272 1.264l4.336.016z" fill="#44AD3D"/></svg>