<svg width="147" height="34" viewBox="0 0 147 34" fill="none" xmlns="http://www.w3.org/2000/svg"><path d="M16.56 10.105l-3.268 11.462-2.924-10.307c-.109-.402-.127-.612-.672-.612H8.68c-.526 0-.562.21-.671.612L5.066 21.567l-3.25-11.462L0 10.543l3.74 12.704c.11.386.182.613.709.613h1.035c.526 0 .599-.227.708-.613l2.978-10.29 2.996 10.29c.109.403.163.613.708.613h1.035c.545 0 .6-.21.708-.613l3.723-12.704-1.78-.438zm8.68 4.497c-.818-.437-1.598-.49-2.615-.49-.781 0-1.87.018-2.597.333-1.561.7-1.87 2.538-1.87 4.025v1.138c0 1.487.29 3.15 1.652 3.85.763.385 1.762.507 2.724.507 1.053 0 2.542-.105 3.377-.262l-.127-1.296c-1.144.158-2.378.21-2.941.21-.527 0-1.725-.07-2.27-.507-.509-.42-.672-1.348-.69-2.468h5.52c.853 0 1.235-.402 1.235-.927v-.997c.018-1.768-.672-2.713-1.399-3.116zm-.31 3.728h-5.047c0-1.19.2-2.012.726-2.485.49-.438 1.471-.438 1.961-.438.636 0 1.29.053 1.707.386.454.384.654 1.085.654 2.152v.385zm9.57-3.832c-.89-.385-1.997-.385-2.796-.385-.472 0-1.417.087-2.216.21V10h-1.725v11.567c0 2.048 1.78 2.433 4.159 2.433 2.905 0 4.321-.665 4.321-4.76v-.91c.018-1.487-.163-3.15-1.743-3.832zm.018 4.865c0 2.8-.436 3.342-2.415 3.342-.871 0-1.58-.07-1.98-.297-.49-.28-.635-.736-.635-1.418v-5.285c.8-.175 1.816-.228 2.288-.228 2.197 0 2.724.386 2.724 2.73v1.155h.018zm7.263 3.255c-.526 0-1.652 0-2.106-.42-.527-.473-.69-1.313-.69-2.468v-1.383c0-1.155.145-1.995.69-2.467.454-.403 1.562-.42 2.106-.42.563 0 1.362.035 2.506.21 0 0 .127-1.26.127-1.295-.835-.14-2.16-.262-2.941-.262-.745 0-1.798.07-2.56.455-1.38.7-1.707 2.415-1.707 3.902v1.12c0 1.488.326 3.203 1.706 3.902.763.386 1.816.456 2.56.456.781 0 2.288-.105 3.142-.263l-.127-1.295c-1.162.192-2.16.227-2.706.227zm10.423-8.19c-.726-.316-1.743-.316-2.524-.316-.78 0-1.798 0-2.524.316-1.562.7-1.743 2.555-1.743 4.042v1.138c0 1.487.163 3.377 1.743 4.042.708.315 1.743.315 2.524.315.78 0 1.798 0 2.524-.315 1.562-.7 1.743-2.555 1.743-4.042V18.47c0-1.487-.181-3.342-1.743-4.042zm0 5.32c0 1.154-.036 2.047-.563 2.52-.454.42-1.434.402-1.961.42-.545 0-1.507 0-1.961-.42-.508-.473-.545-1.366-.545-2.52v-1.4c0-1.155.018-2.048.545-2.52.454-.403 1.434-.42 1.961-.42.527 0 1.507.017 1.961.42.509.472.563 1.364.563 2.52v1.4zm13.164-5.636c-1.398 0-3.105.386-3.667.525-.636-.402-1.49-.524-2.452-.524-1.144 0-2.596.192-3.377.332-.254.053-.835.192-.835.963v8.452h1.725v-8.102c.617-.123 1.47-.28 2.197-.28 1.67 0 2.197.56 2.197 2.047v6.335h1.725v-6.475c0-.648-.091-1.173-.273-1.61.69-.14 1.617-.315 2.47-.315 1.652 0 2.197.56 2.197 2.047v6.335H69v-6.457c-.018-2.765-1.58-3.273-3.632-3.273z" fill="#231F20"/><path d="M94.884 15.664c0 1.141-.39 2.01-1.168 2.608-.768.597-1.797.896-3.088.896h-2.624c-.107 0-.16.053-.16.16v4.4c0 .181-.096.272-.288.272h-1.392c-.17 0-.256-.08-.256-.24V12.368c0-.085.016-.144.048-.176.032-.043.09-.064.176-.064h4.272c1.344 0 2.427.299 3.248.896.821.587 1.232 1.467 1.232 2.64zm-1.984-.048c0-1.376-.87-2.064-2.608-2.064h-2.208a.318.318 0 0 0-.192.048c-.032.032-.048.09-.048.176v3.728c0 .16.059.24.176.24h2.384c.779 0 1.387-.176 1.824-.528.448-.363.672-.896.672-1.6zM97.368 24c-.17 0-.256-.085-.256-.256V15.76c0-.16.07-.24.208-.24h1.232c.128 0 .192.07.192.208v1.008c0 .064.016.101.048.112.043.01.085-.01.128-.064.394-.459.8-.81 1.216-1.056.427-.245.843-.368 1.248-.368.373 0 .56.075.56.224v1.248c0 .128-.059.181-.176.16-.203-.053-.485-.08-.848-.08-.299 0-.613.085-.944.256-.33.16-.608.373-.832.64-.224.267-.336.539-.336.816v5.104c0 .181-.102.272-.304.272h-1.136zm9.853.16c-.811 0-1.531-.181-2.16-.544a3.813 3.813 0 0 1-1.44-1.552c-.341-.661-.512-1.413-.512-2.256 0-.864.176-1.632.528-2.304a3.876 3.876 0 0 1 1.456-1.584c.629-.373 1.344-.56 2.144-.56.811 0 1.525.192 2.144.576a3.761 3.761 0 0 1 1.456 1.568c.341.672.512 1.435.512 2.288 0 .843-.176 1.595-.528 2.256a3.784 3.784 0 0 1-1.456 1.552c-.619.373-1.333.56-2.144.56zm.032-1.2c.747 0 1.328-.277 1.744-.832.416-.565.624-1.355.624-2.368s-.213-1.803-.64-2.368c-.416-.576-.997-.864-1.744-.864s-1.333.288-1.76.864c-.427.565-.64 1.355-.64 2.368 0 1.003.213 1.787.64 2.352.427.565 1.019.848 1.776.848zm5.706-10.608c0-.15.08-.224.24-.224h8.784c.149 0 .224.075.224.224v1.024c0 .128-.075.192-.224.192h-3.168c-.064 0-.107.01-.128.032-.021.021-.032.059-.032.112V23.76c0 .16-.075.24-.224.24h-1.504c-.139 0-.208-.075-.208-.224V13.744c0-.075-.016-.123-.048-.144-.021-.021-.064-.032-.128-.032h-3.36c-.149 0-.224-.064-.224-.192v-1.024zm10.862 8c0 .48.112.917.336 1.312.235.384.549.693.944.928.395.224.827.336 1.296.336.491 0 .928-.101 1.312-.304.384-.203.736-.517 1.056-.944.032-.043.069-.064.112-.064.053 0 .096.01.128.032l.816.384c.053.032.08.075.08.128a.273.273 0 0 1-.048.128c-.448.661-.96 1.141-1.536 1.44-.576.288-1.275.432-2.096.432-.8 0-1.515-.181-2.144-.544a3.812 3.812 0 0 1-1.472-1.52c-.352-.661-.528-1.408-.528-2.24 0-.896.181-1.685.544-2.368.363-.683.853-1.205 1.472-1.568a4.03 4.03 0 0 1 2.096-.56c.789 0 1.483.176 2.08.528.597.341 1.056.843 1.376 1.504.331.661.496 1.445.496 2.352v.064c0 .096-.016.17-.048.224-.021.043-.085.064-.192.064h-5.92c-.107 0-.16.085-.16.256zm4.368-1.264c.107 0 .176-.016.208-.048.043-.032.064-.09.064-.176a2.58 2.58 0 0 0-.272-1.168 2.01 2.01 0 0 0-.768-.864c-.331-.224-.725-.336-1.184-.336-.48 0-.901.123-1.264.368-.363.235-.645.55-.848.944a2.641 2.641 0 0 0-.272 1.264l4.336.016zm10.905 4.512c.096.128.144.224.144.288 0 .075-.075.112-.224.112h-1.408c-.181 0-.315-.059-.4-.176l-2.064-2.864c-.064-.096-.117-.144-.16-.144-.021 0-.075.048-.16.144l-2.144 2.864c-.064.117-.192.176-.384.176h-.928c-.181 0-.272-.053-.272-.16 0-.085.043-.187.128-.304l2.832-3.6c.053-.085.08-.15.08-.192 0-.064-.032-.133-.096-.208l-2.72-3.696a.273.273 0 0 1-.048-.128c0-.128.075-.192.224-.192h1.328c.096 0 .171.016.224.048a.422.422 0 0 1 .16.128l1.952 2.672c.043.064.085.096.128.096s.08-.032.112-.096l1.888-2.672a.326.326 0 0 1 .144-.128.474.474 0 0 1 .24-.048h1.024c.128 0 .192.043.192.128 0 .032-.021.08-.064.144l-2.608 3.488a.302.302 0 0 0-.08.192c0 .053.027.123.08.208l2.88 3.92zm4.274-6.864c-.096 0-.144.053-.144.16v4.688c0 .448.08.757.24.928.171.17.437.256.8.256h1.024c.128 0 .192.064.192.192v.688c0 .15-.08.24-.24.272-.341.053-.885.08-1.632.08-.704 0-1.227-.16-1.568-.48-.341-.33-.512-.837-.512-1.52v-5.072c0-.128-.053-.192-.16-.192h-1.2c-.139 0-.208-.064-.208-.192v-.848c0-.117.064-.176.192-.176h1.28c.085 0 .128-.048.128-.144l.192-2.512c.021-.15.085-.224.192-.224h1.104c.139 0 .208.085.208.256v2.48c0 .096.048.144.144.144h1.92c.128 0 .192.059.192.176v.848c0 .128-.075.192-.224.192h-1.92z" fill="#E2291C"/><path d="M77 0h1v34h-1V0z" fill="#B6CAD1"/></svg>