<svg width="134" height="34" viewBox="0 0 134 34" fill="none" xmlns="http://www.w3.org/2000/svg"><path d="M16.56 10.105l-3.268 11.462-2.924-10.307c-.109-.402-.127-.612-.672-.612H8.68c-.526 0-.562.21-.671.612L5.066 21.567l-3.25-11.462L0 10.543l3.74 12.704c.11.386.182.613.709.613h1.035c.526 0 .599-.227.708-.613l2.978-10.29 2.996 10.29c.109.403.163.613.708.613h1.035c.545 0 .6-.21.708-.613l3.723-12.704-1.78-.438zm8.68 4.497c-.818-.437-1.598-.49-2.615-.49-.781 0-1.87.018-2.597.333-1.561.7-1.87 2.538-1.87 4.025v1.138c0 1.487.29 3.15 1.652 3.85.763.385 1.762.507 2.724.507 1.053 0 2.542-.105 3.377-.262l-.127-1.296c-1.144.158-2.378.21-2.941.21-.527 0-1.725-.07-2.27-.507-.509-.42-.672-1.348-.69-2.468h5.52c.853 0 1.235-.402 1.235-.927v-.997c.018-1.768-.672-2.713-1.399-3.116zm-.31 3.728h-5.047c0-1.19.2-2.012.726-2.485.49-.438 1.471-.438 1.961-.438.636 0 1.29.053 1.707.386.454.384.654 1.085.654 2.152v.385zm9.57-3.832c-.89-.385-1.997-.385-2.796-.385-.472 0-1.417.087-2.216.21V10h-1.725v11.567c0 2.048 1.78 2.433 4.159 2.433 2.905 0 4.321-.665 4.321-4.76v-.91c.018-1.487-.163-3.15-1.743-3.832zm.018 4.865c0 2.8-.436 3.342-2.415 3.342-.871 0-1.58-.07-1.98-.297-.49-.28-.635-.736-.635-1.418v-5.285c.8-.175 1.816-.228 2.288-.228 2.197 0 2.724.386 2.724 2.73v1.155h.018zm7.263 3.255c-.526 0-1.652 0-2.106-.42-.527-.473-.69-1.313-.69-2.468v-1.383c0-1.155.145-1.995.69-2.467.454-.403 1.562-.42 2.106-.42.563 0 1.362.035 2.506.21 0 0 .127-1.26.127-1.295-.835-.14-2.16-.262-2.941-.262-.745 0-1.798.07-2.56.455-1.38.7-1.707 2.415-1.707 3.902v1.12c0 1.488.326 3.203 1.706 3.902.763.386 1.816.456 2.56.456.781 0 2.288-.105 3.142-.263l-.127-1.295c-1.162.192-2.16.227-2.706.227zm10.423-8.19c-.726-.316-1.743-.316-2.524-.316-.78 0-1.798 0-2.524.316-1.562.7-1.743 2.555-1.743 4.042v1.138c0 1.487.163 3.377 1.743 4.042.708.315 1.743.315 2.524.315.78 0 1.798 0 2.524-.315 1.562-.7 1.743-2.555 1.743-4.042V18.47c0-1.487-.181-3.342-1.743-4.042zm0 5.32c0 1.154-.036 2.047-.563 2.52-.454.42-1.434.402-1.961.42-.545 0-1.507 0-1.961-.42-.508-.473-.545-1.366-.545-2.52v-1.4c0-1.155.018-2.048.545-2.52.454-.403 1.434-.42 1.961-.42.527 0 1.507.017 1.961.42.509.472.563 1.364.563 2.52v1.4zm13.164-5.636c-1.398 0-3.105.386-3.667.525-.636-.402-1.49-.524-2.452-.524-1.144 0-2.596.192-3.377.332-.254.053-.835.192-.835.963v8.452h1.725v-8.102c.617-.123 1.47-.28 2.197-.28 1.67 0 2.197.56 2.197 2.047v6.335h1.725v-6.475c0-.648-.091-1.173-.273-1.61.69-.14 1.617-.315 2.47-.315 1.652 0 2.197.56 2.197 2.047v6.335H69v-6.457c-.018-2.765-1.58-3.273-3.632-3.273z" fill="#231F20"/><path d="M86.153 24c-.17 0-.256-.09-.256-.272v-11.36c0-.085.016-.144.048-.176.032-.043.09-.064.176-.064h2.096c.096 0 .165.016.208.048.043.021.075.07.096.144l3.2 8.4c.032.096.07.144.112.144.032 0 .075-.053.128-.16l3.152-8.32c.064-.17.16-.256.288-.256h2.176c.139 0 .208.08.208.24v11.344c0 .107-.021.181-.064.224-.043.043-.117.064-.224.064h-1.376c-.096 0-.165-.016-.208-.048-.043-.043-.064-.112-.064-.208v-8.768c0-.053-.01-.075-.032-.064-.021 0-.043.027-.064.08l-3.296 8.784c-.053.15-.155.224-.304.224h-.96c-.16 0-.272-.07-.336-.208l-3.232-8.704c-.021-.075-.048-.107-.08-.096-.021 0-.032.032-.032.096v8.688c0 .085-.016.144-.048.176s-.096.048-.192.048h-1.12zm15.775-3.648c0 .48.112.917.336 1.312.235.384.55.693.944.928.395.224.827.336 1.296.336.491 0 .928-.101 1.312-.304.384-.203.736-.517 1.056-.944.032-.043.07-.064.112-.064a.22.22 0 0 1 .128.032l.816.384c.054.032.08.075.08.128a.273.273 0 0 1-.048.128c-.448.661-.96 1.141-1.536 1.44-.576.288-1.274.432-2.096.432-.8 0-1.514-.181-2.144-.544a3.812 3.812 0 0 1-1.472-1.52c-.352-.661-.528-1.408-.528-2.24 0-.896.182-1.685.544-2.368.363-.683.854-1.205 1.472-1.568a4.033 4.033 0 0 1 2.096-.56c.79 0 1.483.176 2.08.528.598.341 1.056.843 1.376 1.504.331.661.496 1.445.496 2.352v.064c0 .096-.016.17-.048.224-.021.043-.085.064-.192.064h-5.92c-.106 0-.16.085-.16.256zm4.368-1.264c.107 0 .176-.016.208-.048.043-.032.064-.09.064-.176 0-.416-.09-.805-.272-1.168a1.998 1.998 0 0 0-.768-.864c-.33-.224-.725-.336-1.184-.336-.48 0-.901.123-1.264.368-.362.235-.645.55-.848.944a2.653 2.653 0 0 0-.272 1.264l4.336.016zM116.249 24c-.171 0-.256-.085-.256-.256v-.608c0-.096-.027-.144-.08-.144-.032 0-.075.027-.128.08-.32.31-.667.57-1.04.784-.374.203-.848.304-1.424.304-.672 0-1.275-.16-1.808-.48-.523-.33-.934-.816-1.232-1.456-.299-.65-.448-1.435-.448-2.352 0-.885.154-1.67.464-2.352.32-.683.757-1.21 1.312-1.584a3.283 3.283 0 0 1 1.888-.576 3.1 3.1 0 0 1 1.216.224c.352.15.682.357.992.624.053.053.106.08.16.08.064 0 .096-.064.096-.192v-3.728c0-.16.069-.24.208-.24h1.28c.064 0 .112.021.144.064a.24.24 0 0 1 .064.176v11.36c0 .096-.027.165-.08.208-.043.043-.118.064-.224.064h-1.104zm-.288-6.496c-.32-.33-.635-.576-.944-.736-.31-.16-.651-.24-1.024-.24-.726 0-1.312.283-1.76.848-.448.565-.672 1.381-.672 2.448s.218 1.867.656 2.4c.437.523 1.002.784 1.696.784.373 0 .714-.085 1.024-.256.309-.181.554-.405.736-.672.192-.277.288-.555.288-.832v-3.744zm5.993-3.68c0 .117-.027.203-.08.256-.043.053-.123.08-.24.08h-1.184c-.107 0-.182-.021-.224-.064-.043-.053-.064-.133-.064-.24V12.4c0-.181.08-.272.24-.272h1.328c.064 0 .117.027.16.08a.24.24 0 0 1 .064.176v1.44zm-.048 9.872c0 .117-.027.197-.08.24-.043.043-.123.064-.24.064h-1.088c-.107 0-.182-.016-.224-.048-.043-.043-.064-.112-.064-.208V15.76c0-.085.016-.144.048-.176.032-.043.09-.064.176-.064h1.28c.128 0 .192.075.192.224v7.952zm7.425-.656c-.779.747-1.691 1.12-2.736 1.12-.822 0-1.472-.208-1.952-.624-.47-.427-.704-.992-.704-1.696 0-.864.373-1.552 1.12-2.064.757-.512 1.829-.8 3.216-.864l1.04-.08c.17-.021.256-.101.256-.24v-.4c0-.523-.16-.933-.48-1.232-.32-.31-.758-.464-1.312-.464-.875 0-1.574.395-2.096 1.184a.274.274 0 0 1-.112.128c-.032.01-.086.005-.16-.016l-1.088-.32c-.064-.021-.096-.064-.096-.128 0-.043.016-.101.048-.176a3.032 3.032 0 0 1 1.36-1.328c.618-.32 1.36-.48 2.224-.48 1.12 0 1.957.24 2.512.72.554.48.832 1.147.832 2v5.648c0 .107-.022.181-.064.224-.032.032-.091.048-.176.048h-1.072c-.15 0-.235-.107-.256-.32l-.032-.608c-.022-.085-.054-.128-.096-.128-.032 0-.091.032-.176.096zm.24-3.024c0-.17-.075-.25-.224-.24l-.864.064c-.886.053-1.59.235-2.112.544-.512.299-.768.715-.768 1.248 0 .416.149.747.448.992.298.235.698.352 1.2.352.576 0 1.12-.197 1.632-.592.458-.373.688-.747.688-1.12v-1.248z" fill="#1ABD79"/><path d="M77 0h1v34h-1V0z" fill="#B6CAD1"/></svg>