<svg width="115" height="34" viewBox="0 0 115 34" fill="none" xmlns="http://www.w3.org/2000/svg"><path d="M16.56 10.105l-3.268 11.462-2.924-10.307c-.109-.402-.127-.612-.672-.612H8.68c-.526 0-.562.21-.671.612L5.066 21.567l-3.25-11.462L0 10.543l3.74 12.704c.11.386.182.613.709.613h1.035c.526 0 .599-.227.708-.613l2.978-10.29 2.996 10.29c.109.403.163.613.708.613h1.035c.545 0 .6-.21.708-.613l3.723-12.704-1.78-.438zm8.68 4.497c-.818-.437-1.598-.49-2.615-.49-.781 0-1.87.018-2.597.333-1.561.7-1.87 2.538-1.87 4.025v1.138c0 1.487.29 3.15 1.652 3.85.763.385 1.762.507 2.724.507 1.053 0 2.542-.105 3.377-.262l-.127-1.296c-1.144.158-2.378.21-2.941.21-.527 0-1.725-.07-2.27-.507-.509-.42-.672-1.348-.69-2.468h5.52c.853 0 1.235-.402 1.235-.927v-.997c.018-1.768-.672-2.713-1.399-3.116zm-.31 3.728h-5.047c0-1.19.2-2.012.726-2.485.49-.438 1.471-.438 1.961-.438.636 0 1.29.053 1.707.386.454.384.654 1.085.654 2.152v.385zm9.57-3.832c-.89-.385-1.997-.385-2.796-.385-.472 0-1.417.087-2.216.21V10h-1.725v11.567c0 2.048 1.78 2.433 4.159 2.433 2.905 0 4.321-.665 4.321-4.76v-.91c.018-1.487-.163-3.15-1.743-3.832zm.018 4.865c0 2.8-.436 3.342-2.415 3.342-.871 0-1.58-.07-1.98-.297-.49-.28-.635-.736-.635-1.418v-5.285c.8-.175 1.816-.228 2.288-.228 2.197 0 2.724.386 2.724 2.73v1.155h.018zm7.263 3.255c-.526 0-1.652 0-2.106-.42-.527-.473-.69-1.313-.69-2.468v-1.383c0-1.155.145-1.995.69-2.467.454-.403 1.562-.42 2.106-.42.563 0 1.362.035 2.506.21 0 0 .127-1.26.127-1.295-.835-.14-2.16-.262-2.941-.262-.745 0-1.798.07-2.56.455-1.38.7-1.707 2.415-1.707 3.902v1.12c0 1.488.326 3.203 1.706 3.902.763.386 1.816.456 2.56.456.781 0 2.288-.105 3.142-.263l-.127-1.295c-1.162.192-2.16.227-2.706.227zm10.423-8.19c-.726-.316-1.743-.316-2.524-.316-.78 0-1.798 0-2.524.316-1.562.7-1.743 2.555-1.743 4.042v1.138c0 1.487.163 3.377 1.743 4.042.708.315 1.743.315 2.524.315.78 0 1.798 0 2.524-.315 1.562-.7 1.743-2.555 1.743-4.042V18.47c0-1.487-.181-3.342-1.743-4.042zm0 5.32c0 1.154-.036 2.047-.563 2.52-.454.42-1.434.402-1.961.42-.545 0-1.507 0-1.961-.42-.508-.473-.545-1.366-.545-2.52v-1.4c0-1.155.018-2.048.545-2.52.454-.403 1.434-.42 1.961-.42.527 0 1.507.017 1.961.42.509.472.563 1.364.563 2.52v1.4zm13.164-5.636c-1.398 0-3.105.386-3.667.525-.636-.402-1.49-.524-2.452-.524-1.144 0-2.596.192-3.377.332-.254.053-.835.192-.835.963v8.452h1.725v-8.102c.617-.123 1.47-.28 2.197-.28 1.67 0 2.197.56 2.197 2.047v6.335h1.725v-6.475c0-.648-.091-1.173-.273-1.61.69-.14 1.617-.315 2.47-.315 1.652 0 2.197.56 2.197 2.047v6.335H69v-6.457c-.018-2.765-1.58-3.273-3.632-3.273z" fill="#231F20"/><path d="M95.076 15.664c0 1.141-.39 2.01-1.168 2.608-.768.597-1.797.896-3.088.896h-2.624c-.107 0-.16.053-.16.16v4.4c0 .181-.096.272-.288.272h-1.392c-.17 0-.256-.08-.256-.24V12.368c0-.085.016-.144.048-.176.032-.043.09-.064.176-.064h4.272c1.344 0 2.426.299 3.248.896.821.587 1.232 1.467 1.232 2.64zm-1.984-.048c0-1.376-.87-2.064-2.608-2.064h-2.208c-.085 0-.15.016-.192.048-.032.032-.048.09-.048.176v3.728c0 .16.058.24.176.24h2.384c.778 0 1.386-.176 1.824-.528.448-.363.672-.896.672-1.6zm9.06 7.424c-.779.747-1.691 1.12-2.736 1.12-.822 0-1.472-.208-1.952-.624-.47-.427-.704-.992-.704-1.696 0-.864.373-1.552 1.12-2.064.757-.512 1.83-.8 3.216-.864l1.04-.08c.17-.021.256-.101.256-.24v-.4c0-.523-.16-.933-.48-1.232-.32-.31-.758-.464-1.312-.464-.875 0-1.574.395-2.096 1.184a.27.27 0 0 1-.112.128c-.032.01-.086.005-.16-.016l-1.088-.32c-.064-.021-.096-.064-.096-.128 0-.043.016-.101.048-.176a3.035 3.035 0 0 1 1.36-1.328c.618-.32 1.36-.48 2.224-.48 1.12 0 1.957.24 2.512.72.554.48.832 1.147.832 2v5.648c0 .107-.022.181-.064.224-.032.032-.091.048-.176.048h-1.072c-.15 0-.235-.107-.256-.32l-.032-.608c-.022-.085-.054-.128-.096-.128-.032 0-.091.032-.176.096zm.24-3.024c0-.17-.075-.25-.224-.24l-.864.064c-.886.053-1.59.235-2.112.544-.512.299-.768.715-.768 1.248 0 .416.15.747.448.992.298.235.698.352 1.2.352.576 0 1.12-.197 1.632-.592.458-.373.688-.747.688-1.12v-1.248zm4.636 6.624c-.363 0-.619-.016-.768-.048-.139-.021-.208-.085-.208-.192v-.816c0-.15.149-.224.448-.224h1.04c.235 0 .453-.08.656-.24.213-.16.379-.363.496-.608.117-.245.176-.485.176-.72a.86.86 0 0 0-.064-.352l-3.056-7.616a.269.269 0 0 1-.016-.112c0-.128.075-.192.224-.192h1.312c.064 0 .123.021.176.064a.2.2 0 0 1 .096.144l2.208 5.76c.032.096.069.144.112.144.064 0 .117-.064.16-.192l2.176-5.728c.053-.128.139-.192.256-.192h.944c.075 0 .128.032.16.096.043.053.048.112.016.176l-3.44 8.72c-.224.576-.475 1.013-.752 1.312a2.17 2.17 0 0 1-.976.64c-.363.117-.821.176-1.376.176z" fill="#008EC5"/><path d="M77 0h1v34h-1V0z" fill="#B6CAD1"/></svg>