<svg width="129" height="34" viewBox="0 0 129 34" fill="none" xmlns="http://www.w3.org/2000/svg"><path d="M16.56 10.105l-3.268 11.462-2.924-10.307c-.109-.402-.127-.612-.672-.612H8.68c-.526 0-.562.21-.671.612L5.066 21.567l-3.25-11.462L0 10.543l3.74 12.704c.11.386.182.613.709.613h1.035c.526 0 .599-.227.708-.613l2.978-10.29 2.996 10.29c.109.403.163.613.708.613h1.035c.545 0 .6-.21.708-.613l3.723-12.704-1.78-.438zm8.68 4.497c-.818-.437-1.598-.49-2.615-.49-.781 0-1.87.018-2.597.333-1.561.7-1.87 2.538-1.87 4.025v1.138c0 1.487.29 3.15 1.652 3.85.763.385 1.762.507 2.724.507 1.053 0 2.542-.105 3.377-.262l-.127-1.296c-1.144.158-2.378.21-2.941.21-.527 0-1.725-.07-2.27-.507-.509-.42-.672-1.348-.69-2.468h5.52c.853 0 1.235-.402 1.235-.927v-.997c.018-1.768-.672-2.713-1.399-3.116zm-.31 3.728h-5.047c0-1.19.2-2.012.726-2.485.49-.438 1.471-.438 1.961-.438.636 0 1.29.053 1.707.386.454.384.654 1.085.654 2.152v.385zm9.57-3.832c-.89-.385-1.997-.385-2.796-.385-.472 0-1.417.087-2.216.21V10h-1.725v11.567c0 2.048 1.78 2.433 4.159 2.433 2.905 0 4.321-.665 4.321-4.76v-.91c.018-1.487-.163-3.15-1.743-3.832zm.018 4.865c0 2.8-.436 3.342-2.415 3.342-.871 0-1.58-.07-1.98-.297-.49-.28-.635-.736-.635-1.418v-5.285c.8-.175 1.816-.228 2.288-.228 2.197 0 2.724.386 2.724 2.73v1.155h.018zm7.263 3.255c-.526 0-1.652 0-2.106-.42-.527-.473-.69-1.313-.69-2.468v-1.383c0-1.155.145-1.995.69-2.467.454-.403 1.562-.42 2.106-.42.563 0 1.362.035 2.506.21 0 0 .127-1.26.127-1.295-.835-.14-2.16-.262-2.941-.262-.745 0-1.798.07-2.56.455-1.38.7-1.707 2.415-1.707 3.902v1.12c0 1.488.326 3.203 1.706 3.902.763.386 1.816.456 2.56.456.781 0 2.288-.105 3.142-.263l-.127-1.295c-1.162.192-2.16.227-2.706.227zm10.423-8.19c-.726-.316-1.743-.316-2.524-.316-.78 0-1.798 0-2.524.316-1.562.7-1.743 2.555-1.743 4.042v1.138c0 1.487.163 3.377 1.743 4.042.708.315 1.743.315 2.524.315.78 0 1.798 0 2.524-.315 1.562-.7 1.743-2.555 1.743-4.042V18.47c0-1.487-.181-3.342-1.743-4.042zm0 5.32c0 1.154-.036 2.047-.563 2.52-.454.42-1.434.402-1.961.42-.545 0-1.507 0-1.961-.42-.508-.473-.545-1.366-.545-2.52v-1.4c0-1.155.018-2.048.545-2.52.454-.403 1.434-.42 1.961-.42.527 0 1.507.017 1.961.42.509.472.563 1.364.563 2.52v1.4zm13.164-5.636c-1.398 0-3.105.386-3.667.525-.636-.402-1.49-.524-2.452-.524-1.144 0-2.596.192-3.377.332-.254.053-.835.192-.835.963v8.452h1.725v-8.102c.617-.123 1.47-.28 2.197-.28 1.67 0 2.197.56 2.197 2.047v6.335h1.725v-6.475c0-.648-.091-1.173-.273-1.61.69-.14 1.617-.315 2.47-.315 1.652 0 2.197.56 2.197 2.047v6.335H69v-6.457c-.018-2.765-1.58-3.273-3.632-3.273z" fill="#231F20"/><path d="M101.324 12.128c.107 0 .182.032.224.096.054.064.064.15.032.256L98.3 23.728a.385.385 0 0 1-.144.208c-.053.043-.133.064-.24.064H96.7c-.224 0-.357-.085-.4-.256l-2.4-8.416c-.01-.075-.032-.112-.064-.112-.01 0-.032.043-.064.128l-2.432 8.384a.32.32 0 0 1-.128.208c-.053.043-.138.064-.256.064h-1.248c-.202 0-.336-.085-.4-.256L86.06 12.48a.353.353 0 0 1-.016-.112c0-.16.096-.24.288-.24h1.328c.096 0 .166.016.208.048a.26.26 0 0 1 .112.16l2.448 8.688c.032.117.064.176.096.176s.064-.053.096-.16l2.464-8.704c.043-.139.155-.208.336-.208h1.152c.107 0 .182.016.224.048a.294.294 0 0 1 .096.16l2.464 8.752c.032.085.064.128.096.128.043 0 .075-.043.096-.128l2.448-8.752c.032-.139.139-.208.32-.208h1.008zm4.123 1.696c0 .117-.027.203-.08.256-.043.053-.123.08-.24.08h-1.184c-.107 0-.182-.021-.224-.064-.043-.053-.064-.133-.064-.24V12.4c0-.181.08-.272.24-.272h1.328c.064 0 .117.027.16.08a.24.24 0 0 1 .064.176v1.44zm-.048 9.872c0 .117-.027.197-.08.24-.043.043-.123.064-.24.064h-1.088c-.107 0-.182-.016-.224-.048-.043-.043-.064-.112-.064-.208V15.76c0-.085.016-.144.048-.176.032-.043.09-.064.176-.064h1.28c.128 0 .192.075.192.224v7.952zm6.625-3.536c0 .17-.107.256-.32.256h-3.68c-.086 0-.15-.016-.192-.048-.032-.032-.048-.09-.048-.176v-.848c0-.15.058-.224.176-.224h3.872c.128 0 .192.059.192.176v.864zm2.653-7.792c0-.16.075-.24.224-.24h7.312c.128 0 .192.07.192.208l-.016 1.008c0 .16-.08.24-.24.24h-5.296a.32.32 0 0 0-.192.048c-.032.032-.048.085-.048.16v3.488c0 .128.07.192.208.192h4.016c.128 0 .192.064.192.192v1.056c0 .064-.016.112-.048.144-.021.021-.069.032-.144.032h-4.032c-.128 0-.192.064-.192.192v4.656c0 .096-.021.165-.064.208-.042.032-.117.048-.224.048h-1.376c-.106 0-.181-.016-.224-.048-.032-.043-.048-.112-.048-.208V12.368zm11.558 1.456c0 .117-.027.203-.08.256-.043.053-.123.08-.24.08h-1.184c-.107 0-.182-.021-.224-.064-.043-.053-.064-.133-.064-.24V12.4c0-.181.08-.272.24-.272h1.328c.064 0 .117.027.16.08a.24.24 0 0 1 .064.176v1.44zm-.048 9.872c0 .117-.027.197-.08.24-.043.043-.123.064-.24.064h-1.088c-.107 0-.182-.016-.224-.048-.043-.043-.064-.112-.064-.208V15.76c0-.085.016-.144.048-.176.032-.043.09-.064.176-.064h1.28c.128 0 .192.075.192.224v7.952z" fill="#008EC5"/><path d="M77 0h1v34h-1V0z" fill="#B6CAD1"/></svg>