<svg fill="none" height="20" viewBox="0 0 109 20" width="109" xmlns="http://www.w3.org/2000/svg"><linearGradient id="a" gradientUnits="userSpaceOnUse" x1="17.008" x2="17.008" y1="14.54" y2="-1.034"><stop offset="0" stop-color="#c6e9fa"/><stop offset="1" stop-color="#00a0e3"/></linearGradient><linearGradient id="b" gradientUnits="userSpaceOnUse" x1="17.024" x2="17.024" y1="12.707" y2="-.424"><stop offset="0" stop-color="#fff100"/><stop offset="1" stop-color="#f48120"/></linearGradient><linearGradient id="c" gradientUnits="userSpaceOnUse" x1="17.009" x2="17.009" y1="20.035" y2="5.073"><stop offset="0" stop-color="#d6de23"/><stop offset="1" stop-color="#00974a"/></linearGradient><g clip-rule="evenodd" fill-rule="evenodd"><path d="M32.246.017h-7.924c-1.292 0-2.647 1.07-3.036 2.41l-4.282 15.148-4.281-15.148c-.374-1.325-1.728-2.41-3.02-2.41h-7.94C.47.017-.278 1.102.095 2.427l4.282 15.148c.373 1.325 1.728 2.41 3.036 2.41h7.924c.841 0 1.448-.463 1.666-1.15.218.687.825 1.15 1.666 1.15h7.925c1.292 0 2.647-1.07 3.02-2.41l4.282-15.148c.39-1.325-.358-2.41-1.65-2.41z" fill="url(#a)"/><path d="M13.704.016c-.639 0-1.355.383-1.869.942.42.399.748.91.888 1.452l4.281 15.148L21.286 2.41c.171-.59.467-1.07.934-1.484C21.706.415 21.1 0 20.492 0h-6.788z" fill="url(#b)"/><path d="M28.308 17.59L23.123 2.442c-.156-.543-.452-1.101-.887-1.5a3.037 3.037 0 0 0-.935 1.484l-4.297 15.148v.016L12.723 2.442A3.214 3.214 0 0 0 11.82.974a3.245 3.245 0 0 0-.919 1.468L5.717 17.59C5.312 18.915 6.12 20 7.507 20h7.831c.841 0 1.448-.447 1.666-1.133.218.686.825 1.133 1.666 1.133h7.831c1.402-.016 2.196-1.085 1.806-2.41z" fill="url(#c)"/></g><path d="M56.56 3.105l-3.268 11.463L50.368 4.26c-.109-.402-.127-.612-.672-.612H48.68c-.526 0-.562.21-.671.612l-2.942 10.308-3.25-11.463L40 3.543l3.74 12.704c.11.386.182.613.709.613h1.035c.526 0 .599-.227.708-.612l2.978-10.29 2.996 10.29c.109.402.163.612.708.612h1.035c.545 0 .6-.21.708-.612L58.34 3.543zm8.68 4.497c-.818-.437-1.598-.49-2.615-.49-.781 0-1.87.018-2.597.333-1.561.7-1.87 2.537-1.87 4.025v1.137c0 1.488.29 3.15 1.652 3.85.763.385 1.762.508 2.724.508 1.053 0 2.542-.105 3.377-.263l-.127-1.295c-1.144.158-2.378.21-2.941.21-.527 0-1.725-.07-2.27-.507-.509-.42-.672-1.347-.69-2.467h5.52c.853 0 1.235-.403 1.235-.928v-.997c.018-1.768-.672-2.713-1.399-3.115zm-.31 3.728h-5.047c0-1.19.2-2.013.726-2.485.49-.438 1.471-.438 1.961-.438.636 0 1.29.053 1.707.385.454.385.654 1.085.654 2.153zm9.57-3.833c-.89-.385-1.997-.385-2.796-.385-.472 0-1.417.088-2.216.21V3h-1.725v11.567c0 2.048 1.78 2.433 4.159 2.433 2.905 0 4.321-.665 4.321-4.76v-.91c.018-1.488-.163-3.15-1.743-3.833zm.018 4.865c0 2.8-.436 3.343-2.415 3.343-.871 0-1.58-.07-1.979-.298-.49-.28-.636-.735-.636-1.417V8.705c.8-.175 1.816-.228 2.288-.228 2.197 0 2.724.385 2.724 2.73v1.155zm7.263 3.255c-.526 0-1.652 0-2.106-.42-.527-.472-.69-1.312-.69-2.467v-1.383c0-1.154.145-1.994.69-2.467.454-.403 1.562-.42 2.106-.42.563 0 1.362.035 2.506.21 0 0 .127-1.26.127-1.295-.835-.14-2.16-.262-2.941-.262-.745 0-1.798.07-2.56.455-1.38.7-1.707 2.415-1.707 3.902v1.12c0 1.488.326 3.203 1.706 3.903.763.385 1.816.455 2.56.455.781 0 2.289-.105 3.142-.263l-.127-1.295c-1.162.193-2.16.228-2.706.228zm10.423-8.19c-.726-.314-1.743-.314-2.524-.314s-1.798 0-2.524.314c-1.562.7-1.743 2.556-1.743 4.043v1.137c0 1.488.163 3.378 1.743 4.043.708.315 1.743.315 2.524.315s1.798 0 2.524-.315c1.562-.7 1.743-2.555 1.743-4.043V11.47c0-1.488-.181-3.343-1.743-4.043zm0 5.32c0 1.156-.036 2.048-.563 2.52-.454.42-1.434.403-1.96.42-.546 0-1.508 0-1.962-.42-.508-.472-.545-1.364-.545-2.52v-1.4c0-1.154.018-2.047.545-2.52.454-.402 1.435-.42 1.961-.42.527 0 1.507.018 1.961.42.508.473.563 1.366.563 2.52zm13.164-5.634c-1.398 0-3.105.385-3.667.525-.636-.403-1.489-.525-2.452-.525-1.144 0-2.596.192-3.377.332-.254.052-.835.193-.835.963v8.452h1.725V8.758c.617-.123 1.47-.28 2.197-.28 1.67 0 2.197.56 2.197 2.047v6.335h1.725v-6.475c0-.647-.091-1.173-.273-1.61.69-.14 1.617-.315 2.47-.315 1.652 0 2.197.56 2.197 2.047v6.336H109v-6.458c-.018-2.765-1.58-3.272-3.632-3.272z" fill="#231f20"/></svg>