<svg id="Слой_1" data-name="Слой 1" xmlns="http://www.w3.org/2000/svg" viewBox="0 0 266.5 50"><defs><style>.cls-1{fill:#dc7d43}.cls-2{fill:url(#Безымянный_градиент_4)}.cls-3{fill:url(#Безымянный_градиент_2)}.cls-4{fill:url(#Безымянный_градиент_3)}.cls-5{fill:#211c1d}.cls-6{fill:#b4c7ce}</style><linearGradient id="Безымянный_градиент_4" x1="52.045" y1="796.238" x2="52.045" y2="811.542" gradientTransform="matrix(1 0 0 -1 0 825.699)" gradientUnits="userSpaceOnUse"><stop offset="0" stop-color="#c6e4f4"/><stop offset="1" stop-color="#4699cd"/></linearGradient><linearGradient id="Безымянный_градиент_2" x1="52.073" y1="798.039" x2="52.073" y2="810.942" gradientTransform="matrix(1 0 0 -1 0 825.699)" gradientUnits="userSpaceOnUse"><stop offset="0" stop-color="#f6eb46"/><stop offset="1" stop-color="#de8444"/></linearGradient><linearGradient id="Безымянный_градиент_3" x1="52.054" y1="790.838" x2="52.054" y2="805.541" gradientTransform="matrix(1 0 0 -1 0 825.699)" gradientUnits="userSpaceOnUse"><stop offset="0" stop-color="#cfd74e"/><stop offset="1" stop-color="#50905e"/></linearGradient></defs><title>На сайт</title><path class="cls-1" d="M168.029 20.491l4.626 11.225h-1.9l-1.2-3.008h-5.135l-1.2 3.008h-1.9l4.626-11.225zm-1.018 1.482h-.047c-.092.314-.231.674-.324.988-.046.09-.6 1.527-1.757 4.4h4.256c-1.11-2.829-1.711-4.31-1.757-4.4a.587.587 0 0 0-.046-.225 3.429 3.429 0 0 1-.325-.764zm14.017 3.995l-1.757.314a2.214 2.214 0 0 0-2.082-1.526q-2.429.135-2.5 2.963c.047 1.886.879 2.874 2.5 2.919a2 2 0 0 0 2.128-1.841l1.8.225c-.508 2.02-1.8 2.963-4.024 2.918-2.73-.09-4.164-1.482-4.256-4.176.092-2.829 1.48-4.265 4.256-4.31a3.744 3.744 0 0 1 3.935 2.514zm9.206 5.703h-1.619a3.1 3.1 0 0 1-.463-1.392 4.036 4.036 0 0 1-3.608 1.571c-1.711-.09-2.637-.808-2.729-2.245 0-1.482 1.018-2.335 3.1-2.559 1.8-.269 2.868-.539 3.146-.9.092-1.123-.6-1.661-2.035-1.571-1.3 0-2.082.494-2.314 1.482l-1.619-.269c.417-1.661 1.712-2.469 3.933-2.425q3.886-.135 3.746 3.233v3.324a4.1 4.1 0 0 0 .462 1.751zm-2.034-3.413v-1.032a4.692 4.692 0 0 1-2.5.808c-1.527.18-2.221.674-2.221 1.527-.046.808.554 1.167 1.757 1.167 1.852-.135 2.823-.943 2.964-2.47zm8.973-8.171h1.758v11.584h-1.758v-1.258a2.866 2.866 0 0 1-2.821 1.482c-2.221-.135-3.378-1.482-3.424-4.041.046-2.918 1.249-4.4 3.654-4.445a2.768 2.768 0 0 1 2.591 1.571zm.046 7.767v-.808a2.386 2.386 0 0 0-2.267-2.335c-1.526.09-2.267 1.077-2.313 3.008.046 1.931.787 2.919 2.313 2.963 1.481-.044 2.221-.987 2.267-2.828zm9.622 1.346l1.8.269c-.6 1.616-1.989 2.425-4.117 2.425-2.775-.09-4.256-1.482-4.348-4.131.092-2.829 1.526-4.265 4.164-4.4 2.775.045 4.21 1.482 4.256 4.4v.449h-6.662a2.417 2.417 0 0 0 2.591 2.514 2.174 2.174 0 0 0 2.316-1.526zm-4.9-2.155h4.951a2.309 2.309 0 0 0-2.406-2.469 2.419 2.419 0 0 0-2.548 2.47zm20.351 4.626h-1.757v-4.8c.046-1.482-.509-2.245-1.711-2.2-1.2.09-1.851.808-1.9 2.245v4.714h-1.758v-4.8c.046-1.482-.508-2.155-1.711-2.155-1.2.045-1.851.808-1.9 2.29v4.67h-1.711v-8.046h1.711v1.437a3.073 3.073 0 0 1 2.73-1.661 2.3 2.3 0 0 1 2.5 1.751 2.9 2.9 0 0 1 2.776-1.751q2.776 0 2.776 3.233v5.074zm4.349-.271l-3.516-7.767h1.851l2.081 5.433.324 1.033h.046l.324-1.033 1.9-5.433h1.849c-1.989 4.714-3.192 7.543-3.608 8.441-.694 1.976-1.665 2.874-2.822 2.739a3.285 3.285 0 0 1-1.527-.269l-.092-1.212a3.236 3.236 0 0 0 1.064.225 1.521 1.521 0 0 0 1.527-.988 8.856 8.856 0 0 0 .599-1.169z"/><path class="cls-2" d="M67.33 15.19h-7.945a3.405 3.405 0 0 0-3.044 2.368l-4.292 14.886-4.292-14.886a3.391 3.391 0 0 0-3.028-2.368h-7.96a1.72 1.72 0 0 0-1.67 2.368l4.291 14.886a3.394 3.394 0 0 0 3.044 2.368h7.945a1.658 1.658 0 0 0 1.67-1.129 1.659 1.659 0 0 0 1.67 1.129h7.945a3.369 3.369 0 0 0 3.028-2.368l4.292-14.885a1.706 1.706 0 0 0-1.654-2.369z"/><path class="cls-3" d="M48.74 15.189a2.755 2.755 0 0 0-1.873.925 3.07 3.07 0 0 1 .89 1.427l4.292 14.885 4.292-14.885a2.986 2.986 0 0 1 .937-1.459 2.7 2.7 0 0 0-1.733-.91H48.74z"/><path class="cls-4" d="M63.381 32.458l-5.2-14.885a3.212 3.212 0 0 0-.89-1.474 2.977 2.977 0 0 0-.936 1.459l-4.306 14.885v.016l-4.292-14.886a3.149 3.149 0 0 0-.905-1.443 3.181 3.181 0 0 0-.921 1.443l-5.2 14.885a1.743 1.743 0 0 0 1.795 2.368h7.851a1.647 1.647 0 0 0 1.67-1.114 1.647 1.647 0 0 0 1.67 1.114h7.853a1.756 1.756 0 0 0 1.811-2.368z"/><path class="cls-5" d="M91.7 18.225l-3.272 11.263L85.5 19.359c-.109-.4-.127-.6-.674-.6H83.8c-.528 0-.564.206-.674.6l-2.944 10.129-3.259-11.263-1.82.43 3.75 12.485c.109.378.182.6.71.6H80.6c.528 0 .6-.224.71-.6l2.99-10.112 3 10.112c.109.4.164.6.71.6h1.038c.546 0 .6-.206.71-.6l3.732-12.485zm8.7 4.42a5.239 5.239 0 0 0-2.621-.482 7.367 7.367 0 0 0-2.6.327c-1.566.688-1.875 2.494-1.875 3.955v1.118c0 1.462.291 3.1 1.657 3.783a6.361 6.361 0 0 0 2.731.5 22.475 22.475 0 0 0 3.386-.258l-.128-1.273a25.057 25.057 0 0 1-2.95.205 4.421 4.421 0 0 1-2.276-.5 3.256 3.256 0 0 1-.692-2.425h5.534c.856 0 1.238-.4 1.238-.911v-.98a3.179 3.179 0 0 0-1.398-3.06zm-.309 3.663h-5.055a3.126 3.126 0 0 1 .728-2.442 3.29 3.29 0 0 1 1.966-.43 2.854 2.854 0 0 1 1.711.378 2.631 2.631 0 0 1 .655 2.115zm9.593-3.766a7.411 7.411 0 0 0-2.8-.378 18.3 18.3 0 0 0-2.221.206v-4.249h-1.729v11.367c0 2.012 1.784 2.39 4.169 2.39 2.913 0 4.333-.653 4.333-4.678v-.894c.02-1.461-.162-3.094-1.746-3.765zm.018 4.781c0 2.751-.437 3.285-2.421 3.285a4.556 4.556 0 0 1-1.984-.292 1.387 1.387 0 0 1-.637-1.393v-5.196a12.57 12.57 0 0 1 2.294-.224c2.2 0 2.731.378 2.731 2.683v1.135zm7.282 3.2a3.762 3.762 0 0 1-2.112-.413 3.132 3.132 0 0 1-.692-2.425v-1.361a3.062 3.062 0 0 1 .692-2.425 3.881 3.881 0 0 1 2.112-.413 16.609 16.609 0 0 1 2.512.206s.127-1.238.127-1.273a22.1 22.1 0 0 0-2.949-.258 6.188 6.188 0 0 0-2.567.447c-1.383.688-1.711 2.373-1.711 3.835v1.1c0 1.462.328 3.147 1.711 3.835a6.188 6.188 0 0 0 2.567.447 22.458 22.458 0 0 0 3.149-.258L119.7 30.3a17.415 17.415 0 0 1-2.71.22zm10.449-8.048a10.5 10.5 0 0 0-5.061 0c-1.566.688-1.748 2.511-1.748 3.972v1.118c0 1.462.164 3.319 1.748 3.972a10.5 10.5 0 0 0 5.061 0c1.566-.688 1.748-2.511 1.748-3.972v-1.12c.006-1.462-.181-3.285-1.742-3.973zm0 5.228c0 1.135-.036 2.012-.564 2.476a3.421 3.421 0 0 1-1.966.413 3.262 3.262 0 0 1-1.966-.413c-.51-.464-.546-1.341-.546-2.476v-1.379c0-1.135.018-2.012.546-2.476a4.889 4.889 0 0 1 3.932 0c.51.464.564 1.341.564 2.476zm13.2-5.537a17.763 17.763 0 0 0-3.677.516 4.684 4.684 0 0 0-2.457-.516 22.336 22.336 0 0 0-3.386.327.9.9 0 0 0-.837.946v8.306h1.729v-7.966a12.364 12.364 0 0 1 2.2-.275c1.675 0 2.2.55 2.2 2.012v6.225h1.729v-6.363a4.012 4.012 0 0 0-.274-1.582 13.234 13.234 0 0 1 2.476-.31c1.656 0 2.2.55 2.2 2.012v6.225h1.729v-6.345c-.005-2.717-1.571-3.215-3.628-3.215z"/><path class="cls-6" d="M152.3 8.295h1v33.41h-1z"/></svg>