<svg width="156" height="144" viewBox="0 0 156 144" fill="none" xmlns="http://www.w3.org/2000/svg"><path d="M121.903 39.089c-9.595-16.62-30.84-22.313-47.46-12.717-11.027 6.366-16.888 23.2-25.03 32.8C37.272 73.486 27.758 78.17 34.372 89.624c6.711 11.626 15.381 5.58 33.831 2.237 12.412-2.253 30.042 1.005 40.983-5.312 16.62-9.596 22.31-30.846 12.717-47.461z" fill="url(#a)" filter="url(#b)"/><path d="M44.28 75.098l9.523 12.584 6.668-1.577-11.887-15.706-4.304 4.699zm10.727-11.711a189.594 189.594 0 0 1-4.248 4.695l13.06 17.257c1.097-.247 2.276-.479 3.452-.71L55.007 63.387zM42.25 77.615c-2.28 3.207-1.864 4.666-.265 7.437 1.864 3.228 2.917 4.25 8.411 3.317l-8.145-10.754z" fill="#3C3C3C"/><path opacity=".6" d="M58.668 59.084l14.739 25.529c3.718-.345 7.605-.423 11.407-.488h.002c8.487-.138 17.26-.28 22.78-3.466C121.171 72.82 125.838 55.403 118 41.827c-7.837-13.575-25.255-18.242-38.831-10.405-5.561 3.211-10.038 10.712-14.364 17.97-1.96 3.282-3.97 6.624-6.137 9.692z" fill="url(#c)"/><path d="M110.37 45.57c-5.226-9.05-16.836-12.162-25.888-6.936a1.58 1.58 0 0 0 1.58 2.735c7.541-4.354 17.219-1.76 21.573 5.78a1.58 1.58 0 0 0 2.735-1.579z" fill="#fff"/><defs><filter id="b" x=".918" y=".959" width="154.439" height="142.878" filterUnits="userSpaceOnUse" color-interpolation-filters="sRGB"><feFlood flood-opacity="0" result="BackgroundImageFix"/><feColorMatrix in="SourceAlpha" values="0 0 0 0 0 0 0 0 0 0 0 0 0 0 0 0 0 0 127 0"/><feOffset dy="8.041"/><feGaussianBlur stdDeviation="8.041"/><feColorMatrix values="0 0 0 0 0.845833 0 0 0 0 0.449341 0 0 0 0 0.0563889 0 0 0 0.4 0"/><feBlend in2="BackgroundImageFix" result="effect1_dropShadow"/><feBlend in="SourceGraphic" in2="effect1_dropShadow" result="shape"/><feColorMatrix in="SourceAlpha" values="0 0 0 0 0 0 0 0 0 0 0 0 0 0 0 0 0 0 127 0" result="hardAlpha"/><feOffset dy="2.297"/><feGaussianBlur stdDeviation="13.784"/><feComposite in2="hardAlpha" operator="arithmetic" k2="-1" k3="1"/><feColorMatrix values="0 0 0 0 1 0 0 0 0 0.807333 0 0 0 0 0.433333 0 0 0 0.6 0"/><feBlend in2="shape" result="effect2_innerShadow"/></filter><linearGradient id="a" x1="121.903" y1="39.089" x2="34.372" y2="89.625" gradientUnits="userSpaceOnUse"><stop stop-color="#FFA800"/><stop offset="1" stop-color="#F00"/></linearGradient><linearGradient id="c" x1="118" y1="41.827" x2="66.029" y2="71.833" gradientUnits="userSpaceOnUse"><stop stop-color="#FFEFD1"/><stop offset="1" stop-color="#F90"/></linearGradient></defs></svg>