<svg width="118" height="117" viewBox="0 0 118 117" fill="none" xmlns="http://www.w3.org/2000/svg"><path d="M82.724 51c0 13.103-10.62 23.724-23.724 23.724V94c23.748 0 43-19.252 43-43S82.748 8 59 8v19.276c13.103 0 23.724 10.62 23.724 23.724z" fill="url(#a)" filter="url(#b)"/><path d="M59 94c11.874 0 22.624-4.814 30.406-12.595l-13.63-13.63A23.655 23.655 0 0 1 59 74.724a23.656 23.656 0 0 1-16.776-6.949l-13.63 13.63C36.377 89.186 47.127 93.999 59 93.999z" fill="url(#c)" filter="url(#d)"/><path d="M35.276 51c0-13.103 10.62-23.724 23.724-23.724V8C35.252 8 16 27.252 16 51c0 11.874 4.813 22.624 12.595 30.405l13.63-13.63A23.655 23.655 0 0 1 35.274 51z" fill="url(#e)" filter="url(#f)"/><defs><filter id="b" x="43.76" y=".38" width="73.481" height="116.481" filterUnits="userSpaceOnUse" color-interpolation-filters="sRGB"><feFlood flood-opacity="0" result="BackgroundImageFix"/><feColorMatrix in="SourceAlpha" values="0 0 0 0 0 0 0 0 0 0 0 0 0 0 0 0 0 0 127 0"/><feOffset dy="7.62"/><feGaussianBlur stdDeviation="7.62"/><feColorMatrix values="0 0 0 0 0.845833 0 0 0 0 0.449341 0 0 0 0 0.0563889 0 0 0 0.4 0"/><feBlend in2="BackgroundImageFix" result="effect1_dropShadow"/><feBlend in="SourceGraphic" in2="effect1_dropShadow" result="shape"/><feColorMatrix in="SourceAlpha" values="0 0 0 0 0 0 0 0 0 0 0 0 0 0 0 0 0 0 127 0" result="hardAlpha"/><feOffset dy="2.177"/><feGaussianBlur stdDeviation="13.063"/><feComposite in2="hardAlpha" operator="arithmetic" k2="-1" k3="1"/><feColorMatrix values="0 0 0 0 1 0 0 0 0 0.807333 0 0 0 0 0.433333 0 0 0 0.6 0"/><feBlend in2="shape" result="effect2_innerShadow"/></filter><filter id="d" x="14.595" y="60.775" width="88.811" height="54.224" filterUnits="userSpaceOnUse" color-interpolation-filters="sRGB"><feFlood flood-opacity="0" result="BackgroundImageFix"/><feColorMatrix in="SourceAlpha" values="0 0 0 0 0 0 0 0 0 0 0 0 0 0 0 0 0 0 127 0"/><feOffset dy="7"/><feGaussianBlur stdDeviation="7"/><feColorMatrix values="0 0 0 0 0.845833 0 0 0 0 0.449341 0 0 0 0 0.0563889 0 0 0 0.4 0"/><feBlend in2="BackgroundImageFix" result="effect1_dropShadow"/><feBlend in="SourceGraphic" in2="effect1_dropShadow" result="shape"/><feColorMatrix in="SourceAlpha" values="0 0 0 0 0 0 0 0 0 0 0 0 0 0 0 0 0 0 127 0" result="hardAlpha"/><feOffset dy="2"/><feGaussianBlur stdDeviation="12"/><feComposite in2="hardAlpha" operator="arithmetic" k2="-1" k3="1"/><feColorMatrix values="0 0 0 0 1 0 0 0 0 0.807333 0 0 0 0 0.433333 0 0 0 0.6 0"/><feBlend in2="shape" result="effect2_innerShadow"/></filter><filter id="f" x=".759" y=".38" width="73.481" height="103.886" filterUnits="userSpaceOnUse" color-interpolation-filters="sRGB"><feFlood flood-opacity="0" result="BackgroundImageFix"/><feColorMatrix in="SourceAlpha" values="0 0 0 0 0 0 0 0 0 0 0 0 0 0 0 0 0 0 127 0"/><feOffset dy="7.62"/><feGaussianBlur stdDeviation="7.62"/><feColorMatrix values="0 0 0 0 0.845833 0 0 0 0 0.449341 0 0 0 0 0.0563889 0 0 0 0.4 0"/><feBlend in2="BackgroundImageFix" result="effect1_dropShadow"/><feBlend in="SourceGraphic" in2="effect1_dropShadow" result="shape"/><feColorMatrix in="SourceAlpha" values="0 0 0 0 0 0 0 0 0 0 0 0 0 0 0 0 0 0 127 0" result="hardAlpha"/><feOffset dy="2.177"/><feGaussianBlur stdDeviation="13.063"/><feComposite in2="hardAlpha" operator="arithmetic" k2="-1" k3="1"/><feColorMatrix values="0 0 0 0 1 0 0 0 0 0.807333 0 0 0 0 0.433333 0 0 0 0.6 0"/><feBlend in2="shape" result="effect2_innerShadow"/></filter><linearGradient id="a" x1="80.5" y1="8" x2="80.5" y2="94" gradientUnits="userSpaceOnUse"><stop stop-color="#FFA800"/><stop offset="1" stop-color="#F00"/></linearGradient><linearGradient id="c" x1="88.999" y1="67.775" x2="29" y2="67.775" gradientUnits="userSpaceOnUse"><stop stop-color="#FFA800"/><stop offset="1" stop-color="#F00"/></linearGradient><linearGradient id="e" x1="16" y1="8" x2="59" y2="8" gradientUnits="userSpaceOnUse"><stop stop-color="#FFA800"/><stop offset="1" stop-color="#F00"/></linearGradient></defs></svg>