<svg width="145" height="138" viewBox="0 0 145 138" fill="none" xmlns="http://www.w3.org/2000/svg"><mask id="a" fill="#fff"><path d="M44.791 49.738l-8.095-14.021a3.647 3.647 0 0 1 1.335-4.982l22.314-12.883a3.648 3.648 0 0 1 4.983 1.334l8.095 14.021"/></mask><path d="M40.461 52.238a5 5 0 1 0 8.66-5l-8.66 5zm28.632-16.53a5 5 0 0 0 8.66-5l-8.66 5zm-19.972 11.53l-8.095-14.021-8.66 5 8.095 14.02 8.66-5zm-8.095-14.021a1.353 1.353 0 0 1-.495 1.848l-5-8.66a8.648 8.648 0 0 0-3.165 11.812l8.66-5zm-.495 1.848l22.314-12.883-5-8.66-22.314 12.883 5 8.66zm22.314-12.883a1.352 1.352 0 0 1-1.847-.496l8.66-5a8.648 8.648 0 0 0-11.813-3.164l5 8.66zm-1.847-.496l8.095 14.021 8.66-5-8.095-14.02-8.66 5z" fill="#3C3C3C" mask="url(#a)"/><path d="M127.327 70.4L50.05 115.016a3.322 3.322 0 0 1-4.539-1.216L15.773 62.292a3.323 3.323 0 0 1 1.216-4.54l77.277-44.615a3.323 3.323 0 0 1 4.54 1.216l29.738 51.509a3.323 3.323 0 0 1-1.217 4.538z" fill="url(#b)" filter="url(#c)"/><path d="M26.996 51.976l-2.863 1.653 33.061 57.264 2.863-1.653-33.061-57.264z" fill="url(#d)" opacity=".4" filter="url(#e)"/><path d="M87.123 17.261l-2.863 1.653 33.061 57.264 2.863-1.653L87.123 17.26z" fill="url(#f)" opacity=".4" filter="url(#g)"/><path d="M30.243 44.374L18.79 50.986l2.48 4.295 11.452-6.612-2.48-4.295zm57.264-33.061l-11.453 6.613 2.48 4.295 11.452-6.613-2.48-4.295z" fill="#FF4522"/><defs><filter id="c" x=".111" y="4.475" width="144.094" height="133.202" filterUnits="userSpaceOnUse" color-interpolation-filters="sRGB"><feFlood flood-opacity="0" result="BackgroundImageFix"/><feColorMatrix in="SourceAlpha" values="0 0 0 0 0 0 0 0 0 0 0 0 0 0 0 0 0 0 127 0"/><feOffset dy="7"/><feGaussianBlur stdDeviation="7"/><feColorMatrix values="0 0 0 0 0.845833 0 0 0 0 0.449341 0 0 0 0 0.0563889 0 0 0 0.4 0"/><feBlend in2="BackgroundImageFix" result="effect1_dropShadow"/><feBlend in="SourceGraphic" in2="effect1_dropShadow" result="shape"/><feColorMatrix in="SourceAlpha" values="0 0 0 0 0 0 0 0 0 0 0 0 0 0 0 0 0 0 127 0" result="hardAlpha"/><feOffset dy="2"/><feGaussianBlur stdDeviation="12"/><feComposite in2="hardAlpha" operator="arithmetic" k2="-1" k3="1"/><feColorMatrix values="0 0 0 0 1 0 0 0 0 0.807333 0 0 0 0 0.433333 0 0 0 0.6 0"/><feBlend in2="shape" result="effect2_innerShadow"/></filter><filter id="e" x="24.133" y="50.977" width="35.924" height="59.917" filterUnits="userSpaceOnUse" color-interpolation-filters="sRGB"><feFlood flood-opacity="0" result="BackgroundImageFix"/><feBlend in="SourceGraphic" in2="BackgroundImageFix" result="shape"/><feColorMatrix in="SourceAlpha" values="0 0 0 0 0 0 0 0 0 0 0 0 0 0 0 0 0 0 127 0" result="hardAlpha"/><feOffset dy="-1"/><feGaussianBlur stdDeviation=".5"/><feComposite in2="hardAlpha" operator="arithmetic" k2="-1" k3="1"/><feColorMatrix values="0 0 0 0 1 0 0 0 0 0.254902 0 0 0 0 0.129412 0 0 0 1 0"/><feBlend in2="shape" result="effect1_innerShadow"/></filter><filter id="g" x="84.26" y="16.262" width="35.924" height="59.917" filterUnits="userSpaceOnUse" color-interpolation-filters="sRGB"><feFlood flood-opacity="0" result="BackgroundImageFix"/><feBlend in="SourceGraphic" in2="BackgroundImageFix" result="shape"/><feColorMatrix in="SourceAlpha" values="0 0 0 0 0 0 0 0 0 0 0 0 0 0 0 0 0 0 127 0" result="hardAlpha"/><feOffset dy="-1"/><feGaussianBlur stdDeviation=".5"/><feComposite in2="hardAlpha" operator="arithmetic" k2="-1" k3="1"/><feColorMatrix values="0 0 0 0 1 0 0 0 0 0.254902 0 0 0 0 0.129412 0 0 0 1 0"/><feBlend in2="shape" result="effect1_innerShadow"/></filter><linearGradient id="b" x1="55.627" y1="35.445" x2="88.689" y2="92.708" gradientUnits="userSpaceOnUse"><stop stop-color="#FFA800"/><stop offset="1" stop-color="#F00"/></linearGradient><linearGradient id="d" x1="25.564" y1="52.802" x2="58.626" y2="110.066" gradientUnits="userSpaceOnUse"><stop stop-color="#fff"/><stop offset="1" stop-color="#DCFBFF"/></linearGradient><linearGradient id="f" x1="85.691" y1="18.087" x2="118.753" y2="75.351" gradientUnits="userSpaceOnUse"><stop stop-color="#fff"/><stop offset="1" stop-color="#DCFBFF"/></linearGradient></defs></svg>