<svg width="165" height="165" viewBox="0 0 165 165" fill="none" xmlns="http://www.w3.org/2000/svg"><path d="M33.744 75.711c4.417 2.577 5.315 8.579 1.847 12.336l-14.337 15.528c-4.291 4.648-6.437 6.972-6.405 8.581a4.002 4.002 0 0 0 1.973 3.371c1.388.815 4.465.082 10.618-1.385l38.08-9.076c3.762-.896 5.643-1.345 6.87-.808a4.002 4.002 0 0 1 2.223 2.496c.391 1.281-.271 3.097-1.596 6.731l-.551 1.512 50.87-23.863c.751-.36 1.495-.753 2.23-1.177 16.32-9.422 21.911-30.288 12.488-46.608-9.422-16.32-30.288-21.91-46.608-12.488-1.684.972-4.626 3.22-4.91 3.437l-.014.01-.014.012-.018.014L33.744 75.71z" fill="url(#a)" filter="url(#b)"/><path d="M114.828 36.899c-13.003-3.484-26.368 4.232-29.852 17.235-3.483 13.002 4.233 26.367 17.235 29.85 13.002 3.485 26.367-4.231 29.851-17.234 3.484-13.002-4.232-26.367-17.234-29.851z" fill="url(#c)" filter="url(#d)"/><mask id="f" maskUnits="userSpaceOnUse" x="78" y="30" width="61" height="61"><path d="M114.828 36.899c-13.003-3.484-26.368 4.232-29.852 17.235-3.483 13.002 4.233 26.367 17.235 29.85 13.002 3.485 26.367-4.231 29.851-17.234 3.484-13.002-4.232-26.367-17.234-29.851z" fill="url(#e)"/></mask><g mask="url(#f)"><circle cx="112" cy="36" r="4" fill="url(#g)" opacity=".4" filter="url(#h)"/><circle cx="87" cy="49" r="8" fill="url(#i)" opacity=".4" filter="url(#j)"/><circle cx="124" cy="54" r="4" fill="url(#k)" opacity=".4" filter="url(#l)"/><circle cx="99" cy="66" r="2" fill="url(#m)" opacity=".4" filter="url(#n)"/><circle cx="119" cy="73" r="3" fill="url(#o)" opacity=".4" filter="url(#p)"/></g><defs><filter id="b" x=".044" y=".482" width="164.251" height="164.172" filterUnits="userSpaceOnUse" color-interpolation-filters="sRGB"><feFlood flood-opacity="0" result="BackgroundImageFix"/><feColorMatrix in="SourceAlpha" values="0 0 0 0 0 0 0 0 0 0 0 0 0 0 0 0 0 0 127 0"/><feOffset dy="7"/><feGaussianBlur stdDeviation="7"/><feColorMatrix values="0 0 0 0 0.845833 0 0 0 0 0.449341 0 0 0 0 0.0563889 0 0 0 0.4 0"/><feBlend in2="BackgroundImageFix" result="effect1_dropShadow"/><feBlend in="SourceGraphic" in2="effect1_dropShadow" result="shape"/><feColorMatrix in="SourceAlpha" values="0 0 0 0 0 0 0 0 0 0 0 0 0 0 0 0 0 0 127 0" result="hardAlpha"/><feOffset dy="2"/><feGaussianBlur stdDeviation="12"/><feComposite in2="hardAlpha" operator="arithmetic" k2="-1" k3="1"/><feColorMatrix values="0 0 0 0 1 0 0 0 0 0.807333 0 0 0 0 0.433333 0 0 0 0.6 0"/><feBlend in2="shape" result="effect2_innerShadow"/></filter><filter id="d" x="64.668" y="23.59" width="87.702" height="87.702" filterUnits="userSpaceOnUse" color-interpolation-filters="sRGB"><feFlood flood-opacity="0" result="BackgroundImageFix"/><feColorMatrix in="SourceAlpha" values="0 0 0 0 0 0 0 0 0 0 0 0 0 0 0 0 0 0 127 0"/><feOffset dy="7"/><feGaussianBlur stdDeviation="7"/><feColorMatrix values="0 0 0 0 0.845833 0 0 0 0 0.449341 0 0 0 0 0.0563889 0 0 0 0.4 0"/><feBlend in2="BackgroundImageFix" result="effect1_dropShadow"/><feBlend in="SourceGraphic" in2="effect1_dropShadow" result="shape"/><feColorMatrix in="SourceAlpha" values="0 0 0 0 0 0 0 0 0 0 0 0 0 0 0 0 0 0 127 0" result="hardAlpha"/><feOffset dy="2"/><feGaussianBlur stdDeviation="12"/><feComposite in2="hardAlpha" operator="arithmetic" k2="-1" k3="1"/><feColorMatrix values="0 0 0 0 0.920667 0 0 0 0 1 0 0 0 0 0.433333 0 0 0 0.6 0"/><feBlend in2="shape" result="effect2_innerShadow"/></filter><filter id="h" x="108" y="31" width="8" height="9" filterUnits="userSpaceOnUse" color-interpolation-filters="sRGB"><feFlood flood-opacity="0" result="BackgroundImageFix"/><feBlend in="SourceGraphic" in2="BackgroundImageFix" result="shape"/><feColorMatrix in="SourceAlpha" values="0 0 0 0 0 0 0 0 0 0 0 0 0 0 0 0 0 0 127 0" result="hardAlpha"/><feOffset dy="-1"/><feGaussianBlur stdDeviation=".5"/><feComposite in2="hardAlpha" operator="arithmetic" k2="-1" k3="1"/><feColorMatrix values="0 0 0 0 1 0 0 0 0 0.254902 0 0 0 0 0.129412 0 0 0 1 0"/><feBlend in2="shape" result="effect1_innerShadow"/></filter><filter id="j" x="79" y="40" width="16" height="17" filterUnits="userSpaceOnUse" color-interpolation-filters="sRGB"><feFlood flood-opacity="0" result="BackgroundImageFix"/><feBlend in="SourceGraphic" in2="BackgroundImageFix" result="shape"/><feColorMatrix in="SourceAlpha" values="0 0 0 0 0 0 0 0 0 0 0 0 0 0 0 0 0 0 127 0" result="hardAlpha"/><feOffset dy="-1"/><feGaussianBlur stdDeviation=".5"/><feComposite in2="hardAlpha" operator="arithmetic" k2="-1" k3="1"/><feColorMatrix values="0 0 0 0 1 0 0 0 0 0.254902 0 0 0 0 0.129412 0 0 0 1 0"/><feBlend in2="shape" result="effect1_innerShadow"/></filter><filter id="l" x="120" y="49" width="8" height="9" filterUnits="userSpaceOnUse" color-interpolation-filters="sRGB"><feFlood flood-opacity="0" result="BackgroundImageFix"/><feBlend in="SourceGraphic" in2="BackgroundImageFix" result="shape"/><feColorMatrix in="SourceAlpha" values="0 0 0 0 0 0 0 0 0 0 0 0 0 0 0 0 0 0 127 0" result="hardAlpha"/><feOffset dy="-1"/><feGaussianBlur stdDeviation=".5"/><feComposite in2="hardAlpha" operator="arithmetic" k2="-1" k3="1"/><feColorMatrix values="0 0 0 0 1 0 0 0 0 0.254902 0 0 0 0 0.129412 0 0 0 1 0"/><feBlend in2="shape" result="effect1_innerShadow"/></filter><filter id="n" x="97" y="63" width="4" height="5" filterUnits="userSpaceOnUse" color-interpolation-filters="sRGB"><feFlood flood-opacity="0" result="BackgroundImageFix"/><feBlend in="SourceGraphic" in2="BackgroundImageFix" result="shape"/><feColorMatrix in="SourceAlpha" values="0 0 0 0 0 0 0 0 0 0 0 0 0 0 0 0 0 0 127 0" result="hardAlpha"/><feOffset dy="-1"/><feGaussianBlur stdDeviation=".5"/><feComposite in2="hardAlpha" operator="arithmetic" k2="-1" k3="1"/><feColorMatrix values="0 0 0 0 1 0 0 0 0 0.254902 0 0 0 0 0.129412 0 0 0 1 0"/><feBlend in2="shape" result="effect1_innerShadow"/></filter><filter id="p" x="116" y="69" width="6" height="7" filterUnits="userSpaceOnUse" color-interpolation-filters="sRGB"><feFlood flood-opacity="0" result="BackgroundImageFix"/><feBlend in="SourceGraphic" in2="BackgroundImageFix" result="shape"/><feColorMatrix in="SourceAlpha" values="0 0 0 0 0 0 0 0 0 0 0 0 0 0 0 0 0 0 127 0" result="hardAlpha"/><feOffset dy="-1"/><feGaussianBlur stdDeviation=".5"/><feComposite in2="hardAlpha" operator="arithmetic" k2="-1" k3="1"/><feColorMatrix values="0 0 0 0 1 0 0 0 0 0.254902 0 0 0 0 0.129412 0 0 0 1 0"/><feBlend in2="shape" result="effect1_innerShadow"/></filter><linearGradient id="a" x1="63.507" y1="134.154" x2="93.788" y2="21.142" gradientUnits="userSpaceOnUse"><stop stop-color="#FFA800"/><stop offset="1" stop-color="#F00"/></linearGradient><linearGradient id="c" x1="102.211" y1="83.985" x2="114.828" y2="36.899" gradientUnits="userSpaceOnUse"><stop stop-color="#F90"/><stop offset="1" stop-color="#FF6B00"/></linearGradient><linearGradient id="e" x1="102.211" y1="83.985" x2="114.828" y2="36.899" gradientUnits="userSpaceOnUse"><stop stop-color="#FFD600"/><stop offset="1" stop-color="#FF6B00"/></linearGradient><linearGradient id="g" x1="112" y1="32" x2="112" y2="40" gradientUnits="userSpaceOnUse"><stop stop-color="#fff"/><stop offset="1" stop-color="#DCFBFF"/></linearGradient><linearGradient id="i" x1="87" y1="41" x2="87" y2="57" gradientUnits="userSpaceOnUse"><stop stop-color="#fff"/><stop offset="1" stop-color="#DCFBFF"/></linearGradient><linearGradient id="k" x1="124" y1="50" x2="124" y2="58" gradientUnits="userSpaceOnUse"><stop stop-color="#fff"/><stop offset="1" stop-color="#DCFBFF"/></linearGradient><linearGradient id="m" x1="99" y1="64" x2="99" y2="68" gradientUnits="userSpaceOnUse"><stop stop-color="#fff"/><stop offset="1" stop-color="#DCFBFF"/></linearGradient><linearGradient id="o" x1="119" y1="70" x2="119" y2="76" gradientUnits="userSpaceOnUse"><stop stop-color="#fff"/><stop offset="1" stop-color="#DCFBFF"/></linearGradient></defs></svg>